<?xml version="1.0" encoding="UTF-8"?> <svg xmlns="http://www.w3.org/2000/svg" id="Layer_1" data-name="Layer 1" viewBox="0 0 1724.7 666.2"><defs><style>.cls-1{isolation:isolate;}.cls-2{fill:#b2b2b2;}.cls-3{fill:#fecb00;}.cls-4{fill:#b9cae8;}.cls-5{fill:#b8a100;}.cls-6{fill:#00bd56;}</style></defs><g class="cls-1"><path d="M10.59,43.79V11a.32.32,0,0,1,.37-.37h7.71A.33.33,0,0,1,19,11v2.35a.33.33,0,0,1-.37.36H14.26c-.1,0-.14.05-.14.15V41c0,.1,0,.14.14.14h4.45a.33.33,0,0,1,.36.37v2.32a.32.32,0,0,1-.36.36H11A.32.32,0,0,1,10.59,43.79Z"></path><path d="M25.83,39V14a.33.33,0,0,1,.37-.37H29a.33.33,0,0,1,.36.37V25.76a.09.09,0,0,0,.08.09c.05,0,.08,0,.11-.06L40,13.9a.49.49,0,0,1,.44-.23h3.19a.33.33,0,0,1,.3.13c.05.09,0,.19-.07.32L35.16,24.43a.28.28,0,0,0,0,.22l9.36,14.29a.53.53,0,0,1,.07.22c0,.15-.1.22-.29.22H41.1a.56.56,0,0,1-.44-.22l-7.93-12a.11.11,0,0,0-.11-.07.18.18,0,0,0-.11,0l-3.08,3.46a.68.68,0,0,0-.08.18V39a.32.32,0,0,1-.36.37H26.2A.32.32,0,0,1,25.83,39Z"></path></g><g class="cls-1"><path d="M53.14,39.08l-6.9-25,0-.11c0-.2.13-.3.37-.3h3A.39.39,0,0,1,50,14l4.81,18.28c0,.05.05.08.09.08s.07,0,.09-.08L59.5,14a.38.38,0,0,1,.4-.34h2.9a.38.38,0,0,1,.4.34L68,32.33c0,.05,0,.07.08.07s0,0,.07-.07L73,14a.38.38,0,0,1,.4-.34H76.2a.32.32,0,0,1,.28.12.31.31,0,0,1,0,.29l-6.64,25a.38.38,0,0,1-.41.33H66.66a.38.38,0,0,1-.41-.33L61.44,20.1c0-.07,0-.11-.07-.11s0,0-.08.11L56.63,39.05c0,.22-.16.33-.4.33H53.55A.38.38,0,0,1,53.14,39.08Z"></path><path d="M89.39,44.15H81.64a.32.32,0,0,1-.37-.36V41.47a.33.33,0,0,1,.37-.37h4.44c.1,0,.15,0,.15-.14V13.82a.13.13,0,0,0-.15-.15H81.64a.32.32,0,0,1-.37-.36V11a.32.32,0,0,1,.37-.37h7.75a.32.32,0,0,1,.36.37V43.79A.32.32,0,0,1,89.39,44.15Z"></path></g><g class="cls-1"><path d="M1065.83,43.79V11a.32.32,0,0,1,.36-.37h7.71a.32.32,0,0,1,.37.37v2.35a.32.32,0,0,1-.37.36h-4.4a.13.13,0,0,0-.15.15V41c0,.1.05.14.15.14h4.44a.33.33,0,0,1,.37.37v2.32a.33.33,0,0,1-.37.36h-7.75A.32.32,0,0,1,1065.83,43.79Z"></path><path d="M1081.82,23.48a5.45,5.45,0,0,1-2-2,5.35,5.35,0,0,1-.73-2.76,5.22,5.22,0,0,1,.73-2.71,5.28,5.28,0,0,1,2-2,5.48,5.48,0,0,1,2.77-.72,5.29,5.29,0,0,1,2.72.74,5.55,5.55,0,0,1,2,2,5.16,5.16,0,0,1,.73,2.7,5.35,5.35,0,0,1-.73,2.76,5.53,5.53,0,0,1-2,2,5.28,5.28,0,0,1-2.72.73A5.39,5.39,0,0,1,1081.82,23.48Zm5-2.39a3.25,3.25,0,0,0,.91-2.35,3.12,3.12,0,0,0-.93-2.29,3.07,3.07,0,0,0-2.26-.94,3.18,3.18,0,0,0-2.32.94,3.1,3.1,0,0,0-1,2.29,3.2,3.2,0,0,0,1,2.35,3.16,3.16,0,0,0,2.32,1A3.05,3.05,0,0,0,1086.87,21.09Zm-3.64,18.16a.28.28,0,0,1,0-.31l13.88-25a.47.47,0,0,1,.44-.26h1.8a.32.32,0,0,1,.29.13.3.3,0,0,1,0,.32l-13.88,25a.43.43,0,0,1-.44.26h-1.8A.3.3,0,0,1,1083.23,39.25Zm12.58-.28a5.38,5.38,0,0,1-2-2,5.41,5.41,0,0,1,0-5.43,5.48,5.48,0,0,1,2-2,5.39,5.39,0,0,1,2.77-.73,5.28,5.28,0,0,1,2.72.73,5.55,5.55,0,0,1,2,2,5.41,5.41,0,0,1,0,5.43,5.45,5.45,0,0,1-2,2,5.29,5.29,0,0,1-2.72.74A5.39,5.39,0,0,1,1095.81,39Zm5-2.38a3.37,3.37,0,0,0,0-4.63,3.08,3.08,0,0,0-2.26-.95,3.27,3.27,0,1,0,0,6.53A3.08,3.08,0,0,0,1100.86,36.59Z"></path></g><g class="cls-1"><path d="M1112.37,38.79a7.15,7.15,0,0,1-3.19-2.5,6.41,6.41,0,0,1-1.12-3.78V31.45a.32.32,0,0,1,.36-.37h2.69a.32.32,0,0,1,.36.37v.88a3.68,3.68,0,0,0,1.62,3.08,7.25,7.25,0,0,0,4.44,1.21,5.88,5.88,0,0,0,3.82-1.06,3.44,3.44,0,0,0,1.29-2.79,2.94,2.94,0,0,0-.67-2,6.38,6.38,0,0,0-1.92-1.48,37,37,0,0,0-3.69-1.64,36.63,36.63,0,0,1-4.24-1.87,7.64,7.64,0,0,1-2.59-2.22,5.63,5.63,0,0,1-1-3.47,6,6,0,0,1,2.26-5,9.52,9.52,0,0,1,6.11-1.8,11.63,11.63,0,0,1,4.77.92,7.37,7.37,0,0,1,3.18,2.57,6.61,6.61,0,0,1,1.12,3.82v.73a.32.32,0,0,1-.37.37h-2.75a.32.32,0,0,1-.37-.37v-.55a4,4,0,0,0-1.52-3.17,6.37,6.37,0,0,0-4.21-1.27,5.73,5.73,0,0,0-3.52.94,3.16,3.16,0,0,0-1.25,2.69,3.11,3.11,0,0,0,.62,2,5.48,5.48,0,0,0,1.86,1.37c.82.41,2.07.93,3.76,1.56a41.71,41.71,0,0,1,4.23,1.9,8.08,8.08,0,0,1,2.68,2.27,5.65,5.65,0,0,1,1.06,3.51,6.21,6.21,0,0,1-2.37,5.12,10.18,10.18,0,0,1-6.52,1.89A12.43,12.43,0,0,1,1112.37,38.79Z"></path><path d="M1134.57,38.61a7.83,7.83,0,0,1-3.19-3.11,9.12,9.12,0,0,1-1.14-4.6V22.16a9,9,0,0,1,1.14-4.59,7.91,7.91,0,0,1,3.19-3.09,10.83,10.83,0,0,1,9.51,0,7.91,7.91,0,0,1,3.19,3.09,9,9,0,0,1,1.14,4.59V30.9a9.12,9.12,0,0,1-1.14,4.6,7.83,7.83,0,0,1-3.19,3.11,10.83,10.83,0,0,1-9.51,0Zm8.78-3.49a5.55,5.55,0,0,0,1.54-4.08V22.12a5.66,5.66,0,0,0-1.54-4.13,5.44,5.44,0,0,0-4-1.56,5.35,5.35,0,0,0-4,1.56,5.65,5.65,0,0,0-1.53,4.13V31a5.55,5.55,0,0,0,1.53,4.08,5.37,5.37,0,0,0,4,1.54A5.47,5.47,0,0,0,1143.35,35.12Z"></path></g><g class="cls-1"><path d="M1157,38.66a7.62,7.62,0,0,1-3.16-3,8.73,8.73,0,0,1-1.11-4.43V21.75a8.49,8.49,0,0,1,1.11-4.38,7.55,7.55,0,0,1,3.16-2.94,10.08,10.08,0,0,1,4.68-1,10.35,10.35,0,0,1,4.67,1,7.54,7.54,0,0,1,3.14,2.85,8.06,8.06,0,0,1,1.12,4.26v0a.42.42,0,0,1-.11.3.38.38,0,0,1-.26.11l-2.79.14c-.24,0-.37-.11-.37-.33v-.11a5.05,5.05,0,0,0-1.47-3.78,5.41,5.41,0,0,0-3.93-1.43,5.47,5.47,0,0,0-3.94,1.43,5,5,0,0,0-1.49,3.78v9.77a5,5,0,0,0,1.49,3.78,5.42,5.42,0,0,0,3.94,1.43,5.37,5.37,0,0,0,3.93-1.43,5,5,0,0,0,1.47-3.78v-.07c0-.22.13-.33.37-.33l2.79.14a.33.33,0,0,1,.37.37,8.18,8.18,0,0,1-1.12,4.28,7.61,7.61,0,0,1-3.14,2.88,11,11,0,0,1-9.35,0Z"></path><path d="M1182.57,44.15h-7.75a.33.33,0,0,1-.37-.36V41.47a.33.33,0,0,1,.37-.37h4.44c.1,0,.15,0,.15-.14V13.82a.13.13,0,0,0-.15-.15h-4.44a.33.33,0,0,1-.37-.36V11a.33.33,0,0,1,.37-.37h7.75a.33.33,0,0,1,.37.37V43.79A.33.33,0,0,1,1182.57,44.15Z"></path></g><g class="cls-1"><path class="cls-2" d="M76.57,654.75a3.28,3.28,0,0,1-.94-2.45v-4.68a3.23,3.23,0,0,1,.94-2.43,4,4,0,0,1,5.09,0,3.17,3.17,0,0,1,1,2.43v4.68a3.22,3.22,0,0,1-1,2.45,4,4,0,0,1-5.09,0Zm4-.94a1.91,1.91,0,0,0,.53-1.41v-4.84a2,2,0,0,0-.53-1.42,2,2,0,0,0-1.46-.52,1.94,1.94,0,0,0-1.42.52,1.91,1.91,0,0,0-.54,1.42v4.84a1.88,1.88,0,0,0,.54,1.41,1.91,1.91,0,0,0,1.42.53A2,2,0,0,0,80.57,653.81Z"></path><path class="cls-2" d="M85.52,654.75a3.24,3.24,0,0,1-.94-2.45v-4.68a3.19,3.19,0,0,1,.94-2.43,3.52,3.52,0,0,1,2.54-.9,3.58,3.58,0,0,1,2.55.9,3.17,3.17,0,0,1,1,2.43v4.68a3.22,3.22,0,0,1-1,2.45,3.58,3.58,0,0,1-2.55.9A3.52,3.52,0,0,1,85.52,654.75Zm4-.94a1.88,1.88,0,0,0,.54-1.41v-4.84a1.91,1.91,0,0,0-.54-1.42,2,2,0,0,0-1.45-.52,1.83,1.83,0,0,0-2,1.94v4.84a1.84,1.84,0,0,0,2,1.94A1.93,1.93,0,0,0,89.51,653.81Z"></path></g><g class="cls-1"><path class="cls-2" d="M93.63,649.77a1.05,1.05,0,1,1,.73.29A1,1,0,0,1,93.63,649.77Zm0,5.27a1,1,0,0,1-.29-.73,1,1,0,0,1,.29-.73,1.08,1.08,0,0,1,1.45,0,1,1,0,0,1,.29.73,1,1,0,0,1-.29.73,1.08,1.08,0,0,1-1.45,0Z"></path><path class="cls-2" d="M99.06,654.75a3.24,3.24,0,0,1-.94-2.45v-4.68a3.19,3.19,0,0,1,.94-2.43,3.52,3.52,0,0,1,2.54-.9,3.58,3.58,0,0,1,2.55.9,3.17,3.17,0,0,1,1,2.43v4.68a3.22,3.22,0,0,1-1,2.45,3.58,3.58,0,0,1-2.55.9A3.52,3.52,0,0,1,99.06,654.75Zm4-.94a1.88,1.88,0,0,0,.54-1.41v-4.84a1.91,1.91,0,0,0-.54-1.42,2.25,2.25,0,0,0-2.88,0,2,2,0,0,0-.53,1.42v4.84a1.91,1.91,0,0,0,.53,1.41,2.22,2.22,0,0,0,2.88,0Z"></path></g><g class="cls-1"><path class="cls-2" d="M107.07,654.75a3.25,3.25,0,0,1-.95-2.45v-4.68a3.2,3.2,0,0,1,.95-2.43,3.49,3.49,0,0,1,2.53-.9,3.59,3.59,0,0,1,2.56.9,3.2,3.2,0,0,1,1,2.43v4.68a3.25,3.25,0,0,1-1,2.45,3.59,3.59,0,0,1-2.56.9A3.49,3.49,0,0,1,107.07,654.75Zm4-.94a1.88,1.88,0,0,0,.54-1.41v-4.84a1.91,1.91,0,0,0-.54-1.42,2,2,0,0,0-1.46-.52,1.94,1.94,0,0,0-1.42.52,1.91,1.91,0,0,0-.54,1.42v4.84a1.88,1.88,0,0,0,.54,1.41,1.91,1.91,0,0,0,1.42.53A2,2,0,0,0,111.06,653.81Z"></path><path class="cls-2" d="M122.34,654.75a3.24,3.24,0,0,1-.94-2.45v-4.68a3.19,3.19,0,0,1,.94-2.43,3.5,3.5,0,0,1,2.54-.9,3.58,3.58,0,0,1,2.55.9,3.17,3.17,0,0,1,1,2.43v4.68a3.22,3.22,0,0,1-1,2.45,3.58,3.58,0,0,1-2.55.9A3.5,3.5,0,0,1,122.34,654.75Zm4-.94a1.88,1.88,0,0,0,.54-1.41v-4.84a1.91,1.91,0,0,0-.54-1.42,2.25,2.25,0,0,0-2.88,0,1.91,1.91,0,0,0-.53,1.42v4.84a1.87,1.87,0,0,0,.53,1.41,2.22,2.22,0,0,0,2.88,0Z"></path><path class="cls-2" d="M131.91,644.43h1.25a.14.14,0,0,1,.16.16v10.75a.14.14,0,0,1-.16.16H132a.14.14,0,0,1-.16-.16v-9.28a.08.08,0,0,0,0,0h-.06l-1.66.57H130c-.06,0-.1,0-.11-.12l-.06-.9c0-.11,0-.17.09-.19l1.81-.9A.46.46,0,0,1,131.91,644.43Z"></path></g><g class="cls-1"><path class="cls-2" d="M134.61,649.77a1.08,1.08,0,0,1,0-1.45,1,1,0,0,1,.73-.29,1,1,0,0,1,1,1,1,1,0,0,1-.28.72,1,1,0,0,1-.73.29A1,1,0,0,1,134.61,649.77Zm0,5.27a1,1,0,0,1-.28-.73,1,1,0,0,1,1-1,1,1,0,0,1,.73.28,1,1,0,0,1,.28.73,1,1,0,0,1-1,1A1,1,0,0,1,134.61,655Z"></path><path class="cls-2" d="M140,654.75a3.28,3.28,0,0,1-.94-2.45v-4.68a3.23,3.23,0,0,1,.94-2.43,4,4,0,0,1,5.09,0,3.17,3.17,0,0,1,1,2.43v4.68a3.22,3.22,0,0,1-1,2.45,4,4,0,0,1-5.09,0Zm4-.94a1.91,1.91,0,0,0,.53-1.41v-4.84a2,2,0,0,0-.53-1.42,2,2,0,0,0-1.46-.52,1.94,1.94,0,0,0-1.42.52,1.91,1.91,0,0,0-.54,1.42v4.84a1.88,1.88,0,0,0,.54,1.41,1.91,1.91,0,0,0,1.42.53A2,2,0,0,0,144,653.81Z"></path></g><g class="cls-1"><path class="cls-2" d="M148.05,654.75a3.24,3.24,0,0,1-.94-2.45v-4.68a3.19,3.19,0,0,1,.94-2.43,3.52,3.52,0,0,1,2.54-.9,3.58,3.58,0,0,1,2.55.9,3.17,3.17,0,0,1,1,2.43v4.68a3.22,3.22,0,0,1-1,2.45,3.58,3.58,0,0,1-2.55.9A3.52,3.52,0,0,1,148.05,654.75Zm4-.94a1.88,1.88,0,0,0,.54-1.41v-4.84a1.91,1.91,0,0,0-.54-1.42,2.25,2.25,0,0,0-2.88,0,2,2,0,0,0-.53,1.42v4.84a1.91,1.91,0,0,0,.53,1.41,2.22,2.22,0,0,0,2.88,0Z"></path><path class="cls-2" d="M163.32,654.75a3.28,3.28,0,0,1-.94-2.45v-4.68a3.23,3.23,0,0,1,.94-2.43,3.52,3.52,0,0,1,2.54-.9,3.56,3.56,0,0,1,2.55.9,3.17,3.17,0,0,1,1,2.43v4.68a3.22,3.22,0,0,1-1,2.45,3.56,3.56,0,0,1-2.55.9A3.52,3.52,0,0,1,163.32,654.75Zm4-.94a1.88,1.88,0,0,0,.54-1.41v-4.84a1.91,1.91,0,0,0-.54-1.42,2,2,0,0,0-1.45-.52,1.83,1.83,0,0,0-2,1.94v4.84a1.84,1.84,0,0,0,2,1.94A1.93,1.93,0,0,0,167.31,653.81Z"></path><path class="cls-2" d="M173.18,654.16s0,0,0,0H178a.14.14,0,0,1,.15.16v1a.14.14,0,0,1-.15.16h-6.63a.15.15,0,0,1-.16-.16v-1a.29.29,0,0,1,.08-.19c.36-.41,1.18-1.37,2.47-2.89l1.09-1.31a5.08,5.08,0,0,0,1.47-2.72,1.53,1.53,0,0,0-.5-1.19,1.84,1.84,0,0,0-1.32-.45,1.86,1.86,0,0,0-1.31.45,1.49,1.49,0,0,0-.47,1.2v.48a.15.15,0,0,1-.16.16h-1.22a.14.14,0,0,1-.16-.16v-.68a2.66,2.66,0,0,1,.47-1.45,2.78,2.78,0,0,1,1.18-1,4,4,0,0,1,1.67-.34,3.91,3.91,0,0,1,1.77.38,2.77,2.77,0,0,1,1.58,2.55,5.33,5.33,0,0,1-1.42,3.1c-.42.53-.92,1.14-1.5,1.81s-1.16,1.32-1.74,2A.06.06,0,0,0,173.18,654.16Z"></path></g><g class="cls-1"><path class="cls-2" d="M178.93,649.77a1.05,1.05,0,1,1,.72.29A1,1,0,0,1,178.93,649.77Zm0,5.27a1,1,0,0,1-.29-.73,1,1,0,0,1,.29-.73,1.08,1.08,0,0,1,1.45,0,1,1,0,0,1,.28.73,1,1,0,0,1-1.73.73Z"></path><path class="cls-2" d="M184.36,654.75a3.24,3.24,0,0,1-.94-2.45v-4.68a3.19,3.19,0,0,1,.94-2.43,3.49,3.49,0,0,1,2.53-.9,3.59,3.59,0,0,1,2.56.9,3.2,3.2,0,0,1,1,2.43v4.68a3.25,3.25,0,0,1-1,2.45,3.59,3.59,0,0,1-2.56.9A3.49,3.49,0,0,1,184.36,654.75Zm4-.94a1.88,1.88,0,0,0,.54-1.41v-4.84a1.91,1.91,0,0,0-.54-1.42,2,2,0,0,0-1.46-.52,1.94,1.94,0,0,0-1.42.52,1.91,1.91,0,0,0-.54,1.42v4.84a1.88,1.88,0,0,0,.54,1.41,1.91,1.91,0,0,0,1.42.53A2,2,0,0,0,188.35,653.81Z"></path></g><g class="cls-1"><path class="cls-2" d="M192.36,654.75a3.28,3.28,0,0,1-.94-2.45v-4.68a3.23,3.23,0,0,1,.94-2.43,3.52,3.52,0,0,1,2.54-.9,3.56,3.56,0,0,1,2.55.9,3.17,3.17,0,0,1,1,2.43v4.68a3.22,3.22,0,0,1-1,2.45,3.56,3.56,0,0,1-2.55.9A3.52,3.52,0,0,1,192.36,654.75Zm4-.94a1.88,1.88,0,0,0,.54-1.41v-4.84a1.91,1.91,0,0,0-.54-1.42,2,2,0,0,0-1.45-.52,1.83,1.83,0,0,0-2,1.94v4.84a1.84,1.84,0,0,0,2,1.94A1.93,1.93,0,0,0,196.35,653.81Z"></path><path class="cls-2" d="M207.63,654.75a3.28,3.28,0,0,1-.94-2.45v-4.68a3.23,3.23,0,0,1,.94-2.43,3.54,3.54,0,0,1,2.54-.9,3.59,3.59,0,0,1,2.56.9,3.2,3.2,0,0,1,1,2.43v4.68a3.25,3.25,0,0,1-1,2.45,3.59,3.59,0,0,1-2.56.9A3.54,3.54,0,0,1,207.63,654.75Zm4-.94a1.91,1.91,0,0,0,.53-1.41v-4.84a2,2,0,0,0-.53-1.42,2,2,0,0,0-1.46-.52,1.94,1.94,0,0,0-1.42.52,1.91,1.91,0,0,0-.54,1.42v4.84a1.88,1.88,0,0,0,.54,1.41,1.91,1.91,0,0,0,1.42.53A2,2,0,0,0,211.63,653.81Z"></path><path class="cls-2" d="M222.05,652a4.54,4.54,0,0,1-.26,1.55,2.84,2.84,0,0,1-1.15,1.51,3.43,3.43,0,0,1-1.95.53,3.29,3.29,0,0,1-2-.58,3.05,3.05,0,0,1-1.17-1.58,4.26,4.26,0,0,1-.2-1.27.14.14,0,0,1,.16-.16h1.21a.14.14,0,0,1,.16.16,2.94,2.94,0,0,0,.13.84,1.65,1.65,0,0,0,1.67,1.28,1.59,1.59,0,0,0,1.62-1.09,3.29,3.29,0,0,0,.2-1.23,3.81,3.81,0,0,0-.25-1.44,1.58,1.58,0,0,0-1.58-1,1.51,1.51,0,0,0-.68.23.19.19,0,0,1-.1,0,.14.14,0,0,1-.12-.08l-.6-.83a.17.17,0,0,1,0-.11.25.25,0,0,1,.05-.11l2.71-2.89c0-.05,0-.08,0-.08h-4.2a.14.14,0,0,1-.16-.16v-1a.14.14,0,0,1,.16-.16h6.13a.14.14,0,0,1,.16.16v1.14a.41.41,0,0,1-.08.19l-2.4,2.62s0,0,0,.05,0,0,.07,0a2.72,2.72,0,0,1,1.36.5,2.76,2.76,0,0,1,.85,1.12A4.67,4.67,0,0,1,222.05,652Z"></path></g><g class="cls-1"><path class="cls-2" d="M222.76,649.77a1.08,1.08,0,0,1,0-1.45,1,1,0,0,1,.73-.29,1,1,0,0,1,.73.29,1.08,1.08,0,0,1,0,1.45,1,1,0,0,1-.73.29A1,1,0,0,1,222.76,649.77Zm0,5.27a1,1,0,0,1-.28-.73,1,1,0,0,1,.28-.73,1,1,0,0,1,.73-.28,1,1,0,0,1,1,1,1,1,0,0,1-.28.73,1,1,0,0,1-.73.28A1,1,0,0,1,222.76,655Z"></path><path class="cls-2" d="M228.19,654.75a3.28,3.28,0,0,1-.94-2.45v-4.68a3.23,3.23,0,0,1,.94-2.43,4,4,0,0,1,5.09,0,3.17,3.17,0,0,1,1,2.43v4.68a3.22,3.22,0,0,1-1,2.45,4,4,0,0,1-5.09,0Zm4-.94a1.88,1.88,0,0,0,.54-1.41v-4.84a1.91,1.91,0,0,0-.54-1.42,2,2,0,0,0-1.45-.52,1.94,1.94,0,0,0-1.42.52,1.91,1.91,0,0,0-.54,1.42v4.84a1.88,1.88,0,0,0,.54,1.41,1.91,1.91,0,0,0,1.42.53A1.93,1.93,0,0,0,232.18,653.81Z"></path></g><g class="cls-1"><path class="cls-2" d="M236.21,654.75a3.24,3.24,0,0,1-.94-2.45v-4.68a3.19,3.19,0,0,1,.94-2.43,3.49,3.49,0,0,1,2.53-.9,3.59,3.59,0,0,1,2.56.9,3.2,3.2,0,0,1,.95,2.43v4.68a3.25,3.25,0,0,1-.95,2.45,3.59,3.59,0,0,1-2.56.9A3.49,3.49,0,0,1,236.21,654.75Zm4-.94a1.88,1.88,0,0,0,.54-1.41v-4.84a1.91,1.91,0,0,0-.54-1.42,2,2,0,0,0-1.46-.52,1.94,1.94,0,0,0-1.42.52,1.91,1.91,0,0,0-.54,1.42v4.84a1.88,1.88,0,0,0,.54,1.41,1.91,1.91,0,0,0,1.42.53A2,2,0,0,0,240.2,653.81Z"></path><path class="cls-2" d="M251.48,654.75a3.24,3.24,0,0,1-.94-2.45v-4.68a3.19,3.19,0,0,1,.94-2.43,3.52,3.52,0,0,1,2.54-.9,3.58,3.58,0,0,1,2.55.9,3.17,3.17,0,0,1,1,2.43v4.68a3.22,3.22,0,0,1-1,2.45,3.58,3.58,0,0,1-2.55.9A3.52,3.52,0,0,1,251.48,654.75Zm4-.94a1.88,1.88,0,0,0,.54-1.41v-4.84a1.91,1.91,0,0,0-.54-1.42,2.25,2.25,0,0,0-2.88,0,1.91,1.91,0,0,0-.53,1.42v4.84a1.87,1.87,0,0,0,.53,1.41,2.22,2.22,0,0,0,2.88,0Z"></path><path class="cls-2" d="M266.63,651.32v1c0,.1-.05.15-.16.15h-.68s-.06,0-.06.07v2.75a.14.14,0,0,1-.16.16h-1.2a.15.15,0,0,1-.16-.16v-2.75c0-.05,0-.07-.06-.07h-4.81a.13.13,0,0,1-.15-.15v-.86a.54.54,0,0,1,0-.19l3.12-6.78a.18.18,0,0,1,.17-.11h1.27a.13.13,0,0,1,.11.05.14.14,0,0,1,0,.14l-3,6.46a.06.06,0,0,0,0,.06s0,0,.05,0h3.16a.05.05,0,0,0,.06-.06v-2.35a.14.14,0,0,1,.16-.16h1.2a.14.14,0,0,1,.16.16v2.35a.05.05,0,0,0,.06.06h.68A.14.14,0,0,1,266.63,651.32Z"></path></g><g class="cls-1"><path class="cls-2" d="M267.11,649.77a1.05,1.05,0,0,1,0-1.45,1,1,0,0,1,.72-.29,1,1,0,0,1,1,1,1,1,0,0,1-.28.72,1,1,0,0,1-.73.29A1,1,0,0,1,267.11,649.77Zm0,5.27a1,1,0,0,1-.29-.73,1,1,0,0,1,.29-.73,1,1,0,0,1,.72-.28,1,1,0,0,1,.73.28,1,1,0,0,1,.28.73,1,1,0,0,1-1,1A1,1,0,0,1,267.11,655Z"></path><path class="cls-2" d="M272.54,654.75a3.24,3.24,0,0,1-.94-2.45v-4.68a3.19,3.19,0,0,1,.94-2.43,3.49,3.49,0,0,1,2.53-.9,3.59,3.59,0,0,1,2.56.9,3.2,3.2,0,0,1,.95,2.43v4.68a3.25,3.25,0,0,1-.95,2.45,3.59,3.59,0,0,1-2.56.9A3.49,3.49,0,0,1,272.54,654.75Zm4-.94a1.88,1.88,0,0,0,.54-1.41v-4.84a1.91,1.91,0,0,0-.54-1.42,2,2,0,0,0-1.46-.52,1.94,1.94,0,0,0-1.42.52,1.91,1.91,0,0,0-.54,1.42v4.84a1.88,1.88,0,0,0,.54,1.41,1.91,1.91,0,0,0,1.42.53A2,2,0,0,0,276.53,653.81Z"></path></g><g class="cls-1"><path class="cls-2" d="M280.54,654.75a3.28,3.28,0,0,1-.94-2.45v-4.68a3.23,3.23,0,0,1,.94-2.43,3.52,3.52,0,0,1,2.54-.9,3.56,3.56,0,0,1,2.55.9,3.17,3.17,0,0,1,1,2.43v4.68a3.22,3.22,0,0,1-1,2.45,3.56,3.56,0,0,1-2.55.9A3.52,3.52,0,0,1,280.54,654.75Zm4-.94a1.88,1.88,0,0,0,.54-1.41v-4.84a1.91,1.91,0,0,0-.54-1.42,2,2,0,0,0-1.45-.52,1.83,1.83,0,0,0-2,1.94v4.84a1.84,1.84,0,0,0,2,1.94A1.93,1.93,0,0,0,284.53,653.81Z"></path><path class="cls-2" d="M295.81,654.75a3.28,3.28,0,0,1-.94-2.45v-4.68a3.23,3.23,0,0,1,.94-2.43,3.54,3.54,0,0,1,2.54-.9,3.59,3.59,0,0,1,2.56.9,3.2,3.2,0,0,1,.95,2.43v4.68a3.25,3.25,0,0,1-.95,2.45,3.59,3.59,0,0,1-2.56.9A3.54,3.54,0,0,1,295.81,654.75Zm4-.94a1.91,1.91,0,0,0,.53-1.41v-4.84a2,2,0,0,0-.53-1.42,2,2,0,0,0-1.46-.52,1.94,1.94,0,0,0-1.42.52,1.91,1.91,0,0,0-.54,1.42v4.84a1.88,1.88,0,0,0,.54,1.41,1.91,1.91,0,0,0,1.42.53A2,2,0,0,0,299.81,653.81Z"></path><path class="cls-2" d="M310.41,652a5,5,0,0,1-.18,1.38,3,3,0,0,1-1.15,1.6,3.42,3.42,0,0,1-2,.6,3.34,3.34,0,0,1-2-.57,3.23,3.23,0,0,1-1.33-2.33v0c0-.08.05-.12.14-.12h1.25a.14.14,0,0,1,.16.14,1.85,1.85,0,0,0,.08.33,1.77,1.77,0,0,0,.61.93,1.69,1.69,0,0,0,1.05.33,1.71,1.71,0,0,0,1.1-.35,1.74,1.74,0,0,0,.6-1,2.81,2.81,0,0,0,.12-.92,4.79,4.79,0,0,0-.1-1,1.41,1.41,0,0,0-.56-.93,1.9,1.9,0,0,0-1.12-.32,2.12,2.12,0,0,0-1.1.28,1.24,1.24,0,0,0-.63.73c0,.1-.09.14-.18.14h-1.26c-.11,0-.16-.05-.16-.15v-6.23a.14.14,0,0,1,.16-.16h5.91a.14.14,0,0,1,.16.16v1a.14.14,0,0,1-.16.16h-4.49a.05.05,0,0,0-.06.06l0,3.31c0,.06,0,.08.08,0a2.4,2.4,0,0,1,.88-.5,3.3,3.3,0,0,1,1-.17,3.23,3.23,0,0,1,1.9.56,2.63,2.63,0,0,1,1.07,1.54A5.79,5.79,0,0,1,310.41,652Z"></path></g><g class="cls-1"><path class="cls-2" d="M311,649.77a1.05,1.05,0,1,1,.72.29A1,1,0,0,1,311,649.77Zm0,5.27a1,1,0,0,1-.29-.73,1,1,0,0,1,.29-.73,1.08,1.08,0,0,1,1.45,0,1,1,0,0,1,.28.73A1,1,0,0,1,311,655Z"></path><path class="cls-2" d="M316.43,654.75a3.24,3.24,0,0,1-.94-2.45v-4.68a3.19,3.19,0,0,1,.94-2.43,3.49,3.49,0,0,1,2.53-.9,3.59,3.59,0,0,1,2.56.9,3.16,3.16,0,0,1,1,2.43v4.68a3.21,3.21,0,0,1-1,2.45,3.59,3.59,0,0,1-2.56.9A3.49,3.49,0,0,1,316.43,654.75Zm4-.94a1.88,1.88,0,0,0,.54-1.41v-4.84a1.91,1.91,0,0,0-.54-1.42,2,2,0,0,0-1.46-.52,1.94,1.94,0,0,0-1.42.52,1.91,1.91,0,0,0-.54,1.42v4.84a1.88,1.88,0,0,0,.54,1.41,1.91,1.91,0,0,0,1.42.53A2,2,0,0,0,320.42,653.81Z"></path></g><g class="cls-1"><path class="cls-2" d="M324.43,654.75a3.28,3.28,0,0,1-.94-2.45v-4.68a3.23,3.23,0,0,1,.94-2.43,4,4,0,0,1,5.09,0,3.17,3.17,0,0,1,1,2.43v4.68a3.22,3.22,0,0,1-1,2.45,4,4,0,0,1-5.09,0Zm4-.94a1.88,1.88,0,0,0,.54-1.41v-4.84a1.91,1.91,0,0,0-.54-1.42,2,2,0,0,0-1.45-.52,1.94,1.94,0,0,0-1.42.52,1.91,1.91,0,0,0-.54,1.42v4.84a1.88,1.88,0,0,0,.54,1.41,1.91,1.91,0,0,0,1.42.53A1.93,1.93,0,0,0,328.42,653.81Z"></path><path class="cls-2" d="M339.71,654.75a3.25,3.25,0,0,1-.95-2.45v-4.68a3.2,3.2,0,0,1,.95-2.43,3.49,3.49,0,0,1,2.53-.9,3.59,3.59,0,0,1,2.56.9,3.2,3.2,0,0,1,.95,2.43v4.68a3.25,3.25,0,0,1-.95,2.45,3.59,3.59,0,0,1-2.56.9A3.49,3.49,0,0,1,339.71,654.75Zm4-.94a1.87,1.87,0,0,0,.53-1.41v-4.84a1.91,1.91,0,0,0-.53-1.42,2,2,0,0,0-1.46-.52,1.94,1.94,0,0,0-1.42.52,1.91,1.91,0,0,0-.54,1.42v4.84a1.88,1.88,0,0,0,.54,1.41,1.91,1.91,0,0,0,1.42.53A2,2,0,0,0,343.7,653.81Z"></path><path class="cls-2" d="M354.31,652.05a4.21,4.21,0,0,1-.32,1.69,2.82,2.82,0,0,1-1.13,1.38,3.35,3.35,0,0,1-1.86.49,3.49,3.49,0,0,1-2-.54,2.81,2.81,0,0,1-1.15-1.52,4.47,4.47,0,0,1-.24-1.53v-4.87a2.58,2.58,0,0,1,.9-2.07,3.5,3.5,0,0,1,2.36-.78,3.77,3.77,0,0,1,1.65.35,2.73,2.73,0,0,1,1.12,1,2.67,2.67,0,0,1,.39,1.43v.32a.14.14,0,0,1-.16.16h-1.2a.14.14,0,0,1-.16-.16v-.14a1.56,1.56,0,0,0-.45-1.16,1.66,1.66,0,0,0-1.19-.44,1.75,1.75,0,0,0-1.26.46,1.6,1.6,0,0,0-.48,1.22v2s0,0,0,0a.05.05,0,0,0,.05,0,2.53,2.53,0,0,1,2-.75,2.75,2.75,0,0,1,2.65,1.48A4.2,4.2,0,0,1,354.31,652.05Zm-1.52,0a2.58,2.58,0,0,0-.29-1.3,1.59,1.59,0,0,0-1.55-.91,1.81,1.81,0,0,0-.95.24,1.62,1.62,0,0,0-.6.71,3.17,3.17,0,0,0-.25,1.34,2.67,2.67,0,0,0,.21,1.12,1.58,1.58,0,0,0,.61.77,1.88,1.88,0,0,0,1,.26,1.57,1.57,0,0,0,1.58-1A2.85,2.85,0,0,0,352.79,652.05Z"></path></g><g class="cls-1"><path class="cls-2" d="M354.91,649.77a1.08,1.08,0,0,1,0-1.45,1,1,0,1,1,0,1.45Zm0,5.27a1,1,0,0,1-.28-.73,1,1,0,0,1,.28-.73,1.08,1.08,0,0,1,1.45,0,1,1,0,0,1,.29.73,1,1,0,0,1-.29.73,1.08,1.08,0,0,1-1.45,0Z"></path><path class="cls-2" d="M360.34,654.75a3.24,3.24,0,0,1-.94-2.45v-4.68a3.19,3.19,0,0,1,.94-2.43,3.52,3.52,0,0,1,2.54-.9,3.58,3.58,0,0,1,2.55.9,3.17,3.17,0,0,1,1,2.43v4.68a3.22,3.22,0,0,1-1,2.45,3.58,3.58,0,0,1-2.55.9A3.52,3.52,0,0,1,360.34,654.75Zm4-.94a1.88,1.88,0,0,0,.54-1.41v-4.84a1.91,1.91,0,0,0-.54-1.42,2,2,0,0,0-1.45-.52,1.83,1.83,0,0,0-2,1.94v4.84a1.84,1.84,0,0,0,2,1.94A2,2,0,0,0,364.33,653.81Z"></path></g><g class="cls-1"><path class="cls-2" d="M368.34,654.75a3.24,3.24,0,0,1-.94-2.45v-4.68a3.19,3.19,0,0,1,.94-2.43,3.52,3.52,0,0,1,2.54-.9,3.58,3.58,0,0,1,2.55.9,3.17,3.17,0,0,1,1,2.43v4.68a3.22,3.22,0,0,1-1,2.45,3.58,3.58,0,0,1-2.55.9A3.52,3.52,0,0,1,368.34,654.75Zm4-.94a1.88,1.88,0,0,0,.54-1.41v-4.84a1.91,1.91,0,0,0-.54-1.42,2.25,2.25,0,0,0-2.88,0,2,2,0,0,0-.53,1.42v4.84a1.91,1.91,0,0,0,.53,1.41,2.22,2.22,0,0,0,2.88,0Z"></path></g><g class="cls-1"><path class="cls-2" d="M382.42,654.75a3.24,3.24,0,0,1-.94-2.45v-4.68a3.19,3.19,0,0,1,.94-2.43,3.49,3.49,0,0,1,2.53-.9,3.59,3.59,0,0,1,2.56.9,3.16,3.16,0,0,1,.95,2.43v4.68a3.21,3.21,0,0,1-.95,2.45,3.59,3.59,0,0,1-2.56.9A3.49,3.49,0,0,1,382.42,654.75Zm4-.94a1.88,1.88,0,0,0,.54-1.41v-4.84a1.91,1.91,0,0,0-.54-1.42,2,2,0,0,0-1.46-.52,1.94,1.94,0,0,0-1.42.52,1.91,1.91,0,0,0-.54,1.42v4.84a1.88,1.88,0,0,0,.54,1.41,1.91,1.91,0,0,0,1.42.53A2,2,0,0,0,386.41,653.81Z"></path><path class="cls-2" d="M391.54,655.44a.12.12,0,0,1,0-.13l3.59-9.49a.06.06,0,0,0,0-.06l-.05,0h-3.81a.05.05,0,0,0-.06.06v.75a.14.14,0,0,1-.16.16h-1a.15.15,0,0,1-.16-.16v-2a.14.14,0,0,1,.16-.16h6.5a.14.14,0,0,1,.16.16v1.06a1,1,0,0,1,0,.19l-3.58,9.53a.18.18,0,0,1-.17.13h-1.31A.13.13,0,0,1,391.54,655.44Z"></path></g><g class="cls-1"><path class="cls-2" d="M398.09,649.77a1.08,1.08,0,0,1,0-1.45,1,1,0,1,1,0,1.45Zm0,5.27a1,1,0,0,1-.28-.73,1,1,0,0,1,.28-.73,1.08,1.08,0,0,1,1.45,0,1,1,0,0,1,.29.73,1,1,0,0,1-.29.73,1.08,1.08,0,0,1-1.45,0Z"></path><path class="cls-2" d="M403.52,654.75a3.24,3.24,0,0,1-.94-2.45v-4.68a3.19,3.19,0,0,1,.94-2.43,3.52,3.52,0,0,1,2.54-.9,3.58,3.58,0,0,1,2.55.9,3.17,3.17,0,0,1,1,2.43v4.68a3.22,3.22,0,0,1-1,2.45,3.58,3.58,0,0,1-2.55.9A3.52,3.52,0,0,1,403.52,654.75Zm4-.94a1.88,1.88,0,0,0,.54-1.41v-4.84a1.91,1.91,0,0,0-.54-1.42,2,2,0,0,0-1.45-.52,1.83,1.83,0,0,0-2,1.94v4.84a1.84,1.84,0,0,0,2,1.94A2,2,0,0,0,407.51,653.81Z"></path></g><g class="cls-1"><path class="cls-2" d="M411.52,654.75a3.24,3.24,0,0,1-.94-2.45v-4.68a3.19,3.19,0,0,1,.94-2.43,3.52,3.52,0,0,1,2.54-.9,3.58,3.58,0,0,1,2.55.9,3.17,3.17,0,0,1,1,2.43v4.68a3.22,3.22,0,0,1-1,2.45,3.58,3.58,0,0,1-2.55.9A3.52,3.52,0,0,1,411.52,654.75Zm4-.94a1.88,1.88,0,0,0,.54-1.41v-4.84a1.91,1.91,0,0,0-.54-1.42,2.25,2.25,0,0,0-2.88,0,1.91,1.91,0,0,0-.53,1.42v4.84a1.87,1.87,0,0,0,.53,1.41,2.22,2.22,0,0,0,2.88,0Z"></path><path class="cls-2" d="M426.79,654.75a3.24,3.24,0,0,1-.94-2.45v-4.68a3.19,3.19,0,0,1,.94-2.43,3.52,3.52,0,0,1,2.54-.9,3.58,3.58,0,0,1,2.55.9,3.17,3.17,0,0,1,1,2.43v4.68a3.22,3.22,0,0,1-1,2.45,3.58,3.58,0,0,1-2.55.9A3.52,3.52,0,0,1,426.79,654.75Zm4-.94a1.88,1.88,0,0,0,.54-1.41v-4.84a1.91,1.91,0,0,0-.54-1.42,2,2,0,0,0-1.45-.52,1.83,1.83,0,0,0-2,1.94v4.84a1.84,1.84,0,0,0,2,1.94A2,2,0,0,0,430.78,653.81Z"></path><path class="cls-2" d="M441.33,652.35a3.52,3.52,0,0,1-.44,1.77,2.71,2.71,0,0,1-1.14,1.11,4.16,4.16,0,0,1-3.54,0,2.68,2.68,0,0,1-1.17-1.16,3.37,3.37,0,0,1-.43-1.73,3.5,3.5,0,0,1,.35-1.59,2.3,2.3,0,0,1,1-1.09c.06,0,.06,0,0-.08a3,3,0,0,1-.75-.79,2.66,2.66,0,0,1-.45-1.52,2.94,2.94,0,0,1,.54-1.71,2.7,2.7,0,0,1,1.1-.95,3.52,3.52,0,0,1,1.57-.35,3.46,3.46,0,0,1,1.57.35,2.74,2.74,0,0,1,1.07.95,3,3,0,0,1,.52,1.71,2.73,2.73,0,0,1-1.18,2.31c-.05,0-.05,0,0,.08a2.45,2.45,0,0,1,1,1.12A3.51,3.51,0,0,1,441.33,652.35Zm-1.54-.13a2.6,2.6,0,0,0-.26-1.25,1.63,1.63,0,0,0-1.55-.82,1.59,1.59,0,0,0-1.52.78,2.52,2.52,0,0,0-.3,1.31,2.34,2.34,0,0,0,.33,1.3,1.63,1.63,0,0,0,1.5.75,1.57,1.57,0,0,0,1.44-.71A2.29,2.29,0,0,0,439.79,652.22Zm-3.51-5a1.81,1.81,0,0,0,.3,1.06,1.72,1.72,0,0,0,2.8,0,1.79,1.79,0,0,0,.27-1.06,1.71,1.71,0,0,0-.79-1.44,1.72,1.72,0,0,0-.9-.23,1.66,1.66,0,0,0-.87.23,1.58,1.58,0,0,0-.58.65A1.72,1.72,0,0,0,436.28,647.26Z"></path></g><g class="cls-1"><path class="cls-2" d="M442,649.77a1.05,1.05,0,1,1,.72.29A1,1,0,0,1,442,649.77Zm0,5.27a1,1,0,0,1-.29-.73,1,1,0,0,1,.29-.73,1.08,1.08,0,0,1,1.45,0,1,1,0,0,1,.28.73A1,1,0,0,1,442,655Z"></path><path class="cls-2" d="M447.43,654.75a3.24,3.24,0,0,1-.94-2.45v-4.68a3.19,3.19,0,0,1,.94-2.43,3.49,3.49,0,0,1,2.53-.9,3.59,3.59,0,0,1,2.56.9,3.16,3.16,0,0,1,1,2.43v4.68a3.21,3.21,0,0,1-1,2.45,3.59,3.59,0,0,1-2.56.9A3.49,3.49,0,0,1,447.43,654.75Zm4-.94a1.88,1.88,0,0,0,.54-1.41v-4.84a1.91,1.91,0,0,0-.54-1.42,2,2,0,0,0-1.46-.52,1.94,1.94,0,0,0-1.42.52,1.91,1.91,0,0,0-.54,1.42v4.84a1.88,1.88,0,0,0,.54,1.41,1.91,1.91,0,0,0,1.42.53A2,2,0,0,0,451.42,653.81Z"></path></g><g class="cls-1"><path class="cls-2" d="M455.44,654.75a3.24,3.24,0,0,1-.94-2.45v-4.68a3.19,3.19,0,0,1,.94-2.43,3.52,3.52,0,0,1,2.54-.9,3.58,3.58,0,0,1,2.55.9,3.17,3.17,0,0,1,1,2.43v4.68a3.22,3.22,0,0,1-1,2.45,3.58,3.58,0,0,1-2.55.9A3.52,3.52,0,0,1,455.44,654.75Zm4-.94a1.88,1.88,0,0,0,.54-1.41v-4.84a1.91,1.91,0,0,0-.54-1.42,2,2,0,0,0-1.45-.52,1.83,1.83,0,0,0-2,1.94v4.84a1.84,1.84,0,0,0,2,1.94A2,2,0,0,0,459.43,653.81Z"></path><path class="cls-2" d="M470.71,654.75a3.28,3.28,0,0,1-.94-2.45v-4.68a3.23,3.23,0,0,1,.94-2.43,4,4,0,0,1,5.09,0,3.17,3.17,0,0,1,1,2.43v4.68a3.22,3.22,0,0,1-1,2.45,4,4,0,0,1-5.09,0Zm4-.94a1.91,1.91,0,0,0,.53-1.41v-4.84a2,2,0,0,0-.53-1.42,2,2,0,0,0-1.46-.52,1.94,1.94,0,0,0-1.42.52,1.91,1.91,0,0,0-.54,1.42v4.84a1.88,1.88,0,0,0,.54,1.41,1.91,1.91,0,0,0,1.42.53A2,2,0,0,0,474.71,653.81Z"></path><path class="cls-2" d="M485.14,647.91v4.87a2.6,2.6,0,0,1-.9,2.07,3.53,3.53,0,0,1-2.36.77,3.64,3.64,0,0,1-1.65-.35,2.59,2.59,0,0,1-1.51-2.4v-.31a.14.14,0,0,1,.16-.16h1.2a.14.14,0,0,1,.16.16v.14a1.51,1.51,0,0,0,.46,1.15,1.6,1.6,0,0,0,1.18.44,1.78,1.78,0,0,0,1.25-.45,1.6,1.6,0,0,0,.49-1.22v-2a.08.08,0,0,0,0,0,0,0,0,0,0-.06,0,2.47,2.47,0,0,1-2,.78A3.25,3.25,0,0,1,480,651a2.57,2.57,0,0,1-1-1.11,4.13,4.13,0,0,1-.44-2,4.52,4.52,0,0,1,.3-1.7,2.78,2.78,0,0,1,1.14-1.38,3.43,3.43,0,0,1,1.86-.48,3.49,3.49,0,0,1,2,.54,2.88,2.88,0,0,1,1.15,1.51A4.57,4.57,0,0,1,485.14,647.91Zm-1.52-.11a2.89,2.89,0,0,0-.2-1.13,1.62,1.62,0,0,0-.62-.76,1.77,1.77,0,0,0-1-.26,1.69,1.69,0,0,0-1,.26,1.51,1.51,0,0,0-.6.75,3.34,3.34,0,0,0,0,2.51,1.65,1.65,0,0,0,1.55.92,1.6,1.6,0,0,0,1.57-1A3.08,3.08,0,0,0,483.62,647.8Z"></path></g><g class="cls-1"><path class="cls-2" d="M486,649.77a1.08,1.08,0,0,1,0-1.45,1,1,0,0,1,.73-.29,1,1,0,0,1,1,1,1,1,0,0,1-.28.72,1,1,0,0,1-.73.29A1,1,0,0,1,486,649.77Zm0,5.27a1,1,0,0,1-.28-.73,1,1,0,0,1,1-1,1,1,0,0,1,.73.28,1,1,0,0,1,.28.73,1,1,0,0,1-1,1A1,1,0,0,1,486,655Z"></path><path class="cls-2" d="M491.43,654.75a3.28,3.28,0,0,1-.94-2.45v-4.68a3.23,3.23,0,0,1,.94-2.43,3.54,3.54,0,0,1,2.54-.9,3.59,3.59,0,0,1,2.56.9,3.2,3.2,0,0,1,1,2.43v4.68a3.25,3.25,0,0,1-1,2.45,3.59,3.59,0,0,1-2.56.9A3.54,3.54,0,0,1,491.43,654.75Zm4-.94a1.91,1.91,0,0,0,.53-1.41v-4.84a2,2,0,0,0-.53-1.42,2,2,0,0,0-1.46-.52,1.94,1.94,0,0,0-1.42.52,1.91,1.91,0,0,0-.54,1.42v4.84a1.88,1.88,0,0,0,.54,1.41,1.91,1.91,0,0,0,1.42.53A2,2,0,0,0,495.43,653.81Z"></path></g><g class="cls-1"><path class="cls-2" d="M499.44,654.75a3.24,3.24,0,0,1-.94-2.45v-4.68a3.19,3.19,0,0,1,.94-2.43,3.52,3.52,0,0,1,2.54-.9,3.58,3.58,0,0,1,2.55.9,3.17,3.17,0,0,1,1,2.43v4.68a3.22,3.22,0,0,1-1,2.45,3.58,3.58,0,0,1-2.55.9A3.52,3.52,0,0,1,499.44,654.75Zm4-.94a1.88,1.88,0,0,0,.54-1.41v-4.84a1.91,1.91,0,0,0-.54-1.42,2,2,0,0,0-1.45-.52,1.83,1.83,0,0,0-2,1.94v4.84a1.84,1.84,0,0,0,2,1.94A2,2,0,0,0,503.43,653.81Z"></path><path class="cls-2" d="M515.69,644.43h1.24a.14.14,0,0,1,.16.16v10.75a.14.14,0,0,1-.16.16h-1.2a.15.15,0,0,1-.16-.16v-9.28s0,0,0,0h0l-1.66.57h-.08c-.07,0-.1,0-.11-.12l-.07-.9c0-.11,0-.17.1-.19l1.8-.9A.46.46,0,0,1,515.69,644.43Z"></path><path class="cls-2" d="M520.28,654.75a3.24,3.24,0,0,1-.94-2.45v-4.68a3.19,3.19,0,0,1,.94-2.43,3.5,3.5,0,0,1,2.54-.9,3.58,3.58,0,0,1,2.55.9,3.17,3.17,0,0,1,1,2.43v4.68a3.22,3.22,0,0,1-1,2.45,3.58,3.58,0,0,1-2.55.9A3.5,3.5,0,0,1,520.28,654.75Zm4-.94a1.88,1.88,0,0,0,.54-1.41v-4.84a1.91,1.91,0,0,0-.54-1.42,2.25,2.25,0,0,0-2.88,0,1.91,1.91,0,0,0-.54,1.42v4.84a1.88,1.88,0,0,0,.54,1.41,2.22,2.22,0,0,0,2.88,0Z"></path></g><g class="cls-1"><path class="cls-2" d="M527.08,649.77a1.08,1.08,0,0,1,0-1.45,1,1,0,0,1,.73-.29,1,1,0,0,1,.73.29,1.08,1.08,0,0,1,0,1.45,1,1,0,0,1-.73.29A1,1,0,0,1,527.08,649.77Zm0,5.27a1,1,0,0,1-.28-.73,1,1,0,0,1,.28-.73,1,1,0,0,1,.73-.28,1,1,0,0,1,1,1,1,1,0,0,1-.28.73,1,1,0,0,1-.73.28A1,1,0,0,1,527.08,655Z"></path><path class="cls-2" d="M532.51,654.75a3.28,3.28,0,0,1-.94-2.45v-4.68a3.23,3.23,0,0,1,.94-2.43,4,4,0,0,1,5.09,0,3.17,3.17,0,0,1,1,2.43v4.68a3.22,3.22,0,0,1-1,2.45,4,4,0,0,1-5.09,0Zm4-.94a1.88,1.88,0,0,0,.54-1.41v-4.84a1.91,1.91,0,0,0-.54-1.42,2,2,0,0,0-1.45-.52,1.94,1.94,0,0,0-1.42.52,1.91,1.91,0,0,0-.54,1.42v4.84a1.88,1.88,0,0,0,.54,1.41,1.91,1.91,0,0,0,1.42.53A1.93,1.93,0,0,0,536.5,653.81Z"></path></g><g class="cls-1"><path class="cls-2" d="M540.53,654.75a3.24,3.24,0,0,1-.94-2.45v-4.68a3.19,3.19,0,0,1,.94-2.43,3.49,3.49,0,0,1,2.53-.9,3.59,3.59,0,0,1,2.56.9,3.2,3.2,0,0,1,1,2.43v4.68a3.25,3.25,0,0,1-1,2.45,3.59,3.59,0,0,1-2.56.9A3.49,3.49,0,0,1,540.53,654.75Zm4-.94a1.88,1.88,0,0,0,.54-1.41v-4.84a1.91,1.91,0,0,0-.54-1.42,2,2,0,0,0-1.46-.52,1.94,1.94,0,0,0-1.42.52,1.91,1.91,0,0,0-.54,1.42v4.84a1.88,1.88,0,0,0,.54,1.41,1.91,1.91,0,0,0,1.42.53A2,2,0,0,0,544.52,653.81Z"></path><path class="cls-2" d="M556.77,644.43H558a.14.14,0,0,1,.16.16v10.75a.14.14,0,0,1-.16.16h-1.2a.14.14,0,0,1-.16-.16v-9.28a.08.08,0,0,0,0,0h-.06l-1.66.57h-.08c-.06,0-.1,0-.11-.12l-.06-.9c0-.11,0-.17.09-.19l1.81-.9A.46.46,0,0,1,556.77,644.43Z"></path><path class="cls-2" d="M562.4,644.43h1.25a.14.14,0,0,1,.16.16v10.75a.15.15,0,0,1-.16.16h-1.2a.14.14,0,0,1-.16-.16v-9.28a.05.05,0,0,0,0,0h0l-1.66.57h-.08c-.06,0-.1,0-.11-.12l-.06-.9c0-.11,0-.17.09-.19l1.8-.9A.54.54,0,0,1,562.4,644.43Z"></path></g><g class="cls-1"><path class="cls-2" d="M564.61,649.77a1.05,1.05,0,0,1,0-1.45,1,1,0,0,1,.72-.29,1,1,0,0,1,1,1,1,1,0,0,1-.28.72,1,1,0,0,1-.73.29A1,1,0,0,1,564.61,649.77Zm0,5.27a1,1,0,0,1-.29-.73,1,1,0,0,1,.29-.73,1,1,0,0,1,.72-.28,1,1,0,0,1,.73.28,1,1,0,0,1,.28.73,1,1,0,0,1-1,1A1,1,0,0,1,564.61,655Z"></path><path class="cls-2" d="M570,654.75a3.24,3.24,0,0,1-.94-2.45v-4.68a3.19,3.19,0,0,1,.94-2.43,3.49,3.49,0,0,1,2.53-.9,3.59,3.59,0,0,1,2.56.9,3.2,3.2,0,0,1,1,2.43v4.68a3.25,3.25,0,0,1-1,2.45,3.59,3.59,0,0,1-2.56.9A3.49,3.49,0,0,1,570,654.75Zm4-.94a1.88,1.88,0,0,0,.54-1.41v-4.84a1.91,1.91,0,0,0-.54-1.42,2,2,0,0,0-1.46-.52,1.94,1.94,0,0,0-1.42.52,1.91,1.91,0,0,0-.54,1.42v4.84a1.88,1.88,0,0,0,.54,1.41,1.91,1.91,0,0,0,1.42.53A2,2,0,0,0,574,653.81Z"></path></g><g class="cls-1"><path class="cls-2" d="M578.05,654.75a3.24,3.24,0,0,1-.94-2.45v-4.68a3.19,3.19,0,0,1,.94-2.43,3.52,3.52,0,0,1,2.54-.9,3.58,3.58,0,0,1,2.55.9,3.17,3.17,0,0,1,1,2.43v4.68a3.22,3.22,0,0,1-1,2.45,3.58,3.58,0,0,1-2.55.9A3.52,3.52,0,0,1,578.05,654.75Zm4-.94a1.88,1.88,0,0,0,.54-1.41v-4.84a1.91,1.91,0,0,0-.54-1.42,2.25,2.25,0,0,0-2.88,0,2,2,0,0,0-.53,1.42v4.84a1.91,1.91,0,0,0,.53,1.41,2.22,2.22,0,0,0,2.88,0Z"></path><path class="cls-2" d="M594.29,644.43h1.25a.14.14,0,0,1,.16.16v10.75a.14.14,0,0,1-.16.16h-1.2a.15.15,0,0,1-.16-.16v-9.28s0,0,0,0h-.06l-1.66.57h-.07c-.07,0-.1,0-.12-.12l-.06-.9c0-.11,0-.17.1-.19l1.8-.9A.46.46,0,0,1,594.29,644.43Z"></path><path class="cls-2" d="M599.8,654.16s0,0,0,0h4.76a.14.14,0,0,1,.16.16v1a.14.14,0,0,1-.16.16H598a.14.14,0,0,1-.16-.16v-1a.29.29,0,0,1,.08-.19c.36-.41,1.18-1.37,2.47-2.89l1.09-1.31a5.08,5.08,0,0,0,1.47-2.72,1.53,1.53,0,0,0-.5-1.19,2.15,2.15,0,0,0-2.63,0,1.53,1.53,0,0,0-.48,1.2v.48a.14.14,0,0,1-.16.16H598a.14.14,0,0,1-.16-.16v-.68a2.65,2.65,0,0,1,.46-1.45,2.84,2.84,0,0,1,1.18-1,4.13,4.13,0,0,1,1.68-.34,4,4,0,0,1,1.77.38,2.78,2.78,0,0,1,1.17,1.05,2.81,2.81,0,0,1,.41,1.5,5.33,5.33,0,0,1-1.42,3.1c-.42.53-.93,1.14-1.5,1.81s-1.16,1.32-1.74,2A.06.06,0,0,0,599.8,654.16Z"></path></g><g class="cls-1"><path class="cls-2" d="M605.39,649.77a1.08,1.08,0,0,1,0-1.45,1,1,0,0,1,.73-.29,1,1,0,0,1,1,1,1,1,0,0,1-.28.72,1,1,0,0,1-.73.29A1,1,0,0,1,605.39,649.77Zm0,5.27a1,1,0,0,1-.28-.73,1,1,0,0,1,1-1,1,1,0,0,1,.73.28,1,1,0,0,1,.28.73,1,1,0,0,1-1,1A1,1,0,0,1,605.39,655Z"></path><path class="cls-2" d="M610.83,654.75a3.25,3.25,0,0,1-1-2.45v-4.68a3.2,3.2,0,0,1,1-2.43,3.49,3.49,0,0,1,2.53-.9,3.59,3.59,0,0,1,2.56.9,3.2,3.2,0,0,1,1,2.43v4.68a3.25,3.25,0,0,1-1,2.45,3.59,3.59,0,0,1-2.56.9A3.49,3.49,0,0,1,610.83,654.75Zm4-.94a1.87,1.87,0,0,0,.53-1.41v-4.84a1.91,1.91,0,0,0-.53-1.42,2,2,0,0,0-1.46-.52,1.94,1.94,0,0,0-1.42.52,1.91,1.91,0,0,0-.54,1.42v4.84a1.88,1.88,0,0,0,.54,1.41,1.91,1.91,0,0,0,1.42.53A2,2,0,0,0,614.82,653.81Z"></path></g><g class="cls-1"><path class="cls-2" d="M618.83,654.75a3.24,3.24,0,0,1-.94-2.45v-4.68a3.19,3.19,0,0,1,.94-2.43,3.52,3.52,0,0,1,2.54-.9,3.58,3.58,0,0,1,2.55.9,3.17,3.17,0,0,1,1,2.43v4.68a3.22,3.22,0,0,1-1,2.45,3.58,3.58,0,0,1-2.55.9A3.52,3.52,0,0,1,618.83,654.75Zm4-.94a1.88,1.88,0,0,0,.54-1.41v-4.84a1.91,1.91,0,0,0-.54-1.42,2,2,0,0,0-1.45-.52,1.83,1.83,0,0,0-2,1.94v4.84a1.84,1.84,0,0,0,2,1.94A2,2,0,0,0,622.82,653.81Z"></path><path class="cls-2" d="M635.08,644.43h1.24a.14.14,0,0,1,.16.16v10.75a.14.14,0,0,1-.16.16h-1.2a.14.14,0,0,1-.15-.16v-9.28a.05.05,0,0,0,0,0h-.05l-1.66.57h-.08c-.07,0-.1,0-.11-.12l-.07-.9c0-.11,0-.17.1-.19l1.8-.9A.46.46,0,0,1,635.08,644.43Z"></path><path class="cls-2" d="M645.13,652a4.54,4.54,0,0,1-.25,1.55,2.86,2.86,0,0,1-1.16,1.51,3.37,3.37,0,0,1-1.94.53,3.32,3.32,0,0,1-2-.58,3.09,3.09,0,0,1-1.16-1.58,3.92,3.92,0,0,1-.21-1.27.15.15,0,0,1,.16-.16h1.22a.15.15,0,0,1,.16.16,3.45,3.45,0,0,0,.12.84,1.76,1.76,0,0,0,.6.93,1.69,1.69,0,0,0,1.08.35,1.57,1.57,0,0,0,1.61-1.09,3.09,3.09,0,0,0,.21-1.23,3.81,3.81,0,0,0-.26-1.44,1.58,1.58,0,0,0-1.58-1,1.55,1.55,0,0,0-.68.23.16.16,0,0,1-.09,0,.16.16,0,0,1-.13-.08l-.6-.83a.23.23,0,0,1,0-.11.25.25,0,0,1,0-.11l2.7-2.89c0-.05,0-.08,0-.08h-4.21c-.1,0-.15,0-.15-.16v-1c0-.11,0-.16.15-.16h6.14a.14.14,0,0,1,.16.16v1.14a.41.41,0,0,1-.08.19l-2.41,2.62s0,0,0,.05a.09.09,0,0,0,.06,0,2.54,2.54,0,0,1,2.21,1.62A4.49,4.49,0,0,1,645.13,652Z"></path></g><g class="cls-1"><path class="cls-2" d="M645.71,649.77a1.05,1.05,0,1,1,.72.29A1,1,0,0,1,645.71,649.77Zm0,5.27a1,1,0,0,1-.29-.73,1,1,0,0,1,.29-.73,1.08,1.08,0,0,1,1.45,0,1,1,0,0,1,.29.73,1,1,0,0,1-1,1A1,1,0,0,1,645.71,655Z"></path><path class="cls-2" d="M651.14,654.75a3.24,3.24,0,0,1-.94-2.45v-4.68a3.19,3.19,0,0,1,.94-2.43,3.5,3.5,0,0,1,2.54-.9,3.58,3.58,0,0,1,2.55.9,3.17,3.17,0,0,1,1,2.43v4.68a3.22,3.22,0,0,1-1,2.45,3.58,3.58,0,0,1-2.55.9A3.5,3.5,0,0,1,651.14,654.75Zm4-.94a1.88,1.88,0,0,0,.54-1.41v-4.84a1.91,1.91,0,0,0-.54-1.42,2,2,0,0,0-1.45-.52,2,2,0,0,0-1.43.52,1.91,1.91,0,0,0-.54,1.42v4.84a1.88,1.88,0,0,0,.54,1.41,1.92,1.92,0,0,0,1.43.53A2,2,0,0,0,655.13,653.81Z"></path></g><g class="cls-1"><path class="cls-2" d="M659.14,654.75a3.28,3.28,0,0,1-.94-2.45v-4.68a3.23,3.23,0,0,1,.94-2.43,4,4,0,0,1,5.09,0,3.17,3.17,0,0,1,1,2.43v4.68a3.22,3.22,0,0,1-1,2.45,4,4,0,0,1-5.09,0Zm4-.94a1.91,1.91,0,0,0,.53-1.41v-4.84a2,2,0,0,0-.53-1.42,2,2,0,0,0-1.46-.52,1.94,1.94,0,0,0-1.42.52,1.91,1.91,0,0,0-.54,1.42v4.84a1.88,1.88,0,0,0,.54,1.41,1.91,1.91,0,0,0,1.42.53A2,2,0,0,0,663.14,653.81Z"></path><path class="cls-2" d="M675.39,644.43h1.25a.14.14,0,0,1,.16.16v10.75a.15.15,0,0,1-.16.16h-1.2a.14.14,0,0,1-.16-.16v-9.28a.05.05,0,0,0,0,0h0l-1.66.57h-.08c-.06,0-.1,0-.11-.12l-.06-.9c0-.11,0-.17.09-.19l1.8-.9A.5.5,0,0,1,675.39,644.43Z"></path><path class="cls-2" d="M686.19,651.32v1a.14.14,0,0,1-.16.15h-.68s-.06,0-.06.07v2.75a.15.15,0,0,1-.16.16h-1.2a.14.14,0,0,1-.16-.16v-2.75c0-.05,0-.07-.07-.07h-4.8c-.11,0-.16,0-.16-.15v-.86a.59.59,0,0,1,0-.19l3.11-6.78a.18.18,0,0,1,.18-.11h1.26a.17.17,0,0,1,.12.05.14.14,0,0,1,0,.14l-3,6.46a.06.06,0,0,0,0,.06.06.06,0,0,0,0,0h3.16s.07,0,.07-.06v-2.35a.14.14,0,0,1,.16-.16h1.2a.14.14,0,0,1,.16.16v2.35a.05.05,0,0,0,.06.06H686A.15.15,0,0,1,686.19,651.32Z"></path></g><g class="cls-1"><path class="cls-2" d="M686.53,649.77a1.05,1.05,0,1,1,.72.29A1,1,0,0,1,686.53,649.77Zm0,5.27a1,1,0,0,1-.29-.73,1,1,0,0,1,.29-.73,1.08,1.08,0,0,1,1.45,0,1,1,0,0,1,.29.73,1,1,0,0,1-1,1A1,1,0,0,1,686.53,655Z"></path><path class="cls-2" d="M692,654.75a3.24,3.24,0,0,1-.94-2.45v-4.68a3.19,3.19,0,0,1,.94-2.43,3.5,3.5,0,0,1,2.54-.9,3.58,3.58,0,0,1,2.55.9,3.17,3.17,0,0,1,1,2.43v4.68a3.22,3.22,0,0,1-1,2.45,3.58,3.58,0,0,1-2.55.9A3.5,3.5,0,0,1,692,654.75Zm4-.94a1.88,1.88,0,0,0,.54-1.41v-4.84a1.91,1.91,0,0,0-.54-1.42,2.25,2.25,0,0,0-2.88,0,1.91,1.91,0,0,0-.53,1.42v4.84a1.87,1.87,0,0,0,.53,1.41,2.22,2.22,0,0,0,2.88,0Z"></path></g><g class="cls-1"><path class="cls-2" d="M700,654.75a3.28,3.28,0,0,1-.94-2.45v-4.68a3.23,3.23,0,0,1,.94-2.43,4,4,0,0,1,5.09,0,3.17,3.17,0,0,1,1,2.43v4.68a3.22,3.22,0,0,1-1,2.45,4,4,0,0,1-5.09,0Zm4-.94a1.91,1.91,0,0,0,.53-1.41v-4.84a2,2,0,0,0-.53-1.42,2,2,0,0,0-1.46-.52,1.94,1.94,0,0,0-1.42.52,1.91,1.91,0,0,0-.54,1.42v4.84a1.88,1.88,0,0,0,.54,1.41,1.91,1.91,0,0,0,1.42.53A2,2,0,0,0,704,653.81Z"></path><path class="cls-2" d="M716.21,644.43h1.25a.14.14,0,0,1,.16.16v10.75a.15.15,0,0,1-.16.16h-1.2a.14.14,0,0,1-.16-.16v-9.28a.05.05,0,0,0,0,0H716l-1.66.57h-.08c-.06,0-.1,0-.11-.12l-.06-.9c0-.11,0-.17.09-.19l1.8-.9A.5.5,0,0,1,716.21,644.43Z"></path><path class="cls-2" d="M726.45,652a4.65,4.65,0,0,1-.19,1.38,2.91,2.91,0,0,1-1.14,1.6,3.42,3.42,0,0,1-2,.6,3.34,3.34,0,0,1-2-.57,3.23,3.23,0,0,1-1.33-2.33v0c0-.08,0-.12.14-.12h1.25a.14.14,0,0,1,.16.14,1.85,1.85,0,0,0,.08.33,1.76,1.76,0,0,0,.6.93,1.7,1.7,0,0,0,1.06.33,1.68,1.68,0,0,0,1.09-.35,1.75,1.75,0,0,0,.61-1,2.84,2.84,0,0,0,.11-.92,4.82,4.82,0,0,0-.09-1,1.41,1.41,0,0,0-.56-.93,1.9,1.9,0,0,0-1.12-.32,2.12,2.12,0,0,0-1.1.28,1.29,1.29,0,0,0-.64.73.17.17,0,0,1-.17.14H720c-.11,0-.16-.05-.16-.15v-6.23a.14.14,0,0,1,.16-.16h5.91a.14.14,0,0,1,.16.16v1a.14.14,0,0,1-.16.16h-4.49s-.07,0-.07.06v3.31c0,.06,0,.08.08,0a2.32,2.32,0,0,1,.88-.5,3.3,3.3,0,0,1,1-.17,3.25,3.25,0,0,1,1.9.56,2.67,2.67,0,0,1,1.07,1.54A5.79,5.79,0,0,1,726.45,652Z"></path></g><g class="cls-1"><path class="cls-2" d="M727,649.77a1.08,1.08,0,0,1,0-1.45,1,1,0,0,1,.73-.29,1,1,0,0,1,.73.29,1.08,1.08,0,0,1,0,1.45,1,1,0,0,1-.73.29A1,1,0,0,1,727,649.77Zm0,5.27a1,1,0,0,1-.28-.73,1,1,0,0,1,.28-.73,1,1,0,0,1,.73-.28,1,1,0,0,1,1,1,1,1,0,0,1-.28.73,1,1,0,0,1-.73.28A1,1,0,0,1,727,655Z"></path><path class="cls-2" d="M732.4,654.75a3.28,3.28,0,0,1-.94-2.45v-4.68a3.23,3.23,0,0,1,.94-2.43,4,4,0,0,1,5.09,0,3.17,3.17,0,0,1,1,2.43v4.68a3.22,3.22,0,0,1-1,2.45,4,4,0,0,1-5.09,0Zm4-.94a1.91,1.91,0,0,0,.53-1.41v-4.84a2,2,0,0,0-.53-1.42,2,2,0,0,0-1.46-.52,1.94,1.94,0,0,0-1.42.52,1.91,1.91,0,0,0-.54,1.42v4.84a1.88,1.88,0,0,0,.54,1.41,1.91,1.91,0,0,0,1.42.53A2,2,0,0,0,736.4,653.81Z"></path></g><g class="cls-1"><path class="cls-2" d="M740.41,654.75a3.24,3.24,0,0,1-.94-2.45v-4.68a3.19,3.19,0,0,1,.94-2.43,3.52,3.52,0,0,1,2.54-.9,3.58,3.58,0,0,1,2.55.9,3.17,3.17,0,0,1,1,2.43v4.68a3.22,3.22,0,0,1-1,2.45,3.58,3.58,0,0,1-2.55.9A3.52,3.52,0,0,1,740.41,654.75Zm4-.94a1.88,1.88,0,0,0,.54-1.41v-4.84a1.91,1.91,0,0,0-.54-1.42,2.25,2.25,0,0,0-2.88,0,2,2,0,0,0-.53,1.42v4.84a1.91,1.91,0,0,0,.53,1.41,2.22,2.22,0,0,0,2.88,0Z"></path><path class="cls-2" d="M756.65,644.43h1.25a.14.14,0,0,1,.16.16v10.75a.14.14,0,0,1-.16.16h-1.2a.15.15,0,0,1-.16-.16v-9.28s0,0,0,0h-.06l-1.66.57h-.07q-.11,0-.12-.12l-.06-.9c0-.11,0-.17.1-.19l1.8-.9A.46.46,0,0,1,756.65,644.43Z"></path><path class="cls-2" d="M766.9,652.05a4.21,4.21,0,0,1-.32,1.69,2.82,2.82,0,0,1-1.13,1.38,3.35,3.35,0,0,1-1.86.49,3.49,3.49,0,0,1-2-.54,2.91,2.91,0,0,1-1.15-1.52,4.73,4.73,0,0,1-.23-1.53v-4.87a2.58,2.58,0,0,1,.9-2.07,3.45,3.45,0,0,1,2.35-.78,3.79,3.79,0,0,1,1.66.35,2.64,2.64,0,0,1,1.11,1,2.68,2.68,0,0,1,.4,1.43v.32a.14.14,0,0,1-.16.16h-1.2a.14.14,0,0,1-.16-.16v-.14a1.53,1.53,0,0,0-.46-1.16,1.66,1.66,0,0,0-1.19-.44,1.72,1.72,0,0,0-1.25.46,1.6,1.6,0,0,0-.49,1.22v2s0,0,0,0a.05.05,0,0,0,.05,0,2.56,2.56,0,0,1,2-.75,2.78,2.78,0,0,1,2.66,1.48A4.32,4.32,0,0,1,766.9,652.05Zm-1.52,0a2.58,2.58,0,0,0-.28-1.3,1.61,1.61,0,0,0-1.55-.91,1.79,1.79,0,0,0-.95.24,1.5,1.5,0,0,0-.6.71,3,3,0,0,0-.26,1.34,2.67,2.67,0,0,0,.21,1.12,1.59,1.59,0,0,0,.62.77,1.82,1.82,0,0,0,1,.26,1.57,1.57,0,0,0,1.58-1A2.85,2.85,0,0,0,765.38,652.05Z"></path></g><g class="cls-1"><path class="cls-2" d="M767.4,649.77a1.08,1.08,0,0,1,0-1.45,1,1,0,0,1,.73-.29,1,1,0,0,1,.73.29,1.08,1.08,0,0,1,0,1.45,1,1,0,0,1-.73.29A1,1,0,0,1,767.4,649.77Zm0,5.27a1,1,0,0,1-.28-.73,1,1,0,0,1,.28-.73,1,1,0,0,1,.73-.28,1,1,0,0,1,1,1,1,1,0,0,1-.28.73,1,1,0,0,1-.73.28A1,1,0,0,1,767.4,655Z"></path><path class="cls-2" d="M772.83,654.75a3.28,3.28,0,0,1-.94-2.45v-4.68a3.23,3.23,0,0,1,.94-2.43,4,4,0,0,1,5.09,0,3.17,3.17,0,0,1,1,2.43v4.68a3.22,3.22,0,0,1-1,2.45,4,4,0,0,1-5.09,0Zm4-.94a1.91,1.91,0,0,0,.53-1.41v-4.84a2,2,0,0,0-.53-1.42,2,2,0,0,0-1.46-.52,1.94,1.94,0,0,0-1.42.52,1.91,1.91,0,0,0-.54,1.42v4.84a1.88,1.88,0,0,0,.54,1.41,1.91,1.91,0,0,0,1.42.53A2,2,0,0,0,776.83,653.81Z"></path></g><g class="cls-1"><path class="cls-2" d="M780.84,654.75a3.24,3.24,0,0,1-.94-2.45v-4.68a3.19,3.19,0,0,1,.94-2.43,3.52,3.52,0,0,1,2.54-.9,3.58,3.58,0,0,1,2.55.9,3.17,3.17,0,0,1,1,2.43v4.68a3.22,3.22,0,0,1-1,2.45,3.58,3.58,0,0,1-2.55.9A3.52,3.52,0,0,1,780.84,654.75Zm4-.94a1.88,1.88,0,0,0,.54-1.41v-4.84a1.91,1.91,0,0,0-.54-1.42,2.25,2.25,0,0,0-2.88,0,2,2,0,0,0-.53,1.42v4.84a1.91,1.91,0,0,0,.53,1.41,2.22,2.22,0,0,0,2.88,0Z"></path><path class="cls-2" d="M797.08,644.43h1.25a.14.14,0,0,1,.16.16v10.75a.14.14,0,0,1-.16.16h-1.2a.15.15,0,0,1-.16-.16v-9.28a.08.08,0,0,0,0,0h-.06l-1.66.57h-.08c-.06,0-.1,0-.11-.12l-.06-.9c0-.11,0-.17.1-.19l1.8-.9A.46.46,0,0,1,797.08,644.43Z"></path><path class="cls-2" d="M801.85,655.44a.12.12,0,0,1,0-.13l3.59-9.49a.06.06,0,0,0,0-.06l0,0h-3.81a.05.05,0,0,0-.06.06v.75a.14.14,0,0,1-.16.16h-1a.14.14,0,0,1-.15-.16v-2c0-.11,0-.16.15-.16h6.5a.14.14,0,0,1,.16.16v1.06a1,1,0,0,1,0,.19l-3.57,9.53a.19.19,0,0,1-.18.13H802A.14.14,0,0,1,801.85,655.44Z"></path></g><g class="cls-1"><path class="cls-2" d="M807.08,649.77a1.08,1.08,0,0,1,0-1.45,1,1,0,0,1,.73-.29,1,1,0,0,1,.73.29,1.08,1.08,0,0,1,0,1.45,1,1,0,0,1-.73.29A1,1,0,0,1,807.08,649.77Zm0,5.27a1,1,0,0,1-.28-.73,1,1,0,0,1,.28-.73,1,1,0,0,1,.73-.28,1,1,0,0,1,1,1,1,1,0,0,1-.28.73,1,1,0,0,1-.73.28A1,1,0,0,1,807.08,655Z"></path><path class="cls-2" d="M812.51,654.75a3.28,3.28,0,0,1-.94-2.45v-4.68a3.23,3.23,0,0,1,.94-2.43,4,4,0,0,1,5.09,0,3.17,3.17,0,0,1,1,2.43v4.68a3.22,3.22,0,0,1-1,2.45,4,4,0,0,1-5.09,0Zm4-.94a1.88,1.88,0,0,0,.54-1.41v-4.84a1.91,1.91,0,0,0-.54-1.42,2,2,0,0,0-1.45-.52,1.94,1.94,0,0,0-1.42.52,1.91,1.91,0,0,0-.54,1.42v4.84a1.88,1.88,0,0,0,.54,1.41,1.91,1.91,0,0,0,1.42.53A1.93,1.93,0,0,0,816.5,653.81Z"></path></g><g class="cls-1"><path class="cls-2" d="M820.53,654.75a3.24,3.24,0,0,1-.94-2.45v-4.68a3.19,3.19,0,0,1,.94-2.43,3.49,3.49,0,0,1,2.53-.9,3.59,3.59,0,0,1,2.56.9,3.2,3.2,0,0,1,1,2.43v4.68a3.25,3.25,0,0,1-1,2.45,3.59,3.59,0,0,1-2.56.9A3.49,3.49,0,0,1,820.53,654.75Zm4-.94a1.88,1.88,0,0,0,.54-1.41v-4.84a1.91,1.91,0,0,0-.54-1.42,2,2,0,0,0-1.46-.52,1.94,1.94,0,0,0-1.42.52,1.91,1.91,0,0,0-.54,1.42v4.84a1.88,1.88,0,0,0,.54,1.41,1.91,1.91,0,0,0,1.42.53A2,2,0,0,0,824.52,653.81Z"></path></g><g class="cls-1"><path class="cls-2" d="M835.57,644.43h1.25a.14.14,0,0,1,.16.16v10.75a.15.15,0,0,1-.16.16h-1.2a.14.14,0,0,1-.16-.16v-9.28a.05.05,0,0,0,0,0h0l-1.66.57h-.08c-.06,0-.1,0-.11-.12l-.06-.9c0-.11,0-.17.09-.19l1.8-.9A.54.54,0,0,1,835.57,644.43Z"></path></g><g class="cls-1"><path class="cls-2" d="M845.39,652.35a3.52,3.52,0,0,1-.44,1.77,2.75,2.75,0,0,1-1.13,1.11,3.82,3.82,0,0,1-1.77.39,3.77,3.77,0,0,1-1.78-.4,2.68,2.68,0,0,1-1.17-1.16,3.37,3.37,0,0,1-.43-1.73,3.63,3.63,0,0,1,.35-1.59,2.3,2.3,0,0,1,1-1.09c.06,0,.06,0,0-.08a3,3,0,0,1-.75-.79,2.66,2.66,0,0,1-.45-1.52,2.94,2.94,0,0,1,.54-1.71,2.7,2.7,0,0,1,1.1-.95,3.52,3.52,0,0,1,1.57-.35,3.46,3.46,0,0,1,1.57.35,2.74,2.74,0,0,1,1.07.95,3,3,0,0,1,.52,1.71,2.73,2.73,0,0,1-1.18,2.31s0,0,0,.08a2.45,2.45,0,0,1,1,1.12A3.51,3.51,0,0,1,845.39,652.35Zm-1.54-.13a2.6,2.6,0,0,0-.26-1.25,1.63,1.63,0,0,0-1.55-.82,1.59,1.59,0,0,0-1.52.78,2.52,2.52,0,0,0-.3,1.31,2.34,2.34,0,0,0,.33,1.3,1.63,1.63,0,0,0,1.5.75,1.56,1.56,0,0,0,1.44-.71A2.29,2.29,0,0,0,843.85,652.22Zm-3.5-5a1.81,1.81,0,0,0,.3,1.06A1.49,1.49,0,0,0,842,649a1.52,1.52,0,0,0,1.4-.73,1.79,1.79,0,0,0,.27-1.06,1.67,1.67,0,0,0-.2-.8,1.58,1.58,0,0,0-.59-.64,1.72,1.72,0,0,0-.9-.23,1.66,1.66,0,0,0-.87.23,1.58,1.58,0,0,0-.58.65A1.7,1.7,0,0,0,840.35,647.26Z"></path><path class="cls-2" d="M848.2,649.77a1.08,1.08,0,0,1,0-1.45,1,1,0,0,1,.73-.29,1,1,0,0,1,.73.29,1.08,1.08,0,0,1,0,1.45,1,1,0,0,1-.73.29A1,1,0,0,1,848.2,649.77Zm0,5.27a1,1,0,0,1-.28-.73,1,1,0,0,1,.28-.73,1,1,0,0,1,.73-.28,1,1,0,0,1,1,1,1,1,0,0,1-.28.73,1,1,0,0,1-.73.28A1,1,0,0,1,848.2,655Z"></path></g><g class="cls-1"><path class="cls-2" d="M852.19,654.75a3.24,3.24,0,0,1-.94-2.45v-4.68a3.19,3.19,0,0,1,.94-2.43,3.52,3.52,0,0,1,2.54-.9,3.58,3.58,0,0,1,2.55.9,3.17,3.17,0,0,1,1,2.43v4.68a3.22,3.22,0,0,1-1,2.45,3.58,3.58,0,0,1-2.55.9A3.52,3.52,0,0,1,852.19,654.75Zm4-.94a1.88,1.88,0,0,0,.54-1.41v-4.84a1.91,1.91,0,0,0-.54-1.42,2,2,0,0,0-1.45-.52,1.83,1.83,0,0,0-2,1.94v4.84a1.84,1.84,0,0,0,2,1.94A2,2,0,0,0,856.18,653.81Z"></path><path class="cls-2" d="M861.14,654.75a3.24,3.24,0,0,1-.94-2.45v-4.68a3.19,3.19,0,0,1,.94-2.43,3.52,3.52,0,0,1,2.54-.9,3.58,3.58,0,0,1,2.55.9,3.17,3.17,0,0,1,1,2.43v4.68a3.22,3.22,0,0,1-1,2.45,3.58,3.58,0,0,1-2.55.9A3.52,3.52,0,0,1,861.14,654.75Zm4-.94a1.88,1.88,0,0,0,.54-1.41v-4.84a1.91,1.91,0,0,0-.54-1.42,2.25,2.25,0,0,0-2.88,0,2,2,0,0,0-.53,1.42v4.84a1.91,1.91,0,0,0,.53,1.41,2.22,2.22,0,0,0,2.88,0Z"></path></g><g class="cls-1"><path class="cls-2" d="M876.39,644.43h1.25a.14.14,0,0,1,.16.16v10.75a.14.14,0,0,1-.16.16h-1.2a.15.15,0,0,1-.16-.16v-9.28s0,0,0,0h0l-1.67.57h-.07c-.07,0-.1,0-.11-.12l-.07-.9c0-.11,0-.17.1-.19l1.8-.9A.46.46,0,0,1,876.39,644.43Z"></path><path class="cls-2" d="M886.47,647.91v4.87a2.58,2.58,0,0,1-.91,2.07,3.5,3.5,0,0,1-2.35.77,3.64,3.64,0,0,1-1.65-.35,2.66,2.66,0,0,1-1.12-1,2.62,2.62,0,0,1-.39-1.43v-.31a.14.14,0,0,1,.16-.16h1.2c.1,0,.15.05.15.16v.14a1.54,1.54,0,0,0,.46,1.15,1.62,1.62,0,0,0,1.19.44,1.79,1.79,0,0,0,1.25-.45,1.63,1.63,0,0,0,.49-1.22v-2a.05.05,0,0,0,0,0s0,0,0,0a2.48,2.48,0,0,1-2,.78,3.24,3.24,0,0,1-1.6-.38,2.57,2.57,0,0,1-1-1.11,4.13,4.13,0,0,1-.45-2,4.52,4.52,0,0,1,.3-1.7,2.89,2.89,0,0,1,1.14-1.38,3.49,3.49,0,0,1,1.87-.48,3.43,3.43,0,0,1,2,.54,2.9,2.9,0,0,1,1.16,1.51A4.57,4.57,0,0,1,886.47,647.91ZM885,647.8a2.71,2.71,0,0,0-.21-1.13,1.55,1.55,0,0,0-.61-.76,1.8,1.8,0,0,0-1-.26,1.74,1.74,0,0,0-1,.26,1.49,1.49,0,0,0-.59.75,3.22,3.22,0,0,0,0,2.51,1.64,1.64,0,0,0,1.55.92,1.6,1.6,0,0,0,1.57-1A3.24,3.24,0,0,0,885,647.8Z"></path></g><g class="cls-1"><path class="cls-2" d="M888,649.77a1.05,1.05,0,1,1,.73.29A1,1,0,0,1,888,649.77Zm0,5.27a1,1,0,0,1-.29-.73,1,1,0,0,1,.29-.73,1.08,1.08,0,0,1,1.45,0,1,1,0,0,1,.29.73,1,1,0,0,1-.29.73,1.08,1.08,0,0,1-1.45,0Z"></path><path class="cls-2" d="M893.38,654.75a3.24,3.24,0,0,1-.94-2.45v-4.68a3.19,3.19,0,0,1,.94-2.43,3.52,3.52,0,0,1,2.54-.9,3.58,3.58,0,0,1,2.55.9,3.17,3.17,0,0,1,1,2.43v4.68a3.22,3.22,0,0,1-1,2.45,3.58,3.58,0,0,1-2.55.9A3.52,3.52,0,0,1,893.38,654.75Zm4-.94a1.88,1.88,0,0,0,.54-1.41v-4.84a1.91,1.91,0,0,0-.54-1.42,2.25,2.25,0,0,0-2.88,0,2,2,0,0,0-.53,1.42v4.84a1.91,1.91,0,0,0,.53,1.41,2.22,2.22,0,0,0,2.88,0Z"></path></g><g class="cls-1"><path class="cls-2" d="M901.39,654.75a3.25,3.25,0,0,1-.95-2.45v-4.68a3.2,3.2,0,0,1,.95-2.43,3.49,3.49,0,0,1,2.53-.9,3.59,3.59,0,0,1,2.56.9,3.2,3.2,0,0,1,.95,2.43v4.68a3.25,3.25,0,0,1-.95,2.45,3.59,3.59,0,0,1-2.56.9A3.49,3.49,0,0,1,901.39,654.75Zm4-.94a1.88,1.88,0,0,0,.54-1.41v-4.84a1.91,1.91,0,0,0-.54-1.42,2,2,0,0,0-1.46-.52,1.94,1.94,0,0,0-1.42.52,1.91,1.91,0,0,0-.54,1.42v4.84a1.88,1.88,0,0,0,.54,1.41,1.91,1.91,0,0,0,1.42.53A2,2,0,0,0,905.38,653.81Z"></path><path class="cls-2" d="M914.41,654.16s0,0,0,0h4.76a.14.14,0,0,1,.16.16v1a.14.14,0,0,1-.16.16h-6.62a.14.14,0,0,1-.16-.16v-1a.29.29,0,0,1,.08-.19c.36-.41,1.18-1.37,2.46-2.89l1.1-1.31a5.15,5.15,0,0,0,1.47-2.72,1.53,1.53,0,0,0-.5-1.19,2.15,2.15,0,0,0-2.63,0,1.53,1.53,0,0,0-.48,1.2v.48a.14.14,0,0,1-.16.16h-1.22a.14.14,0,0,1-.15-.16v-.68a2.65,2.65,0,0,1,.46-1.45,2.84,2.84,0,0,1,1.18-1,4.1,4.1,0,0,1,1.68-.34,4,4,0,0,1,1.77.38,2.77,2.77,0,0,1,1.58,2.55,5.39,5.39,0,0,1-1.42,3.1c-.43.53-.93,1.14-1.51,1.81s-1.16,1.32-1.73,2C914.39,654.13,914.39,654.14,914.41,654.16Z"></path><path class="cls-2" d="M922.1,654.75a3.24,3.24,0,0,1-.94-2.45v-4.68a3.19,3.19,0,0,1,.94-2.43,3.49,3.49,0,0,1,2.53-.9,3.59,3.59,0,0,1,2.56.9,3.16,3.16,0,0,1,.95,2.43v4.68a3.21,3.21,0,0,1-.95,2.45,3.59,3.59,0,0,1-2.56.9A3.49,3.49,0,0,1,922.1,654.75Zm4-.94a1.88,1.88,0,0,0,.54-1.41v-4.84a1.91,1.91,0,0,0-.54-1.42,2,2,0,0,0-1.46-.52,1.94,1.94,0,0,0-1.42.52,1.91,1.91,0,0,0-.54,1.42v4.84a1.88,1.88,0,0,0,.54,1.41,1.91,1.91,0,0,0,1.42.53A2,2,0,0,0,926.09,653.81Z"></path></g><g class="cls-1"><path class="cls-2" d="M929.31,649.77a1.05,1.05,0,1,1,.73.29A1,1,0,0,1,929.31,649.77Zm0,5.27a1,1,0,0,1-.29-.73,1,1,0,0,1,.29-.73,1.08,1.08,0,0,1,1.45,0,1,1,0,0,1,.29.73,1,1,0,0,1-.29.73,1.08,1.08,0,0,1-1.45,0Z"></path><path class="cls-2" d="M934.74,654.75a3.24,3.24,0,0,1-.94-2.45v-4.68a3.19,3.19,0,0,1,.94-2.43,3.52,3.52,0,0,1,2.54-.9,3.58,3.58,0,0,1,2.55.9,3.17,3.17,0,0,1,1,2.43v4.68a3.22,3.22,0,0,1-1,2.45,3.58,3.58,0,0,1-2.55.9A3.52,3.52,0,0,1,934.74,654.75Zm4-.94a1.88,1.88,0,0,0,.54-1.41v-4.84a1.91,1.91,0,0,0-.54-1.42,2.25,2.25,0,0,0-2.88,0,2,2,0,0,0-.53,1.42v4.84a1.91,1.91,0,0,0,.53,1.41,2.22,2.22,0,0,0,2.88,0Z"></path></g><g class="cls-1"><path class="cls-2" d="M942.75,654.75a3.25,3.25,0,0,1-1-2.45v-4.68a3.2,3.2,0,0,1,1-2.43,3.49,3.49,0,0,1,2.53-.9,3.59,3.59,0,0,1,2.56.9,3.2,3.2,0,0,1,.95,2.43v4.68a3.25,3.25,0,0,1-.95,2.45,3.59,3.59,0,0,1-2.56.9A3.49,3.49,0,0,1,942.75,654.75Zm4-.94a1.91,1.91,0,0,0,.53-1.41v-4.84a2,2,0,0,0-.53-1.42,2,2,0,0,0-1.46-.52,1.94,1.94,0,0,0-1.42.52,1.91,1.91,0,0,0-.54,1.42v4.84a1.88,1.88,0,0,0,.54,1.41,1.91,1.91,0,0,0,1.42.53A2,2,0,0,0,946.74,653.81Z"></path><path class="cls-2" d="M958.93,654.16s0,0,0,0h4.76a.14.14,0,0,1,.16.16v1a.14.14,0,0,1-.16.16h-6.62a.14.14,0,0,1-.16-.16v-1a.29.29,0,0,1,.08-.19c.36-.41,1.18-1.37,2.47-2.89l1.09-1.31a5.08,5.08,0,0,0,1.47-2.72,1.53,1.53,0,0,0-.5-1.19,2.15,2.15,0,0,0-2.63,0,1.53,1.53,0,0,0-.48,1.2v.48a.14.14,0,0,1-.16.16h-1.21a.14.14,0,0,1-.16-.16v-.68a2.65,2.65,0,0,1,.46-1.45,2.84,2.84,0,0,1,1.18-1,4.13,4.13,0,0,1,1.68-.34,4,4,0,0,1,1.77.38,2.72,2.72,0,0,1,1.17,1.05,2.81,2.81,0,0,1,.41,1.5,5.33,5.33,0,0,1-1.42,3.1c-.42.53-.92,1.14-1.5,1.81s-1.16,1.32-1.74,2A.06.06,0,0,0,958.93,654.16Z"></path><path class="cls-2" d="M967.42,644.43h1.25c.1,0,.15.05.15.16v10.75a.14.14,0,0,1-.15.16h-1.21a.14.14,0,0,1-.15-.16v-9.28a.05.05,0,0,0,0,0h0l-1.66.57h-.08c-.07,0-.1,0-.11-.12l-.07-.9c0-.11,0-.17.1-.19l1.8-.9A.46.46,0,0,1,967.42,644.43Z"></path></g><g class="cls-1"><path class="cls-2" d="M969.9,649.77a1.08,1.08,0,0,1,0-1.45,1,1,0,0,1,.73-.29,1,1,0,0,1,.73.29,1.08,1.08,0,0,1,0,1.45,1,1,0,0,1-.73.29A1,1,0,0,1,969.9,649.77Zm0,5.27a1,1,0,0,1-.28-.73,1,1,0,0,1,.28-.73,1,1,0,0,1,.73-.28,1,1,0,0,1,1,1,1,1,0,0,1-.28.73,1,1,0,0,1-.73.28A1,1,0,0,1,969.9,655Z"></path><path class="cls-2" d="M975.33,654.75a3.28,3.28,0,0,1-.94-2.45v-4.68a3.23,3.23,0,0,1,.94-2.43,4,4,0,0,1,5.09,0,3.17,3.17,0,0,1,1,2.43v4.68a3.22,3.22,0,0,1-1,2.45,4,4,0,0,1-5.09,0Zm4-.94a1.91,1.91,0,0,0,.53-1.41v-4.84a2,2,0,0,0-.53-1.42,2,2,0,0,0-1.46-.52,1.94,1.94,0,0,0-1.42.52,1.91,1.91,0,0,0-.54,1.42v4.84a1.88,1.88,0,0,0,.54,1.41,1.91,1.91,0,0,0,1.42.53A2,2,0,0,0,979.33,653.81Z"></path></g><g class="cls-1"><path class="cls-2" d="M983.34,654.75a3.24,3.24,0,0,1-.94-2.45v-4.68a3.19,3.19,0,0,1,.94-2.43,3.52,3.52,0,0,1,2.54-.9,3.58,3.58,0,0,1,2.55.9,3.17,3.17,0,0,1,1,2.43v4.68a3.22,3.22,0,0,1-1,2.45,3.58,3.58,0,0,1-2.55.9A3.52,3.52,0,0,1,983.34,654.75Zm4-.94a1.88,1.88,0,0,0,.54-1.41v-4.84a1.91,1.91,0,0,0-.54-1.42,2.25,2.25,0,0,0-2.88,0,1.91,1.91,0,0,0-.53,1.42v4.84a1.87,1.87,0,0,0,.53,1.41,2.22,2.22,0,0,0,2.88,0Z"></path><path class="cls-2" d="M999.52,654.16s0,0,.05,0h4.76a.14.14,0,0,1,.15.16v1a.14.14,0,0,1-.15.16H997.7a.15.15,0,0,1-.16-.16v-1a.29.29,0,0,1,.08-.19c.36-.41,1.18-1.37,2.47-2.89l1.09-1.31a5.08,5.08,0,0,0,1.47-2.72,1.53,1.53,0,0,0-.5-1.19,1.84,1.84,0,0,0-1.32-.45,1.86,1.86,0,0,0-1.31.45,1.52,1.52,0,0,0-.47,1.2v.48a.15.15,0,0,1-.16.16h-1.22a.14.14,0,0,1-.16-.16v-.68a2.66,2.66,0,0,1,.47-1.45,2.78,2.78,0,0,1,1.18-1,4,4,0,0,1,1.67-.34,3.91,3.91,0,0,1,1.77.38,2.77,2.77,0,0,1,1.58,2.55,5.33,5.33,0,0,1-1.42,3.1c-.42.53-.92,1.14-1.5,1.81s-1.16,1.32-1.74,2A.06.06,0,0,0,999.52,654.16Z"></path><path class="cls-2" d="M1008.12,654.16s0,0,0,0h4.76a.14.14,0,0,1,.15.16v1a.14.14,0,0,1-.15.16h-6.63a.15.15,0,0,1-.16-.16v-1a.29.29,0,0,1,.08-.19c.36-.41,1.18-1.37,2.47-2.89l1.09-1.31a5.08,5.08,0,0,0,1.47-2.72,1.53,1.53,0,0,0-.5-1.19,1.84,1.84,0,0,0-1.32-.45,1.86,1.86,0,0,0-1.31.45,1.52,1.52,0,0,0-.47,1.2v.48a.15.15,0,0,1-.16.16h-1.22a.15.15,0,0,1-.16-.16v-.68a2.66,2.66,0,0,1,.47-1.45,2.78,2.78,0,0,1,1.18-1,4,4,0,0,1,1.67-.34,3.91,3.91,0,0,1,1.77.38,2.77,2.77,0,0,1,1.58,2.55,5.33,5.33,0,0,1-1.42,3.1c-.42.53-.92,1.14-1.5,1.81s-1.16,1.32-1.74,2A.06.06,0,0,0,1008.12,654.16Z"></path></g><g class="cls-1"><path class="cls-2" d="M1014,649.77a1.05,1.05,0,1,1,.73.29A1,1,0,0,1,1014,649.77Zm0,5.27a1,1,0,0,1-.29-.73,1,1,0,0,1,.29-.73,1.08,1.08,0,0,1,1.45,0,1,1,0,0,1,.29.73,1,1,0,0,1-.29.73,1.08,1.08,0,0,1-1.45,0Z"></path><path class="cls-2" d="M1019.38,654.75a3.24,3.24,0,0,1-.94-2.45v-4.68a3.19,3.19,0,0,1,.94-2.43,3.52,3.52,0,0,1,2.54-.9,3.58,3.58,0,0,1,2.55.9,3.17,3.17,0,0,1,1,2.43v4.68a3.22,3.22,0,0,1-1,2.45,3.58,3.58,0,0,1-2.55.9A3.52,3.52,0,0,1,1019.38,654.75Zm4-.94a1.88,1.88,0,0,0,.54-1.41v-4.84a1.91,1.91,0,0,0-.54-1.42,2.25,2.25,0,0,0-2.88,0,2,2,0,0,0-.53,1.42v4.84a1.91,1.91,0,0,0,.53,1.41,2.22,2.22,0,0,0,2.88,0Z"></path></g><g class="cls-1"><path class="cls-2" d="M1027.39,654.75a3.25,3.25,0,0,1-1-2.45v-4.68a3.2,3.2,0,0,1,1-2.43,3.49,3.49,0,0,1,2.53-.9,3.59,3.59,0,0,1,2.56.9,3.2,3.2,0,0,1,1,2.43v4.68a3.25,3.25,0,0,1-1,2.45,3.59,3.59,0,0,1-2.56.9A3.49,3.49,0,0,1,1027.39,654.75Zm4-.94a1.88,1.88,0,0,0,.54-1.41v-4.84a1.91,1.91,0,0,0-.54-1.42,2,2,0,0,0-1.46-.52,1.94,1.94,0,0,0-1.42.52,1.91,1.91,0,0,0-.54,1.42v4.84a1.88,1.88,0,0,0,.54,1.41,1.91,1.91,0,0,0,1.42.53A2,2,0,0,0,1031.38,653.81Z"></path><path class="cls-2" d="M1043.57,654.16s0,0,0,0h4.76a.14.14,0,0,1,.16.16v1a.14.14,0,0,1-.16.16h-6.62a.14.14,0,0,1-.16-.16v-1a.29.29,0,0,1,.08-.19c.36-.41,1.18-1.37,2.47-2.89l1.09-1.31a5.08,5.08,0,0,0,1.47-2.72,1.53,1.53,0,0,0-.5-1.19,2.15,2.15,0,0,0-2.63,0,1.53,1.53,0,0,0-.48,1.2v.48a.14.14,0,0,1-.16.16h-1.21a.14.14,0,0,1-.16-.16v-.68a2.66,2.66,0,0,1,.47-1.45,2.81,2.81,0,0,1,1.17-1,4.13,4.13,0,0,1,1.68-.34,4,4,0,0,1,1.77.38,2.72,2.72,0,0,1,1.17,1.05,2.81,2.81,0,0,1,.41,1.5,5.33,5.33,0,0,1-1.42,3.1c-.42.53-.92,1.14-1.5,1.81s-1.16,1.32-1.74,2A.06.06,0,0,0,1043.57,654.16Z"></path><path class="cls-2" d="M1056.58,652a4.8,4.8,0,0,1-.25,1.55,2.91,2.91,0,0,1-1.16,1.51,3.4,3.4,0,0,1-1.94.53,3.32,3.32,0,0,1-2-.58,3.09,3.09,0,0,1-1.16-1.58,3.92,3.92,0,0,1-.21-1.27.14.14,0,0,1,.16-.16h1.22a.14.14,0,0,1,.15.16,3.89,3.89,0,0,0,.13.84,1.74,1.74,0,0,0,.59.93,1.7,1.7,0,0,0,1.09.35,1.57,1.57,0,0,0,1.61-1.09,3.1,3.1,0,0,0,.2-1.23,3.81,3.81,0,0,0-.25-1.44,1.58,1.58,0,0,0-1.58-1,1.51,1.51,0,0,0-.68.23.16.16,0,0,1-.09,0,.14.14,0,0,1-.13-.08l-.6-.83a.23.23,0,0,1,0-.11.21.21,0,0,1,0-.11l2.71-2.89c0-.05,0-.08,0-.08h-4.21a.14.14,0,0,1-.16-.16v-1a.14.14,0,0,1,.16-.16h6.14c.1,0,.15.05.15.16v1.14a.32.32,0,0,1-.08.19l-2.4,2.62s0,0,0,.05a.09.09,0,0,0,.06,0,2.54,2.54,0,0,1,2.21,1.62A4.67,4.67,0,0,1,1056.58,652Z"></path></g><g class="cls-1"><path class="cls-2" d="M1057.31,649.77a1.05,1.05,0,1,1,.73.29A1,1,0,0,1,1057.31,649.77Zm0,5.27a1,1,0,0,1-.29-.73,1,1,0,0,1,.29-.73,1.08,1.08,0,0,1,1.45,0,1,1,0,0,1,.29.73,1,1,0,0,1-.29.73,1.08,1.08,0,0,1-1.45,0Z"></path><path class="cls-2" d="M1062.74,654.75a3.24,3.24,0,0,1-.94-2.45v-4.68a3.19,3.19,0,0,1,.94-2.43,3.52,3.52,0,0,1,2.54-.9,3.58,3.58,0,0,1,2.55.9,3.17,3.17,0,0,1,1,2.43v4.68a3.22,3.22,0,0,1-1,2.45,3.58,3.58,0,0,1-2.55.9A3.52,3.52,0,0,1,1062.74,654.75Zm4-.94a1.88,1.88,0,0,0,.54-1.41v-4.84a1.91,1.91,0,0,0-.54-1.42,2.25,2.25,0,0,0-2.88,0,2,2,0,0,0-.53,1.42v4.84a1.91,1.91,0,0,0,.53,1.41,2.22,2.22,0,0,0,2.88,0Z"></path></g><g class="cls-1"><path class="cls-2" d="M1070.75,654.75a3.28,3.28,0,0,1-.94-2.45v-4.68a3.23,3.23,0,0,1,.94-2.43,4,4,0,0,1,5.09,0,3.17,3.17,0,0,1,1,2.43v4.68a3.22,3.22,0,0,1-1,2.45,4,4,0,0,1-5.09,0Zm4-.94a1.91,1.91,0,0,0,.53-1.41v-4.84a2,2,0,0,0-.53-1.42,2,2,0,0,0-1.46-.52,1.94,1.94,0,0,0-1.42.52,1.91,1.91,0,0,0-.54,1.42v4.84a1.88,1.88,0,0,0,.54,1.41,1.91,1.91,0,0,0,1.42.53A2,2,0,0,0,1074.75,653.81Z"></path></g><g class="cls-1"><path class="cls-2" d="M1085.73,654.16s0,0,0,0h4.76a.15.15,0,0,1,.16.16v1a.15.15,0,0,1-.16.16h-6.63a.14.14,0,0,1-.15-.16v-1a.28.28,0,0,1,.07-.19c.36-.41,1.19-1.37,2.47-2.89l1.09-1.31a5.08,5.08,0,0,0,1.47-2.72,1.49,1.49,0,0,0-.5-1.19,1.84,1.84,0,0,0-1.32-.45,1.88,1.88,0,0,0-1.31.45,1.55,1.55,0,0,0-.47,1.2v.48a.14.14,0,0,1-.16.16h-1.22a.15.15,0,0,1-.16-.16v-.68a2.75,2.75,0,0,1,.47-1.45,2.78,2.78,0,0,1,1.18-1,4,4,0,0,1,1.67-.34,4,4,0,0,1,1.78.38,2.77,2.77,0,0,1,1.58,2.55,5.35,5.35,0,0,1-1.43,3.1c-.42.53-.92,1.14-1.5,1.81s-1.16,1.32-1.74,2A.06.06,0,0,0,1085.73,654.16Z"></path><path class="cls-2" d="M1099.63,651.32v1c0,.1-.05.15-.16.15h-.68s-.06,0-.06.07v2.75a.15.15,0,0,1-.16.16h-1.2a.14.14,0,0,1-.16-.16v-2.75c0-.05,0-.07-.06-.07h-4.81a.14.14,0,0,1-.16-.15v-.86a.59.59,0,0,1,0-.19l3.11-6.78a.19.19,0,0,1,.18-.11h1.26a.14.14,0,0,1,.12.05.14.14,0,0,1,0,.14l-3,6.46a.06.06,0,0,0,0,.06s0,0,0,0h3.17a.05.05,0,0,0,.06-.06v-2.35a.14.14,0,0,1,.16-.16h1.2a.14.14,0,0,1,.16.16v2.35a.05.05,0,0,0,.06.06h.68A.14.14,0,0,1,1099.63,651.32Z"></path></g><g class="cls-1"><path class="cls-2" d="M1100.71,649.77a1.05,1.05,0,1,1,.72.29A1,1,0,0,1,1100.71,649.77Zm0,5.27a1,1,0,0,1-.29-.73,1,1,0,0,1,.29-.73,1.08,1.08,0,0,1,1.45,0,1,1,0,0,1,.29.73,1,1,0,0,1-1,1A1,1,0,0,1,1100.71,655Z"></path><path class="cls-2" d="M1106.14,654.75a3.24,3.24,0,0,1-.94-2.45v-4.68a3.19,3.19,0,0,1,.94-2.43,3.49,3.49,0,0,1,2.53-.9,3.59,3.59,0,0,1,2.56.9,3.16,3.16,0,0,1,1,2.43v4.68a3.21,3.21,0,0,1-1,2.45,3.59,3.59,0,0,1-2.56.9A3.49,3.49,0,0,1,1106.14,654.75Zm4-.94a1.88,1.88,0,0,0,.54-1.41v-4.84a1.91,1.91,0,0,0-.54-1.42,2,2,0,0,0-1.46-.52,1.94,1.94,0,0,0-1.42.52,1.91,1.91,0,0,0-.54,1.42v4.84a1.88,1.88,0,0,0,.54,1.41,1.91,1.91,0,0,0,1.42.53A2,2,0,0,0,1110.13,653.81Z"></path></g><g class="cls-1"><path class="cls-2" d="M1114.14,654.75a3.28,3.28,0,0,1-.94-2.45v-4.68a3.23,3.23,0,0,1,.94-2.43,4,4,0,0,1,5.09,0,3.17,3.17,0,0,1,1,2.43v4.68a3.22,3.22,0,0,1-1,2.45,4,4,0,0,1-5.09,0Zm4-.94a1.91,1.91,0,0,0,.53-1.41v-4.84a2,2,0,0,0-.53-1.42,2,2,0,0,0-1.46-.52,1.94,1.94,0,0,0-1.42.52,1.91,1.91,0,0,0-.54,1.42v4.84a1.88,1.88,0,0,0,.54,1.41,1.91,1.91,0,0,0,1.42.53A2,2,0,0,0,1118.14,653.81Z"></path></g><polyline class="cls-2" points="74.7 623.1 1121.2 623.1 1121.2 621.1 74.7 621.1 74.7 623.1"></polyline><polyline class="cls-3" points="427.6 133.5 427.6 623.1 542.8 623.1 542.8 133.5 427.6 133.5"></polyline><polyline class="cls-3" points="666.3 128.4 666.3 623.1 781.5 623.1 781.5 128.4 666.3 128.4"></polyline><polyline class="cls-3" points="902.9 128.4 902.9 623.1 974.3 623.1 974.3 128.4 902.9 128.4"></polyline><polyline class="cls-4" points="1121.2 621.1 1121.2 621.1 974.3 621.1 974.3 506.9 1121.2 506.9 1121.2 621.1"></polyline><polyline class="cls-4" points="902.9 621.1 781.5 621.1 781.5 354.9 860.1 354.9 860.1 506.9 902.9 506.9 902.9 621.1"></polyline><path class="cls-4" d="M666.3,621.1H542.8V354.9H666.2V621.1m-238.6,0H74.7V506.9H427.6V621.1"></path><polyline class="cls-5" points="542.8 621.1 427.6 621.1 427.6 506.9 482.7 506.9 482.7 354.9 542.8 354.9 542.8 621.1"></polyline><polyline class="cls-5" points="781.5 621.1 666.3 621.1 666.3 354.9 781.5 354.9 781.5 621.1"></polyline><polyline class="cls-5" points="974.3 621.1 902.9 621.1 902.9 506.9 974.3 506.9 974.3 621.1"></polyline><polyline class="cls-2" points="74.7 87.6 1121.2 87.6 1121.2 85.6 74.7 85.6"></polyline><polyline class="cls-2" points="74.7 164.1 1121.2 164.1 1121.2 162.1 74.7 162.1"></polyline><polyline class="cls-2" points="74.7 240.6 1121.2 240.6 1121.2 238.6 74.7 238.6"></polyline><polyline class="cls-2" points="74.7 317.1 1121.2 317.1 1121.2 315.1 74.7 315.1"></polyline><polyline class="cls-2" points="74.7 393.6 1121.2 393.6 1121.2 391.6 74.7 391.6"></polyline><polyline class="cls-2" points="74.7 470.1 1121.2 470.1 1121.2 468.1 74.7 468.1"></polyline><polyline class="cls-2" points="74.7 546.6 1121.2 546.6 1121.2 544.6 74.7 544.6"></polyline><g class="cls-1"><path d="M13.86,77.64h1.93a.22.22,0,0,1,.25.25V94.53a.22.22,0,0,1-.25.25H13.93c-.16,0-.24-.08-.24-.25V80.16a.08.08,0,0,0,0-.07s-.05,0-.09,0L11,81a.21.21,0,0,1-.12,0c-.1,0-.15-.07-.17-.2l-.1-1.4c0-.16.05-.26.15-.29l2.79-1.4A.83.83,0,0,1,13.86,77.64Z"></path><path d="M30.58,88.31v1.62c0,.16-.08.24-.25.24h-1a.09.09,0,0,0-.1.1v4.26c0,.17-.08.25-.24.25H27.08a.22.22,0,0,1-.25-.25V90.27a.09.09,0,0,0-.1-.1H19.29a.21.21,0,0,1-.24-.24V88.61a.79.79,0,0,1,.07-.3l4.82-10.5a.28.28,0,0,1,.27-.17h2a.23.23,0,0,1,.19.09.22.22,0,0,1,0,.21l-4.6,10a.06.06,0,0,0,0,.08.07.07,0,0,0,.07,0h4.89c.07,0,.1,0,.1-.1V84.32c0-.16.08-.24.25-.24h1.86a.21.21,0,0,1,.24.24V88a.09.09,0,0,0,.1.1h1C30.5,88.07,30.58,88.15,30.58,88.31Z"></path><path d="M34.92,93.61a5,5,0,0,1-1.45-3.78V82.59a5,5,0,0,1,1.45-3.77,5.44,5.44,0,0,1,3.93-1.4,5.55,5.55,0,0,1,4,1.4,5,5,0,0,1,1.48,3.77v7.24a5,5,0,0,1-1.48,3.78,5.51,5.51,0,0,1-4,1.41A5.41,5.41,0,0,1,34.92,93.61Zm6.18-1.44A2.93,2.93,0,0,0,41.94,90V82.49a2.9,2.9,0,0,0-.84-2.19,3,3,0,0,0-2.25-.82,3,3,0,0,0-2.2.82,2.89,2.89,0,0,0-.83,2.19V90a2.92,2.92,0,0,0,.83,2.19,3,3,0,0,0,2.2.82A3,3,0,0,0,41.1,92.17Z"></path></g><g class="cls-1"><path d="M1151.76,77.64h1.94c.16,0,.24.08.24.25V94.53c0,.17-.08.25-.24.25h-1.86a.22.22,0,0,1-.25-.25V80.16a.09.09,0,0,0,0-.07.08.08,0,0,0-.09,0l-2.57.88a.21.21,0,0,1-.12,0c-.1,0-.16-.07-.17-.2l-.1-1.4c0-.16,0-.26.15-.29l2.79-1.4A.78.78,0,0,1,1151.76,77.64Z"></path><path d="M1158.88,93.61a5,5,0,0,1-1.46-3.78V82.59a4.93,4.93,0,0,1,1.46-3.77,5.44,5.44,0,0,1,3.92-1.4,5.55,5.55,0,0,1,4,1.4,4.91,4.91,0,0,1,1.48,3.77v7.24a4.93,4.93,0,0,1-1.48,3.78,5.51,5.51,0,0,1-4,1.41A5.4,5.4,0,0,1,1158.88,93.61Zm6.18-1.44a3,3,0,0,0,.83-2.19V82.49a2.93,2.93,0,0,0-.83-2.19,3.08,3.08,0,0,0-2.26-.82,3,3,0,0,0-2.2.82,2.93,2.93,0,0,0-.83,2.19V90a3,3,0,0,0,.83,2.19,3,3,0,0,0,2.2.82A3.08,3.08,0,0,0,1165.06,92.17Z"></path><path d="M1172.73,93.61a5,5,0,0,1-1.46-3.78V82.59a5,5,0,0,1,1.46-3.77,5.44,5.44,0,0,1,3.93-1.4,5.51,5.51,0,0,1,3.95,1.4,4.91,4.91,0,0,1,1.48,3.77v7.24a4.93,4.93,0,0,1-1.48,3.78,5.47,5.47,0,0,1-3.95,1.41A5.41,5.41,0,0,1,1172.73,93.61Zm6.18-1.44a2.93,2.93,0,0,0,.84-2.19V82.49a2.9,2.9,0,0,0-.84-2.19,3,3,0,0,0-2.25-.82,3,3,0,0,0-2.2.82,2.9,2.9,0,0,0-.84,2.19V90a2.93,2.93,0,0,0,.84,2.19,3,3,0,0,0,2.2.82A3,3,0,0,0,1178.91,92.17Z"></path></g><g class="cls-1"><path d="M1172.73,629.41a5,5,0,0,1-1.46-3.78v-7.25a5,5,0,0,1,1.46-3.77,5.44,5.44,0,0,1,3.93-1.39,5.52,5.52,0,0,1,3.95,1.39,4.93,4.93,0,0,1,1.48,3.77v7.25a5,5,0,0,1-1.48,3.78,5.49,5.49,0,0,1-3.95,1.41A5.41,5.41,0,0,1,1172.73,629.41Zm6.18-1.44a3,3,0,0,0,.83-2.19v-7.49a3,3,0,0,0-.83-2.2,3.11,3.11,0,0,0-2.25-.82,3,3,0,0,0-2.21.82,3,3,0,0,0-.83,2.2v7.49a3,3,0,0,0,.83,2.19,3,3,0,0,0,2.21.82A3.11,3.11,0,0,0,1178.91,628Z"></path></g><g class="cls-1"><path d="M1168.48,196.45a5.38,5.38,0,0,1-.68,2.74,4.09,4.09,0,0,1-1.75,1.72,5.78,5.78,0,0,1-2.73.61,6,6,0,0,1-2.77-.62,4.2,4.2,0,0,1-1.81-1.8,5.29,5.29,0,0,1-.66-2.67,5.62,5.62,0,0,1,.54-2.47,3.63,3.63,0,0,1,1.59-1.69c.08,0,.08-.08,0-.13a4.64,4.64,0,0,1-1.18-1.22,4.2,4.2,0,0,1-.68-2.35,4.57,4.57,0,0,1,.83-2.64,4.29,4.29,0,0,1,1.7-1.47,5.43,5.43,0,0,1,2.44-.54,5.23,5.23,0,0,1,2.42.54,4.34,4.34,0,0,1,1.67,1.47,4.69,4.69,0,0,1,.8,2.64,4.36,4.36,0,0,1-.68,2.4,4.13,4.13,0,0,1-1.15,1.17c-.08.05-.08.09,0,.13A3.78,3.78,0,0,1,1168,194,5.5,5.5,0,0,1,1168.48,196.45Zm-2.37-.19a4,4,0,0,0-.42-1.94,2.9,2.9,0,0,0-4.75-.07,3.94,3.94,0,0,0-.46,2,3.61,3.61,0,0,0,.51,2,2.52,2.52,0,0,0,2.33,1.17,2.46,2.46,0,0,0,2.23-1.1A3.56,3.56,0,0,0,1166.11,196.26Zm-5.44-7.69a2.79,2.79,0,0,0,.47,1.64,2.32,2.32,0,0,0,2.15,1.1,2.39,2.39,0,0,0,2.18-1.12,2.8,2.8,0,0,0,.42-1.64,2.5,2.5,0,0,0-.32-1.25,2.39,2.39,0,0,0-.91-1,2.51,2.51,0,0,0-1.39-.37,2.44,2.44,0,0,0-2.25,1.37A2.63,2.63,0,0,0,1160.67,188.57Z"></path><path d="M1172.73,200.16a5,5,0,0,1-1.46-3.78v-7.25a5,5,0,0,1,1.46-3.77,5.44,5.44,0,0,1,3.93-1.39,5.52,5.52,0,0,1,3.95,1.39,4.93,4.93,0,0,1,1.48,3.77v7.25a5,5,0,0,1-1.48,3.78,5.49,5.49,0,0,1-3.95,1.41A5.41,5.41,0,0,1,1172.73,200.16Zm6.18-1.44a2.92,2.92,0,0,0,.83-2.19V189a2.93,2.93,0,0,0-.83-2.2,3.08,3.08,0,0,0-2.25-.82,3,3,0,0,0-2.2.82,2.94,2.94,0,0,0-.84,2.2v7.49a2.93,2.93,0,0,0,.84,2.19,3,3,0,0,0,2.2.82A3.08,3.08,0,0,0,1178.91,198.72Z"></path></g><g class="cls-1"><path d="M1168.68,305.42a6.45,6.45,0,0,1-.49,2.62,4.4,4.4,0,0,1-1.75,2.15,5.35,5.35,0,0,1-2.87.74,5.43,5.43,0,0,1-3.08-.83,4.39,4.39,0,0,1-1.77-2.35,6.9,6.9,0,0,1-.37-2.37v-7.54a4,4,0,0,1,1.4-3.21,5.39,5.39,0,0,1,3.65-1.2,5.76,5.76,0,0,1,2.55.54,4,4,0,0,1,2.34,3.72v.49a.21.21,0,0,1-.24.24h-1.86c-.17,0-.25-.08-.25-.24V298a2.39,2.39,0,0,0-.71-1.79,2.5,2.5,0,0,0-1.83-.68,2.69,2.69,0,0,0-2,.71,2.46,2.46,0,0,0-.75,1.88v3.09a.05.05,0,0,0,0,.06s0,0,.08,0a3.93,3.93,0,0,1,3.06-1.18,4.29,4.29,0,0,1,4.12,2.31A6.63,6.63,0,0,1,1168.68,305.42Zm-2.35,0a3.88,3.88,0,0,0-.44-2,2.46,2.46,0,0,0-2.4-1.42,2.68,2.68,0,0,0-1.47.38,2.44,2.44,0,0,0-.93,1.09,4.76,4.76,0,0,0-.39,2.08,4.33,4.33,0,0,0,.32,1.74,2.41,2.41,0,0,0,1,1.18,2.78,2.78,0,0,0,1.54.41,2.45,2.45,0,0,0,2.45-1.57A4.49,4.49,0,0,0,1166.33,305.42Z"></path><path d="M1172.73,309.6a5,5,0,0,1-1.45-3.78v-7.25a5,5,0,0,1,1.45-3.77,5.45,5.45,0,0,1,3.93-1.39,5.55,5.55,0,0,1,4,1.39,5,5,0,0,1,1.48,3.77v7.25a5,5,0,0,1-1.48,3.78,5.51,5.51,0,0,1-4,1.41A5.42,5.42,0,0,1,1172.73,309.6Zm6.19-1.45a2.93,2.93,0,0,0,.83-2.19v-7.49a3,3,0,0,0-.83-2.19,3.12,3.12,0,0,0-2.26-.82,3,3,0,0,0-2.2.82,2.92,2.92,0,0,0-.83,2.19V306a2.89,2.89,0,0,0,.83,2.19,3,3,0,0,0,2.2.82A3.08,3.08,0,0,0,1178.92,308.15Z"></path></g><g class="cls-1"><path d="M1168.39,410.21v1.61a.22.22,0,0,1-.24.25h-1.06a.08.08,0,0,0-.09.09v4.26a.22.22,0,0,1-.25.25h-1.86c-.16,0-.24-.08-.24-.25v-4.26c0-.06,0-.09-.1-.09h-7.44a.22.22,0,0,1-.25-.25V410.5a.93.93,0,0,1,.07-.29l4.83-10.51a.28.28,0,0,1,.27-.17h2a.21.21,0,0,1,.19.09.22.22,0,0,1,0,.21l-4.6,10a.06.06,0,0,0,0,.08.07.07,0,0,0,.07,0h4.9a.09.09,0,0,0,.1-.1v-3.65a.21.21,0,0,1,.24-.24h1.86a.22.22,0,0,1,.25.24v3.65c0,.07,0,.1.09.1h1.06C1168.31,410,1168.39,410,1168.39,410.21Z"></path><path d="M1172.74,415.5a5,5,0,0,1-1.46-3.78v-7.24a4.93,4.93,0,0,1,1.46-3.77,5.44,5.44,0,0,1,3.93-1.4,5.54,5.54,0,0,1,3.95,1.4,4.91,4.91,0,0,1,1.48,3.77v7.24a4.93,4.93,0,0,1-1.48,3.78,5.51,5.51,0,0,1-3.95,1.41A5.41,5.41,0,0,1,1172.74,415.5Zm6.18-1.44a3,3,0,0,0,.83-2.19v-7.49a3,3,0,0,0-.83-2.19,3.07,3.07,0,0,0-2.25-.82,3,3,0,0,0-2.21.82,3,3,0,0,0-.83,2.19v7.49a3,3,0,0,0,.83,2.19,3,3,0,0,0,2.21.82A3.07,3.07,0,0,0,1178.92,414.06Z"></path></g><g class="cls-1"><path d="M1160.82,524.51a.08.08,0,0,0,.07,0h7.37c.16,0,.24.08.24.25v1.54a.21.21,0,0,1-.24.24H1158a.22.22,0,0,1-.25-.24v-1.49a.42.42,0,0,1,.13-.3c.55-.63,1.83-2.13,3.82-4.48l1.69-2q2.27-2.71,2.27-4.21a2.36,2.36,0,0,0-.77-1.85,2.94,2.94,0,0,0-2-.7,2.85,2.85,0,0,0-2,.71,2.35,2.35,0,0,0-.74,1.86v.74a.21.21,0,0,1-.24.24H1158a.21.21,0,0,1-.24-.24v-1.05a4.18,4.18,0,0,1,.72-2.26,4.4,4.4,0,0,1,1.82-1.5,6.19,6.19,0,0,1,2.6-.53,6.08,6.08,0,0,1,2.74.59,4.29,4.29,0,0,1,2.45,3.94q0,2-2.21,4.8c-.65.83-1.42,1.77-2.32,2.8s-1.8,2-2.69,3A.07.07,0,0,0,1160.82,524.51Z"></path><path d="M1172.72,525.41a5,5,0,0,1-1.45-3.78v-7.25a5,5,0,0,1,1.45-3.77,5.45,5.45,0,0,1,3.93-1.39,5.55,5.55,0,0,1,4,1.39,5,5,0,0,1,1.48,3.77v7.25a5,5,0,0,1-1.48,3.78,5.51,5.51,0,0,1-4,1.41A5.42,5.42,0,0,1,1172.72,525.41Zm6.19-1.44a3,3,0,0,0,.83-2.19v-7.49a3,3,0,0,0-.83-2.2,3.12,3.12,0,0,0-2.26-.82,3,3,0,0,0-2.2.82,3,3,0,0,0-.83,2.2v7.49a3,3,0,0,0,.83,2.19,3,3,0,0,0,2.2.82A3.12,3.12,0,0,0,1178.91,524Z"></path></g><g class="cls-1"><path d="M14.49,154.61h1.94a.21.21,0,0,1,.24.24V171.5c0,.17-.08.25-.24.25H14.56c-.16,0-.24-.08-.24-.25V157.13a.07.07,0,0,0,0-.07.06.06,0,0,0-.08,0l-2.57.88a.27.27,0,0,1-.13,0c-.09,0-.15-.06-.17-.19l-.09-1.4c0-.16,0-.26.14-.29l2.79-1.4A.71.71,0,0,1,14.49,154.61Z"></path><path d="M23,169.68a.09.09,0,0,0,.07,0h7.37a.22.22,0,0,1,.25.25v1.54a.22.22,0,0,1-.25.25H20.2a.22.22,0,0,1-.25-.25V170a.42.42,0,0,1,.12-.3c.56-.63,1.83-2.13,3.82-4.48l1.69-2q2.28-2.72,2.28-4.21a2.41,2.41,0,0,0-.77-1.85,3,3,0,0,0-2.05-.69,2.82,2.82,0,0,0-2,.71,2.32,2.32,0,0,0-.73,1.86v.73A.23.23,0,0,1,22,160H20.15a.22.22,0,0,1-.25-.25V158.7a4.12,4.12,0,0,1,.72-2.25,4.32,4.32,0,0,1,1.83-1.51,6.15,6.15,0,0,1,2.59-.53,6,6,0,0,1,2.74.59,4.24,4.24,0,0,1,2.45,3.94q0,2-2.2,4.8c-.65.83-1.43,1.77-2.33,2.8s-1.79,2.06-2.69,3.05A.07.07,0,0,0,23,169.68Z"></path><path d="M34.92,170.58a5,5,0,0,1-1.46-3.78v-7.25a5,5,0,0,1,1.46-3.76,5.4,5.4,0,0,1,3.93-1.4,5.48,5.48,0,0,1,3.95,1.4,4.9,4.9,0,0,1,1.48,3.76v7.25a5,5,0,0,1-1.48,3.78A5.49,5.49,0,0,1,38.85,172,5.41,5.41,0,0,1,34.92,170.58Zm6.18-1.44a2.92,2.92,0,0,0,.83-2.19v-7.49a2.89,2.89,0,0,0-.83-2.19,3.05,3.05,0,0,0-2.25-.82,3,3,0,0,0-2.2.82,2.9,2.9,0,0,0-.84,2.19V167a2.93,2.93,0,0,0,.84,2.19,3,3,0,0,0,2.2.82A3.05,3.05,0,0,0,41.1,169.14Z"></path></g><g class="cls-1"><path d="M14,231.57h1.94c.16,0,.24.08.24.25v16.64c0,.17-.08.25-.24.25H14a.22.22,0,0,1-.25-.25V234.09a.08.08,0,0,0,0-.07.06.06,0,0,0-.08,0l-2.57.88a.22.22,0,0,1-.12,0c-.1,0-.16-.06-.18-.19l-.09-1.4c0-.16.05-.26.14-.29l2.79-1.4A.88.88,0,0,1,14,231.57Z"></path><path d="M21.06,247.54a5,5,0,0,1-1.45-3.78v-7.24a5,5,0,0,1,1.45-3.77,5.44,5.44,0,0,1,3.93-1.4,5.55,5.55,0,0,1,4,1.4,5,5,0,0,1,1.48,3.77v7.24A5,5,0,0,1,29,247.54,5.51,5.51,0,0,1,25,249,5.41,5.41,0,0,1,21.06,247.54Zm6.19-1.44a3,3,0,0,0,.83-2.19v-7.49a2.93,2.93,0,0,0-.83-2.19,3.08,3.08,0,0,0-2.26-.82,3,3,0,0,0-2.2.82,2.89,2.89,0,0,0-.83,2.19v7.49a2.92,2.92,0,0,0,.83,2.19,3,3,0,0,0,2.2.82A3.08,3.08,0,0,0,27.25,246.1Z"></path><path d="M34.92,247.54a5,5,0,0,1-1.46-3.78v-7.24a5,5,0,0,1,1.46-3.77,5.44,5.44,0,0,1,3.93-1.4,5.53,5.53,0,0,1,3.95,1.4,4.91,4.91,0,0,1,1.48,3.77v7.24a4.93,4.93,0,0,1-1.48,3.78A5.49,5.49,0,0,1,38.85,249,5.41,5.41,0,0,1,34.92,247.54Zm6.18-1.44a3,3,0,0,0,.83-2.19v-7.49a2.93,2.93,0,0,0-.83-2.19,3.05,3.05,0,0,0-2.25-.82,3,3,0,0,0-2.2.82,2.9,2.9,0,0,0-.84,2.19v7.49a2.93,2.93,0,0,0,.84,2.19,3,3,0,0,0,2.2.82A3.05,3.05,0,0,0,41.1,246.1Z"></path></g><g class="cls-1"><path d="M30.67,319.58a5.41,5.41,0,0,1-.68,2.74A4.18,4.18,0,0,1,28.24,324a5.79,5.79,0,0,1-2.73.62,5.86,5.86,0,0,1-2.77-.63,4.2,4.2,0,0,1-1.81-1.8,5.23,5.23,0,0,1-.66-2.67,5.65,5.65,0,0,1,.54-2.47,3.58,3.58,0,0,1,1.59-1.69q.12,0,0-.12A4.37,4.37,0,0,1,21.22,314a4.07,4.07,0,0,1-.68-2.34,4.5,4.5,0,0,1,.83-2.65,4.22,4.22,0,0,1,1.7-1.47,5.43,5.43,0,0,1,2.44-.54,5.23,5.23,0,0,1,2.42.54,4.24,4.24,0,0,1,1.66,1.47,4.63,4.63,0,0,1,.81,2.65,4.38,4.38,0,0,1-.68,2.39,4.3,4.3,0,0,1-1.15,1.18q-.13.08,0,.12a3.86,3.86,0,0,1,1.59,1.74A5.47,5.47,0,0,1,30.67,319.58Zm-2.37-.2a3.94,3.94,0,0,0-.42-1.93,2.5,2.5,0,0,0-2.4-1.28,2.5,2.5,0,0,0-2.35,1.2,4,4,0,0,0-.46,2,3.6,3.6,0,0,0,.51,2,2.5,2.5,0,0,0,2.33,1.18,2.45,2.45,0,0,0,2.22-1.1A3.54,3.54,0,0,0,28.3,319.38Zm-5.44-7.68a2.75,2.75,0,0,0,.47,1.63,2.31,2.31,0,0,0,2.15,1.11,2.4,2.4,0,0,0,2.18-1.13,2.78,2.78,0,0,0,.42-1.64,2.67,2.67,0,0,0-1.23-2.23,2.59,2.59,0,0,0-1.39-.36,2.42,2.42,0,0,0-2.26,1.37A2.7,2.7,0,0,0,22.86,311.7Z"></path><path d="M34.92,323.29a5,5,0,0,1-1.46-3.79v-7.24a5,5,0,0,1,1.46-3.77,5.44,5.44,0,0,1,3.93-1.4,5.53,5.53,0,0,1,3.95,1.4,4.93,4.93,0,0,1,1.48,3.77v7.24a5,5,0,0,1-1.48,3.79,5.53,5.53,0,0,1-3.95,1.4A5.44,5.44,0,0,1,34.92,323.29Zm6.18-1.45a2.93,2.93,0,0,0,.83-2.19v-7.49A3,3,0,0,0,41.1,310a3.07,3.07,0,0,0-2.25-.82,3,3,0,0,0-2.21.82,3,3,0,0,0-.83,2.19v7.49a2.93,2.93,0,0,0,.83,2.19,3,3,0,0,0,2.21.82A3.07,3.07,0,0,0,41.1,321.84Z"></path></g><g class="cls-1"><path d="M30.87,395.6a6.45,6.45,0,0,1-.49,2.62,4.4,4.4,0,0,1-1.75,2.15,5.36,5.36,0,0,1-2.88.74,5.42,5.42,0,0,1-3.07-.83,4.39,4.39,0,0,1-1.77-2.35,6.9,6.9,0,0,1-.37-2.37V388a4,4,0,0,1,1.4-3.21,5.38,5.38,0,0,1,3.64-1.2,5.77,5.77,0,0,1,2.56.54,4,4,0,0,1,2.34,3.72v.49c0,.16-.08.24-.25.24H28.37a.21.21,0,0,1-.24-.24v-.22a2.39,2.39,0,0,0-.71-1.79,2.52,2.52,0,0,0-1.84-.68,2.65,2.65,0,0,0-1.94.71,2.46,2.46,0,0,0-.75,1.88v3.09a.05.05,0,0,0,0,.06s.05,0,.08,0a3.9,3.9,0,0,1,3.06-1.18,4.29,4.29,0,0,1,4.12,2.31A6.63,6.63,0,0,1,30.87,395.6Zm-2.35,0a4,4,0,0,0-.44-2,2.46,2.46,0,0,0-2.4-1.42,2.68,2.68,0,0,0-1.47.38,2.33,2.33,0,0,0-.93,1.09,4.76,4.76,0,0,0-.39,2.08,4.24,4.24,0,0,0,.32,1.73,2.43,2.43,0,0,0,.95,1.19,2.84,2.84,0,0,0,1.55.41,2.43,2.43,0,0,0,2.44-1.57A4.33,4.33,0,0,0,28.52,395.6Z"></path><path d="M34.92,399.78A5,5,0,0,1,33.46,396v-7.25A5,5,0,0,1,34.92,385a5.44,5.44,0,0,1,3.93-1.4A5.51,5.51,0,0,1,42.8,385a4.93,4.93,0,0,1,1.49,3.77V396a5,5,0,0,1-1.49,3.78,5.47,5.47,0,0,1-3.95,1.41A5.41,5.41,0,0,1,34.92,399.78Zm6.18-1.45a2.9,2.9,0,0,0,.84-2.19v-7.49a2.93,2.93,0,0,0-.84-2.19,3.08,3.08,0,0,0-2.25-.82,3,3,0,0,0-2.2.82,2.93,2.93,0,0,0-.84,2.19v7.49a2.9,2.9,0,0,0,.84,2.19,3,3,0,0,0,2.2.82A3,3,0,0,0,41.1,398.33Z"></path></g><g class="cls-1"><path d="M30.57,471.58v1.62a.21.21,0,0,1-.24.24H29.27c-.06,0-.09,0-.09.1v4.26a.22.22,0,0,1-.25.24H27.07a.21.21,0,0,1-.24-.24v-4.26a.09.09,0,0,0-.1-.1H19.29c-.17,0-.25-.08-.25-.24v-1.33a.93.93,0,0,1,.07-.29l4.83-10.5a.26.26,0,0,1,.27-.17h1.95a.23.23,0,0,1,.19.08.22.22,0,0,1,0,.21l-4.6,10a.07.07,0,0,0,0,.09.08.08,0,0,0,.07,0h4.9c.06,0,.1,0,.1-.09v-3.65a.22.22,0,0,1,.24-.25h1.86a.23.23,0,0,1,.25.25v3.65a.08.08,0,0,0,.09.09h1.06A.22.22,0,0,1,30.57,471.58Z"></path><path d="M34.92,476.88a5,5,0,0,1-1.46-3.78v-7.25a5,5,0,0,1,1.46-3.77,5.44,5.44,0,0,1,3.93-1.39,5.54,5.54,0,0,1,3.95,1.39,4.93,4.93,0,0,1,1.48,3.77v7.25a5,5,0,0,1-1.48,3.78,5.51,5.51,0,0,1-3.95,1.41A5.41,5.41,0,0,1,34.92,476.88Zm6.18-1.44a3,3,0,0,0,.83-2.19v-7.5a3,3,0,0,0-.83-2.19,3.11,3.11,0,0,0-2.25-.82,3,3,0,0,0-2.21.82,3,3,0,0,0-.83,2.19v7.5a3,3,0,0,0,.83,2.19,3,3,0,0,0,2.21.82A3.11,3.11,0,0,0,41.1,475.44Z"></path></g><g class="cls-1"><path d="M23,551.87a.08.08,0,0,0,.07,0h7.37c.17,0,.25.08.25.24v1.55c0,.16-.08.24-.25.24H20.2c-.17,0-.25-.08-.25-.24v-1.5a.4.4,0,0,1,.12-.29q.84-1,3.82-4.48l1.69-2c1.52-1.81,2.28-3.22,2.28-4.21a2.38,2.38,0,0,0-.77-1.85,2.93,2.93,0,0,0-2.05-.7,2.87,2.87,0,0,0-2,.71,2.34,2.34,0,0,0-.73,1.86V542a.22.22,0,0,1-.25.24H20.15c-.17,0-.25-.08-.25-.24v-1.06a4.12,4.12,0,0,1,.72-2.25,4.37,4.37,0,0,1,1.83-1.5,6.15,6.15,0,0,1,2.59-.53,6,6,0,0,1,2.74.59,4.22,4.22,0,0,1,2.45,3.94q0,2-2.2,4.8c-.65.83-1.43,1.76-2.33,2.8s-1.79,2-2.69,3A.06.06,0,0,0,23,551.87Z"></path><path d="M34.92,552.78A5,5,0,0,1,33.46,549v-7.25A5,5,0,0,1,34.92,538a5.44,5.44,0,0,1,3.93-1.4A5.53,5.53,0,0,1,42.8,538a4.93,4.93,0,0,1,1.48,3.77V549a5,5,0,0,1-1.48,3.78,5.49,5.49,0,0,1-3.95,1.41A5.41,5.41,0,0,1,34.92,552.78Zm6.18-1.45a2.89,2.89,0,0,0,.83-2.19v-7.49a2.92,2.92,0,0,0-.83-2.19,3.08,3.08,0,0,0-2.25-.82,3,3,0,0,0-2.2.82,2.93,2.93,0,0,0-.84,2.19v7.49a2.9,2.9,0,0,0,.84,2.19,3,3,0,0,0,2.2.82A3,3,0,0,0,41.1,551.33Z"></path></g><g class="cls-1"><path d="M34.92,629.41a5,5,0,0,1-1.46-3.78v-7.25a5,5,0,0,1,1.46-3.77,5.43,5.43,0,0,1,3.92-1.39,5.55,5.55,0,0,1,4,1.39,4.93,4.93,0,0,1,1.48,3.77v7.25a5,5,0,0,1-1.48,3.78,5.51,5.51,0,0,1-4,1.41A5.4,5.4,0,0,1,34.92,629.41ZM41.1,628a3,3,0,0,0,.83-2.19v-7.49a3,3,0,0,0-.83-2.2,3.12,3.12,0,0,0-2.26-.82,3,3,0,0,0-2.2.82,3,3,0,0,0-.83,2.2v7.49a3,3,0,0,0,.83,2.19,3,3,0,0,0,2.2.82A3.12,3.12,0,0,0,41.1,628Z"></path></g><path class="cls-6" d="M73,262,425.9,565.9a2.57,2.57,0,0,0,4.2-1.4l104-459.8,140,460.9a2.46,2.46,0,0,0,2.5,1.8,2.56,2.56,0,0,0,2.4-2l102.8-468L904.6,564.5a2.48,2.48,0,0,0,2.6,1.9,2.66,2.66,0,0,0,2.4-2.2L976,92.9l143.2,184.7a2.57,2.57,0,0,0,4.1-3.1L976.3,85.1a2.53,2.53,0,0,0-2.7-.9,2.71,2.71,0,0,0-1.9,2.1L906.2,551.1,784,86a2.58,2.58,0,0,0-2.5-1.9,2.47,2.47,0,0,0-2.4,2l-103,468.8L536.1,94a2.46,2.46,0,0,0-2.5-1.8,2.56,2.56,0,0,0-2.4,2L426,559.3,76.3,258.1A2.55,2.55,0,0,0,73,262Z"></path><path d="M1424.3,427.6v-1.5H1266.6V342.4h156.2v85.2h1.5v0h1.5V341a2.1,2.1,0,0,0-.4-1.1,1.5,1.5,0,0,0-1.1-.4H1265.1a2.1,2.1,0,0,0-1.1.4,1.5,1.5,0,0,0-.4,1.1v86.6a2.1,2.1,0,0,0,.4,1.1,1.5,1.5,0,0,0,1.1.4h159.2a2.1,2.1,0,0,0,1.1-.4,1.5,1.5,0,0,0,.4-1.1Zm-.7-72.2,21.3,10.8v36.3l-21.3,10.8a1.5,1.5,0,1,0,1.3,2.7l22.1-11.2a1.56,1.56,0,0,0,.8-1.3V365.4a1.34,1.34,0,0,0-.8-1.3l-22.1-11.2a1.41,1.41,0,1,0-1.3,2.5Zm-14.4,72.2v7.7a4.07,4.07,0,0,1-1.2,2.9,4,4,0,0,1-2.9,1.2H1282.7a4.25,4.25,0,0,1-2.9-1.2,4,4,0,0,1-1.2-2.9v-7.7a1.5,1.5,0,1,0-3,0v7.7a7.06,7.06,0,0,0,7.1,7.1H1405a7.13,7.13,0,0,0,7.1-7.1v-7.7a1.54,1.54,0,0,0-1.5-1.5,1.45,1.45,0,0,0-1.4,1.5Zm-.3-69.2-6.8,15.2-3.5-6.5a1.56,1.56,0,0,0-1.3-.8,1.34,1.34,0,0,0-1.3.8l-8.9,17.6a1.5,1.5,0,1,0,2.7,1.3l7.6-15,3.6,6.6a1.6,1.6,0,0,0,1.4.8,1.42,1.42,0,0,0,1.3-.9l8-17.9a1.54,1.54,0,0,0-.8-2,1.6,1.6,0,0,0-2,.8Z"></path><path d="M1280.8,396.4H1302v-3h-21.2Zm0,11.3H1302v-3h-21.2Zm0,10.9H1302v-3h-21.2Zm37.4-22.2h21.2v-3h-21.2Zm0,11.3h21.2v-3h-21.2Zm0,10.9h21.2v-3h-21.2Zm36.8-22.2h21.2v-3H1355Zm0,11.3h21.2v-3H1355Zm0,10.9h21.2v-3H1355Z"></path><path d="M1321.7,327v-1.5h-34.2v-9.7h32.7V327h1.5v0h1.5V314.4a2.1,2.1,0,0,0-.4-1.1,1.43,1.43,0,0,0-1-.4H1286a2.1,2.1,0,0,0-1.1.4,1.5,1.5,0,0,0-.4,1.1V327a2.1,2.1,0,0,0,.4,1.1,1.5,1.5,0,0,0,1.1.4h35.7a1.53,1.53,0,0,0,1-.4,1.5,1.5,0,0,0,.4-1.1Zm-31.1,0v14a1.5,1.5,0,0,0,3,0V327a1.5,1.5,0,0,0-3,0Zm23.5,0v14a1.5,1.5,0,0,0,3,0V327a1.54,1.54,0,0,0-1.5-1.5,1.47,1.47,0,0,0-1.5,1.5Z"></path><path d="M1277.6,649.3a19.48,19.48,0,0,0,4.4,3.1,23.93,23.93,0,0,0,11.6,3.1c4.9,0,10.6-1.6,16.8-6.1l-.9-1.2-1.1,1.1a19.48,19.48,0,0,0,4.4,3.1,24.6,24.6,0,0,0,11.6,3.1c4.9,0,10.7-1.6,16.8-6.1l-.9-1.2-1,1.1a19.48,19.48,0,0,0,4.4,3.1,24.26,24.26,0,0,0,11.6,3.1c4.9,0,10.7-1.6,16.8-6.1l-.9-1.2-1,1.1a19.48,19.48,0,0,0,4.4,3.1,24.69,24.69,0,0,0,11.7,3.1c4.9,0,10.6-1.6,16.8-6.1l-.9-1.2-1.1,1.1a20.26,20.26,0,0,0,4.3,3.1,24.26,24.26,0,0,0,11.6,3.1c4.9,0,10.6-1.6,16.8-6.1a1.5,1.5,0,1,0-1.8-2.4c-5.7,4.2-10.8,5.5-15,5.5a20.2,20.2,0,0,1-10.1-2.7,21.89,21.89,0,0,1-2.8-1.9,3.19,3.19,0,0,0-.7-.6l-.2-.2h0l-.4.4.4-.4h0l-.4.4.4-.4-.9-.9-1,.8c-5.7,4.2-10.8,5.5-15,5.5a20.3,20.3,0,0,1-10.2-2.7,21.89,21.89,0,0,1-2.8-1.9c-.3-.3-.6-.5-.7-.6l-.2-.2h0l-.4.4.4-.4h0l-.4.4.4-.4-.9-.9-1,.8c-5.7,4.2-10.8,5.5-15,5.5a20.3,20.3,0,0,1-10.2-2.7,21.89,21.89,0,0,1-2.8-1.9c-.3-.3-.6-.5-.7-.6l-.2-.2h0l-.4.4.4-.4h0l-.4.4.4-.4-.9-.9-1,.8c-5.7,4.2-10.8,5.5-15,5.5a20.3,20.3,0,0,1-10.2-2.7,21.89,21.89,0,0,1-2.8-1.9c-.3-.3-.6-.5-.7-.6l-.2-.2h0l-.4.4.4-.4h0l-.4.4.4-.4-.9-.9-1,.8c-5.7,4.2-10.8,5.5-15,5.5a20.2,20.2,0,0,1-10.1-2.7,21.89,21.89,0,0,1-2.8-1.9,3.19,3.19,0,0,0-.7-.6l-.2-.2h0l-.4.4.4-.4h0l-.4.4.4-.4a1.45,1.45,0,0,0-2.1,0,1.35,1.35,0,0,0-.4,2.2Zm148.2-5.7,3.5-26.7h-24.7l-12.3,5.7h-74l-8.9-5.6h-13a1.5,1.5,0,0,0,0,3h12.2l8.9,5.6h75.6l12.3-5.7H1426l-3.1,23.3a1.55,1.55,0,0,0,1.3,1.7,1.53,1.53,0,0,0,1.6-1.3ZM1307,618.3l6.9-14.8h81.4l8.3,15.6a1.48,1.48,0,1,0,2.6-1.4l-9.2-17.2h-85l-7.7,16.5a1.63,1.63,0,0,0,.7,2,1.4,1.4,0,0,0,2-.7Zm-20.7,24.9-3.1-23.3h21a1.5,1.5,0,0,0,0-3h-24.4l3.5,26.7a1.55,1.55,0,0,0,1.7,1.3,1.53,1.53,0,0,0,1.3-1.7Zm48-42.2v-9.9l4.2-7.7h34.7l2.4,7.9v9.6a1.5,1.5,0,1,0,3,0V590.8l-3.1-10.4h-38.7l-5.4,9.9V601a1.54,1.54,0,0,0,1.5,1.5,1.45,1.45,0,0,0,1.4-1.5Zm33.9-10.7h-26.4a1.5,1.5,0,0,0,0,3h26.4a1.5,1.5,0,0,0,0-3ZM1327,615.5h12a1.5,1.5,0,0,0,0-3h-12a1.5,1.5,0,0,0,0,3Zm22.3,0h12a1.5,1.5,0,0,0,0-3h-12a1.5,1.5,0,0,0,0,3Zm22.3,0h12a1.5,1.5,0,0,0,0-3h-12a1.5,1.5,0,0,0,0,3Zm38.4-4.9h12a1.5,1.5,0,0,0,0-3h-12a1.54,1.54,0,0,0-1.5,1.5,1.61,1.61,0,0,0,1.5,1.5Zm-122.8,0h12a1.5,1.5,0,0,0,0-3h-12a1.54,1.54,0,0,0-1.5,1.5,1.47,1.47,0,0,0,1.5,1.5Z"></path><path class="cls-3" d="M1515.9,414a28,28,0,1,0-28-28,28,28,0,0,0,28,28Z"></path><path class="cls-4" d="M1515.9,655.5a28,28,0,1,0-28-28,28,28,0,0,0,28,28Z"></path><path class="cls-6" d="M1515.9,161.6a28,28,0,1,0-28-28,28,28,0,0,0,28,28Z"></path><g class="cls-1"><path d="M1595.34,120.94a4.07,4.07,0,0,1,2.28,3.91,4.13,4.13,0,0,1-1.58,3.52,6.76,6.76,0,0,1-4.15,1.19h-6.22a.31.31,0,0,1-.29-.29V113.05a.29.29,0,0,1,.09-.21.28.28,0,0,1,.2-.08h6c3.8,0,5.69,1.53,5.69,4.61a3.55,3.55,0,0,1-2,3.43C1595.25,120.85,1595.25,120.89,1595.34,120.94Zm-6.57-5.16v3.75a.11.11,0,0,0,.12.12h2.8a2.66,2.66,0,0,0,1.76-.53,1.8,1.8,0,0,0,.62-1.44,1.87,1.87,0,0,0-.62-1.48,2.61,2.61,0,0,0-1.76-.54h-2.8A.11.11,0,0,0,1588.77,115.78Zm4.84,10.29a2.22,2.22,0,0,0,0-3.1,2.49,2.49,0,0,0-1.75-.56h-3a.11.11,0,0,0-.12.12v4a.11.11,0,0,0,.12.12h3A2.49,2.49,0,0,0,1593.61,126.07Z"></path><path d="M1609.72,129.32,1609,127c0-.07-.07-.1-.12-.1H1603s-.08,0-.12.1l-.69,2.35a.31.31,0,0,1-.31.24h-3a.27.27,0,0,1-.22-.09c0-.05,0-.14,0-.25l5.18-16.22a.3.3,0,0,1,.31-.24h3.77a.29.29,0,0,1,.31.24l5.19,16.22a.37.37,0,0,1,0,.12c0,.15-.09.22-.26.22h-3A.3.3,0,0,1,1609.72,129.32Zm-5.91-5.07H1608c.09,0,.13,0,.09-.14L1606,117c0-.06,0-.09-.07-.08s-.05,0-.07.08l-2.11,7.13C1603.7,124.21,1603.73,124.25,1603.81,124.25Z"></path></g><g class="cls-1"><path d="M1626,112.84a.32.32,0,0,1,.08.21v2.35a.28.28,0,0,1-.08.2.29.29,0,0,1-.21.09h-4.29a.11.11,0,0,0-.12.12v13.46a.31.31,0,0,1-.29.29h-2.81a.31.31,0,0,1-.29-.29V115.81a.11.11,0,0,0-.12-.12h-4.17a.29.29,0,0,1-.21-.09.28.28,0,0,1-.08-.2v-2.35a.27.27,0,0,1,.29-.29h12.09A.32.32,0,0,1,1626,112.84Z"></path><path d="M1640,112.84a.32.32,0,0,1,.08.21v2.35a.28.28,0,0,1-.08.2.29.29,0,0,1-.21.09h-4.29a.11.11,0,0,0-.12.12v13.46a.31.31,0,0,1-.29.29h-2.81a.31.31,0,0,1-.29-.29V115.81a.11.11,0,0,0-.12-.12h-4.17a.29.29,0,0,1-.21-.09.28.28,0,0,1-.08-.2v-2.35a.27.27,0,0,1,.29-.29h12.09A.32.32,0,0,1,1640,112.84Z"></path></g><g class="cls-1"><path d="M1654.2,115.58a.32.32,0,0,1-.21.08h-7.87a.11.11,0,0,0-.12.12v3.72a.11.11,0,0,0,.12.12h5.16a.31.31,0,0,1,.29.29v2.33a.31.31,0,0,1-.29.29h-5.16a.11.11,0,0,0-.12.12v3.88c0,.09,0,.12.12.12H1654a.29.29,0,0,1,.21.09.28.28,0,0,1,.08.2v2.33a.28.28,0,0,1-.08.2.29.29,0,0,1-.21.09H1642.9a.27.27,0,0,1-.2-.09.24.24,0,0,1-.08-.2V113.05a.28.28,0,0,1,.08-.21.3.3,0,0,1,.2-.08H1654a.27.27,0,0,1,.29.29v2.33A.3.3,0,0,1,1654.2,115.58Z"></path><path d="M1665.51,129.34l-3-6.65a.15.15,0,0,0-.14-.09h-2.23a.11.11,0,0,0-.12.12v6.55a.31.31,0,0,1-.29.29h-2.81a.31.31,0,0,1-.29-.29V113.05a.29.29,0,0,1,.09-.21.28.28,0,0,1,.2-.08h6.86a5.66,5.66,0,0,1,2.7.62,4.35,4.35,0,0,1,1.8,1.78,5.34,5.34,0,0,1,.64,2.66,4.72,4.72,0,0,1-.82,2.8,4.34,4.34,0,0,1-2.28,1.64.12.12,0,0,0-.07.17l3.27,6.79a.37.37,0,0,1,0,.15c0,.13-.08.19-.26.19h-3A.35.35,0,0,1,1665.51,129.34ZM1660,115.78v4.11a.11.11,0,0,0,.12.12h3.14a2.29,2.29,0,0,0,1.64-.6,2,2,0,0,0,.64-1.56,2.09,2.09,0,0,0-.64-1.58,2.29,2.29,0,0,0-1.64-.61h-3.14A.11.11,0,0,0,1660,115.78Z"></path></g><g class="cls-1"><path d="M1671.21,129.47a.25.25,0,0,1-.09-.2V113.05a.29.29,0,0,1,.09-.21.28.28,0,0,1,.2-.08h2.81a.28.28,0,0,1,.2.08.29.29,0,0,1,.09.21v16.22a.31.31,0,0,1-.29.29h-2.81A.25.25,0,0,1,1671.21,129.47Z"></path></g><g class="cls-1"><path d="M1584.71,168.43V147a.22.22,0,0,1,.24-.24h5a.22.22,0,0,1,.24.24v1.54a.21.21,0,0,1-.24.24h-2.88a.09.09,0,0,0-.1.1v17.73a.09.09,0,0,0,.1.1h2.9a.21.21,0,0,1,.24.24v1.51a.21.21,0,0,1-.24.24H1585A.21.21,0,0,1,1584.71,168.43Z"></path><path d="M1597.11,155.16a3.55,3.55,0,0,1-1.79-3.1,3.52,3.52,0,0,1,1.79-3.06,3.61,3.61,0,0,1,1.81-.46,3.5,3.5,0,0,1,1.77.47,3.57,3.57,0,0,1,1.3,1.29,3.35,3.35,0,0,1,.48,1.76,3.46,3.46,0,0,1-.48,1.8,3.52,3.52,0,0,1-1.3,1.3,3.41,3.41,0,0,1-1.77.48A3.53,3.53,0,0,1,1597.11,155.16Zm3.3-1.56a2.18,2.18,0,0,0,.59-1.54,2,2,0,0,0-.61-1.5,2,2,0,0,0-1.47-.61,2.06,2.06,0,0,0-1.51.61,2,2,0,0,0-.63,1.5,2.09,2.09,0,0,0,.63,1.54,2.07,2.07,0,0,0,1.51.62A2,2,0,0,0,1600.41,153.6ZM1598,165.47a.2.2,0,0,1,0-.21l9.07-16.34a.34.34,0,0,1,.29-.17h1.18a.18.18,0,0,1,.17.29l-9.07,16.34a.28.28,0,0,1-.29.17h-1.18A.2.2,0,0,1,1598,165.47Zm8.22-.18a3.55,3.55,0,0,1-1.31-1.3,3.52,3.52,0,0,1,0-3.55,3.63,3.63,0,0,1,1.31-1.3,3.55,3.55,0,0,1,1.81-.48,3.47,3.47,0,0,1,1.78.48,3.65,3.65,0,0,1,1.29,1.3,3.52,3.52,0,0,1,0,3.55,3.57,3.57,0,0,1-1.29,1.3,3.47,3.47,0,0,1-1.78.48A3.55,3.55,0,0,1,1606.25,165.29Zm3.3-1.56a2.11,2.11,0,0,0,.6-1.52,2.08,2.08,0,0,0-.61-1.51,2,2,0,0,0-1.48-.62,2.07,2.07,0,0,0-1.51.62,2.16,2.16,0,0,0,0,3,2.07,2.07,0,0,0,1.51.62A2,2,0,0,0,1609.55,163.73Z"></path><path d="M1617.43,165.17a4.8,4.8,0,0,1-2.09-1.63,4.31,4.31,0,0,1-.73-2.48v-.69a.21.21,0,0,1,.24-.24h1.76a.21.21,0,0,1,.23.24v.57a2.44,2.44,0,0,0,1.06,2,4.73,4.73,0,0,0,2.9.79,3.8,3.8,0,0,0,2.5-.7,2.24,2.24,0,0,0,.84-1.82,1.93,1.93,0,0,0-.43-1.27,4.1,4.1,0,0,0-1.26-1,22.2,22.2,0,0,0-2.41-1.07,25.13,25.13,0,0,1-2.78-1.23,5,5,0,0,1-1.69-1.45,3.66,3.66,0,0,1-.67-2.27,3.92,3.92,0,0,1,1.48-3.24,6.23,6.23,0,0,1,4-1.17,7.55,7.55,0,0,1,3.12.6,4.79,4.79,0,0,1,2.08,1.68,4.32,4.32,0,0,1,.73,2.49v.48a.21.21,0,0,1-.24.24h-1.8a.21.21,0,0,1-.24-.24v-.35a2.59,2.59,0,0,0-1-2.08,4.2,4.2,0,0,0-2.75-.83,3.8,3.8,0,0,0-2.31.61,2.09,2.09,0,0,0-.81,1.77,1.92,1.92,0,0,0,.41,1.29,3.38,3.38,0,0,0,1.21.9,24.78,24.78,0,0,0,2.46,1,27.91,27.91,0,0,1,2.76,1.24,5.15,5.15,0,0,1,1.75,1.49,3.71,3.71,0,0,1,.7,2.29,4.07,4.07,0,0,1-1.55,3.35,6.67,6.67,0,0,1-4.26,1.23A8.29,8.29,0,0,1,1617.43,165.17Z"></path><path d="M1631.94,165.05a5.17,5.17,0,0,1-2.09-2,6,6,0,0,1-.74-3v-5.72a6,6,0,0,1,.74-3,5.19,5.19,0,0,1,2.09-2,7.08,7.08,0,0,1,6.22,0,5.25,5.25,0,0,1,2.09,2,6,6,0,0,1,.74,3V160a6,6,0,0,1-.74,3,5.23,5.23,0,0,1-2.09,2,7.08,7.08,0,0,1-6.22,0Zm5.74-2.28a3.63,3.63,0,0,0,1-2.67v-5.83a3.68,3.68,0,0,0-1-2.7,3.56,3.56,0,0,0-2.64-1,3.5,3.5,0,0,0-2.63,1,3.72,3.72,0,0,0-1,2.7v5.83a3.66,3.66,0,0,0,1,2.67,3.53,3.53,0,0,0,2.63,1A3.58,3.58,0,0,0,1637.68,162.77Z"></path><path d="M1646.83,165.08a4.94,4.94,0,0,1-2.06-1.94,5.64,5.64,0,0,1-.73-2.89V154a5.52,5.52,0,0,1,.73-2.87,5.09,5.09,0,0,1,2.06-1.92,7.3,7.3,0,0,1,6.11,0,4.93,4.93,0,0,1,2,1.86,5.23,5.23,0,0,1,.74,2.78v0a.26.26,0,0,1-.08.19.2.2,0,0,1-.16.07l-1.83.1c-.16,0-.24-.08-.24-.22V154a3.28,3.28,0,0,0-1-2.47,3.51,3.51,0,0,0-2.57-.94,3.55,3.55,0,0,0-2.58.94,3.28,3.28,0,0,0-1,2.47v6.38a3.28,3.28,0,0,0,1,2.47,3.55,3.55,0,0,0,2.58.94,3.51,3.51,0,0,0,2.57-.94,3.28,3.28,0,0,0,1-2.47v-.05q0-.21.24-.21l1.83.09a.22.22,0,0,1,.24.25,5.29,5.29,0,0,1-.74,2.79,4.91,4.91,0,0,1-2,1.88,7.16,7.16,0,0,1-6.11,0Z"></path><path d="M1665.49,168.67h-5.06a.21.21,0,0,1-.24-.24v-1.51a.21.21,0,0,1,.24-.24h2.9c.07,0,.1,0,.1-.1V148.85c0-.07,0-.1-.1-.1h-2.9a.21.21,0,0,1-.24-.24V147a.22.22,0,0,1,.24-.24h5.06a.22.22,0,0,1,.24.24v21.46A.21.21,0,0,1,1665.49,168.67Z"></path></g><g class="cls-1"><path d="M1588,377.48a5.42,5.42,0,0,1-2.19-2.08,6,6,0,0,1-.78-3.08v-5.38a6.08,6.08,0,0,1,.78-3.1,5.33,5.33,0,0,1,2.19-2.07,7.67,7.67,0,0,1,6.49,0,5.57,5.57,0,0,1,2.19,2,5.06,5.06,0,0,1,.78,2.75v.17a.31.31,0,0,1-.29.29h-2.81a.31.31,0,0,1-.29-.29v-.07a2.5,2.5,0,0,0-.76-1.86,3.11,3.11,0,0,0-4.12,0,2.9,2.9,0,0,0-.78,2.1v5.57a2.76,2.76,0,0,0,.84,2.1,3,3,0,0,0,2.14.81,2.9,2.9,0,0,0,2-.66,2.36,2.36,0,0,0,.74-1.84v-1.08a.11.11,0,0,0-.12-.12h-2.69a.3.3,0,0,1-.2-.08.28.28,0,0,1-.08-.21v-2.21a.26.26,0,0,1,.08-.2.27.27,0,0,1,.2-.09h5.86a.25.25,0,0,1,.2.09.27.27,0,0,1,.09.2v3.17a6.31,6.31,0,0,1-.77,3.17,5.06,5.06,0,0,1-2.17,2.05,7.17,7.17,0,0,1-3.25.71A7,7,0,0,1,1588,377.48Z"></path><path d="M1611.65,364.05a.3.3,0,0,1-.2.08h-7.88a.11.11,0,0,0-.12.12V368a.11.11,0,0,0,.12.12h5.16a.29.29,0,0,1,.21.09.28.28,0,0,1,.08.2v2.33a.28.28,0,0,1-.08.2.29.29,0,0,1-.21.09h-5.16a.11.11,0,0,0-.12.12V375a.11.11,0,0,0,.12.12h7.88a.27.27,0,0,1,.2.09.24.24,0,0,1,.08.2v2.33a.24.24,0,0,1-.08.2.27.27,0,0,1-.2.09h-11.09a.29.29,0,0,1-.21-.09.28.28,0,0,1-.08-.2V361.52a.27.27,0,0,1,.29-.29h11.09a.3.3,0,0,1,.2.08.28.28,0,0,1,.08.21v2.32A.28.28,0,0,1,1611.65,364.05Z"></path><path d="M1623.82,361.31a.28.28,0,0,1,.2-.08h2.81a.28.28,0,0,1,.2.08.29.29,0,0,1,.09.21v16.22a.31.31,0,0,1-.29.29h-2.71a.36.36,0,0,1-.34-.2l-6.21-10.27s-.07-.06-.1-.06,0,.05,0,.11l0,10.13a.28.28,0,0,1-.08.2.29.29,0,0,1-.21.09h-2.81a.27.27,0,0,1-.2-.09.24.24,0,0,1-.08-.2V361.52a.28.28,0,0,1,.08-.21.3.3,0,0,1,.2-.08h2.72a.33.33,0,0,1,.33.19l6.19,10.22c0,.05.07.07.1.06s0,0,0-.1l0-10.08A.29.29,0,0,1,1623.82,361.31Z"></path><path d="M1641.48,364.05a.28.28,0,0,1-.2.08h-7.87a.11.11,0,0,0-.12.12V368a.11.11,0,0,0,.12.12h5.16a.27.27,0,0,1,.2.09.24.24,0,0,1,.08.2v2.33a.24.24,0,0,1-.08.2.27.27,0,0,1-.2.09h-5.16a.11.11,0,0,0-.12.12V375a.11.11,0,0,0,.12.12h7.87a.31.31,0,0,1,.29.29v2.33a.31.31,0,0,1-.29.29h-11.09a.31.31,0,0,1-.29-.29V361.52a.29.29,0,0,1,.09-.21.28.28,0,0,1,.2-.08h11.09a.28.28,0,0,1,.2.08.29.29,0,0,1,.09.21v2.32A.29.29,0,0,1,1641.48,364.05Z"></path></g><g class="cls-1"><path d="M1652.43,377.81l-3-6.65a.15.15,0,0,0-.14-.09h-2.23a.11.11,0,0,0-.12.12v6.55a.31.31,0,0,1-.29.29h-2.81a.31.31,0,0,1-.29-.29V361.52a.29.29,0,0,1,.09-.21.28.28,0,0,1,.2-.08h6.87a5.72,5.72,0,0,1,2.7.62,4.47,4.47,0,0,1,1.8,1.78,5.45,5.45,0,0,1,.63,2.66,4.79,4.79,0,0,1-.81,2.8,4.42,4.42,0,0,1-2.28,1.64.12.12,0,0,0-.08.17l3.27,6.79a.47.47,0,0,1,0,.14c0,.13-.09.2-.27.2h-3A.35.35,0,0,1,1652.43,377.81Zm-5.49-13.56v4.11a.11.11,0,0,0,.12.12h3.14a2.33,2.33,0,0,0,1.65-.6,2.06,2.06,0,0,0,.63-1.56,2.12,2.12,0,0,0-.63-1.58,2.29,2.29,0,0,0-1.65-.61h-3.14A.11.11,0,0,0,1646.94,364.25Z"></path><path d="M1669,377.79l-.72-2.35c0-.07-.07-.1-.12-.1h-5.91s-.08,0-.12.1l-.69,2.35a.31.31,0,0,1-.31.24h-3.05a.27.27,0,0,1-.22-.09c-.05-.05-.05-.14,0-.25l5.18-16.22a.3.3,0,0,1,.31-.24h3.77a.29.29,0,0,1,.31.24l5.19,16.22a.37.37,0,0,1,0,.12c0,.15-.09.22-.26.22h-3.05A.3.3,0,0,1,1669,377.79Zm-5.91-5.07h4.23c.09,0,.12,0,.09-.14l-2.16-7.13c0-.06,0-.09-.07-.08s0,0-.07.08l-2.11,7.13C1663,372.68,1663,372.72,1663.11,372.72Z"></path></g><g class="cls-1"><path d="M1684.7,361.31a.29.29,0,0,1,.09.21v2.35a.25.25,0,0,1-.09.2.27.27,0,0,1-.2.09h-4.3a.11.11,0,0,0-.12.12v13.46a.28.28,0,0,1-.08.2.29.29,0,0,1-.21.09H1677a.29.29,0,0,1-.21-.09.24.24,0,0,1-.08-.2V364.28a.11.11,0,0,0-.12-.12h-4.18a.31.31,0,0,1-.29-.29v-2.35a.29.29,0,0,1,.09-.21.28.28,0,0,1,.2-.08h12.1A.3.3,0,0,1,1684.7,361.31Z"></path><path d="M1689,377.52a5.51,5.51,0,0,1-2.22-2.14,6.25,6.25,0,0,1-.79-3.18v-5.14a6.13,6.13,0,0,1,.79-3.14,5.42,5.42,0,0,1,2.22-2.13,7.68,7.68,0,0,1,6.62,0,5.42,5.42,0,0,1,2.22,2.13,6.13,6.13,0,0,1,.79,3.14v5.14a6.32,6.32,0,0,1-.79,3.19,5.47,5.47,0,0,1-2.22,2.15,7,7,0,0,1-3.32.75A6.76,6.76,0,0,1,1689,377.52Zm5.43-3a3.05,3.05,0,0,0,.82-2.23V367a3.17,3.17,0,0,0-.8-2.25,2.82,2.82,0,0,0-2.15-.85,2.79,2.79,0,0,0-2.13.85,3.17,3.17,0,0,0-.8,2.25v5.28a3.12,3.12,0,0,0,.8,2.23,3.12,3.12,0,0,0,4.26,0Z"></path></g><g class="cls-1"><path d="M1710.49,377.81l-3-6.65a.16.16,0,0,0-.15-.09h-2.23a.11.11,0,0,0-.12.12v6.55a.28.28,0,0,1-.08.2.29.29,0,0,1-.21.09h-2.8a.29.29,0,0,1-.21-.09.28.28,0,0,1-.08-.2V361.52a.27.27,0,0,1,.29-.29h6.86a5.72,5.72,0,0,1,2.7.62,4.35,4.35,0,0,1,1.8,1.78,5.45,5.45,0,0,1,.64,2.66,4.79,4.79,0,0,1-.82,2.8,4.34,4.34,0,0,1-2.28,1.64.12.12,0,0,0-.07.17l3.26,6.79a.47.47,0,0,1,0,.14c0,.13-.09.2-.26.2h-3A.32.32,0,0,1,1710.49,377.81Zm-5.5-13.56v4.11a.11.11,0,0,0,.12.12h3.15a2.29,2.29,0,0,0,1.64-.6,2.06,2.06,0,0,0,.64-1.56,2.12,2.12,0,0,0-.64-1.58,2.25,2.25,0,0,0-1.64-.61h-3.15A.11.11,0,0,0,1705,364.25Z"></path></g><g class="cls-1"><path d="M1584.71,416.91V395.45a.21.21,0,0,1,.24-.24h5a.21.21,0,0,1,.24.24V397a.21.21,0,0,1-.24.24h-2.88c-.06,0-.1,0-.1.09v17.74a.09.09,0,0,0,.1.1h2.9a.21.21,0,0,1,.24.24v1.51a.21.21,0,0,1-.24.24H1585A.21.21,0,0,1,1584.71,416.91Z"></path><path d="M1595,413.79V397.47a.21.21,0,0,1,.24-.24h1.82a.21.21,0,0,1,.24.24v9.24s0,.05.05.07.06,0,.07,0l4.44-4.82a.36.36,0,0,1,.29-.12h2.14a.18.18,0,0,1,.18.09.22.22,0,0,1-.06.2l-3.1,3.58c0,.06,0,.11,0,.14l3.67,7.92,0,.09a.18.18,0,0,1-.21.2h-1.92a.28.28,0,0,1-.27-.2l-2.85-6.52q0-.12-.12,0l-2.26,2.5a.42.42,0,0,0-.05.12v3.89a.21.21,0,0,1-.24.24h-1.82A.21.21,0,0,1,1595,413.79Z"></path><path d="M1610.77,413.83l-4.51-16.34,0-.07c0-.13.08-.19.24-.19h1.94a.25.25,0,0,1,.27.21l3.14,12a.06.06,0,0,0,.06,0,.07.07,0,0,0,.06,0l3-12a.24.24,0,0,1,.26-.21h1.9a.24.24,0,0,1,.26.21l3.14,12,0,.05s0,0,0-.05l3.17-12a.24.24,0,0,1,.26-.21h1.83a.21.21,0,0,1,.18.07.2.2,0,0,1,0,.19l-4.34,16.32a.25.25,0,0,1-.27.22h-1.84a.25.25,0,0,1-.27-.22l-3.14-12.38c0-.05,0-.07,0-.07s0,0-.05.07l-3,12.38c0,.15-.1.22-.26.22H1611A.25.25,0,0,1,1610.77,413.83Z"></path><path d="M1637,402.78a4.14,4.14,0,0,1,1.15,3.09v7.92a.21.21,0,0,1-.24.24H1636c-.16,0-.23-.08-.23-.24v-7.47a2.75,2.75,0,0,0-.7-1.94,2.4,2.4,0,0,0-1.85-.74,2.45,2.45,0,0,0-1.85.74,2.66,2.66,0,0,0-.72,1.92v7.49a.21.21,0,0,1-.24.24h-1.82a.21.21,0,0,1-.24-.24V397.47a.21.21,0,0,1,.24-.24h1.82a.21.21,0,0,1,.24.24v5.45a.1.1,0,0,0,0,.07s0,0,.06,0a3.63,3.63,0,0,1,3-1.32A4.25,4.25,0,0,1,1637,402.78Z"></path><path d="M1648.12,417.15h-5.07a.21.21,0,0,1-.24-.24V415.4a.21.21,0,0,1,.24-.24H1646c.06,0,.09,0,.09-.1V397.32a.08.08,0,0,0-.09-.09h-2.91a.21.21,0,0,1-.24-.24v-1.54a.21.21,0,0,1,.24-.24h5.07a.21.21,0,0,1,.24.24v21.46A.21.21,0,0,1,1648.12,417.15Z"></path></g><g class="cls-1"><path d="M1596.94,605.52a.32.32,0,0,1-.21.08h-7.84a.11.11,0,0,0-.12.12v3.72a.11.11,0,0,0,.12.12h5.16a.3.3,0,0,1,.2.08.28.28,0,0,1,.08.21v2.33a.27.27,0,0,1-.28.28h-5.16a.11.11,0,0,0-.12.12v6.63a.25.25,0,0,1-.09.2.27.27,0,0,1-.2.09h-2.81a.31.31,0,0,1-.29-.29V603a.27.27,0,0,1,.09-.2.24.24,0,0,1,.2-.08h11.06a.28.28,0,0,1,.21.08.3.3,0,0,1,.08.2v2.33A.32.32,0,0,1,1596.94,605.52Z"></path><path d="M1601.47,619a5.54,5.54,0,0,1-2.22-2.15,6.36,6.36,0,0,1-.79-3.18v-5.13a6.27,6.27,0,0,1,.79-3.15,5.46,5.46,0,0,1,2.22-2.12,7.61,7.61,0,0,1,6.63,0,5.46,5.46,0,0,1,2.22,2.12,6.17,6.17,0,0,1,.79,3.15v5.13a6.35,6.35,0,0,1-.79,3.2,5.45,5.45,0,0,1-2.22,2.14,7.56,7.56,0,0,1-6.63,0Zm5.44-3a3.1,3.1,0,0,0,.82-2.24V608.5a3.13,3.13,0,0,0-.81-2.24,3.11,3.11,0,0,0-4.27,0,3.12,3.12,0,0,0-.8,2.24v5.28a3.09,3.09,0,0,0,.8,2.24,2.8,2.8,0,0,0,2.12.84A2.85,2.85,0,0,0,1606.91,616Z"></path><path d="M1622.58,619.28l-3-6.65a.15.15,0,0,0-.14-.09h-2.23c-.09,0-.12,0-.12.12v6.55a.31.31,0,0,1-.29.29H1614a.31.31,0,0,1-.29-.29V603a.27.27,0,0,1,.09-.2.24.24,0,0,1,.2-.08h6.86a5.55,5.55,0,0,1,2.7.62,4.35,4.35,0,0,1,1.8,1.78,5.32,5.32,0,0,1,.64,2.66,4.72,4.72,0,0,1-.82,2.8,4.34,4.34,0,0,1-2.28,1.64.12.12,0,0,0-.07.17l3.27,6.79a.33.33,0,0,1,0,.14c0,.13-.08.2-.26.2h-2.95A.36.36,0,0,1,1622.58,619.28Zm-5.49-13.56v4.1c0,.08,0,.12.12.12h3.14a2.29,2.29,0,0,0,1.64-.6,2,2,0,0,0,.64-1.56,2.07,2.07,0,0,0-.64-1.57,2.25,2.25,0,0,0-1.64-.61h-3.14C1617.12,605.6,1617.09,605.64,1617.09,605.72Z"></path><path d="M1638.4,610.88a4.06,4.06,0,0,1,2.28,3.91,4.12,4.12,0,0,1-1.59,3.52,6.74,6.74,0,0,1-4.15,1.19h-6.21a.29.29,0,0,1-.21-.09.24.24,0,0,1-.08-.2V603a.26.26,0,0,1,.08-.2.28.28,0,0,1,.21-.08h6q5.68,0,5.69,4.6a3.57,3.57,0,0,1-2,3.44C1638.3,610.78,1638.3,610.83,1638.4,610.88Zm-6.58-5.16v3.74a.11.11,0,0,0,.12.12h2.81a2.65,2.65,0,0,0,1.75-.52,1.79,1.79,0,0,0,.62-1.44,1.84,1.84,0,0,0-.62-1.48,2.6,2.6,0,0,0-1.75-.54h-2.81A.11.11,0,0,0,1631.82,605.72Zm4.85,10.28a2.24,2.24,0,0,0,0-3.09,2.51,2.51,0,0,0-1.75-.57h-3a.11.11,0,0,0-.12.12v4a.11.11,0,0,0,.12.12h3A2.47,2.47,0,0,0,1636.67,616Z"></path></g><g class="cls-1"><path d="M1651.76,619.28l-3-6.65a.15.15,0,0,0-.14-.09h-2.23a.11.11,0,0,0-.12.12v6.55a.25.25,0,0,1-.09.2.27.27,0,0,1-.2.09h-2.81a.31.31,0,0,1-.29-.29V603a.27.27,0,0,1,.09-.2.24.24,0,0,1,.2-.08H1650a5.55,5.55,0,0,1,2.7.62,4.35,4.35,0,0,1,1.8,1.78,5.32,5.32,0,0,1,.64,2.66,4.72,4.72,0,0,1-.82,2.8,4.34,4.34,0,0,1-2.28,1.64.12.12,0,0,0-.07.17l3.27,6.79a.33.33,0,0,1,0,.14c0,.13-.08.2-.26.2h-3A.36.36,0,0,1,1651.76,619.28Zm-5.49-13.56v4.1a.11.11,0,0,0,.12.12h3.14a2.29,2.29,0,0,0,1.64-.6,2,2,0,0,0,.64-1.56,2.07,2.07,0,0,0-.64-1.57,2.25,2.25,0,0,0-1.64-.61h-3.14A.11.11,0,0,0,1646.27,605.72Z"></path><path d="M1660.46,619a5.34,5.34,0,0,1-2.18-2,5.77,5.77,0,0,1-.78-3V603a.3.3,0,0,1,.08-.2.28.28,0,0,1,.21-.08h2.8a.28.28,0,0,1,.21.08.3.3,0,0,1,.08.2v11a2.84,2.84,0,1,0,5.67,0V603a.27.27,0,0,1,.28-.28h2.81a.28.28,0,0,1,.21.08.3.3,0,0,1,.08.2v10.95a5.77,5.77,0,0,1-.78,3,5.34,5.34,0,0,1-2.18,2,7.72,7.72,0,0,1-6.51,0Z"></path><path d="M1672.8,619.41a.25.25,0,0,1-.09-.2V603a.27.27,0,0,1,.09-.2.24.24,0,0,1,.2-.08h2.81a.24.24,0,0,1,.2.08.27.27,0,0,1,.09.2v6.72s0,.08.05.09.06,0,.09,0l5.55-6.89a.44.44,0,0,1,.36-.16h3.16c.13,0,.21,0,.24.1a.26.26,0,0,1,0,.26l-5.36,6.84a.14.14,0,0,0,0,.16l5.66,9.1a.57.57,0,0,1,0,.17c0,.11-.08.17-.24.17h-3.17a.33.33,0,0,1-.33-.2l-4.27-6.91a.09.09,0,0,0-.08,0,.14.14,0,0,0-.09,0l-1.51,1.9a.26.26,0,0,0-.05.14v4.78a.31.31,0,0,1-.29.29H1673A.25.25,0,0,1,1672.8,619.41Z"></path><path d="M1699.32,605.52a.32.32,0,0,1-.21.08h-7.87a.11.11,0,0,0-.12.12v3.72a.11.11,0,0,0,.12.12h5.16a.27.27,0,0,1,.29.29v2.33a.3.3,0,0,1-.08.2.28.28,0,0,1-.21.08h-5.16a.11.11,0,0,0-.12.12v3.89a.11.11,0,0,0,.12.12h7.87a.29.29,0,0,1,.21.09.28.28,0,0,1,.08.2v2.33a.28.28,0,0,1-.08.2.29.29,0,0,1-.21.09H1688a.29.29,0,0,1-.21-.09.24.24,0,0,1-.08-.2V603a.26.26,0,0,1,.08-.2.28.28,0,0,1,.21-.08h11.08a.28.28,0,0,1,.21.08.3.3,0,0,1,.08.2v2.33A.32.32,0,0,1,1699.32,605.52Z"></path></g><g class="cls-1"><path d="M1710.39,619.28l-3-6.65a.16.16,0,0,0-.15-.09H1705a.11.11,0,0,0-.12.12v6.55a.28.28,0,0,1-.08.2.29.29,0,0,1-.21.09h-2.81a.27.27,0,0,1-.2-.09.24.24,0,0,1-.08-.2V603a.27.27,0,0,1,.28-.28h6.87a5.6,5.6,0,0,1,2.7.62,4.47,4.47,0,0,1,1.8,1.78,5.42,5.42,0,0,1,.63,2.66,4.79,4.79,0,0,1-.81,2.8,4.42,4.42,0,0,1-2.28,1.64.11.11,0,0,0-.07.17l3.26,6.79a.39.39,0,0,1,0,.14c0,.13-.09.2-.27.2h-3A.34.34,0,0,1,1710.39,619.28Zm-5.5-13.56v4.1a.11.11,0,0,0,.12.12h3.14a2.29,2.29,0,0,0,1.65-.6,2.06,2.06,0,0,0,.63-1.56,2.09,2.09,0,0,0-.63-1.57,2.26,2.26,0,0,0-1.65-.61H1705A.11.11,0,0,0,1704.89,605.72Z"></path></g><g class="cls-1"><path d="M1584.71,658.38V636.92a.21.21,0,0,1,.24-.24h5a.21.21,0,0,1,.24.24v1.54a.21.21,0,0,1-.24.24h-2.88c-.06,0-.1,0-.1.09v17.74c0,.06,0,.09.1.09h2.9a.21.21,0,0,1,.24.24v1.52a.21.21,0,0,1-.24.24H1585A.21.21,0,0,1,1584.71,658.38Z"></path><path d="M1595,655.26V638.94a.21.21,0,0,1,.24-.24h1.82a.21.21,0,0,1,.24.24v9.24s0,.05.05.07.06,0,.07,0l4.44-4.82a.36.36,0,0,1,.29-.12h2.14a.19.19,0,0,1,.18.08.23.23,0,0,1-.06.21l-3.1,3.57c0,.07,0,.12,0,.15l3.67,7.92,0,.09a.18.18,0,0,1-.21.2h-1.92a.28.28,0,0,1-.27-.2l-2.85-6.52q0-.12-.12,0l-2.26,2.5a.42.42,0,0,0-.05.12v3.89a.21.21,0,0,1-.24.24h-1.82A.21.21,0,0,1,1595,655.26Z"></path><path d="M1610.77,655.3,1606.26,639l0-.07c0-.13.08-.19.24-.19h1.94a.25.25,0,0,1,.27.21l3.14,12a.06.06,0,0,0,.06,0s0,0,.06,0l3-12a.24.24,0,0,1,.26-.21h1.9a.24.24,0,0,1,.26.21l3.14,12,0,.05s0,0,0-.05l3.17-12a.24.24,0,0,1,.26-.21h1.83a.21.21,0,0,1,.18.07.2.2,0,0,1,0,.19l-4.34,16.32a.25.25,0,0,1-.27.22h-1.84a.25.25,0,0,1-.27-.22l-3.14-12.38s0-.08,0-.08,0,0-.05.08l-3,12.38a.23.23,0,0,1-.26.22H1611A.25.25,0,0,1,1610.77,655.3Z"></path><path d="M1637,644.25a4.14,4.14,0,0,1,1.15,3.09v7.92a.21.21,0,0,1-.24.24H1636c-.16,0-.23-.08-.23-.24v-7.47a2.73,2.73,0,0,0-.7-1.94,2.41,2.41,0,0,0-1.85-.75,2.46,2.46,0,0,0-1.85.75,2.63,2.63,0,0,0-.72,1.92v7.49a.21.21,0,0,1-.24.24h-1.82a.21.21,0,0,1-.24-.24V638.94a.21.21,0,0,1,.24-.24h1.82a.21.21,0,0,1,.24.24v5.44a.1.1,0,0,0,0,.08s0,0,.06,0a3.63,3.63,0,0,1,3-1.32A4.25,4.25,0,0,1,1637,644.25Z"></path><path d="M1648.12,658.62h-5.07a.21.21,0,0,1-.24-.24v-1.52a.21.21,0,0,1,.24-.24H1646a.08.08,0,0,0,.09-.09V638.79a.08.08,0,0,0-.09-.09h-2.91a.21.21,0,0,1-.24-.24v-1.54a.21.21,0,0,1,.24-.24h5.07a.21.21,0,0,1,.24.24v21.46A.21.21,0,0,1,1648.12,658.62Z"></path></g><path d="M1346.9,88.4a2.87,2.87,0,0,1,.7-1.8,2.06,2.06,0,0,1,1.7-.7H1365a2.61,2.61,0,0,1,1.7.7,2.87,2.87,0,0,1,.7,1.8V98.6h3V88.4a5.52,5.52,0,0,0-1.6-3.9,5.29,5.29,0,0,0-3.8-1.6h-15.7a5.29,5.29,0,0,0-3.8,1.6,5.52,5.52,0,0,0-1.6,3.9v1.5h3V88.4Zm12,10.9h16.6a7.78,7.78,0,0,1,5.8,2.5,8.38,8.38,0,0,1,2.4,6V191a8.73,8.73,0,0,1-2.4,6,8.35,8.35,0,0,1-5.8,2.5H1339a7.78,7.78,0,0,1-5.8-2.5,8.38,8.38,0,0,1-2.4-6V107.8a8.73,8.73,0,0,1,2.4-6,8.35,8.35,0,0,1,5.8-2.5h8v-3h-8a11.27,11.27,0,0,0-8,3.4,11.67,11.67,0,0,0-3.3,8.1V191a11.85,11.85,0,0,0,3.3,8.1,11.1,11.1,0,0,0,8,3.4h36.5a11.27,11.27,0,0,0,8-3.4,11.67,11.67,0,0,0,3.3-8.1V107.8a11.85,11.85,0,0,0-3.3-8.1,11.1,11.1,0,0,0-8-3.4h-18.1v3Z"></path><path d="M1347.4,118.2H1367v-3h-19.6Zm8.3-11.2v19.4h3V107Zm-8.3,76H1367v-3h-19.6Z"></path></svg> 