<?xml version="1.0" encoding="UTF-8"?> <!-- Generator: Adobe Illustrator 25.4.1, SVG Export Plug-In . SVG Version: 6.00 Build 0) --> <svg xmlns="http://www.w3.org/2000/svg" xmlns:xlink="http://www.w3.org/1999/xlink" version="1.1" id="Layer_1" x="0px" y="0px" viewBox="0 0 1088.9 920" style="enable-background:new 0 0 1088.9 920;" xml:space="preserve"> <style type="text/css"> .st0{fill:#FFCD15;} .st1{enable-background:new ;} .st2{fill:none;stroke:#FECC07;stroke-width:3;stroke-linecap:round;} .st3{fill:none;stroke:#000000;stroke-width:3;stroke-linecap:round;stroke-linejoin:round;} .st4{fill:none;stroke:#000000;stroke-width:3;stroke-linecap:round;stroke-miterlimit:10;} .st5{fill:none;stroke:#000000;stroke-width:3;stroke-miterlimit:10;} .st6{fill:none;stroke:#000000;stroke-width:3;stroke-linecap:round;stroke-linejoin:round;stroke-miterlimit:10;} .st7{fill:none;stroke:#000000;stroke-width:3;stroke-linejoin:round;stroke-miterlimit:10;} .st8{fill:none;stroke:#000000;stroke-width:3;stroke-linecap:square;stroke-linejoin:round;stroke-miterlimit:10;} </style> <g> <g> <g> <g> <g> <path class="st0" d="M319.1,920c87.8,0,158.9-71.2,158.9-159s-71.2-159-158.9-159s-159,71.2-159,159S231.3,920,319.1,920"></path> </g> <g> <path class="st0" d="M759.1,920c87.8,0,158.9-71.2,158.9-159s-71.2-159-158.9-159c-87.8,0-159,71.2-159,159 S671.3,920,759.1,920"></path> </g> </g> </g> <g> <g> <g class="st1"> <path d="M3,549.5c-1-0.4-1.7-1-2.2-1.8S0,546.1,0,545v-0.5c0-0.1,0-0.1,0.1-0.2c0.1-0.1,0.1-0.1,0.2-0.1H3c0.1,0,0.1,0,0.2,0.1 s0.1,0.1,0.1,0.2v0.4c0,0.6,0.3,1.2,0.9,1.6c0.6,0.4,1.4,0.7,2.4,0.7c0.8,0,1.5-0.2,1.9-0.5s0.6-0.8,0.6-1.3 c0-0.4-0.1-0.7-0.4-1s-0.6-0.5-1-0.7s-1.1-0.5-2.1-0.8c-1.1-0.4-2-0.7-2.7-1.1s-1.4-0.9-1.9-1.6c-0.5-0.7-0.8-1.5-0.8-2.5 s0.2-1.8,0.7-2.5s1.2-1.3,2.1-1.7s1.9-0.6,3-0.6c1.2,0,2.3,0.2,3.3,0.6c1,0.4,1.7,1,2.2,1.8s0.8,1.7,0.8,2.7v0.4 c0,0.1,0,0.1-0.1,0.2c-0.1,0.1-0.1,0.1-0.2,0.1H9.2c-0.1,0-0.1,0-0.2-0.1s-0.1-0.1-0.1-0.2v-0.2c0-0.7-0.3-1.2-0.8-1.7 c-0.6-0.5-1.3-0.7-2.3-0.7c-0.8,0-1.3,0.2-1.8,0.5c-0.4,0.3-0.6,0.8-0.6,1.3c0,0.4,0.1,0.7,0.4,1c0.2,0.3,0.6,0.5,1.1,0.7 s1.2,0.5,2.3,0.9c1.1,0.4,2,0.8,2.7,1.1c0.6,0.3,1.2,0.8,1.8,1.4s0.8,1.5,0.8,2.5c0,1.5-0.6,2.7-1.7,3.6s-2.6,1.3-4.5,1.3 C5.1,550.1,4,549.9,3,549.5z"></path> </g> <g class="st1"> <path d="M17.6,549.4c-1-0.5-1.7-1.2-2.2-2.1c-0.5-0.9-0.8-2-0.8-3.2V539c0-1.2,0.3-2.2,0.8-3.1s1.3-1.6,2.2-2.1 s2.1-0.8,3.3-0.8c1.3,0,2.4,0.3,3.3,0.8s1.7,1.2,2.2,2.1c0.5,0.9,0.8,2,0.8,3.1v5.1c0,1.2-0.3,2.3-0.8,3.2s-1.3,1.6-2.2,2.1 s-2.1,0.8-3.3,0.8C19.6,550.1,18.5,549.9,17.6,549.4z M23,546.4c0.5-0.6,0.8-1.3,0.8-2.2v-5.3c0-0.9-0.3-1.7-0.8-2.2 c-0.5-0.6-1.3-0.9-2.1-0.9c-0.9,0-1.6,0.3-2.1,0.9c-0.5,0.6-0.8,1.3-0.8,2.2v5.3c0,0.9,0.3,1.7,0.8,2.2 c0.5,0.6,1.2,0.8,2.1,0.8S22.5,547,23,546.4z"></path> </g> <g class="st1"> <path d="M29.8,549.8c-0.1-0.1-0.1-0.1-0.1-0.2v-16.2c0-0.1,0-0.1,0.1-0.2s0.1-0.1,0.2-0.1h2.8c0.1,0,0.1,0,0.2,0.1 s0.1,0.1,0.1,0.2v13.5c0,0.1,0,0.1,0.1,0.1H41c0.1,0,0.1,0,0.2,0.1s0.1,0.1,0.1,0.2v2.3c0,0.1,0,0.1-0.1,0.2 c-0.1,0.1-0.1,0.1-0.2,0.1H29.9C29.9,549.9,29.9,549.9,29.8,549.8z"></path> </g> <g class="st1"> <path d="M54.2,549.6l-0.7-2.4c0-0.1-0.1-0.1-0.1-0.1h-5.9c0,0-0.1,0-0.1,0.1l-0.7,2.4c0,0.2-0.2,0.2-0.3,0.2h-3 c-0.1,0-0.2,0-0.2-0.1s-0.1-0.1,0-0.3l5.2-16.2c0-0.2,0.2-0.2,0.3-0.2h3.8c0.2,0,0.3,0.1,0.3,0.2l5.2,16.2v0.1 c0,0.1-0.1,0.2-0.3,0.2h-3C54.3,549.9,54.2,549.8,54.2,549.6z M48.3,544.6h4.2c0.1,0,0.1,0,0.1-0.1l-2.2-7.1 c0-0.1,0-0.1-0.1-0.1c0,0-0.1,0-0.1,0.1l-2.1,7.1C48.2,544.5,48.2,544.6,48.3,544.6z"></path> <path d="M68.8,549.7l-3-6.6c0-0.1-0.1-0.1-0.1-0.1h-2.2c-0.1,0-0.1,0-0.1,0.1v6.6c0,0.1,0,0.1-0.1,0.2 c-0.1,0.1-0.1,0.1-0.2,0.1h-2.8c-0.1,0-0.1,0-0.2-0.1s-0.1-0.1-0.1-0.2v-16.2c0-0.1,0-0.1,0.1-0.2s0.1-0.1,0.2-0.1h6.9 c1,0,1.9,0.2,2.7,0.6c0.8,0.4,1.4,1,1.8,1.8s0.6,1.7,0.6,2.7c0,1.1-0.3,2-0.8,2.8s-1.3,1.3-2.3,1.6c-0.1,0-0.1,0.1-0.1,0.2 l3.3,6.8c0,0.1,0,0.1,0,0.1c0,0.1-0.1,0.2-0.3,0.2h-3C69,549.9,68.9,549.8,68.8,549.7z M63.3,536.1v4.1c0,0.1,0,0.1,0.1,0.1 h3.1c0.7,0,1.2-0.2,1.6-0.6c0.4-0.4,0.6-0.9,0.6-1.6s-0.2-1.2-0.6-1.6s-1-0.6-1.6-0.6h-3.1C63.3,536,63.3,536,63.3,536.1z"></path> </g> <g class="st1"> <path d="M89.1,533.7c0.8,0.4,1.4,1,1.9,1.8c0.4,0.8,0.7,1.7,0.7,2.7s-0.2,1.9-0.7,2.7s-1.1,1.4-1.9,1.8s-1.8,0.6-2.8,0.6h-3.4 c-0.1,0-0.1,0-0.1,0.1v6.1c0,0.1,0,0.1-0.1,0.2c-0.1,0.1-0.1,0.1-0.2,0.1h-2.8c-0.1,0-0.1,0-0.2-0.1s-0.1-0.1-0.1-0.2v-16.2 c0-0.1,0-0.1,0.1-0.2c0.1-0.1,0.1-0.1,0.2-0.1h6.8C87.4,533.1,88.3,533.3,89.1,533.7z M87.6,540c0.4-0.4,0.7-1,0.7-1.7 s-0.2-1.3-0.7-1.7c-0.4-0.4-1-0.6-1.8-0.6h-3c-0.1,0-0.1,0-0.1,0.1v4.4c0,0.1,0,0.1,0.1,0.1h3C86.6,540.6,87.2,540.4,87.6,540z "></path> </g> <g class="st1"> <path d="M97.8,549.6l-4.9-16.2v-0.1c0-0.2,0.1-0.2,0.3-0.2h3c0.2,0,0.3,0.1,0.3,0.2l3.2,11.7c0,0,0,0.1,0.1,0.1 c0,0,0.1,0,0.1-0.1l3.1-11.7c0-0.2,0.2-0.2,0.3-0.2h3c0.1,0,0.2,0,0.2,0.1s0.1,0.1,0,0.2l-5,16.2c0,0.2-0.2,0.2-0.3,0.2h-3 C97.9,549.9,97.8,549.8,97.8,549.6z"></path> </g> <g class="st1"> <path d="M123.1,533.7c0.8,0.4,1.4,1,1.9,1.8c0.4,0.8,0.7,1.7,0.7,2.7s-0.2,1.9-0.7,2.7s-1.1,1.4-1.9,1.8s-1.8,0.6-2.8,0.6h-3.4 c-0.1,0-0.1,0-0.1,0.1v6.1c0,0.1,0,0.1-0.1,0.2c-0.1,0.1-0.1,0.1-0.2,0.1h-2.8c-0.1,0-0.1,0-0.2-0.1c-0.1-0.1-0.1-0.1-0.1-0.2 v-16.2c0-0.1,0-0.1,0.1-0.2c0.1-0.1,0.1-0.1,0.2-0.1h6.8C121.4,533.1,122.3,533.3,123.1,533.7z M121.6,540 c0.4-0.4,0.7-1,0.7-1.7s-0.2-1.3-0.7-1.7c-0.4-0.4-1-0.6-1.8-0.6h-3c-0.1,0-0.1,0-0.1,0.1v4.4c0,0.1,0,0.1,0.1,0.1h3 C120.6,540.6,121.2,540.4,121.6,540z"></path> </g> <g class="st1"> <path d="M136.9,549.6l-0.7-2.4c0-0.1-0.1-0.1-0.1-0.1h-6c0,0-0.1,0-0.1,0.1l-0.7,2.4c0,0.2-0.2,0.2-0.3,0.2h-3 c-0.1,0-0.2,0-0.2-0.1s-0.1-0.1,0-0.3l5.2-16.2c0-0.2,0.2-0.2,0.3-0.2h3.8c0.2,0,0.3,0.1,0.3,0.2l5.2,16.2v0.1 c0,0.1-0.1,0.2-0.3,0.2h-3C137,549.9,136.9,549.8,136.9,549.6z M131,544.6h4.2c0.1,0,0.1,0,0.1-0.1l-2.2-7.1 c0-0.1,0-0.1-0.1-0.1c0,0-0.1,0-0.1,0.1l-2.1,7.1C130.9,544.5,130.9,544.6,131,544.6z"></path> </g> <g class="st1"> <path d="M152.4,533.2c0.1-0.1,0.1-0.1,0.2-0.1h2.8c0.1,0,0.1,0,0.2,0.1c0.1,0.1,0.1,0.1,0.1,0.2v16.2c0,0.1,0,0.1-0.1,0.2 c-0.1,0.1-0.1,0.1-0.2,0.1h-2.7c-0.2,0-0.3-0.1-0.3-0.2l-6.2-10.3l-0.1-0.1c0,0,0,0,0,0.1v10.1c0,0.1,0,0.1-0.1,0.2 c-0.1,0.1-0.1,0.1-0.2,0.1H143c-0.1,0-0.1,0-0.2-0.1c-0.1-0.1-0.1-0.1-0.1-0.2v-16.2c0-0.1,0-0.1,0.1-0.2s0.1-0.1,0.2-0.1h2.7 c0.2,0,0.3,0.1,0.3,0.2l6.2,10.2l0.1,0.1c0,0,0,0,0-0.1v-10.1C152.3,533.3,152.3,533.2,152.4,533.2z"></path> </g> <g class="st1"> <path d="M170.1,535.9c-0.1,0.1-0.1,0.1-0.2,0.1H162c-0.1,0-0.1,0-0.1,0.1v3.7c0,0.1,0,0.1,0.1,0.1h5.2c0.1,0,0.1,0,0.2,0.1 c0.1,0.1,0.1,0.1,0.1,0.2v2.3c0,0.1,0,0.1-0.1,0.2c-0.1,0.1-0.1,0.1-0.2,0.1H162c-0.1,0-0.1,0-0.1,0.1v3.9c0,0.1,0,0.1,0.1,0.1 h7.9c0.1,0,0.1,0,0.2,0.1c0.1,0.1,0.1,0.1,0.1,0.2v2.3c0,0.1,0,0.1-0.1,0.2c-0.1,0.1-0.1,0.1-0.2,0.1h-11.1 c-0.1,0-0.1,0-0.2-0.1c-0.1-0.1-0.1-0.1-0.1-0.2v-16.2c0-0.1,0-0.1,0.1-0.2s0.1-0.1,0.2-0.1h11.1c0.1,0,0.1,0,0.2,0.1 s0.1,0.1,0.1,0.2v2.3C170.2,535.8,170.2,535.8,170.1,535.9z"></path> </g> <g class="st1"> <path d="M172.5,549.8c-0.1-0.1-0.1-0.1-0.1-0.2v-16.2c0-0.1,0-0.1,0.1-0.2c0.1-0.1,0.1-0.1,0.2-0.1h2.8c0.1,0,0.1,0,0.2,0.1 c0.1,0.1,0.1,0.1,0.1,0.2v13.5c0,0.1,0,0.1,0.1,0.1h7.8c0.1,0,0.1,0,0.2,0.1c0.1,0.1,0.1,0.1,0.1,0.2v2.3c0,0.1,0,0.1-0.1,0.2 c-0.1,0.1-0.1,0.1-0.2,0.1L172.5,549.8C172.6,549.9,172.6,549.9,172.5,549.8z"></path> </g> <g class="st1"> <path d="M188.6,549.5c-1-0.4-1.7-1-2.2-1.8s-0.8-1.6-0.8-2.7v-0.5c0-0.1,0-0.1,0.1-0.2c0.1-0.1,0.1-0.1,0.2-0.1h2.7 c0.1,0,0.1,0,0.2,0.1c0.1,0.1,0.1,0.1,0.1,0.2v0.4c0,0.6,0.3,1.2,0.9,1.6c0.6,0.4,1.4,0.7,2.4,0.7c0.8,0,1.5-0.2,1.9-0.5 s0.6-0.8,0.6-1.3c0-0.4-0.1-0.7-0.4-1c-0.3-0.3-0.6-0.5-1-0.7s-1.1-0.5-2.1-0.8c-1.1-0.4-2-0.7-2.7-1.1s-1.4-0.9-1.9-1.6 c-0.5-0.7-0.8-1.5-0.8-2.5s0.2-1.8,0.7-2.5s1.2-1.3,2.1-1.7c0.9-0.4,1.9-0.6,3-0.6c1.2,0,2.3,0.2,3.3,0.6c1,0.4,1.7,1,2.2,1.8 s0.8,1.7,0.8,2.7v0.4c0,0.1,0,0.1-0.1,0.2c-0.1,0.1-0.1,0.1-0.2,0.1h-2.8c-0.1,0-0.1,0-0.2-0.1c-0.1-0.1-0.1-0.1-0.1-0.2v-0.2 c0-0.7-0.3-1.2-0.8-1.7c-0.6-0.5-1.3-0.7-2.3-0.7c-0.8,0-1.3,0.2-1.8,0.5c-0.4,0.3-0.6,0.8-0.6,1.3c0,0.4,0.1,0.7,0.4,1 c0.2,0.3,0.6,0.5,1.1,0.7s1.2,0.5,2.3,0.9s2,0.8,2.7,1.1c0.6,0.3,1.2,0.8,1.8,1.4s0.8,1.5,0.8,2.5c0,1.5-0.6,2.7-1.7,3.6 s-2.6,1.3-4.5,1.3C190.7,550.1,189.6,549.9,188.6,549.5z"></path> </g> </g> </g> <g> <g> <g class="st1"> <path d="M483.1,549.3c-0.9-0.5-1.7-1.2-2.2-2.1c-0.5-0.9-0.8-1.9-0.8-3v-5.5c0-1.2,0.3-2.2,0.8-3c0.5-0.9,1.2-1.6,2.2-2 c0.9-0.5,2-0.7,3.3-0.7c1.2,0,2.3,0.2,3.3,0.7s1.7,1.1,2.2,1.9c0.5,0.8,0.8,1.8,0.8,2.9c0,0.1-0.1,0.2-0.3,0.3l-2.8,0.2l0,0 c-0.2,0-0.2-0.1-0.2-0.3c0-0.8-0.3-1.5-0.8-2s-1.2-0.8-2.1-0.8c-0.9,0-1.6,0.3-2.1,0.8s-0.8,1.2-0.8,2v5.8c0,0.8,0.3,1.5,0.8,2 s1.2,0.8,2.1,0.8c0.8,0,1.5-0.3,2.1-0.8c0.5-0.5,0.8-1.2,0.8-2c0-0.2,0.1-0.3,0.3-0.3l2.8,0.1c0.1,0,0.1,0,0.2,0.1 c0.1,0,0.1,0.1,0.1,0.2c0,1.1-0.3,2.1-0.8,2.9c-0.5,0.8-1.2,1.5-2.2,2s-2,0.7-3.3,0.7C485.2,550.1,484.1,549.8,483.1,549.3z"></path> </g> <g class="st1"> <path d="M497.8,549.4c-1-0.5-1.7-1.2-2.2-2.1c-0.5-0.9-0.8-2-0.8-3.2V539c0-1.2,0.3-2.2,0.8-3.1c0.5-0.9,1.3-1.6,2.2-2.1 c1-0.5,2.1-0.8,3.3-0.8c1.3,0,2.4,0.3,3.3,0.8c1,0.5,1.7,1.2,2.2,2.1c0.5,0.9,0.8,2,0.8,3.1v5.1c0,1.2-0.3,2.3-0.8,3.2 s-1.3,1.6-2.2,2.1c-1,0.5-2.1,0.8-3.3,0.8C499.8,550.1,498.7,549.9,497.8,549.4z M503.2,546.4c0.5-0.6,0.8-1.3,0.8-2.2v-5.3 c0-0.9-0.3-1.7-0.8-2.2c-0.5-0.6-1.3-0.9-2.1-0.9c-0.9,0-1.6,0.3-2.1,0.9c-0.5,0.6-0.8,1.3-0.8,2.2v5.3c0,0.9,0.3,1.7,0.8,2.2 c0.5,0.6,1.2,0.8,2.1,0.8S502.7,547,503.2,546.4z"></path> <path d="M519.8,533.2c0.1-0.1,0.1-0.1,0.2-0.1h2.8c0.1,0,0.1,0,0.2,0.1s0.1,0.1,0.1,0.2v16.2c0,0.1,0,0.1-0.1,0.2 c-0.1,0.1-0.1,0.1-0.2,0.1h-2.7c-0.2,0-0.3-0.1-0.3-0.2l-6.2-10.3l-0.1-0.1c0,0,0,0,0,0.1v10.1c0,0.1,0,0.1-0.1,0.2 c-0.1,0.1-0.1,0.1-0.2,0.1h-2.8c-0.1,0-0.1,0-0.2-0.1c-0.1-0.1-0.1-0.1-0.1-0.2v-16.2c0-0.1,0-0.1,0.1-0.2s0.1-0.1,0.2-0.1h2.7 c0.2,0,0.3,0.1,0.3,0.2l6.2,10.2l0.1,0.1c0,0,0,0,0-0.1v-10.1C519.7,533.3,519.7,533.2,519.8,533.2z"></path> </g> <g class="st1"> <path d="M528.2,549.5c-1-0.4-1.7-1-2.2-1.8s-0.8-1.6-0.8-2.7v-0.5c0-0.1,0-0.1,0.1-0.2c0.1-0.1,0.1-0.1,0.2-0.1h2.7 c0.1,0,0.1,0,0.2,0.1c0.1,0.1,0.1,0.1,0.1,0.2v0.4c0,0.6,0.3,1.2,0.9,1.6c0.6,0.4,1.4,0.7,2.4,0.7c0.8,0,1.5-0.2,1.9-0.5 s0.6-0.8,0.6-1.3c0-0.4-0.1-0.7-0.4-1s-0.6-0.5-1-0.7s-1.1-0.5-2.1-0.8c-1.1-0.4-2-0.7-2.7-1.1c-0.7-0.4-1.4-0.9-1.9-1.6 c-0.5-0.7-0.8-1.5-0.8-2.5s0.2-1.8,0.7-2.5s1.2-1.3,2.1-1.7c0.9-0.4,1.9-0.6,3-0.6c1.2,0,2.3,0.2,3.3,0.6c1,0.4,1.7,1,2.2,1.8 s0.8,1.7,0.8,2.7v0.4c0,0.1,0,0.1-0.1,0.2c-0.1,0.1-0.1,0.1-0.2,0.1h-2.8c-0.1,0-0.1,0-0.2-0.1c-0.1-0.1-0.1-0.1-0.1-0.2v-0.2 c0-0.7-0.3-1.2-0.8-1.7c-0.6-0.5-1.3-0.7-2.3-0.7c-0.8,0-1.3,0.2-1.8,0.5c-0.4,0.3-0.6,0.8-0.6,1.3c0,0.4,0.1,0.7,0.4,1 c0.2,0.3,0.6,0.5,1.1,0.7s1.2,0.5,2.3,0.9s2,0.8,2.7,1.1c0.6,0.3,1.2,0.8,1.8,1.4s0.8,1.5,0.8,2.5c0,1.5-0.6,2.7-1.7,3.6 c-1.1,0.9-2.6,1.3-4.5,1.3C530.3,550.1,529.2,549.9,528.2,549.5z"></path> <path d="M542.9,549.4c-0.9-0.5-1.7-1.2-2.2-2c-0.5-0.9-0.8-1.9-0.8-3v-10.9c0-0.1,0-0.1,0.1-0.2c0.1-0.1,0.1-0.1,0.2-0.1h2.8 c0.1,0,0.1,0,0.2,0.1c0.1,0.1,0.1,0.1,0.1,0.2v11c0,0.8,0.3,1.5,0.8,2.1c0.5,0.5,1.2,0.8,2.1,0.8c0.9,0,1.5-0.3,2.1-0.8 c0.5-0.5,0.8-1.2,0.8-2.1v-11c0-0.1,0-0.1,0.1-0.2s0.1-0.1,0.2-0.1h2.8c0.1,0,0.1,0,0.2,0.1c0.1,0.1,0.1,0.1,0.1,0.2v10.9 c0,1.1-0.3,2.1-0.8,3s-1.2,1.5-2.2,2c-0.9,0.5-2,0.7-3.3,0.7C544.9,550.1,543.9,549.8,542.9,549.4z"></path> </g> <g class="st1"> <path d="M566.2,533.1h2.8c0.1,0,0.1,0,0.2,0.1s0.1,0.1,0.1,0.2v16.2c0,0.1,0,0.1-0.1,0.2c-0.1,0.1-0.1,0.1-0.2,0.1h-2.8 c-0.1,0-0.1,0-0.2-0.1s-0.1-0.1-0.1-0.2V539c0-0.1,0-0.1,0-0.1s-0.1,0-0.1,0.1l-2.5,4c-0.1,0.1-0.2,0.2-0.3,0.2h-1.4 c-0.1,0-0.3-0.1-0.3-0.2l-2.5-4l-0.1-0.1c0,0,0,0,0,0.1v10.6c0,0.1,0,0.1-0.1,0.2c-0.1,0.1-0.1,0.1-0.2,0.1h-2.8 c-0.1,0-0.1,0-0.2-0.1c-0.1-0.1-0.1-0.1-0.1-0.2v-16.2c0-0.1,0-0.1,0.1-0.2s0.1-0.1,0.2-0.1h2.8c0.1,0,0.3,0.1,0.3,0.2l3.6,5.6 c0,0.1,0.1,0.1,0.1,0l3.6-5.6C565.9,533.1,566,533.1,566.2,533.1z"></path> </g> <g class="st1"> <path d="M583.7,535.9c-0.1,0.1-0.1,0.1-0.2,0.1h-7.9c-0.1,0-0.1,0-0.1,0.1v3.7c0,0.1,0,0.1,0.1,0.1h5.2c0.1,0,0.1,0,0.2,0.1 c0.1,0.1,0.1,0.1,0.1,0.2v2.3c0,0.1,0,0.1-0.1,0.2c-0.1,0.1-0.1,0.1-0.2,0.1h-5.2c-0.1,0-0.1,0-0.1,0.1v3.9 c0,0.1,0,0.1,0.1,0.1h7.9c0.1,0,0.1,0,0.2,0.1s0.1,0.1,0.1,0.2v2.3c0,0.1,0,0.1-0.1,0.2c-0.1,0.1-0.1,0.1-0.2,0.1h-11.1 c-0.1,0-0.1,0-0.2-0.1c-0.1-0.1-0.1-0.1-0.1-0.2v-16.2c0-0.1,0-0.1,0.1-0.2c0.1-0.1,0.1-0.1,0.2-0.1h11.1c0.1,0,0.1,0,0.2,0.1 s0.1,0.1,0.1,0.2v2.3C583.8,535.8,583.8,535.8,583.7,535.9z"></path> </g> <g class="st1"> <path d="M594.9,549.7l-3-6.6c0-0.1-0.1-0.1-0.1-0.1h-2.2c-0.1,0-0.1,0-0.1,0.1v6.6c0,0.1,0,0.1-0.1,0.2 c-0.1,0.1-0.1,0.1-0.2,0.1h-2.8c-0.1,0-0.1,0-0.2-0.1s-0.1-0.1-0.1-0.2v-16.2c0-0.1,0-0.1,0.1-0.2s0.1-0.1,0.2-0.1h6.9 c1,0,1.9,0.2,2.7,0.6c0.8,0.4,1.4,1,1.8,1.8c0.4,0.8,0.6,1.7,0.6,2.7c0,1.1-0.3,2-0.8,2.8s-1.3,1.3-2.3,1.6 c-0.1,0-0.1,0.1-0.1,0.2l3.3,6.8c0,0.1,0,0.1,0,0.1c0,0.1-0.1,0.2-0.3,0.2h-3C595.1,549.9,595,549.8,594.9,549.7z M589.4,536.1 v4.1c0,0.1,0,0.1,0.1,0.1h3.1c0.7,0,1.2-0.2,1.6-0.6c0.4-0.4,0.6-0.9,0.6-1.6s-0.2-1.2-0.6-1.6c-0.4-0.4-1-0.6-1.6-0.6h-3.1 C589.4,536,589.4,536,589.4,536.1z"></path> </g> </g> </g> <g> <g> <g class="st1"> <path d="M500.5,228.3c1.5,0.8,2.3,2.1,2.3,3.9c0,1.6-0.5,2.7-1.6,3.5s-2.4,1.2-4.2,1.2h-6.2c-0.1,0-0.1,0-0.2-0.1 c-0.1-0.1-0.1-0.1-0.1-0.2v-16.2c0-0.1,0-0.1,0.1-0.2s0.1-0.1,0.2-0.1h6c3.8,0,5.7,1.5,5.7,4.6c0,1.6-0.7,2.7-2,3.4 C500.4,228.2,500.4,228.2,500.5,228.3z M493.9,223.1v3.7c0,0.1,0,0.1,0.1,0.1h2.8c0.8,0,1.3-0.2,1.8-0.5 c0.4-0.4,0.6-0.8,0.6-1.4s-0.2-1.1-0.6-1.5c-0.4-0.4-1-0.5-1.8-0.5L493.9,223.1C493.9,223,493.9,223,493.9,223.1z M498.7,233.4 c0.4-0.4,0.6-0.9,0.6-1.5s-0.2-1.2-0.6-1.5s-1-0.6-1.8-0.6h-3c-0.1,0-0.1,0-0.1,0.1v4c0,0.1,0,0.1,0.1,0.1h3 C497.7,234,498.3,233.8,498.7,233.4z"></path> </g> <g class="st1"> <path d="M515.4,236.6l-0.7-2.4c0-0.1-0.1-0.1-0.1-0.1h-5.9c0,0-0.1,0-0.1,0.1l-0.7,2.4c0,0.2-0.2,0.2-0.3,0.2h-3 c-0.1,0-0.2,0-0.2-0.1s-0.1-0.1,0-0.3l5.2-16.2c0-0.2,0.2-0.2,0.3-0.2h3.8c0.2,0,0.3,0.1,0.3,0.2l5.2,16.2v0.1 c0,0.1-0.1,0.2-0.3,0.2h-3C515.5,236.9,515.4,236.8,515.4,236.6z M509.5,231.6h4.2c0.1,0,0.1,0,0.1-0.1l-2.2-7.1 c0-0.1,0-0.1-0.1-0.1c0,0-0.1,0-0.1,0.1l-2.1,7.1C509.4,231.5,509.4,231.6,509.5,231.6z"></path> </g> <g class="st1"> <path d="M531.1,220.2c0.1,0.1,0.1,0.1,0.1,0.2v2.4c0,0.1,0,0.1-0.1,0.2s-0.1,0.1-0.2,0.1h-4.3c-0.1,0-0.1,0-0.1,0.1v13.5 c0,0.1,0,0.1-0.1,0.2s-0.1,0.1-0.2,0.1h-2.8c-0.1,0-0.1,0-0.2-0.1s-0.1-0.1-0.1-0.2v-13.5c0-0.1,0-0.1-0.1-0.1h-4.2 c-0.1,0-0.1,0-0.2-0.1s-0.1-0.1-0.1-0.2v-2.4c0-0.1,0-0.1,0.1-0.2s0.1-0.1,0.2-0.1h12.1C531,220.1,531,220.1,531.1,220.2z"></path> </g> <g class="st1"> <path d="M545.5,220.2c0.1,0.1,0.1,0.1,0.1,0.2v2.4c0,0.1,0,0.1-0.1,0.2s-0.1,0.1-0.2,0.1H541c-0.1,0-0.1,0-0.1,0.1v13.5 c0,0.1,0,0.1-0.1,0.2s-0.1,0.1-0.2,0.1h-2.8c-0.1,0-0.1,0-0.2-0.1s-0.1-0.1-0.1-0.2v-13.5c0-0.1,0-0.1-0.1-0.1h-4.2 c-0.1,0-0.1,0-0.2-0.1s-0.1-0.1-0.1-0.2v-2.4c0-0.1,0-0.1,0.1-0.2s0.1-0.1,0.2-0.1h12.1C545.4,220.1,545.4,220.1,545.5,220.2z"></path> </g> <g class="st1"> <path d="M559.4,222.9c-0.1,0.1-0.1,0.1-0.2,0.1h-7.9c-0.1,0-0.1,0-0.1,0.1v3.7c0,0.1,0,0.1,0.1,0.1h5.2c0.1,0,0.1,0,0.2,0.1 s0.1,0.1,0.1,0.2v2.3c0,0.1,0,0.1-0.1,0.2s-0.1,0.1-0.2,0.1h-5.2c-0.1,0-0.1,0-0.1,0.1v3.9c0,0.1,0,0.1,0.1,0.1h7.9 c0.1,0,0.1,0,0.2,0.1c0.1,0.1,0.1,0.1,0.1,0.2v2.3c0,0.1,0,0.1-0.1,0.2s-0.1,0.1-0.2,0.1h-11.1c-0.1,0-0.1,0-0.2-0.1 s-0.1-0.1-0.1-0.2v-16.2c0-0.1,0-0.1,0.1-0.2s0.1-0.1,0.2-0.1h11.1c0.1,0,0.1,0,0.2,0.1c0.1,0.1,0.1,0.1,0.1,0.2v2.3 C559.5,222.8,559.4,222.8,559.4,222.9z"></path> </g> <g class="st1"> <path d="M570.6,236.7l-3-6.6c0-0.1-0.1-0.1-0.1-0.1h-2.2c-0.1,0-0.1,0-0.1,0.1v6.6c0,0.1,0,0.1-0.1,0.2s-0.1,0.1-0.2,0.1h-2.8 c-0.1,0-0.1,0-0.2-0.1c-0.1-0.1-0.1-0.1-0.1-0.2v-16.2c0-0.1,0-0.1,0.1-0.2s0.1-0.1,0.2-0.1h6.9c1,0,1.9,0.2,2.7,0.6 c0.8,0.4,1.4,1,1.8,1.8s0.6,1.7,0.6,2.7c0,1.1-0.3,2-0.8,2.8s-1.3,1.3-2.3,1.6c-0.1,0-0.1,0.1-0.1,0.2l3.3,6.8 c0,0.1,0,0.1,0,0.1c0,0.1-0.1,0.2-0.3,0.2h-3C570.8,236.9,570.6,236.8,570.6,236.7z M565.1,223.1v4.1c0,0.1,0,0.1,0.1,0.1h3.1 c0.7,0,1.2-0.2,1.6-0.6c0.4-0.4,0.6-0.9,0.6-1.6s-0.2-1.2-0.6-1.6c-0.4-0.4-1-0.6-1.6-0.6h-3.1 C565.1,223,565.1,223,565.1,223.1z"></path> </g> <g class="st1"> <path d="M580.2,236.8c-0.1-0.1-0.1-0.1-0.1-0.2v-6.1c0-0.1,0-0.1,0-0.1l-4.9-9.9c0-0.1,0-0.1,0-0.1c0-0.1,0.1-0.2,0.3-0.2h3 c0.2,0,0.3,0.1,0.3,0.2l3,6.4c0,0.1,0.1,0.1,0.1,0l3-6.4c0.1-0.1,0.2-0.2,0.3-0.2h3.1c0.1,0,0.2,0,0.2,0.1s0,0.1,0,0.3l-5,9.9 v0.1v6.1c0,0.1,0,0.1-0.1,0.2s-0.1,0.1-0.2,0.1h-2.8C580.4,236.9,580.3,236.8,580.2,236.8z"></path> </g> </g> </g> <g> <g> <g class="st1"> <path d="M225.4,827.2c-0.1-0.1-0.1-0.1-0.1-0.2v-6.1c0-0.1,0-0.1,0-0.1l-4.9-9.9c0-0.1,0-0.1,0-0.1c0-0.1,0.1-0.2,0.3-0.2h3 c0.2,0,0.3,0.1,0.3,0.2l3,6.4c0,0.1,0.1,0.1,0.1,0l3-6.4c0.1-0.1,0.2-0.2,0.3-0.2h3.1c0.1,0,0.2,0,0.2,0.1s0,0.1,0,0.3l-5,9.9 v0.1v6.1c0,0.1,0,0.1-0.1,0.2c-0.1,0.1-0.1,0.1-0.2,0.1h-2.8C225.6,827.3,225.5,827.2,225.4,827.2z"></path> </g> <g class="st1"> <path d="M247.5,813.3c-0.1,0.1-0.1,0.1-0.2,0.1h-7.9c-0.1,0-0.1,0-0.1,0.1v3.7c0,0.1,0,0.1,0.1,0.1h5.2c0.1,0,0.1,0,0.2,0.1 c0.1,0.1,0.1,0.1,0.1,0.2v2.3c0,0.1,0,0.1-0.1,0.2c-0.1,0.1-0.1,0.1-0.2,0.1h-5.2c-0.1,0-0.1,0-0.1,0.1v3.9 c0,0.1,0,0.1,0.1,0.1h7.9c0.1,0,0.1,0,0.2,0.1c0.1,0.1,0.1,0.1,0.1,0.2v2.3c0,0.1,0,0.1-0.1,0.2c-0.1,0.1-0.1,0.1-0.2,0.1 h-11.1c-0.1,0-0.1,0-0.2-0.1c-0.1-0.1-0.1-0.1-0.1-0.2v-16.2c0-0.1,0-0.1,0.1-0.2s0.1-0.1,0.2-0.1h11.1c0.1,0,0.1,0,0.2,0.1 s0.1,0.1,0.1,0.2v2.3C247.6,813.2,247.5,813.3,247.5,813.3z"></path> </g> <g class="st1"> <path d="M260.6,827.1l-0.7-2.4c0-0.1-0.1-0.1-0.1-0.1h-5.9c0,0-0.1,0-0.1,0.1l-0.7,2.4c0,0.2-0.2,0.2-0.3,0.2h-3 c-0.1,0-0.2,0-0.2-0.1s-0.1-0.1,0-0.3l5.2-16.2c0-0.2,0.2-0.2,0.3-0.2h3.8c0.2,0,0.3,0.1,0.3,0.2l5.2,16.2v0.1 c0,0.1-0.1,0.2-0.3,0.2h-3C260.7,827.3,260.6,827.2,260.6,827.1z M254.7,822h4.2c0.1,0,0.1,0,0.1-0.1l-2.2-7.1 c0-0.1,0-0.1-0.1-0.1c0,0-0.1,0-0.1,0.1l-2.1,7.1C254.5,821.9,254.6,822,254.7,822z"></path> </g> <g class="st1"> <path d="M275.2,827.1l-3-6.6c0-0.1-0.1-0.1-0.1-0.1h-2.2c-0.1,0-0.1,0-0.1,0.1v6.6c0,0.1,0,0.1-0.1,0.2 c-0.1,0.1-0.1,0.1-0.2,0.1h-2.8c-0.1,0-0.1,0-0.2-0.1c-0.1-0.1-0.1-0.1-0.1-0.2v-16.2c0-0.1,0-0.1,0.1-0.2 c0.1-0.1,0.1-0.1,0.2-0.1h6.9c1,0,1.9,0.2,2.7,0.6s1.4,1,1.8,1.8c0.4,0.8,0.6,1.7,0.6,2.7c0,1.1-0.3,2-0.8,2.8 s-1.3,1.3-2.3,1.6c-0.1,0-0.1,0.1-0.1,0.2l3.3,6.8c0,0.1,0,0.1,0,0.1c0,0.1-0.1,0.2-0.3,0.2h-3 C275.4,827.3,275.2,827.2,275.2,827.1z M269.7,813.5v4.1c0,0.1,0,0.1,0.1,0.1h3.1c0.7,0,1.2-0.2,1.6-0.6 c0.4-0.4,0.6-0.9,0.6-1.6s-0.2-1.2-0.6-1.6s-1-0.6-1.6-0.6h-3.1C269.7,813.4,269.7,813.4,269.7,813.5z"></path> </g> <g class="st1"> <path d="M281,827.2c-0.1-0.1-0.1-0.1-0.1-0.2v-16.2c0-0.1,0-0.1,0.1-0.2s0.1-0.1,0.2-0.1h2.8c0.1,0,0.1,0,0.2,0.1 c0.1,0.1,0.1,0.1,0.1,0.2v13.5c0,0.1,0,0.1,0.1,0.1h7.8c0.1,0,0.1,0,0.2,0.1c0.1,0.1,0.1,0.1,0.1,0.2v2.3c0,0.1,0,0.1-0.1,0.2 c-0.1,0.1-0.1,0.1-0.2,0.1L281,827.2C281.1,827.3,281,827.3,281,827.2z"></path> </g> <g class="st1"> <path d="M296.8,827.2c-0.1-0.1-0.1-0.1-0.1-0.2v-6.1c0-0.1,0-0.1,0-0.1l-4.9-9.9c0-0.1,0-0.1,0-0.1c0-0.1,0.1-0.2,0.3-0.2h3 c0.2,0,0.3,0.1,0.3,0.2l3,6.4c0,0.1,0.1,0.1,0.1,0l3-6.4c0.1-0.1,0.2-0.2,0.3-0.2h3.1c0.1,0,0.2,0,0.2,0.1s0,0.1,0,0.3l-5,9.9 v0.1v6.1c0,0.1,0,0.1-0.1,0.2c-0.1,0.1-0.1,0.1-0.2,0.1H297C297,827.3,296.9,827.2,296.8,827.2z"></path> <path d="M314.5,826.9c-1-0.4-1.7-1-2.2-1.8s-0.8-1.6-0.8-2.7v-0.5c0-0.1,0-0.1,0.1-0.2c0.1-0.1,0.1-0.1,0.2-0.1h2.7 c0.1,0,0.1,0,0.2,0.1c0.1,0.1,0.1,0.1,0.1,0.2v0.4c0,0.6,0.3,1.2,0.9,1.6c0.6,0.4,1.4,0.7,2.4,0.7c0.8,0,1.5-0.2,1.9-0.5 s0.6-0.8,0.6-1.3c0-0.4-0.1-0.7-0.4-1c-0.3-0.3-0.6-0.5-1-0.7s-1.1-0.5-2.1-0.8c-1.1-0.4-2-0.7-2.7-1.1s-1.4-0.9-1.9-1.6 c-0.5-0.7-0.8-1.5-0.8-2.5s0.2-1.8,0.7-2.5s1.2-1.3,2.1-1.7c0.9-0.4,1.9-0.6,3-0.6c1.2,0,2.3,0.2,3.3,0.6c1,0.4,1.7,1,2.2,1.8 s0.8,1.7,0.8,2.7v0.4c0,0.1,0,0.1-0.1,0.2c-0.1,0.1-0.1,0.1-0.2,0.1h-2.8c-0.1,0-0.1,0-0.2-0.1c-0.1-0.1-0.1-0.1-0.1-0.2v-0.2 c0-0.7-0.3-1.2-0.8-1.7c-0.6-0.5-1.3-0.7-2.3-0.7c-0.8,0-1.3,0.2-1.8,0.5c-0.4,0.3-0.6,0.8-0.6,1.3c0,0.4,0.1,0.7,0.4,1 c0.2,0.3,0.6,0.5,1.1,0.7s1.2,0.5,2.3,0.9s2,0.8,2.7,1.1c0.6,0.3,1.2,0.8,1.8,1.4s0.8,1.5,0.8,2.5c0,1.5-0.6,2.7-1.7,3.6 s-2.6,1.3-4.5,1.3C316.6,827.5,315.5,827.3,314.5,826.9z"></path> </g> <g class="st1"> <path d="M329.1,826.8c-1-0.5-1.7-1.2-2.2-2.1c-0.5-0.9-0.8-2-0.8-3.2v-5.1c0-1.2,0.3-2.2,0.8-3.1c0.5-0.9,1.3-1.6,2.2-2.1 c1-0.5,2.1-0.8,3.3-0.8c1.3,0,2.4,0.3,3.3,0.8c1,0.5,1.7,1.2,2.2,2.1c0.5,0.9,0.8,2,0.8,3.1v5.1c0,1.2-0.3,2.3-0.8,3.2 s-1.3,1.6-2.2,2.1c-1,0.5-2.1,0.8-3.3,0.8C331.1,827.6,330,827.3,329.1,826.8z M334.5,823.8c0.5-0.6,0.8-1.3,0.8-2.2v-5.3 c0-0.9-0.3-1.7-0.8-2.2c-0.5-0.6-1.3-0.9-2.1-0.9c-0.9,0-1.6,0.3-2.1,0.9c-0.5,0.6-0.8,1.3-0.8,2.2v5.3c0,0.9,0.3,1.7,0.8,2.2 c0.5,0.6,1.2,0.8,2.1,0.8S334,824.4,334.5,823.8z"></path> </g> <g class="st1"> <path d="M341.3,827.2c-0.1-0.1-0.1-0.1-0.1-0.2v-16.2c0-0.1,0-0.1,0.1-0.2s0.1-0.1,0.2-0.1h2.8c0.1,0,0.1,0,0.2,0.1 c0.1,0.1,0.1,0.1,0.1,0.2v13.5c0,0.1,0,0.1,0.1,0.1h7.8c0.1,0,0.1,0,0.2,0.1c0.1,0.1,0.1,0.1,0.1,0.2v2.3c0,0.1,0,0.1-0.1,0.2 c-0.1,0.1-0.1,0.1-0.2,0.1L341.3,827.2C341.4,827.3,341.3,827.3,341.3,827.2z"></path> </g> <g class="st1"> <path d="M365.7,827.1l-0.7-2.4c0-0.1-0.1-0.1-0.1-0.1H359c0,0-0.1,0-0.1,0.1l-0.7,2.4c0,0.2-0.2,0.2-0.3,0.2h-3 c-0.1,0-0.2,0-0.2-0.1s-0.1-0.1,0-0.3l5.2-16.2c0-0.2,0.2-0.2,0.3-0.2h3.8c0.2,0,0.3,0.1,0.3,0.2l5.2,16.2v0.1 c0,0.1-0.1,0.2-0.3,0.2h-3C365.8,827.3,365.7,827.2,365.7,827.1z M359.8,822h4.2c0.1,0,0.1,0,0.1-0.1l-2.2-7.1 c0-0.1,0-0.1-0.1-0.1c0,0-0.1,0-0.1,0.1l-2.1,7.1C359.6,821.9,359.7,822,359.8,822z"></path> <path d="M380.3,827.1l-3-6.6c0-0.1-0.1-0.1-0.1-0.1H375c-0.1,0-0.1,0-0.1,0.1v6.6c0,0.1,0,0.1-0.1,0.2 c-0.1,0.1-0.1,0.1-0.2,0.1h-2.8c-0.1,0-0.1,0-0.2-0.1c-0.1-0.1-0.1-0.1-0.1-0.2v-16.2c0-0.1,0-0.1,0.1-0.2 c0.1-0.1,0.1-0.1,0.2-0.1h6.9c1,0,1.9,0.2,2.7,0.6s1.4,1,1.8,1.8c0.4,0.8,0.6,1.7,0.6,2.7c0,1.1-0.3,2-0.8,2.8 s-1.3,1.3-2.3,1.6c-0.1,0-0.1,0.1-0.1,0.2l3.3,6.8c0,0.1,0,0.1,0,0.1c0,0.1-0.1,0.2-0.3,0.2h-3 C380.5,827.3,380.3,827.2,380.3,827.1z M374.8,813.5v4.1c0,0.1,0,0.1,0.1,0.1h3.1c0.7,0,1.2-0.2,1.6-0.6 c0.4-0.4,0.6-0.9,0.6-1.6s-0.2-1.2-0.6-1.6s-1-0.6-1.6-0.6h-3.1C374.8,813.4,374.8,813.4,374.8,813.5z"></path> </g> <g class="st1"> <path d="M400.6,811.1c0.8,0.4,1.4,1,1.9,1.8c0.4,0.8,0.7,1.7,0.7,2.7s-0.2,1.9-0.7,2.7s-1.1,1.4-1.9,1.8 c-0.8,0.4-1.8,0.6-2.8,0.6h-3.4c-0.1,0-0.1,0-0.1,0.1v6.1c0,0.1,0,0.1-0.1,0.2c-0.1,0.1-0.1,0.1-0.2,0.1h-2.9 c-0.1,0-0.1,0-0.2-0.1c-0.1-0.1-0.1-0.1-0.1-0.2v-16.2c0-0.1,0-0.1,0.1-0.2c0.1-0.1,0.1-0.1,0.2-0.1h6.8 C398.9,810.5,399.8,810.7,400.6,811.1z M399.1,817.4c0.4-0.4,0.7-1,0.7-1.7s-0.2-1.3-0.7-1.7c-0.4-0.4-1-0.6-1.8-0.6h-3 c-0.1,0-0.1,0-0.1,0.1v4.4c0,0.1,0,0.1,0.1,0.1h3C398.1,818.1,398.7,817.8,399.1,817.4z"></path> </g> <g class="st1"> <path d="M409.2,827.1l-4.9-16.2v-0.1c0-0.2,0.1-0.2,0.3-0.2h3c0.2,0,0.3,0.1,0.3,0.2l3.2,11.7c0,0,0,0.1,0.1,0.1 c0,0,0.1,0,0.1-0.1l3.1-11.7c0-0.2,0.2-0.2,0.3-0.2h3c0.1,0,0.2,0,0.2,0.1s0.1,0.1,0,0.2l-5,16.2c0,0.2-0.2,0.2-0.3,0.2h-3 C409.4,827.3,409.3,827.2,409.2,827.1z"></path> </g> </g> </g> <g> <g> <g class="st1"> <path d="M263.1,841.1c0.8,0.4,1.4,1,1.9,1.8c0.4,0.8,0.7,1.7,0.7,2.7s-0.2,1.9-0.7,2.7s-1.1,1.4-1.9,1.8 c-0.8,0.4-1.8,0.6-2.8,0.6h-3.4c-0.1,0-0.1,0-0.1,0.1v6.1c0,0.1,0,0.1-0.1,0.2c-0.1,0.1-0.1,0.1-0.2,0.1h-2.8 c-0.1,0-0.1,0-0.2-0.1c-0.1-0.1-0.1-0.1-0.1-0.2v-16.2c0-0.1,0-0.1,0.1-0.2c0.1-0.1,0.1-0.1,0.2-0.1h6.8 C261.4,840.5,262.3,840.7,263.1,841.1z M261.6,847.4c0.4-0.4,0.7-1,0.7-1.7s-0.2-1.3-0.7-1.7c-0.4-0.4-1-0.6-1.8-0.6h-3 c-0.1,0-0.1,0-0.1,0.1v4.4c0,0.1,0,0.1,0.1,0.1h3C260.5,848.1,261.1,847.8,261.6,847.4z"></path> <path d="M276.6,857.1l-3-6.6c0-0.1-0.1-0.1-0.1-0.1h-2.2c-0.1,0-0.1,0-0.1,0.1v6.6c0,0.1,0,0.1-0.1,0.2 c-0.1,0.1-0.1,0.1-0.2,0.1h-2.8c-0.1,0-0.1,0-0.2-0.1c-0.1-0.1-0.1-0.1-0.1-0.2v-16.2c0-0.1,0-0.1,0.1-0.2s0.1-0.1,0.2-0.1h6.9 c1,0,1.9,0.2,2.7,0.6c0.8,0.4,1.4,1,1.8,1.8c0.4,0.8,0.6,1.7,0.6,2.7c0,1.1-0.3,2-0.8,2.8s-1.3,1.3-2.3,1.6 c-0.1,0-0.1,0.1-0.1,0.2l3.3,6.8c0,0.1,0,0.1,0,0.1c0,0.1-0.1,0.2-0.3,0.2h-3C276.7,857.3,276.6,857.2,276.6,857.1z M271.1,843.5v4.1c0,0.1,0,0.1,0.1,0.1h3.1c0.7,0,1.2-0.2,1.6-0.6c0.4-0.4,0.6-0.9,0.6-1.6s-0.2-1.2-0.6-1.6s-1-0.6-1.6-0.6 h-3.1C271.1,843.4,271.1,843.4,271.1,843.5z"></path> </g> <g class="st1"> <path d="M285.1,856.8c-1-0.5-1.7-1.2-2.2-2.1c-0.5-0.9-0.8-2-0.8-3.2v-5.1c0-1.2,0.3-2.2,0.8-3.1c0.5-0.9,1.3-1.6,2.2-2.1 c1-0.5,2.1-0.8,3.3-0.8c1.3,0,2.4,0.3,3.3,0.8c1,0.5,1.7,1.2,2.2,2.1c0.5,0.9,0.8,2,0.8,3.1v5.1c0,1.2-0.3,2.3-0.8,3.2 s-1.3,1.6-2.2,2.1c-1,0.5-2.1,0.8-3.3,0.8S286.1,857.3,285.1,856.8z M290.6,853.8c0.5-0.6,0.8-1.3,0.8-2.2v-5.3 c0-0.9-0.3-1.7-0.8-2.2c-0.5-0.6-1.3-0.9-2.1-0.9c-0.9,0-1.6,0.3-2.1,0.9c-0.5,0.6-0.8,1.3-0.8,2.2v5.3c0,0.9,0.3,1.7,0.8,2.2 c0.5,0.6,1.2,0.8,2.1,0.8S290,854.4,290.6,853.8z"></path> </g> <g class="st1"> <path d="M297.3,857.2c-0.1-0.1-0.1-0.1-0.1-0.2v-16.2c0-0.1,0-0.1,0.1-0.2s0.1-0.1,0.2-0.1h6c1.2,0,2.3,0.2,3.2,0.6 c0.9,0.4,1.6,1,2.1,1.8s0.7,1.7,0.7,2.7v6.6c0,1-0.2,1.9-0.7,2.7s-1.2,1.4-2.1,1.8c-0.9,0.4-2,0.6-3.2,0.6h-6 C297.5,857.3,297.4,857.3,297.3,857.2z M300.8,854.4h2.9c0.7,0,1.3-0.2,1.8-0.7s0.7-1.2,0.7-2v-5.5c0-0.8-0.2-1.5-0.7-2 s-1.1-0.7-1.8-0.7h-2.9c-0.1,0-0.1,0-0.1,0.1L300.8,854.4C300.6,854.3,300.7,854.4,300.8,854.4z"></path> </g> <g class="st1"> <path d="M314.9,856.8c-0.9-0.5-1.7-1.2-2.2-2c-0.5-0.9-0.8-1.9-0.8-3v-10.9c0-0.1,0-0.1,0.1-0.2c0.1-0.1,0.1-0.1,0.2-0.1h2.8 c0.1,0,0.1,0,0.2,0.1c0.1,0.1,0.1,0.1,0.1,0.2v11c0,0.8,0.3,1.5,0.8,2.1c0.5,0.5,1.2,0.8,2.1,0.8c0.8,0,1.5-0.3,2.1-0.8 c0.5-0.5,0.8-1.2,0.8-2.1v-11c0-0.1,0-0.1,0.1-0.2c0.1-0.1,0.1-0.1,0.2-0.1h2.8c0.1,0,0.1,0,0.2,0.1s0.1,0.1,0.1,0.2v10.9 c0,1.1-0.3,2.1-0.8,3s-1.2,1.5-2.2,2c-0.9,0.5-2,0.7-3.3,0.7C316.9,857.5,315.8,857.2,314.9,856.8z"></path> </g> <g class="st1"> <path d="M329.7,856.8c-0.9-0.5-1.7-1.2-2.2-2.1c-0.5-0.9-0.8-1.9-0.8-3v-5.5c0-1.2,0.3-2.2,0.8-3c0.5-0.9,1.2-1.6,2.2-2 c0.9-0.5,2-0.7,3.3-0.7c1.2,0,2.3,0.2,3.3,0.7s1.7,1.1,2.2,1.9c0.5,0.8,0.8,1.8,0.8,2.9c0,0.1-0.1,0.2-0.3,0.3l-2.8,0.2l0,0 c-0.2,0-0.2-0.1-0.2-0.3c0-0.8-0.3-1.5-0.8-2s-1.2-0.8-2.1-0.8c-0.9,0-1.6,0.3-2.1,0.8s-0.8,1.2-0.8,2v5.8c0,0.8,0.3,1.5,0.8,2 s1.2,0.8,2.1,0.8c0.8,0,1.5-0.3,2.1-0.8c0.5-0.5,0.8-1.2,0.8-2c0-0.2,0.1-0.3,0.3-0.3l2.8,0.1c0.1,0,0.1,0,0.2,0.1 c0.1,0,0.1,0.1,0.1,0.2c0,1.1-0.3,2.1-0.8,2.9c-0.5,0.8-1.2,1.5-2.2,2s-2,0.7-3.3,0.7C331.7,857.5,330.6,857.2,329.7,856.8z"></path> </g> <g class="st1"> <path d="M353.5,840.6c0.1,0.1,0.1,0.1,0.1,0.2v2.4c0,0.1,0,0.1-0.1,0.2c-0.1,0.1-0.1,0.1-0.2,0.1H349c-0.1,0-0.1,0-0.1,0.1V857 c0,0.1,0,0.1-0.1,0.2c-0.1,0.1-0.1,0.1-0.2,0.1h-2.8c-0.1,0-0.1,0-0.2-0.1c-0.1-0.1-0.1-0.1-0.1-0.2v-13.5c0-0.1,0-0.1-0.1-0.1 h-4.2c-0.1,0-0.1,0-0.2-0.1c-0.1-0.1-0.1-0.1-0.1-0.2v-2.4c0-0.1,0-0.1,0.1-0.2s0.1-0.1,0.2-0.1h12.1 C353.3,840.5,353.4,840.5,353.5,840.6z"></path> </g> <g class="st1"> <path d="M355.7,857.2c-0.1-0.1-0.1-0.1-0.1-0.2v-16.2c0-0.1,0-0.1,0.1-0.2s0.1-0.1,0.2-0.1h2.8c0.1,0,0.1,0,0.2,0.1 c0.1,0.1,0.1,0.1,0.1,0.2V857c0,0.1,0,0.1-0.1,0.2c-0.1,0.1-0.1,0.1-0.2,0.1h-2.8C355.9,857.3,355.8,857.3,355.7,857.2z"></path> <path d="M364.6,856.8c-1-0.5-1.7-1.2-2.2-2.1c-0.5-0.9-0.8-2-0.8-3.2v-5.1c0-1.2,0.3-2.2,0.8-3.1c0.5-0.9,1.3-1.6,2.2-2.1 c1-0.5,2.1-0.8,3.3-0.8c1.3,0,2.4,0.3,3.3,0.8c1,0.5,1.7,1.2,2.2,2.1c0.5,0.9,0.8,2,0.8,3.1v5.1c0,1.2-0.3,2.3-0.8,3.2 s-1.3,1.6-2.2,2.1c-1,0.5-2.1,0.8-3.3,0.8S365.6,857.3,364.6,856.8z M370.1,853.8c0.5-0.6,0.8-1.3,0.8-2.2v-5.3 c0-0.9-0.3-1.7-0.8-2.2c-0.5-0.6-1.3-0.9-2.1-0.9c-0.9,0-1.6,0.3-2.1,0.9c-0.5,0.6-0.8,1.3-0.8,2.2v5.3c0,0.9,0.3,1.7,0.8,2.2 c0.5,0.6,1.2,0.8,2.1,0.8S369.5,854.4,370.1,853.8z"></path> </g> <g class="st1"> <path d="M386.5,840.6c0.1-0.1,0.1-0.1,0.2-0.1h2.8c0.1,0,0.1,0,0.2,0.1c0.1,0.1,0.1,0.1,0.1,0.2V857c0,0.1,0,0.1-0.1,0.2 c-0.1,0.1-0.1,0.1-0.2,0.1h-2.7c-0.2,0-0.3-0.1-0.3-0.2l-6.2-10.3l-0.1-0.1c0,0,0,0,0,0.1v10.1c0,0.1,0,0.1-0.1,0.2 c-0.1,0.1-0.1,0.1-0.2,0.1h-2.8c-0.1,0-0.1,0-0.2-0.1c-0.1-0.1-0.1-0.1-0.1-0.2v-16.2c0-0.1,0-0.1,0.1-0.2s0.1-0.1,0.2-0.1h2.7 c0.2,0,0.3,0.1,0.3,0.2l6.2,10.2l0.1,0.1c0,0,0,0,0-0.1v-10.1C386.4,840.7,386.4,840.6,386.5,840.6z"></path> </g> </g> </g> <g> <g> <g class="st1"> <path d="M672.7,839.2c-0.1-0.1-0.1-0.1-0.1-0.2v-16.2c0-0.1,0-0.1,0.1-0.2s0.1-0.1,0.2-0.1h6c1.2,0,2.3,0.2,3.2,0.6 c0.9,0.4,1.6,1,2.1,1.8s0.7,1.7,0.7,2.7v6.6c0,1-0.2,1.9-0.7,2.7s-1.2,1.4-2.1,1.8c-0.9,0.4-2,0.6-3.2,0.6h-6 C672.8,839.3,672.7,839.3,672.7,839.2z M676.1,836.4h2.9c0.7,0,1.3-0.2,1.8-0.7s0.7-1.2,0.7-2v-5.5c0-0.8-0.2-1.5-0.7-2 s-1.1-0.7-1.8-0.7h-2.9c-0.1,0-0.1,0-0.1,0.1L676.1,836.4C676,836.3,676,836.4,676.1,836.4z"></path> </g> <g class="st1"> <path d="M687.5,839.2c-0.1-0.1-0.1-0.1-0.1-0.2v-16.2c0-0.1,0-0.1,0.1-0.2c0.1-0.1,0.1-0.1,0.2-0.1h2.8c0.1,0,0.1,0,0.2,0.1 s0.1,0.1,0.1,0.2V839c0,0.1,0,0.1-0.1,0.2c-0.1,0.1-0.1,0.1-0.2,0.1h-2.8C687.6,839.3,687.5,839.3,687.5,839.2z"></path> </g> <g class="st1"> <path d="M705.2,825.3c-0.1,0.1-0.1,0.1-0.2,0.1h-7.9c-0.1,0-0.1,0-0.1,0.1v3.7c0,0.1,0,0.1,0.1,0.1h5.2c0.1,0,0.1,0,0.2,0.1 s0.1,0.1,0.1,0.2v2.3c0,0.1,0,0.1-0.1,0.2c-0.1,0.1-0.1,0.1-0.2,0.1h-5.2c-0.1,0-0.1,0-0.1,0.1v3.9c0,0.1,0,0.1,0.1,0.1h7.9 c0.1,0,0.1,0,0.2,0.1s0.1,0.1,0.1,0.2v2.3c0,0.1,0,0.1-0.1,0.2c-0.1,0.1-0.1,0.1-0.2,0.1h-11.1c-0.1,0-0.1,0-0.2-0.1 s-0.1-0.1-0.1-0.2v-16.2c0-0.1,0-0.1,0.1-0.2s0.1-0.1,0.2-0.1H705c0.1,0,0.1,0,0.2,0.1s0.1,0.1,0.1,0.2v2.3 C705.3,825.2,705.2,825.3,705.2,825.3z"></path> </g> <g class="st1"> <path d="M710,838.9c-1-0.4-1.7-1-2.2-1.8s-0.8-1.6-0.8-2.7v-0.5c0-0.1,0-0.1,0.1-0.2c0.1-0.1,0.1-0.1,0.2-0.1h2.7 c0.1,0,0.1,0,0.2,0.1s0.1,0.1,0.1,0.2v0.4c0,0.6,0.3,1.2,0.9,1.6c0.6,0.4,1.4,0.7,2.4,0.7c0.8,0,1.5-0.2,1.9-0.5 s0.6-0.8,0.6-1.3c0-0.4-0.1-0.7-0.4-1s-0.6-0.5-1-0.7s-1.1-0.5-2.1-0.8c-1.1-0.4-2-0.7-2.7-1.1s-1.4-0.9-1.9-1.6 c-0.5-0.7-0.8-1.5-0.8-2.5s0.2-1.8,0.7-2.5s1.2-1.3,2.1-1.7s1.9-0.6,3-0.6c1.2,0,2.3,0.2,3.3,0.6c1,0.4,1.7,1,2.2,1.8 s0.8,1.7,0.8,2.7v0.4c0,0.1,0,0.1-0.1,0.2c-0.1,0.1-0.1,0.1-0.2,0.1h-2.8c-0.1,0-0.1,0-0.2-0.1s-0.1-0.1-0.1-0.2v-0.2 c0-0.7-0.3-1.2-0.8-1.7c-0.6-0.5-1.3-0.7-2.3-0.7c-0.8,0-1.3,0.2-1.8,0.5c-0.4,0.3-0.6,0.8-0.6,1.3c0,0.4,0.1,0.7,0.4,1 c0.2,0.3,0.6,0.5,1.1,0.7s1.2,0.5,2.3,0.9c1.1,0.4,2,0.8,2.7,1.1c0.6,0.3,1.2,0.8,1.8,1.4s0.8,1.5,0.8,2.5 c0,1.5-0.6,2.7-1.7,3.6s-2.6,1.3-4.5,1.3C712.1,839.5,711,839.3,710,838.9z"></path> <path d="M733.5,825.3c-0.1,0.1-0.1,0.1-0.2,0.1h-7.9c-0.1,0-0.1,0-0.1,0.1v3.7c0,0.1,0,0.1,0.1,0.1h5.2c0.1,0,0.1,0,0.2,0.1 s0.1,0.1,0.1,0.2v2.3c0,0.1,0,0.1-0.1,0.2c-0.1,0.1-0.1,0.1-0.2,0.1h-5.2c-0.1,0-0.1,0-0.1,0.1v3.9c0,0.1,0,0.1,0.1,0.1h7.9 c0.1,0,0.1,0,0.2,0.1s0.1,0.1,0.1,0.2v2.3c0,0.1,0,0.1-0.1,0.2c-0.1,0.1-0.1,0.1-0.2,0.1h-11.1c-0.1,0-0.1,0-0.2-0.1 s-0.1-0.1-0.1-0.2v-16.2c0-0.1,0-0.1,0.1-0.2c0.1-0.1,0.1-0.1,0.2-0.1h11.1c0.1,0,0.1,0,0.2,0.1s0.1,0.1,0.1,0.2v2.3 C733.5,825.2,733.5,825.3,733.5,825.3z"></path> </g> <g class="st1"> <path d="M735.8,839.2c-0.1-0.1-0.1-0.1-0.1-0.2v-16.2c0-0.1,0-0.1,0.1-0.2c0.1-0.1,0.1-0.1,0.2-0.1h2.8c0.1,0,0.1,0,0.2,0.1 s0.1,0.1,0.1,0.2v13.5c0,0.1,0,0.1,0.1,0.1h7.8c0.1,0,0.1,0,0.2,0.1s0.1,0.1,0.1,0.2v2.3c0,0.1,0,0.1-0.1,0.2 c-0.1,0.1-0.1,0.1-0.2,0.1L735.8,839.2C735.9,839.3,735.8,839.3,735.8,839.2z"></path> </g> <g class="st1"> <path d="M756.6,838.9c-1-0.4-1.7-1-2.2-1.8s-0.8-1.6-0.8-2.7v-0.5c0-0.1,0-0.1,0.1-0.2c0.1-0.1,0.1-0.1,0.2-0.1h2.7 c0.1,0,0.1,0,0.2,0.1s0.1,0.1,0.1,0.2v0.4c0,0.6,0.3,1.2,0.9,1.6c0.6,0.4,1.4,0.7,2.4,0.7c0.8,0,1.5-0.2,1.9-0.5 s0.6-0.8,0.6-1.3c0-0.4-0.1-0.7-0.4-1s-0.6-0.5-1-0.7s-1.1-0.5-2.1-0.8c-1.1-0.4-2-0.7-2.7-1.1s-1.4-0.9-1.9-1.6 c-0.5-0.7-0.8-1.5-0.8-2.5s0.2-1.8,0.7-2.5s1.2-1.3,2.1-1.7s1.9-0.6,3-0.6c1.2,0,2.3,0.2,3.3,0.6c1,0.4,1.7,1,2.2,1.8 s0.8,1.7,0.8,2.7v0.4c0,0.1,0,0.1-0.1,0.2c-0.1,0.1-0.1,0.1-0.2,0.1h-2.8c-0.1,0-0.1,0-0.2-0.1s-0.1-0.1-0.1-0.2v-0.2 c0-0.7-0.3-1.2-0.8-1.7c-0.6-0.5-1.3-0.7-2.3-0.7c-0.8,0-1.3,0.2-1.8,0.5c-0.4,0.3-0.6,0.8-0.6,1.3c0,0.4,0.1,0.7,0.4,1 c0.2,0.3,0.6,0.5,1.1,0.7s1.2,0.5,2.3,0.9c1.1,0.4,2,0.8,2.7,1.1c0.6,0.3,1.2,0.8,1.8,1.4c0.5,0.6,0.8,1.5,0.8,2.5 c0,1.5-0.6,2.7-1.7,3.6c-1.1,0.9-2.6,1.3-4.5,1.3C758.7,839.5,757.6,839.3,756.6,838.9z"></path> </g> <g class="st1"> <path d="M778.7,839.1l-0.7-2.4c0-0.1-0.1-0.1-0.1-0.1H772c0,0-0.1,0-0.1,0.1l-0.7,2.4c0,0.2-0.2,0.2-0.3,0.2h-3 c-0.1,0-0.2,0-0.2-0.1s-0.1-0.1,0-0.3l5.2-16.2c0-0.2,0.2-0.2,0.3-0.2h3.8c0.2,0,0.3,0.1,0.3,0.2l5.2,16.2v0.1 c0,0.1-0.1,0.2-0.3,0.2h-3C778.8,839.3,778.7,839.2,778.7,839.1z M772.8,834h4.2c0.1,0,0.1,0,0.1-0.1l-2.2-7.1 c0-0.1,0-0.1-0.1-0.1c0,0-0.1,0-0.1,0.1l-2.1,7.1C772.6,833.9,772.7,834,772.8,834z"></path> </g> <g class="st1"> <path d="M786.7,839.1l-4.9-16.2v-0.1c0-0.2,0.1-0.2,0.3-0.2h3c0.2,0,0.3,0.1,0.3,0.2l3.2,11.7c0,0,0,0.1,0.1,0.1s0.1,0,0.1-0.1 l3.1-11.7c0-0.2,0.2-0.2,0.3-0.2h3c0.1,0,0.2,0,0.2,0.1s0.1,0.1,0,0.2l-5,16.2c0,0.2-0.2,0.2-0.3,0.2h-3 C786.9,839.3,786.8,839.2,786.7,839.1z"></path> </g> <g class="st1"> <path d="M797.7,839.2c-0.1-0.1-0.1-0.1-0.1-0.2v-16.2c0-0.1,0-0.1,0.1-0.2s0.1-0.1,0.2-0.1h2.8c0.1,0,0.1,0,0.2,0.1 s0.1,0.1,0.1,0.2V839c0,0.1,0,0.1-0.1,0.2c-0.1,0.1-0.1,0.1-0.2,0.1h-2.8C797.8,839.3,797.7,839.3,797.7,839.2z"></path> </g> <g class="st1"> <path d="M813.5,822.6c0.1-0.1,0.1-0.1,0.2-0.1h2.8c0.1,0,0.1,0,0.2,0.1s0.1,0.1,0.1,0.2V839c0,0.1,0,0.1-0.1,0.2 c-0.1,0.1-0.1,0.1-0.2,0.1h-2.7c-0.2,0-0.3-0.1-0.3-0.2l-6.2-10.3l-0.1-0.1c0,0,0,0,0,0.1v10.1c0,0.1,0,0.1-0.1,0.2 c-0.1,0.1-0.1,0.1-0.2,0.1h-2.8c-0.1,0-0.1,0-0.2-0.1s-0.1-0.1-0.1-0.2v-16.2c0-0.1,0-0.1,0.1-0.2c0.1-0.1,0.1-0.1,0.2-0.1h2.7 c0.2,0,0.3,0.1,0.3,0.2l6.2,10.2l0.1,0.1c0,0,0,0,0-0.1v-10.1L813.5,822.6z"></path> </g> <g class="st1"> <path d="M822.3,838.7c-0.9-0.5-1.7-1.2-2.2-2.1c-0.5-0.9-0.8-1.9-0.8-3.1v-5.4c0-1.2,0.3-2.2,0.8-3.1c0.5-0.9,1.3-1.6,2.2-2.1 c0.9-0.5,2-0.7,3.3-0.7c1.2,0,2.3,0.2,3.2,0.7c0.9,0.5,1.7,1.1,2.2,2c0.5,0.8,0.8,1.7,0.8,2.7v0.2c0,0.1,0,0.1-0.1,0.2 c-0.1,0.1-0.1,0.1-0.2,0.1h-2.8c-0.1,0-0.1,0-0.2-0.1s-0.1-0.1-0.1-0.2v-0.1c0-0.7-0.3-1.4-0.8-1.9s-1.2-0.8-2-0.8 c-0.9,0-1.6,0.3-2.1,0.8s-0.8,1.2-0.8,2.1v5.6c0,0.9,0.3,1.6,0.8,2.1c0.6,0.5,1.3,0.8,2.1,0.8c0.8,0,1.5-0.2,2-0.7 c0.5-0.4,0.7-1.1,0.7-1.8V833c0-0.1,0-0.1-0.1-0.1h-2.7c-0.1,0-0.1,0-0.2-0.1s-0.1-0.1-0.1-0.2v-2.2c0-0.1,0-0.1,0.1-0.2 c0.1-0.1,0.1-0.1,0.2-0.1h5.9c0.1,0,0.1,0,0.2,0.1s0.1,0.1,0.1,0.2v3.2c0,1.2-0.3,2.3-0.8,3.2s-1.2,1.6-2.2,2.1 c-0.9,0.5-2,0.7-3.3,0.7S823.3,839.2,822.3,838.7z"></path> </g> <g class="st1"> <path d="M836.8,838.9c-1-0.4-1.7-1-2.2-1.8s-0.8-1.6-0.8-2.7v-0.5c0-0.1,0-0.1,0.1-0.2c0.1-0.1,0.1-0.1,0.2-0.1h2.7 c0.1,0,0.1,0,0.2,0.1s0.1,0.1,0.1,0.2v0.4c0,0.6,0.3,1.2,0.9,1.6c0.6,0.4,1.4,0.7,2.4,0.7c0.8,0,1.5-0.2,1.9-0.5 s0.6-0.8,0.6-1.3c0-0.4-0.1-0.7-0.4-1s-0.6-0.5-1-0.7s-1.1-0.5-2.1-0.8c-1.1-0.4-2-0.7-2.7-1.1s-1.4-0.9-1.9-1.6 c-0.5-0.7-0.8-1.5-0.8-2.5s0.2-1.8,0.7-2.5s1.2-1.3,2.1-1.7s1.9-0.6,3-0.6c1.2,0,2.3,0.2,3.3,0.6c1,0.4,1.7,1,2.2,1.8 s0.8,1.7,0.8,2.7v0.4c0,0.1,0,0.1-0.1,0.2c-0.1,0.1-0.1,0.1-0.2,0.1H843c-0.1,0-0.1,0-0.2-0.1s-0.1-0.1-0.1-0.2v-0.2 c0-0.7-0.3-1.2-0.8-1.7c-0.6-0.5-1.3-0.7-2.3-0.7c-0.8,0-1.3,0.2-1.8,0.5c-0.4,0.3-0.6,0.8-0.6,1.3c0,0.4,0.1,0.7,0.4,1 c0.2,0.3,0.6,0.5,1.1,0.7s1.2,0.5,2.3,0.9c1.1,0.4,2,0.8,2.7,1.1c0.6,0.3,1.2,0.8,1.8,1.4c0.5,0.6,0.8,1.5,0.8,2.5 c0,1.5-0.6,2.7-1.7,3.6c-1.1,0.9-2.6,1.3-4.5,1.3C838.9,839.5,837.8,839.3,836.8,838.9z"></path> </g> </g> </g> <g> <g> <g class="st1"> <path d="M917.7,549.3c-0.9-0.5-1.7-1.2-2.2-2.1c-0.5-0.9-0.8-1.9-0.8-3.1v-5.4c0-1.2,0.3-2.2,0.8-3.1c0.5-0.9,1.3-1.6,2.2-2.1 c0.9-0.5,2-0.7,3.3-0.7c1.2,0,2.3,0.2,3.2,0.7c0.9,0.5,1.7,1.1,2.2,2c0.5,0.8,0.8,1.7,0.8,2.7v0.2c0,0.1,0,0.1-0.1,0.2 c-0.1,0.1-0.1,0.1-0.2,0.1h-2.8c-0.1,0-0.1,0-0.2-0.1s-0.1-0.1-0.1-0.2v-0.1c0-0.7-0.3-1.4-0.8-1.9s-1.2-0.8-2-0.8 c-0.9,0-1.6,0.3-2.1,0.8s-0.8,1.2-0.8,2.1v5.6c0,0.9,0.3,1.6,0.8,2.1s1.3,0.8,2.1,0.8c0.8,0,1.5-0.2,2-0.7 c0.5-0.4,0.7-1.1,0.7-1.8v-1.1c0-0.1,0-0.1-0.1-0.1h-2.7c-0.1,0-0.1,0-0.2-0.1s-0.1-0.1-0.1-0.2v-2c0-0.1,0-0.1,0.1-0.2 c0.1-0.1,0.1-0.1,0.2-0.1h5.9c0.1,0,0.1,0,0.2,0.1s0.1,0.1,0.1,0.2v3.2c0,1.2-0.3,2.3-0.8,3.2s-1.2,1.6-2.2,2.1 c-0.9,0.5-2,0.7-3.3,0.7S918.7,549.8,917.7,549.3z"></path> </g> <g class="st1"> <path d="M941.3,535.9c-0.1,0.1-0.1,0.1-0.2,0.1h-7.9c-0.1,0-0.1,0-0.1,0.1v3.7c0,0.1,0,0.1,0.1,0.1h5.2c0.1,0,0.1,0,0.2,0.1 s0.1,0.1,0.1,0.2v2.3c0,0.1,0,0.1-0.1,0.2c-0.1,0.1-0.1,0.1-0.2,0.1h-5.2c-0.1,0-0.1,0-0.1,0.1v3.9c0,0.1,0,0.1,0.1,0.1h7.9 c0.1,0,0.1,0,0.2,0.1s0.1,0.1,0.1,0.2v2.3c0,0.1,0,0.1-0.1,0.2c-0.1,0.1-0.1,0.1-0.2,0.1H930c-0.1,0-0.1,0-0.2-0.1 s-0.1-0.1-0.1-0.2v-16.2c0-0.1,0-0.1,0.1-0.2c0.1-0.1,0.1-0.1,0.2-0.1h11.1c0.1,0,0.1,0,0.2,0.1s0.1,0.1,0.1,0.2v2.3 C941.3,535.8,941.3,535.8,941.3,535.9z"></path> </g> <g class="st1"> <path d="M953.3,533.2c0.1-0.1,0.1-0.1,0.2-0.1h2.8c0.1,0,0.1,0,0.2,0.1s0.1,0.1,0.1,0.2v16.2c0,0.1,0,0.1-0.1,0.2 c-0.1,0.1-0.1,0.1-0.2,0.1h-2.7c-0.2,0-0.3-0.1-0.3-0.2l-6.2-10.3l-0.1-0.1c0,0,0,0,0,0.1v10.1c0,0.1,0,0.1-0.1,0.2 c-0.1,0.1-0.1,0.1-0.2,0.1h-2.8c-0.1,0-0.1,0-0.2-0.1s-0.1-0.1-0.1-0.2v-16.2c0-0.1,0-0.1,0.1-0.2c0.1-0.1,0.1-0.1,0.2-0.1h2.7 c0.2,0,0.3,0.1,0.3,0.2l6.2,10.2l0.1,0.1c0,0,0,0,0-0.1v-10.1C953.2,533.3,953.3,533.2,953.3,533.2z"></path> </g> <g class="st1"> <path d="M971.1,535.9c-0.1,0.1-0.1,0.1-0.2,0.1H963c-0.1,0-0.1,0-0.1,0.1v3.7c0,0.1,0,0.1,0.1,0.1h5.2c0.1,0,0.1,0,0.2,0.1 s0.1,0.1,0.1,0.2v2.3c0,0.1,0,0.1-0.1,0.2c-0.1,0.1-0.1,0.1-0.2,0.1H963c-0.1,0-0.1,0-0.1,0.1v3.9c0,0.1,0,0.1,0.1,0.1h7.9 c0.1,0,0.1,0,0.2,0.1s0.1,0.1,0.1,0.2v2.3c0,0.1,0,0.1-0.1,0.2c-0.1,0.1-0.1,0.1-0.2,0.1h-11.1c-0.1,0-0.1,0-0.2-0.1 s-0.1-0.1-0.1-0.2v-16.2c0-0.1,0-0.1,0.1-0.2c0.1-0.1,0.1-0.1,0.2-0.1h11.1c0.1,0,0.1,0,0.2,0.1s0.1,0.1,0.1,0.2v2.3 C971.1,535.8,971.1,535.8,971.1,535.9z"></path> </g> <g class="st1"> <path d="M982.2,549.7l-3-6.6c0-0.1-0.1-0.1-0.1-0.1h-2.2c-0.1,0-0.1,0-0.1,0.1v6.6c0,0.1,0,0.1-0.1,0.2 c-0.1,0.1-0.1,0.1-0.2,0.1h-2.8c-0.1,0-0.1,0-0.2-0.1s-0.1-0.1-0.1-0.2v-16.2c0-0.1,0-0.1,0.1-0.2c0.1-0.1,0.1-0.1,0.2-0.1h6.9 c1,0,1.9,0.2,2.7,0.6c0.8,0.4,1.4,1,1.8,1.8s0.6,1.7,0.6,2.7c0,1.1-0.3,2-0.8,2.8s-1.3,1.3-2.3,1.6c-0.1,0-0.1,0.1-0.1,0.2 l3.3,6.8c0,0.1,0,0.1,0,0.1c0,0.1-0.1,0.2-0.3,0.2h-3C982.3,549.9,982.2,549.8,982.2,549.7z M976.7,536.1v4.1 c0,0.1,0,0.1,0.1,0.1h3.1c0.7,0,1.2-0.2,1.6-0.6c0.4-0.4,0.6-0.9,0.6-1.6s-0.2-1.2-0.6-1.6s-1-0.6-1.6-0.6h-3.1 C976.7,536,976.7,536,976.7,536.1z"></path> </g> <g class="st1"> <path d="M998.8,549.6l-0.7-2.4c0-0.1-0.1-0.1-0.1-0.1h-5.9c0,0-0.1,0-0.1,0.1l-0.7,2.4c0,0.2-0.2,0.2-0.3,0.2h-3 c-0.1,0-0.2,0-0.2-0.1s-0.1-0.1,0-0.3l5.2-16.2c0-0.2,0.2-0.2,0.3-0.2h3.8c0.2,0,0.3,0.1,0.3,0.2l5.2,16.2v0.1 c0,0.1-0.1,0.2-0.3,0.2h-3C998.9,549.9,998.8,549.8,998.8,549.6z M992.8,544.6h4.2c0.1,0,0.1,0,0.1-0.1l-2.2-7.1 c0-0.1,0-0.1-0.1-0.1c0,0-0.1,0-0.1,0.1l-2.1,7.1C992.7,544.5,992.8,544.6,992.8,544.6z"></path> </g> <g class="st1"> <path d="M1014.5,533.2c0.1,0.1,0.1,0.1,0.1,0.2v2.4c0,0.1,0,0.1-0.1,0.2c-0.1,0.1-0.1,0.1-0.2,0.1h-4.3c-0.1,0-0.1,0-0.1,0.1 v13.5c0,0.1,0,0.1-0.1,0.2c-0.1,0.1-0.1,0.1-0.2,0.1h-2.8c-0.1,0-0.1,0-0.2-0.1s-0.1-0.1-0.1-0.2v-13.5c0-0.1,0-0.1-0.1-0.1 h-4.2c-0.1,0-0.1,0-0.2-0.1s-0.1-0.1-0.1-0.2v-2.4c0-0.1,0-0.1,0.1-0.2c0.1-0.1,0.1-0.1,0.2-0.1h12.1 C1014.4,533.1,1014.4,533.1,1014.5,533.2z"></path> </g> <g class="st1"> <path d="M1019.3,549.4c-1-0.5-1.7-1.2-2.2-2.1c-0.5-0.9-0.8-2-0.8-3.2V539c0-1.2,0.3-2.2,0.8-3.1c0.5-0.9,1.3-1.6,2.2-2.1 s2.1-0.8,3.3-0.8c1.3,0,2.4,0.3,3.3,0.8c1,0.5,1.7,1.2,2.2,2.1s0.8,2,0.8,3.1v5.1c0,1.2-0.3,2.3-0.8,3.2s-1.3,1.6-2.2,2.1 c-1,0.5-2.1,0.8-3.3,0.8C1021.3,550.1,1020.2,549.9,1019.3,549.4z M1024.7,546.4c0.5-0.6,0.8-1.3,0.8-2.2v-5.3 c0-0.9-0.3-1.7-0.8-2.2c-0.5-0.6-1.3-0.9-2.1-0.9c-0.9,0-1.6,0.3-2.1,0.9c-0.5,0.6-0.8,1.3-0.8,2.2v5.3c0,0.9,0.3,1.7,0.8,2.2 c0.5,0.6,1.2,0.8,2.1,0.8S1024.2,547,1024.7,546.4z"></path> </g> <g class="st1"> <path d="M1040.3,549.7l-3-6.6c0-0.1-0.1-0.1-0.1-0.1h-2.2c-0.1,0-0.1,0-0.1,0.1v6.6c0,0.1,0,0.1-0.1,0.2 c-0.1,0.1-0.1,0.1-0.2,0.1h-2.8c-0.1,0-0.1,0-0.2-0.1s-0.1-0.1-0.1-0.2v-16.2c0-0.1,0-0.1,0.1-0.2c0.1-0.1,0.1-0.1,0.2-0.1h6.9 c1,0,1.9,0.2,2.7,0.6s1.4,1,1.8,1.8s0.6,1.7,0.6,2.7c0,1.1-0.3,2-0.8,2.8s-1.3,1.3-2.3,1.6c-0.1,0-0.1,0.1-0.1,0.2l3.3,6.8 c0,0.1,0,0.1,0,0.1c0,0.1-0.1,0.2-0.3,0.2h-3C1040.4,549.9,1040.3,549.8,1040.3,549.7z M1034.8,536.1v4.1c0,0.1,0,0.1,0.1,0.1 h3.1c0.7,0,1.2-0.2,1.6-0.6c0.4-0.4,0.6-0.9,0.6-1.6s-0.2-1.2-0.6-1.6s-1-0.6-1.6-0.6h-3.1C1034.8,536,1034.8,536,1034.8,536.1 z"></path> </g> </g> </g> <g> <g> <g> <path class="st2" d="M340.8,442.7l14.6-14.6c1-1,1-2.7,0-3.7l-14.6-14.5 M277.1,426.3h79"></path> </g> <g> <path class="st2" d="M734.9,442.7l-14.6-14.6c-1-1-1-2.7,0-3.7l14.6-14.5 M798.6,426.3h-79.1"></path> </g> <g> <path class="st3" d="M614.7,387.1h15.9 M614.4,373.7h-7.7c0-4.4-3.6-8-8-8s-8,3.6-8,8h-14.5"></path> </g> </g> </g> <g> <line class="st4" x1="621" y1="483.9" x2="630.6" y2="483.9"></line> </g> <g> <path class="st5" d="M539.9,371.8l-76.2,38.5l5.9,12.1l70.4-35.1l70.5,35.2l5.9-12.1L539.9,371.8z M504.8,405.2h70.5"></path> </g> <g> <line class="st4" x1="535.4" y1="446.5" x2="535.4" y2="457.2"></line> </g> <g> <path class="st5" d="M480.1,416.2v58.2 M599.6,416.2v66.2 M556.7,435.9h42.7 M556.7,451.5h42.7 M556.7,467.2h42.7 M480.3,435.9 h33.1 M480.3,451.5h33.1 M480.3,467.2h33.1 M480.1,420.3h33.3"></path> </g> <g> <path class="st4" d="M613.3,483.9h-56.9v-64.4 M466.7,483.9h56.9v-64.8h75.7"></path> </g> <g> <g> <g> <path class="st6" d="M1044.2,384.9l-9.6,21.8l-5.9-11.1l-10.6,21.3 M1044.7,468.1v9.3c0,3.8-3,6.8-6.7,6.8H891.7 c-3.7,0-6.7-3.1-6.7-6.8v-9.3 M1061,378.9l26.4,13.6v46.2l-26.4,13.6 M1061,468.1H870.7v-105H1061V468.1z"></path> </g> </g> </g> <g> <path class="st7" d="M978.3,456h25 M978.3,441.8h25 M978.3,427.1h25 M934.8,456h25 M934.8,441.8h25 M934.8,427.1h25 M890.6,456 h25 M890.6,441.8h25 M890.6,427.1h25"></path> </g> <g> <path class="st6" d="M932.4,347.6V362 M903.1,347.6V362 M940.1,347.6h-44.7v-16.2h44.7V347.6z"></path> </g> <g> <g> <g> <path class="st7" d="M745.9,662.3h60c7,0,12.8,5.7,12.8,12.8V774c0,7-5.7,12.8-12.8,12.8h-81.2c-7,0-12.8-5.7-12.8-12.8v-77.8 L745.9,662.3z"></path> </g> </g> </g> <g> <path class="st6" d="M758.2,674.8h39v12.8h-52.1L758.2,674.8z M803,713l-14.9,12.4 M788.1,757.7l14.9,12.4 M727.5,713l14.9,12.4 M742.3,757.7l-14.9,12.4 M763.8,725.5h24.3v32.2h-45.7v-32.2h9.1"></path> </g> <g> <g> <g> <path class="st5" d="M705.7,680.6l-5.2-5.2c-1.2-1.2-1.2-3.2,0-4.4l19.4-19.4c1.2-1.2,3.2-1.2,4.4,0l5.2,5.2L705.7,680.6z"></path> </g> </g> </g> <g> <path class="st7" d="M726.1,660.6l5.3,5.3 M709.6,677.2l5.3,5.3"></path> </g> <g> <g> <g> <path class="st3" d="M253.6,715.5H282 M356.2,715.5h28.4 M319.1,781v-28.4 M319.1,678.5v-28.4 M308.9,690.8 c-13.6,5.6-20.1,21.3-14.5,34.9c5.6,13.6,21.3,20.1,34.9,14.5c13.6-5.6,20.1-21.3,14.5-34.9 C338.1,691.7,322.5,685.2,308.9,690.8z M345.2,741.5l20.2,20.1 M338.4,761.8l-5-12.1 M365.5,734.6l-11.9-4.9 M292.9,741.5 l-20.2,20.1 M299.8,761.8l5-12.1 M272.7,734.6l11.9-4.9 M345.2,689.4l20.2-20.1 M338.4,669.1l-5,12.1 M365.5,696.3l-11.9,4.9 M292.9,689.4l-20.2-20.1 M299.8,669.1l5,12.1 M272.7,696.3l11.9,4.9"></path> </g> <g> <path class="st8" d="M541.6,21h24.3c7.9,0,14.3,6.5,14.3,14.4v121c0,7.9-6.5,14.4-14.3,14.4h-53.6c-7.9,0-14.3-6.5-14.3-14.4 v-121c0-7.9,6.5-14.4,14.3-14.4h9.6 M521.9,7.3c0-3.2,2.6-5.8,5.7-5.8h23c3.2,0,5.7,2.6,5.7,5.8V20"></path> </g> </g> </g> <g> <path class="st8" d="M526.5,142.9h25.3 M539.1,36.1v24 M526.5,48.1h25.3"></path> </g> <g> <g> <g> <path class="st2" d="M555.5,289.9l-14.6-14.6c-1-1-2.7-1-3.7,0l-14.5,14.6 M539.1,339.5v-64.9"></path> </g> <g> <path class="st2" d="M555.5,324.1l-14.6,14.6c-1,1-2.7,1-3.7,0l-14.5-14.6 M539.1,274.6v64.9"></path> </g> <g> <path class="st6" d="M52.5,397.7L8.7,469h135.4l43.8-71.3H52.5z M62,349.7l6.5-6.9 M71.7,370.4h11.5 M24.3,390.8l-6.5,6.9 M14.5,370.4H3 M43.3,342.8v-11.4 M44.6,382.5c3.7,0,6.9-1.3,9.7-4c2.5-2.5,3.8-5.7,3.8-9.6c0-3.4-1.3-6.5-3.8-9.4 c-2.8-2.6-6-4-9.7-4c-3.5,0-6.6,1.3-9.3,4c-2.5,2.9-3.8,6-3.8,9.4c0,3.8,1.3,7,3.8,9.6C38,381.2,41.1,382.5,44.6,382.5z M24.3,349.7l-6.5-6.9 M195.2,413l-43.8,71.3H15.8 M30.6,433.2h43.8l21.8-35.5 M140.2,397.7l-21.8,35.5h47.7 M96.3,468.9 l22-35.7H74.5l-22,35.7"></path> </g> </g> </g> </g> </g> </svg> 