<?xml version="1.0" encoding="UTF-8"?> <svg xmlns="http://www.w3.org/2000/svg" id="Layer_1" data-name="Layer 1" viewBox="0 0 1105.6 939.7"><defs><style>.cls-1{fill:#ffcc14;}.cls-2{isolation:isolate;}.cls-3,.cls-4,.cls-5,.cls-6,.cls-7,.cls-8{fill:none;stroke-width:3px;}.cls-3{stroke:#fecb00;}.cls-3,.cls-4,.cls-5{stroke-linecap:round;}.cls-4,.cls-5,.cls-6,.cls-7,.cls-8{stroke:#000;}.cls-4,.cls-7,.cls-8{stroke-linejoin:round;}.cls-5,.cls-6{stroke-miterlimit:10;}.cls-8{stroke-linecap:square;}</style></defs><path class="cls-1" d="M326.6,929.1a159,159,0,0,0,0-318c-87.8,0-158.9,71.2-158.9,159s71.2,159,158.9,159Z"></path><path class="cls-1" d="M766.6,929.1c87.8,0,158.9-71.2,158.9-159s-71.2-159-158.9-159-158.9,71.2-158.9,159,71.2,159,158.9,159Z"></path><g class="cls-2"><path d="M47,558.56a5,5,0,0,1-2.22-1.76,4.57,4.57,0,0,1-.78-2.65v-.53a.27.27,0,0,1,.09-.2.24.24,0,0,1,.2-.08H47a.24.24,0,0,1,.2.08.27.27,0,0,1,.09.2V554a2,2,0,0,0,.88,1.62,4,4,0,0,0,2.4.66,2.85,2.85,0,0,0,1.9-.54,1.67,1.67,0,0,0,.62-1.33,1.32,1.32,0,0,0-.38-1,3.5,3.5,0,0,0-1-.7c-.44-.2-1.14-.47-2.1-.82a21.38,21.38,0,0,1-2.73-1.13A5.57,5.57,0,0,1,45,549.2a4,4,0,0,1-.76-2.46,4.31,4.31,0,0,1,.75-2.52A4.67,4.67,0,0,1,47,542.56a7.65,7.65,0,0,1,3.05-.58,7.79,7.79,0,0,1,3.25.65,5.3,5.3,0,0,1,2.23,1.81,4.63,4.63,0,0,1,.81,2.7v.36a.29.29,0,0,1-.09.21.28.28,0,0,1-.2.08H53.3a.28.28,0,0,1-.2-.08.29.29,0,0,1-.09-.21v-.19a2.15,2.15,0,0,0-.83-1.71,3.31,3.31,0,0,0-2.26-.71,2.89,2.89,0,0,0-1.77.48,1.57,1.57,0,0,0-.63,1.32,1.45,1.45,0,0,0,.37,1,3.33,3.33,0,0,0,1.1.73c.49.21,1.25.51,2.27.87s2,.79,2.68,1.11a5.31,5.31,0,0,1,1.75,1.43,3.74,3.74,0,0,1,.78,2.46,4.28,4.28,0,0,1-1.66,3.56,7.06,7.06,0,0,1-4.49,1.31A8.68,8.68,0,0,1,47,558.56Z"></path><path d="M61.52,558.47a5.54,5.54,0,0,1-2.22-2.15,6.25,6.25,0,0,1-.79-3.18V548a6.17,6.17,0,0,1,.79-3.15,5.46,5.46,0,0,1,2.22-2.12,7.59,7.59,0,0,1,6.62,0,5.34,5.34,0,0,1,2.22,2.12,6.17,6.17,0,0,1,.8,3.15v5.13a6.36,6.36,0,0,1-.8,3.2,5.33,5.33,0,0,1-2.22,2.14,7.54,7.54,0,0,1-6.62,0Zm5.44-3a3.1,3.1,0,0,0,.81-2.24V548a3.17,3.17,0,0,0-.8-2.24,2.81,2.81,0,0,0-2.15-.85,2.76,2.76,0,0,0-2.12.85,3.13,3.13,0,0,0-.81,2.24v5.28a3.1,3.1,0,0,0,.81,2.24,2.79,2.79,0,0,0,2.12.84A2.86,2.86,0,0,0,67,555.5Z"></path><path d="M73.83,558.89a.24.24,0,0,1-.08-.2V542.46a.26.26,0,0,1,.08-.2.28.28,0,0,1,.21-.08h2.8a.28.28,0,0,1,.21.08.3.3,0,0,1,.08.2V556a.11.11,0,0,0,.12.12H85.1a.31.31,0,0,1,.29.29v2.33a.31.31,0,0,1-.29.29H74A.29.29,0,0,1,73.83,558.89Z"></path><path d="M89.9,558.44a5.31,5.31,0,0,1-2.19-2.06,5.94,5.94,0,0,1-.76-3v-5.55a6,6,0,0,1,.76-3,5.21,5.21,0,0,1,2.19-2,7.15,7.15,0,0,1,3.29-.72,7.29,7.29,0,0,1,3.25.69,5.08,5.08,0,0,1,2.18,1.94,5.42,5.42,0,0,1,.78,2.92c0,.14-.09.23-.29.26l-2.8.17h0c-.16,0-.24-.09-.24-.26a2.73,2.73,0,0,0-.78-2,3.15,3.15,0,0,0-4.13,0,2.73,2.73,0,0,0-.78,2v5.78a2.73,2.73,0,0,0,.78,2,3.19,3.19,0,0,0,4.13,0,2.73,2.73,0,0,0,.78-2c0-.18.09-.26.29-.26l2.8.12a.31.31,0,0,1,.21.07.23.23,0,0,1,.08.17,5.45,5.45,0,0,1-.78,2.92,5.15,5.15,0,0,1-2.18,2,7.84,7.84,0,0,1-6.54,0Z"></path><path d="M113.45,545a.28.28,0,0,1-.2.08h-7.87a.11.11,0,0,0-.12.12v3.72a.11.11,0,0,0,.12.12h5.16a.28.28,0,0,1,.2.08.29.29,0,0,1,.09.21v2.33a.27.27,0,0,1-.09.2.24.24,0,0,1-.2.08h-5.16a.11.11,0,0,0-.12.12V556a.11.11,0,0,0,.12.12h7.87a.31.31,0,0,1,.29.29v2.33a.31.31,0,0,1-.29.29H102.16a.31.31,0,0,1-.29-.29V542.46a.27.27,0,0,1,.09-.2.24.24,0,0,1,.2-.08h11.09a.24.24,0,0,1,.2.08.27.27,0,0,1,.09.2v2.33A.29.29,0,0,1,113.45,545Z"></path><path d="M116,558.89a.28.28,0,0,1-.08-.2V542.46a.3.3,0,0,1,.08-.2.28.28,0,0,1,.21-.08H119a.27.27,0,0,1,.28.28V556a.11.11,0,0,0,.12.12h7.85a.29.29,0,0,1,.21.09.28.28,0,0,1,.08.2v2.33a.28.28,0,0,1-.08.2.29.29,0,0,1-.21.09H116.18A.29.29,0,0,1,116,558.89Z"></path><path d="M129.7,558.89a.28.28,0,0,1-.08-.2V542.46a.3.3,0,0,1,.08-.2.28.28,0,0,1,.21-.08h2.8a.28.28,0,0,1,.21.08.3.3,0,0,1,.08.2V556a.11.11,0,0,0,.12.12H141a.31.31,0,0,1,.29.29v2.33a.31.31,0,0,1-.29.29H129.91A.29.29,0,0,1,129.7,558.89Z"></path><path d="M154.93,545a.32.32,0,0,1-.21.08h-7.87a.11.11,0,0,0-.12.12v3.72a.11.11,0,0,0,.12.12H152a.28.28,0,0,1,.2.08.29.29,0,0,1,.09.21v2.33a.27.27,0,0,1-.09.2.24.24,0,0,1-.2.08h-5.16a.11.11,0,0,0-.12.12V556a.11.11,0,0,0,.12.12h7.87a.29.29,0,0,1,.21.09.28.28,0,0,1,.08.2v2.33a.28.28,0,0,1-.08.2.29.29,0,0,1-.21.09H143.63a.27.27,0,0,1-.2-.09.24.24,0,0,1-.08-.2V542.46a.27.27,0,0,1,.28-.28h11.09a.28.28,0,0,1,.21.08.3.3,0,0,1,.08.2v2.33A.32.32,0,0,1,154.93,545Z"></path></g><g class="cls-2"><path d="M165.79,558.76l-3-6.65a.16.16,0,0,0-.15-.09h-2.23a.11.11,0,0,0-.12.12v6.55a.28.28,0,0,1-.08.2.29.29,0,0,1-.21.09h-2.8a.29.29,0,0,1-.21-.09.28.28,0,0,1-.08-.2V542.46a.3.3,0,0,1,.08-.2.28.28,0,0,1,.21-.08h6.86a5.6,5.6,0,0,1,2.7.62,4.35,4.35,0,0,1,1.8,1.78,5.42,5.42,0,0,1,.64,2.66,4.79,4.79,0,0,1-.82,2.8,4.34,4.34,0,0,1-2.28,1.64.12.12,0,0,0-.07.17l3.26,6.79a.39.39,0,0,1,.05.14c0,.13-.09.2-.26.2h-3A.34.34,0,0,1,165.79,558.76Zm-5.5-13.56v4.1a.11.11,0,0,0,.12.12h3.15a2.29,2.29,0,0,0,1.64-.6,2.06,2.06,0,0,0,.64-1.56,2.1,2.1,0,0,0-.64-1.57,2.25,2.25,0,0,0-1.64-.61h-3.15A.11.11,0,0,0,160.29,545.2Z"></path><path d="M508.18,545a.28.28,0,0,1-.2.08h-7.85a.11.11,0,0,0-.12.12v3.72a.11.11,0,0,0,.12.12h5.16a.27.27,0,0,1,.29.29v2.33a.3.3,0,0,1-.08.2.28.28,0,0,1-.21.08h-5.16a.11.11,0,0,0-.12.12v6.63a.28.28,0,0,1-.08.2.29.29,0,0,1-.21.09h-2.8a.27.27,0,0,1-.21-.09.24.24,0,0,1-.08-.2V542.46a.26.26,0,0,1,.08-.2.26.26,0,0,1,.21-.08H508a.24.24,0,0,1,.2.08.27.27,0,0,1,.09.2v2.33A.29.29,0,0,1,508.18,545Z"></path></g><g class="cls-2"><path d="M513.18,558.47a5.54,5.54,0,0,1-2.22-2.15,6.25,6.25,0,0,1-.79-3.18V548a6.17,6.17,0,0,1,.79-3.15,5.46,5.46,0,0,1,2.22-2.12,7.59,7.59,0,0,1,6.62,0,5.46,5.46,0,0,1,2.22,2.12,6.17,6.17,0,0,1,.79,3.15v5.13a6.35,6.35,0,0,1-.79,3.2,5.45,5.45,0,0,1-2.22,2.14,7.54,7.54,0,0,1-6.62,0Zm5.43-3a3.06,3.06,0,0,0,.82-2.24V548a3.13,3.13,0,0,0-.81-2.24,3.11,3.11,0,0,0-4.27,0,3.17,3.17,0,0,0-.8,2.24v5.28a3.13,3.13,0,0,0,.8,2.24,3.12,3.12,0,0,0,4.26,0Z"></path><path d="M534.29,558.76l-3-6.65a.18.18,0,0,0-.15-.09h-2.23a.11.11,0,0,0-.12.12v6.55a.28.28,0,0,1-.08.2.29.29,0,0,1-.21.09h-2.81a.31.31,0,0,1-.29-.29V542.46a.27.27,0,0,1,.09-.2.24.24,0,0,1,.2-.08h6.87a5.6,5.6,0,0,1,2.7.62,4.47,4.47,0,0,1,1.8,1.78,5.42,5.42,0,0,1,.63,2.66,4.79,4.79,0,0,1-.81,2.8,4.42,4.42,0,0,1-2.28,1.64.12.12,0,0,0-.08.17l3.27,6.79a.39.39,0,0,1,.05.14c0,.13-.09.2-.27.2h-3A.34.34,0,0,1,534.29,558.76Zm-5.5-13.56v4.1a.11.11,0,0,0,.12.12h3.14a2.31,2.31,0,0,0,1.65-.6,2.06,2.06,0,0,0,.63-1.56,2.09,2.09,0,0,0-.63-1.57,2.27,2.27,0,0,0-1.65-.61h-3.14A.11.11,0,0,0,528.79,545.2Z"></path><path d="M550.1,550.36a4.06,4.06,0,0,1,2.28,3.91,4.14,4.14,0,0,1-1.58,3.52,6.78,6.78,0,0,1-4.16,1.19h-6.21a.29.29,0,0,1-.21-.09.28.28,0,0,1-.08-.2V542.46a.3.3,0,0,1,.08-.2.28.28,0,0,1,.21-.08h6q5.68,0,5.69,4.6a3.57,3.57,0,0,1-2,3.44C550,550.26,550,550.31,550.1,550.36Zm-6.58-5.16v3.74a.11.11,0,0,0,.12.12h2.81a2.63,2.63,0,0,0,1.75-.52,1.8,1.8,0,0,0,.63-1.44,1.84,1.84,0,0,0-.63-1.48,2.58,2.58,0,0,0-1.75-.54h-2.81A.11.11,0,0,0,543.52,545.2Zm4.85,10.28a2.21,2.21,0,0,0,0-3.09,2.49,2.49,0,0,0-1.75-.57h-3a.11.11,0,0,0-.12.12v4a.11.11,0,0,0,.12.12h3A2.46,2.46,0,0,0,548.37,555.48Z"></path><path d="M563.9,558.76l-3-6.65a.15.15,0,0,0-.14-.09h-2.24a.11.11,0,0,0-.12.12v6.55a.24.24,0,0,1-.08.2.27.27,0,0,1-.2.09h-2.81a.29.29,0,0,1-.21-.09.28.28,0,0,1-.08-.2V542.46a.3.3,0,0,1,.08-.2.28.28,0,0,1,.21-.08h6.86a5.55,5.55,0,0,1,2.7.62,4.35,4.35,0,0,1,1.8,1.78,5.32,5.32,0,0,1,.64,2.66,4.72,4.72,0,0,1-.82,2.8,4.34,4.34,0,0,1-2.28,1.64.12.12,0,0,0-.07.17l3.26,6.79a.26.26,0,0,1,.05.14c0,.13-.08.2-.26.2h-3A.35.35,0,0,1,563.9,558.76Zm-5.5-13.56v4.1a.11.11,0,0,0,.12.12h3.15a2.29,2.29,0,0,0,1.64-.6,2,2,0,0,0,.64-1.56,2.07,2.07,0,0,0-.64-1.57,2.25,2.25,0,0,0-1.64-.61h-3.15A.11.11,0,0,0,558.4,545.2Z"></path><path d="M572.6,558.45a5.28,5.28,0,0,1-2.18-2,5.77,5.77,0,0,1-.78-3V542.46a.27.27,0,0,1,.28-.28h2.81a.28.28,0,0,1,.21.08.3.3,0,0,1,.08.2v11a2.83,2.83,0,1,0,5.66,0v-11a.27.27,0,0,1,.09-.2.24.24,0,0,1,.2-.08h2.81a.24.24,0,0,1,.2.08.27.27,0,0,1,.09.2v10.95a5.77,5.77,0,0,1-.78,3,5.31,5.31,0,0,1-2.19,2,7.7,7.7,0,0,1-6.5,0Z"></path><path d="M584.94,558.89a.25.25,0,0,1-.09-.2V542.46a.27.27,0,0,1,.09-.2.24.24,0,0,1,.2-.08H588a.24.24,0,0,1,.2.08.27.27,0,0,1,.09.2v6.72c0,.05,0,.08,0,.09s.06,0,.09,0l5.54-6.89a.47.47,0,0,1,.37-.16h3.16c.13,0,.21,0,.24.1a.26.26,0,0,1-.05.26l-5.35,6.84a.13.13,0,0,0,0,.16l5.66,9.1a1.47,1.47,0,0,1,.05.17c0,.11-.08.17-.24.17h-3.17a.33.33,0,0,1-.33-.2L590,551.87a.08.08,0,0,0-.07,0,.14.14,0,0,0-.09,0l-1.51,1.9a.26.26,0,0,0,0,.14v4.78a.31.31,0,0,1-.29.29h-2.81A.25.25,0,0,1,584.94,558.89Z"></path></g><g class="cls-2"><path d="M512,237.36a4.06,4.06,0,0,1,2.28,3.91,4.14,4.14,0,0,1-1.58,3.52,6.8,6.8,0,0,1-4.16,1.19h-6.21a.29.29,0,0,1-.21-.09.28.28,0,0,1-.08-.2V229.46a.3.3,0,0,1,.08-.2.28.28,0,0,1,.21-.08h6q5.68,0,5.69,4.6a3.57,3.57,0,0,1-2,3.44C511.94,237.26,511.94,237.31,512,237.36Zm-6.58-5.16v3.74a.11.11,0,0,0,.12.12h2.81a2.63,2.63,0,0,0,1.75-.52,1.8,1.8,0,0,0,.63-1.44,1.84,1.84,0,0,0-.63-1.48,2.58,2.58,0,0,0-1.75-.54h-2.81A.11.11,0,0,0,505.46,232.2Zm4.85,10.28a2.21,2.21,0,0,0,0-3.09,2.49,2.49,0,0,0-1.75-.57h-3a.11.11,0,0,0-.12.12v4a.11.11,0,0,0,.12.12h3A2.46,2.46,0,0,0,510.31,242.48Z"></path><path d="M526.42,245.74l-.73-2.36c0-.06-.07-.09-.11-.09h-5.91a.14.14,0,0,0-.12.09l-.7,2.36a.29.29,0,0,1-.31.24h-3a.27.27,0,0,1-.22-.09.26.26,0,0,1,0-.25l5.19-16.22a.3.3,0,0,1,.31-.24h3.77a.3.3,0,0,1,.31.24L530,245.64a.37.37,0,0,1,0,.12c0,.14-.09.22-.27.22h-3A.29.29,0,0,1,526.42,245.74Zm-5.91-5.07h4.22c.1,0,.13,0,.1-.14l-2.16-7.13c0-.06,0-.09-.07-.08s-.06,0-.07.08l-2.11,7.13C520.4,240.62,520.43,240.67,520.51,240.67Z"></path></g><g class="cls-2"><path d="M542.7,229.26a.3.3,0,0,1,.08.2v2.36a.3.3,0,0,1-.08.2.28.28,0,0,1-.21.08H538.2a.11.11,0,0,0-.12.12v13.47a.31.31,0,0,1-.29.29H535a.31.31,0,0,1-.29-.29V232.22a.11.11,0,0,0-.12-.12H530.4a.28.28,0,0,1-.21-.08.3.3,0,0,1-.08-.2v-2.36a.3.3,0,0,1,.08-.2.28.28,0,0,1,.21-.08h12.09A.28.28,0,0,1,542.7,229.26Z"></path><path d="M556.74,229.26a.3.3,0,0,1,.08.2v2.36a.3.3,0,0,1-.08.2.28.28,0,0,1-.21.08h-4.29a.11.11,0,0,0-.12.12v13.47a.31.31,0,0,1-.29.29H549a.31.31,0,0,1-.29-.29V232.22a.11.11,0,0,0-.12-.12h-4.17a.28.28,0,0,1-.21-.08.3.3,0,0,1-.08-.2v-2.36a.3.3,0,0,1,.08-.2.28.28,0,0,1,.21-.08h12.09A.28.28,0,0,1,556.74,229.26Z"></path></g><g class="cls-2"><path d="M570.89,232a.28.28,0,0,1-.2.08h-7.87a.11.11,0,0,0-.12.12v3.72a.11.11,0,0,0,.12.12H568a.3.3,0,0,1,.2.08.29.29,0,0,1,.09.21v2.33a.27.27,0,0,1-.09.2.26.26,0,0,1-.2.08h-5.16a.11.11,0,0,0-.12.12V243a.11.11,0,0,0,.12.12h7.87a.31.31,0,0,1,.29.29v2.33a.31.31,0,0,1-.29.29H559.6a.31.31,0,0,1-.29-.29V229.46a.27.27,0,0,1,.09-.2.24.24,0,0,1,.2-.08h11.09a.24.24,0,0,1,.2.08.27.27,0,0,1,.09.2v2.33A.29.29,0,0,1,570.89,232Z"></path><path d="M582.21,245.76l-3-6.65a.15.15,0,0,0-.14-.09h-2.24a.11.11,0,0,0-.12.12v6.55a.24.24,0,0,1-.08.2.27.27,0,0,1-.2.09h-2.81a.29.29,0,0,1-.21-.09.28.28,0,0,1-.08-.2V229.46a.3.3,0,0,1,.08-.2.28.28,0,0,1,.21-.08h6.86a5.55,5.55,0,0,1,2.7.62,4.35,4.35,0,0,1,1.8,1.78,5.32,5.32,0,0,1,.64,2.66,4.72,4.72,0,0,1-.82,2.8,4.34,4.34,0,0,1-2.28,1.64.12.12,0,0,0-.07.17l3.26,6.79a.26.26,0,0,1,0,.14c0,.13-.09.2-.26.2h-3A.35.35,0,0,1,582.21,245.76Zm-5.5-13.56v4.1a.11.11,0,0,0,.12.12H580a2.29,2.29,0,0,0,1.64-.6,2.06,2.06,0,0,0,.64-1.56,2.1,2.1,0,0,0-.64-1.57,2.25,2.25,0,0,0-1.64-.61h-3.15A.11.11,0,0,0,576.71,232.2Z"></path></g><g class="cls-2"><path d="M587.91,245.89a.28.28,0,0,1-.08-.2V229.46a.3.3,0,0,1,.08-.2.28.28,0,0,1,.21-.08h2.8a.28.28,0,0,1,.21.08.3.3,0,0,1,.08.2v16.23a.28.28,0,0,1-.08.2.29.29,0,0,1-.21.09h-2.8A.29.29,0,0,1,587.91,245.89Z"></path></g><g class="cls-2"><path d="M272,836a5,5,0,0,1-2.22-1.75,4.57,4.57,0,0,1-.78-2.65V831a.24.24,0,0,1,.08-.2.27.27,0,0,1,.2-.09H272a.31.31,0,0,1,.29.29v.36a1.94,1.94,0,0,0,.89,1.62,3.93,3.93,0,0,0,2.4.66,2.82,2.82,0,0,0,1.89-.54,1.68,1.68,0,0,0,.63-1.33,1.31,1.31,0,0,0-.39-1,3.21,3.21,0,0,0-1-.7c-.44-.2-1.14-.48-2.1-.83a20.57,20.57,0,0,1-2.73-1.13A5.44,5.44,0,0,1,270,826.6a4,4,0,0,1-.75-2.46,4.3,4.3,0,0,1,.74-2.52A4.71,4.71,0,0,1,272,820a7.48,7.48,0,0,1,3.05-.58,7.79,7.79,0,0,1,3.25.65,5.25,5.25,0,0,1,2.24,1.81,4.69,4.69,0,0,1,.8,2.7v.36a.28.28,0,0,1-.08.2.29.29,0,0,1-.21.09h-2.76a.31.31,0,0,1-.29-.29v-.19a2.19,2.19,0,0,0-.82-1.72,3.41,3.41,0,0,0-2.27-.71,2.91,2.91,0,0,0-1.77.48,1.57,1.57,0,0,0-.63,1.32,1.43,1.43,0,0,0,.37,1,3.29,3.29,0,0,0,1.1.73c.49.22,1.25.51,2.27.88s2,.78,2.68,1.1a5.34,5.34,0,0,1,1.75,1.43,3.74,3.74,0,0,1,.78,2.46,4.3,4.3,0,0,1-1.66,3.57,7,7,0,0,1-4.48,1.3A8.5,8.5,0,0,1,272,836Z"></path><path d="M286.51,835.88a5.54,5.54,0,0,1-2.22-2.15,6.25,6.25,0,0,1-.79-3.18v-5.14a6.13,6.13,0,0,1,.79-3.14,5.46,5.46,0,0,1,2.22-2.12,6.87,6.87,0,0,1,3.3-.76,7,7,0,0,1,3.33.76,5.46,5.46,0,0,1,2.22,2.12,6.23,6.23,0,0,1,.79,3.14v5.14a6.42,6.42,0,0,1-.79,3.19,5.41,5.41,0,0,1-2.22,2.15,7.08,7.08,0,0,1-3.33.76A6.87,6.87,0,0,1,286.51,835.88Zm5.44-3a3.07,3.07,0,0,0,.81-2.23v-5.28a3.09,3.09,0,0,0-.8-2.24,2.82,2.82,0,0,0-2.15-.86,2.76,2.76,0,0,0-2.12.86,3.1,3.1,0,0,0-.81,2.24v5.28a3.07,3.07,0,0,0,.81,2.23,2.79,2.79,0,0,0,2.12.84A2.86,2.86,0,0,0,292,832.9Z"></path><path d="M298.82,836.3a.32.32,0,0,1-.08-.21V819.87a.28.28,0,0,1,.08-.2.29.29,0,0,1,.21-.09h2.81a.27.27,0,0,1,.2.09.24.24,0,0,1,.08.2v13.49a.11.11,0,0,0,.12.12h7.85a.27.27,0,0,1,.29.29v2.32a.27.27,0,0,1-.29.29H299A.32.32,0,0,1,298.82,836.3Z"></path><path d="M312.55,836.3a.28.28,0,0,1-.08-.21V819.87a.24.24,0,0,1,.08-.2.27.27,0,0,1,.2-.09h2.81a.29.29,0,0,1,.21.09.28.28,0,0,1,.08.2v6.72s0,.08,0,.08a.11.11,0,0,0,.1,0l5.54-6.89a.45.45,0,0,1,.36-.17h3.17a.25.25,0,0,1,.24.11.27.27,0,0,1-.05.25l-5.35,6.84c-.05.07-.06.12,0,.17l5.67,9.1a.8.8,0,0,1,0,.16c0,.12-.08.17-.24.17h-3.16a.34.34,0,0,1-.34-.19l-4.27-6.91s0,0-.07,0a.14.14,0,0,0-.1,0l-1.51,1.89a.5.5,0,0,0,0,.15v4.77a.27.27,0,0,1-.29.29h-2.81A.3.3,0,0,1,312.55,836.3Z"></path></g><g class="cls-2"><path d="M336.37,836.17l-3-6.65a.15.15,0,0,0-.14-.1H331a.11.11,0,0,0-.12.12v6.55a.29.29,0,0,1-.09.21.28.28,0,0,1-.2.08h-2.81a.28.28,0,0,1-.2-.08.29.29,0,0,1-.09-.21V819.87a.31.31,0,0,1,.29-.29h6.87a5.61,5.61,0,0,1,2.7.63,4.38,4.38,0,0,1,1.8,1.77,5.49,5.49,0,0,1,.63,2.67,4.76,4.76,0,0,1-.81,2.79,4.38,4.38,0,0,1-2.28,1.65c-.09,0-.11.08-.08.16l3.27,6.8a.39.39,0,0,1,.05.14c0,.13-.09.19-.27.19h-3A.35.35,0,0,1,336.37,836.17Zm-5.49-13.56v4.1a.11.11,0,0,0,.12.12h3.14a2.33,2.33,0,0,0,1.65-.6,2.06,2.06,0,0,0,.63-1.56,2.09,2.09,0,0,0-.63-1.57,2.29,2.29,0,0,0-1.65-.61H331A.11.11,0,0,0,330.88,822.61Z"></path><path d="M353,836.14l-.72-2.35c0-.06-.07-.1-.12-.1h-5.91a.16.16,0,0,0-.12.1l-.69,2.35a.31.31,0,0,1-.32.24h-3a.29.29,0,0,1-.22-.08.24.24,0,0,1,0-.25L347,819.82a.3.3,0,0,1,.31-.24h3.77a.29.29,0,0,1,.31.24l5.19,16.23a.37.37,0,0,1,0,.12c0,.14-.09.21-.26.21h-3.05A.29.29,0,0,1,353,836.14Zm-5.91-5.06h4.23q.14,0,.09-.15l-2.16-7.12c0-.07,0-.1-.07-.09a.11.11,0,0,0-.07.09L347,830.93Q346.93,831.08,347.05,831.08Z"></path></g><g class="cls-2"><path d="M370.2,822.4a.29.29,0,0,1-.21.09h-7.84a.11.11,0,0,0-.12.12v3.72a.11.11,0,0,0,.12.12h5.16a.27.27,0,0,1,.28.28v2.33a.28.28,0,0,1-.08.21.3.3,0,0,1-.2.08h-5.16a.11.11,0,0,0-.12.12v6.62a.29.29,0,0,1-.09.21.28.28,0,0,1-.2.08h-2.81a.28.28,0,0,1-.2-.08.29.29,0,0,1-.09-.21V819.87a.31.31,0,0,1,.29-.29H370a.29.29,0,0,1,.21.09.28.28,0,0,1,.08.2v2.33A.28.28,0,0,1,370.2,822.4Z"></path><path d="M383.88,819.67a.28.28,0,0,1,.08.2v2.35a.27.27,0,0,1-.29.29h-4.29a.11.11,0,0,0-.12.12v13.46a.29.29,0,0,1-.09.21.28.28,0,0,1-.2.08h-2.81a.28.28,0,0,1-.2-.08.29.29,0,0,1-.09-.21V822.63a.11.11,0,0,0-.12-.12h-4.17a.27.27,0,0,1-.29-.29v-2.35a.28.28,0,0,1,.08-.2.29.29,0,0,1,.21-.09h12.09A.29.29,0,0,1,383.88,819.67Z"></path></g><g class="cls-2"><path d="M249.2,844.21a4.55,4.55,0,0,1,1.86,1.83,5.52,5.52,0,0,1,.66,2.73,5.09,5.09,0,0,1-.69,2.66,4.62,4.62,0,0,1-1.92,1.79,6.15,6.15,0,0,1-2.84.63h-3.41a.11.11,0,0,0-.12.12v6.12a.27.27,0,0,1-.29.29h-2.8a.27.27,0,0,1-.29-.29V843.85a.27.27,0,0,1,.29-.29h6.76A5.69,5.69,0,0,1,249.2,844.21Zm-1.51,6.3a2.23,2.23,0,0,0,.67-1.67,2.3,2.3,0,0,0-.67-1.71,2.46,2.46,0,0,0-1.78-.64h-3a.11.11,0,0,0-.12.12V851a.11.11,0,0,0,.12.12h3A2.5,2.5,0,0,0,247.69,850.51Z"></path><path d="M262.69,860.17l-3-6.65a.17.17,0,0,0-.15-.1h-2.23a.11.11,0,0,0-.12.12v6.55a.27.27,0,0,1-.29.29h-2.81a.3.3,0,0,1-.2-.08.28.28,0,0,1-.08-.21V843.87a.24.24,0,0,1,.08-.2.27.27,0,0,1,.2-.09H261a5.61,5.61,0,0,1,2.7.63,4.38,4.38,0,0,1,1.8,1.77,5.49,5.49,0,0,1,.63,2.67,4.76,4.76,0,0,1-.81,2.79,4.38,4.38,0,0,1-2.28,1.65c-.08,0-.11.08-.07.16l3.26,6.8a.39.39,0,0,1,.05.14c0,.13-.09.19-.27.19h-3A.33.33,0,0,1,262.69,860.17Zm-5.5-13.56v4.1a.11.11,0,0,0,.12.12h3.14a2.31,2.31,0,0,0,1.65-.6,2.06,2.06,0,0,0,.63-1.56,2.09,2.09,0,0,0-.63-1.57,2.27,2.27,0,0,0-1.65-.61h-3.14A.11.11,0,0,0,257.19,846.61Z"></path><path d="M271.22,859.88a5.54,5.54,0,0,1-2.22-2.15,6.25,6.25,0,0,1-.79-3.18v-5.14a6.13,6.13,0,0,1,.79-3.14,5.46,5.46,0,0,1,2.22-2.12,7.59,7.59,0,0,1,6.62,0,5.46,5.46,0,0,1,2.22,2.12,6.13,6.13,0,0,1,.79,3.14v5.14a6.32,6.32,0,0,1-.79,3.19,5.41,5.41,0,0,1-2.22,2.15,7,7,0,0,1-3.32.76A6.87,6.87,0,0,1,271.22,859.88Zm5.43-3a3,3,0,0,0,.82-2.23v-5.28a3.13,3.13,0,0,0-.8-2.24,2.83,2.83,0,0,0-2.15-.86,2.8,2.8,0,0,0-2.13.86,3.13,3.13,0,0,0-.8,2.24v5.28a3.11,3.11,0,0,0,.8,2.23,3.12,3.12,0,0,0,4.26,0Z"></path><path d="M283.53,860.3a.29.29,0,0,1-.09-.21V843.87a.31.31,0,0,1,.29-.29h6a7.31,7.31,0,0,1,3.16.64A4.92,4.92,0,0,1,295,846a4.81,4.81,0,0,1,.74,2.66v6.62A4.87,4.87,0,0,1,295,858a5,5,0,0,1-2.1,1.79,7.46,7.46,0,0,1-3.16.63h-6A.28.28,0,0,1,283.53,860.3Zm3.42-2.82h2.9a2.3,2.3,0,0,0,1.79-.75,2.9,2.9,0,0,0,.71-2v-5.52a2.86,2.86,0,0,0-.68-2,2.37,2.37,0,0,0-1.84-.74H287a.11.11,0,0,0-.12.12v10.75A.11.11,0,0,0,287,857.48Z"></path><path d="M301.12,859.85a5.32,5.32,0,0,1-2.18-2,5.81,5.81,0,0,1-.78-3V843.87a.24.24,0,0,1,.08-.2.27.27,0,0,1,.2-.09h2.81a.29.29,0,0,1,.21.09.28.28,0,0,1,.08.2v11a2.84,2.84,0,1,0,5.67,0v-11a.24.24,0,0,1,.08-.2.25.25,0,0,1,.2-.09h2.81a.31.31,0,0,1,.29.29v10.94a5.81,5.81,0,0,1-.78,3,5.28,5.28,0,0,1-2.19,2,7.7,7.7,0,0,1-6.5,0Z"></path><path d="M315.77,860a5,5,0,0,1-2.22-1.75,4.57,4.57,0,0,1-.78-2.65V855a.31.31,0,0,1,.29-.29h2.74a.27.27,0,0,1,.2.09.24.24,0,0,1,.08.2v.36A2,2,0,0,0,317,857a3.93,3.93,0,0,0,2.4.66,2.85,2.85,0,0,0,1.9-.54,1.7,1.7,0,0,0,.62-1.33,1.34,1.34,0,0,0-.38-1,3.37,3.37,0,0,0-1.05-.7c-.44-.2-1.14-.48-2.1-.83a19.85,19.85,0,0,1-2.72-1.13,5.35,5.35,0,0,1-1.87-1.57,3.9,3.9,0,0,1-.76-2.46,4.31,4.31,0,0,1,.75-2.52,4.65,4.65,0,0,1,2.06-1.65,7.48,7.48,0,0,1,3.05-.58,7.82,7.82,0,0,1,3.25.65,5.22,5.22,0,0,1,2.23,1.81,4.63,4.63,0,0,1,.81,2.7v.36a.31.31,0,0,1-.29.29h-2.76a.29.29,0,0,1-.21-.09.28.28,0,0,1-.08-.2v-.19A2.2,2.2,0,0,0,321,847a3.39,3.39,0,0,0-2.27-.71,2.85,2.85,0,0,0-1.76.48,1.58,1.58,0,0,0-.64,1.32,1.44,1.44,0,0,0,.38,1,3.09,3.09,0,0,0,1.1.73c.49.22,1.24.51,2.27.88s2,.78,2.67,1.1a5.37,5.37,0,0,1,1.76,1.43,3.74,3.74,0,0,1,.78,2.46,4.33,4.33,0,0,1-1.66,3.57,7.05,7.05,0,0,1-4.49,1.3A8.5,8.5,0,0,1,315.77,860Z"></path><path d="M339.23,846.4a.25.25,0,0,1-.2.09h-7.87a.11.11,0,0,0-.12.12v3.72a.11.11,0,0,0,.12.12h5.16a.27.27,0,0,1,.28.28v2.33a.28.28,0,0,1-.08.21.3.3,0,0,1-.2.08h-5.16a.11.11,0,0,0-.12.12v3.89a.11.11,0,0,0,.12.12H339a.28.28,0,0,1,.2.08.29.29,0,0,1,.09.21v2.32a.29.29,0,0,1-.09.21.28.28,0,0,1-.2.08H327.94a.28.28,0,0,1-.2-.08.29.29,0,0,1-.09-.21V843.87a.31.31,0,0,1,.29-.29H339a.31.31,0,0,1,.29.29v2.33A.25.25,0,0,1,339.23,846.4Z"></path><path d="M350.55,860.17l-3-6.65a.15.15,0,0,0-.15-.1h-2.23a.11.11,0,0,0-.12.12v6.55a.27.27,0,0,1-.29.29H342a.27.27,0,0,1-.29-.29V843.87a.28.28,0,0,1,.08-.2.29.29,0,0,1,.21-.09h6.86a5.61,5.61,0,0,1,2.7.63,4.27,4.27,0,0,1,1.8,1.77,5.49,5.49,0,0,1,.64,2.67,4.76,4.76,0,0,1-.82,2.79,4.3,4.3,0,0,1-2.28,1.65.11.11,0,0,0-.07.16l3.26,6.8a.39.39,0,0,1,.05.14c0,.13-.09.19-.26.19h-3A.33.33,0,0,1,350.55,860.17Zm-5.5-13.56v4.1a.11.11,0,0,0,.12.12h3.15a2.29,2.29,0,0,0,1.64-.6,2.06,2.06,0,0,0,.64-1.56,2.1,2.1,0,0,0-.64-1.57,2.25,2.25,0,0,0-1.64-.61h-3.15A.11.11,0,0,0,345.05,846.61Z"></path><path d="M368.18,843.67a.28.28,0,0,1,.08.2v2.35a.27.27,0,0,1-.29.29h-4.29a.11.11,0,0,0-.12.12v13.46a.29.29,0,0,1-.09.21.28.28,0,0,1-.2.08h-2.81a.28.28,0,0,1-.2-.08.29.29,0,0,1-.09-.21V846.63a.11.11,0,0,0-.12-.12h-4.17a.27.27,0,0,1-.29-.29v-2.35a.28.28,0,0,1,.08-.2.29.29,0,0,1,.21-.09H368A.29.29,0,0,1,368.18,843.67Z"></path><path d="M375.3,860.3a.32.32,0,0,1-.08-.21V843.87a.28.28,0,0,1,.08-.2.29.29,0,0,1,.21-.09h2.81a.27.27,0,0,1,.2.09.24.24,0,0,1,.08.2v16.22a.28.28,0,0,1-.08.21.3.3,0,0,1-.2.08h-2.81A.32.32,0,0,1,375.3,860.3Z"></path><path d="M396.7,860.14l-.72-2.35c0-.06-.07-.1-.12-.1H390s-.09,0-.12.1l-.7,2.35a.3.3,0,0,1-.31.24h-3.05a.22.22,0,0,1-.24-.33l5.18-16.23a.31.31,0,0,1,.32-.24h3.76a.31.31,0,0,1,.32.24l5.18,16.23a.22.22,0,0,1,0,.12c0,.14-.08.21-.26.21H397A.3.3,0,0,1,396.7,860.14Zm-5.95-18.59a3,3,0,0,1,0-4.24,3.06,3.06,0,0,1,4.25,0,3,3,0,0,1-2.12,5.1A2.91,2.91,0,0,1,390.75,841.55Zm.05,13.53H395c.1,0,.13-.05.1-.15L393,847.81c0-.07,0-.1-.08-.09s-.05,0-.07.09l-2.11,7.12C390.68,855,390.72,855.08,390.8,855.08Zm2.92-14.8a1.13,1.13,0,0,0,.36-.85,1.19,1.19,0,0,0-.36-.88,1.17,1.17,0,0,0-.84-.34,1.2,1.2,0,0,0-1.22,1.22,1.13,1.13,0,0,0,.36.85,1.21,1.21,0,0,0,.86.35A1.18,1.18,0,0,0,393.72,840.28Z"></path><path d="M411.32,860.17l-3-6.65a.16.16,0,0,0-.15-.1h-2.23a.11.11,0,0,0-.12.12v6.55a.27.27,0,0,1-.29.29h-2.81a.3.3,0,0,1-.2-.08.28.28,0,0,1-.08-.21V843.87a.24.24,0,0,1,.08-.2.27.27,0,0,1,.2-.09h6.87a5.61,5.61,0,0,1,2.7.63,4.38,4.38,0,0,1,1.8,1.77,5.49,5.49,0,0,1,.63,2.67,4.76,4.76,0,0,1-.81,2.79,4.38,4.38,0,0,1-2.28,1.65c-.08,0-.11.08-.07.16l3.26,6.8a.39.39,0,0,1,.05.14c0,.13-.09.19-.27.19h-3A.33.33,0,0,1,411.32,860.17Zm-5.5-13.56v4.1a.11.11,0,0,0,.12.12h3.14a2.31,2.31,0,0,0,1.65-.6,2.06,2.06,0,0,0,.63-1.56,2.09,2.09,0,0,0-.63-1.57,2.27,2.27,0,0,0-1.65-.61h-3.14A.11.11,0,0,0,405.82,846.61Z"></path></g><g class="cls-2"><path d="M691.29,848.29a.27.27,0,0,1-.09-.2V831.86a.31.31,0,0,1,.29-.29h6a7.46,7.46,0,0,1,3.16.64,4.92,4.92,0,0,1,2.1,1.79,4.83,4.83,0,0,1,.74,2.66v6.63a4.86,4.86,0,0,1-.74,2.66,5,5,0,0,1-2.1,1.79,7.46,7.46,0,0,1-3.16.63h-6A.24.24,0,0,1,691.29,848.29Zm3.42-2.82h2.9a2.34,2.34,0,0,0,1.79-.74,2.93,2.93,0,0,0,.71-2v-5.52a2.82,2.82,0,0,0-.69-2,2.37,2.37,0,0,0-1.83-.74h-2.88a.11.11,0,0,0-.12.12v10.75A.11.11,0,0,0,694.71,845.47Z"></path><path d="M706.12,848.29a.26.26,0,0,1-.08-.2V831.86a.24.24,0,0,1,.08-.2.27.27,0,0,1,.2-.09h2.81a.29.29,0,0,1,.21.09.28.28,0,0,1,.08.2v16.23a.3.3,0,0,1-.08.2.28.28,0,0,1-.21.08h-2.81A.26.26,0,0,1,706.12,848.29Z"></path><path d="M723.93,834.39a.29.29,0,0,1-.21.09h-7.87a.11.11,0,0,0-.12.12v3.72a.11.11,0,0,0,.12.12H721a.27.27,0,0,1,.29.29v2.32a.27.27,0,0,1-.29.29h-5.16a.11.11,0,0,0-.12.12v3.89a.11.11,0,0,0,.12.12h7.87a.27.27,0,0,1,.29.29v2.33a.3.3,0,0,1-.08.2.28.28,0,0,1-.21.08H712.64a.28.28,0,0,1-.21-.08.3.3,0,0,1-.08-.2V831.86a.28.28,0,0,1,.08-.2.29.29,0,0,1,.21-.09h11.08a.29.29,0,0,1,.21.09.28.28,0,0,1,.08.2v2.33A.28.28,0,0,1,723.93,834.39Z"></path><path d="M728.76,848a4.9,4.9,0,0,1-2.22-1.75,4.57,4.57,0,0,1-.78-2.65V843a.31.31,0,0,1,.29-.29h2.74a.31.31,0,0,1,.29.29v.36A2,2,0,0,0,730,845a4,4,0,0,0,2.4.66,2.85,2.85,0,0,0,1.9-.54,1.67,1.67,0,0,0,.62-1.33,1.32,1.32,0,0,0-.38-1,3.32,3.32,0,0,0-1-.7c-.44-.2-1.14-.47-2.1-.83a20.1,20.1,0,0,1-2.73-1.12,5.49,5.49,0,0,1-1.87-1.58,4,4,0,0,1-.76-2.46,4.31,4.31,0,0,1,.75-2.52,4.65,4.65,0,0,1,2.06-1.65,7.48,7.48,0,0,1,3.05-.58,7.79,7.79,0,0,1,3.25.65,5.3,5.3,0,0,1,2.23,1.81,4.63,4.63,0,0,1,.81,2.7v.36a.29.29,0,0,1-.09.21.28.28,0,0,1-.2.08H735.1a.28.28,0,0,1-.2-.08.29.29,0,0,1-.09-.21v-.19A2.18,2.18,0,0,0,734,835a3.36,3.36,0,0,0-2.26-.7,2.89,2.89,0,0,0-1.77.48,1.57,1.57,0,0,0-.63,1.32,1.41,1.41,0,0,0,.37,1,3.2,3.2,0,0,0,1.1.74c.49.21,1.25.5,2.27.87s2,.79,2.68,1.11a5.41,5.41,0,0,1,1.75,1.42,3.78,3.78,0,0,1,.78,2.46,4.29,4.29,0,0,1-1.66,3.57,7.06,7.06,0,0,1-4.49,1.31A8.5,8.5,0,0,1,728.76,848Z"></path><path d="M752.22,834.39a.25.25,0,0,1-.2.09h-7.87a.11.11,0,0,0-.12.12v3.72a.11.11,0,0,0,.12.12h5.16a.28.28,0,0,1,.2.08.29.29,0,0,1,.09.21v2.32a.29.29,0,0,1-.09.21.28.28,0,0,1-.2.08h-5.16a.11.11,0,0,0-.12.12v3.89a.11.11,0,0,0,.12.12H752a.28.28,0,0,1,.2.08.29.29,0,0,1,.09.21v2.33a.27.27,0,0,1-.09.2.24.24,0,0,1-.2.08H740.93a.24.24,0,0,1-.2-.08.27.27,0,0,1-.09-.2V831.86a.31.31,0,0,1,.29-.29H752a.31.31,0,0,1,.29.29v2.33A.25.25,0,0,1,752.22,834.39Z"></path><path d="M754.74,848.29a.3.3,0,0,1-.08-.2V831.86a.28.28,0,0,1,.08-.2.29.29,0,0,1,.21-.09h2.8a.29.29,0,0,1,.21.09.28.28,0,0,1,.08.2v13.49a.11.11,0,0,0,.12.12H766a.28.28,0,0,1,.2.08.29.29,0,0,1,.09.21v2.33a.27.27,0,0,1-.09.2.24.24,0,0,1-.2.08H755A.28.28,0,0,1,754.74,848.29Z"></path><path d="M775.59,848a4.9,4.9,0,0,1-2.22-1.75,4.57,4.57,0,0,1-.78-2.65V843a.24.24,0,0,1,.08-.2.27.27,0,0,1,.21-.09h2.73a.31.31,0,0,1,.29.29v.36a1.94,1.94,0,0,0,.89,1.62,3.93,3.93,0,0,0,2.4.66,2.81,2.81,0,0,0,1.89-.54,1.68,1.68,0,0,0,.63-1.33,1.33,1.33,0,0,0-.39-1,3.21,3.21,0,0,0-1-.7c-.44-.2-1.14-.47-2.1-.83a19.92,19.92,0,0,1-2.72-1.12,5.52,5.52,0,0,1-1.88-1.58,4,4,0,0,1-.75-2.46,4.37,4.37,0,0,1,.74-2.52,4.71,4.71,0,0,1,2.06-1.65,7.48,7.48,0,0,1,3-.58,7.79,7.79,0,0,1,3.25.65,5.33,5.33,0,0,1,2.24,1.81,4.69,4.69,0,0,1,.8,2.7v.36a.27.27,0,0,1-.29.29h-2.76a.28.28,0,0,1-.2-.08.29.29,0,0,1-.09-.21v-.19a2.2,2.2,0,0,0-.82-1.72,3.41,3.41,0,0,0-2.27-.7,2.91,2.91,0,0,0-1.77.48,1.57,1.57,0,0,0-.63,1.32,1.41,1.41,0,0,0,.37,1,3.25,3.25,0,0,0,1.11.74c.48.21,1.24.5,2.26.87s2,.79,2.68,1.11a5.3,5.3,0,0,1,1.75,1.42,3.78,3.78,0,0,1,.78,2.46,4.29,4.29,0,0,1-1.66,3.57,7,7,0,0,1-4.48,1.31A8.5,8.5,0,0,1,775.59,848Z"></path><path d="M797.19,832.2a4.55,4.55,0,0,1,1.86,1.83,5.54,5.54,0,0,1,.66,2.73,5.07,5.07,0,0,1-.69,2.66,4.55,4.55,0,0,1-1.92,1.79,6.16,6.16,0,0,1-2.84.64h-3.41a.11.11,0,0,0-.12.12v6.12a.3.3,0,0,1-.08.2.28.28,0,0,1-.21.08h-2.81a.27.27,0,0,1-.28-.28V831.84a.28.28,0,0,1,.08-.21.3.3,0,0,1,.2-.08h6.77A5.81,5.81,0,0,1,797.19,832.2Zm-1.52,6.3a2.2,2.2,0,0,0,.68-1.67,2.25,2.25,0,0,0-.68-1.7,2.4,2.4,0,0,0-1.77-.65h-3a.11.11,0,0,0-.12.12V839a.11.11,0,0,0,.12.12h3A2.47,2.47,0,0,0,795.67,838.5Z"></path></g><g class="cls-2"><path d="M810.46,848.13l-.73-2.35c0-.06-.07-.09-.11-.09h-5.91a.14.14,0,0,0-.12.09l-.7,2.35a.29.29,0,0,1-.31.24h-3a.23.23,0,0,1-.25-.33l5.19-16.23a.3.3,0,0,1,.31-.24h3.77a.3.3,0,0,1,.31.24L814.05,848a.21.21,0,0,1,0,.12q0,.21-.27.21h-3A.29.29,0,0,1,810.46,848.13Zm-5.91-5.06h4.22c.1,0,.13-.05.1-.14l-2.16-7.13c0-.07,0-.09-.07-.09a.11.11,0,0,0-.07.09l-2.11,7.13C804.44,843,804.47,843.07,804.55,843.07Z"></path><path d="M825.07,848.16l-3-6.65a.16.16,0,0,0-.14-.1h-2.24a.11.11,0,0,0-.12.12v6.56a.27.27,0,0,1-.28.28h-2.81a.28.28,0,0,1-.21-.08.3.3,0,0,1-.08-.2V831.86a.28.28,0,0,1,.08-.2.29.29,0,0,1,.21-.09h6.86a5.55,5.55,0,0,1,2.7.63,4.33,4.33,0,0,1,1.8,1.77,5.38,5.38,0,0,1,.64,2.67,4.67,4.67,0,0,1-.82,2.79,4.3,4.3,0,0,1-2.28,1.65.12.12,0,0,0-.07.17l3.26,6.79a.26.26,0,0,1,0,.14c0,.13-.09.19-.26.19h-3A.34.34,0,0,1,825.07,848.16Zm-5.5-13.56v4.1a.11.11,0,0,0,.12.12h3.15a2.29,2.29,0,0,0,1.64-.6,2,2,0,0,0,.64-1.56,2.07,2.07,0,0,0-.64-1.57,2.25,2.25,0,0,0-1.64-.61h-3.15A.11.11,0,0,0,819.57,834.6Z"></path></g><g class="cls-2"><path d="M842.77,831.66a.28.28,0,0,1,.08.2v2.35a.27.27,0,0,1-.29.29h-4.29a.11.11,0,0,0-.12.12v13.47a.27.27,0,0,1-.09.2.24.24,0,0,1-.2.08h-2.81a.24.24,0,0,1-.2-.08.27.27,0,0,1-.09-.2V834.62a.11.11,0,0,0-.12-.12h-4.17a.27.27,0,0,1-.29-.29v-2.35a.28.28,0,0,1,.08-.2.29.29,0,0,1,.21-.09h12.09A.29.29,0,0,1,842.77,831.66Z"></path></g><g class="cls-2"><path d="M940.6,558.74l-.72-2.36q-.06-.09-.12-.09h-5.91a.14.14,0,0,0-.12.09l-.69,2.36a.31.31,0,0,1-.32.24h-3a.27.27,0,0,1-.22-.09.23.23,0,0,1,0-.25l5.18-16.22a.3.3,0,0,1,.31-.24h3.77a.3.3,0,0,1,.31.24l5.19,16.22a.37.37,0,0,1,0,.12c0,.14-.09.22-.26.22h-3.05A.29.29,0,0,1,940.6,558.74Zm-5.91-5.07h4.23c.09,0,.12,0,.09-.14l-2.16-7.13c0-.06,0-.09-.07-.08s-.06,0-.07.08l-2.11,7.13C934.58,553.62,934.61,553.67,934.69,553.67Z"></path><path d="M948.47,558.42a5.3,5.3,0,0,1-2.2-2.07,6,6,0,0,1-.78-3.09v-5.37a6.08,6.08,0,0,1,.78-3.1,5.24,5.24,0,0,1,2.2-2.07,7.58,7.58,0,0,1,6.49,0,5.47,5.47,0,0,1,2.18,2,5,5,0,0,1,.78,2.75v.17a.3.3,0,0,1-.08.2.28.28,0,0,1-.21.08h-2.8a.28.28,0,0,1-.21-.08.3.3,0,0,1-.08-.2v-.08a2.54,2.54,0,0,0-.77-1.86,2.79,2.79,0,0,0-2-.75,2.76,2.76,0,0,0-2.07.8,2.86,2.86,0,0,0-.78,2.1v5.57a2.82,2.82,0,0,0,.83,2.1,3,3,0,0,0,2.14.8,2.88,2.88,0,0,0,2-.66,2.31,2.31,0,0,0,.75-1.83v-1.08a.11.11,0,0,0-.12-.12h-2.69a.31.31,0,0,1-.29-.29v-2.21a.31.31,0,0,1,.29-.29h5.85a.29.29,0,0,1,.21.09.28.28,0,0,1,.08.2v3.17a6.3,6.3,0,0,1-.76,3.17,5.14,5.14,0,0,1-2.18,2.05,7.14,7.14,0,0,1-3.25.71A6.85,6.85,0,0,1,948.47,558.42Z"></path></g><g class="cls-2"><path d="M963.09,558.42a5.33,5.33,0,0,1-2.19-2.07,6,6,0,0,1-.78-3.09v-5.37a6.08,6.08,0,0,1,.78-3.1,5.27,5.27,0,0,1,2.19-2.07,7.6,7.6,0,0,1,6.5,0,5.53,5.53,0,0,1,2.18,2,5,5,0,0,1,.78,2.75v.17a.3.3,0,0,1-.08.2.28.28,0,0,1-.21.08h-2.81a.27.27,0,0,1-.28-.28v-.08a2.54,2.54,0,0,0-.77-1.86,3.13,3.13,0,0,0-4.12.05,2.9,2.9,0,0,0-.78,2.1v5.57a2.79,2.79,0,0,0,.84,2.1,2.94,2.94,0,0,0,2.14.8,2.9,2.9,0,0,0,2-.66,2.3,2.3,0,0,0,.74-1.83v-1.08a.11.11,0,0,0-.12-.12h-2.68a.29.29,0,0,1-.21-.09.28.28,0,0,1-.08-.2v-2.21a.28.28,0,0,1,.08-.2.29.29,0,0,1,.21-.09h5.85a.29.29,0,0,1,.21.09.28.28,0,0,1,.08.2v3.17a6.31,6.31,0,0,1-.77,3.17,5.06,5.06,0,0,1-2.17,2.05,7.17,7.17,0,0,1-3.25.71A6.92,6.92,0,0,1,963.09,558.42Z"></path><path d="M984,558.76l-3-6.65a.15.15,0,0,0-.14-.09h-2.23a.11.11,0,0,0-.12.12v6.55a.31.31,0,0,1-.29.29h-2.81a.31.31,0,0,1-.29-.29V542.46a.27.27,0,0,1,.09-.2.24.24,0,0,1,.2-.08h6.86a5.55,5.55,0,0,1,2.7.62,4.35,4.35,0,0,1,1.8,1.78,5.32,5.32,0,0,1,.64,2.66,4.72,4.72,0,0,1-.82,2.8,4.34,4.34,0,0,1-2.28,1.64.12.12,0,0,0-.07.17l3.27,6.79a.33.33,0,0,1,0,.14c0,.13-.08.2-.26.2h-2.95A.36.36,0,0,1,984,558.76Zm-5.49-13.56v4.1a.11.11,0,0,0,.12.12h3.14a2.29,2.29,0,0,0,1.64-.6,2,2,0,0,0,.64-1.56,2.07,2.07,0,0,0-.64-1.57,2.25,2.25,0,0,0-1.64-.61h-3.14A.11.11,0,0,0,978.53,545.2Z"></path><path d="M1001.46,545a.32.32,0,0,1-.21.08h-7.87a.11.11,0,0,0-.12.12v3.72a.11.11,0,0,0,.12.12h5.16a.27.27,0,0,1,.29.29v2.33a.3.3,0,0,1-.08.2.28.28,0,0,1-.21.08h-5.16a.11.11,0,0,0-.12.12V556a.11.11,0,0,0,.12.12h7.87a.29.29,0,0,1,.21.09.28.28,0,0,1,.08.2v2.33a.28.28,0,0,1-.08.2.29.29,0,0,1-.21.09H990.17a.29.29,0,0,1-.21-.09.28.28,0,0,1-.08-.2V542.46a.3.3,0,0,1,.08-.2.28.28,0,0,1,.21-.08h11.08a.28.28,0,0,1,.21.08.3.3,0,0,1,.08.2v2.33A.32.32,0,0,1,1001.46,545Z"></path><path d="M1006.53,558.42a5.33,5.33,0,0,1-2.19-2.07,6,6,0,0,1-.78-3.09v-5.37a6.08,6.08,0,0,1,.78-3.1,5.27,5.27,0,0,1,2.19-2.07,7.6,7.6,0,0,1,6.5,0,5.53,5.53,0,0,1,2.18,2,5,5,0,0,1,.78,2.75v.17a.3.3,0,0,1-.08.2.28.28,0,0,1-.21.08h-2.81a.27.27,0,0,1-.28-.28v-.08a2.54,2.54,0,0,0-.77-1.86,3.13,3.13,0,0,0-4.12.05,2.9,2.9,0,0,0-.78,2.1v5.57a2.79,2.79,0,0,0,.84,2.1,2.94,2.94,0,0,0,2.14.8,2.9,2.9,0,0,0,2-.66,2.3,2.3,0,0,0,.74-1.83v-1.08a.11.11,0,0,0-.12-.12h-2.68a.29.29,0,0,1-.21-.09.28.28,0,0,1-.08-.2v-2.21a.28.28,0,0,1,.08-.2.29.29,0,0,1,.21-.09h5.85a.29.29,0,0,1,.21.09.28.28,0,0,1,.08.2v3.17a6.31,6.31,0,0,1-.77,3.17,5.06,5.06,0,0,1-2.17,2.05,7.17,7.17,0,0,1-3.25.71A6.92,6.92,0,0,1,1006.53,558.42Z"></path></g><g class="cls-2"><path d="M1028,558.74l-.72-2.36a.14.14,0,0,0-.12-.09h-5.9a.14.14,0,0,0-.12.09l-.7,2.36a.3.3,0,0,1-.31.24h-3a.27.27,0,0,1-.22-.09.29.29,0,0,1,0-.25l5.18-16.22a.31.31,0,0,1,.32-.24h3.76a.31.31,0,0,1,.32.24l5.18,16.22a.37.37,0,0,1,0,.12c0,.14-.09.22-.26.22h-3A.3.3,0,0,1,1028,558.74Zm-5.9-5.07h4.22c.1,0,.13,0,.1-.14l-2.16-7.13c0-.06,0-.09-.08-.08s0,0-.07.08l-2.11,7.13C1022,553.62,1022,553.67,1022.11,553.67Z"></path><path d="M1042.49,542.26a.27.27,0,0,1,.09.2v2.36a.27.27,0,0,1-.09.2.24.24,0,0,1-.2.08H1038a.11.11,0,0,0-.12.12v13.47a.28.28,0,0,1-.08.2.27.27,0,0,1-.21.09h-2.8a.29.29,0,0,1-.21-.09.28.28,0,0,1-.08-.2V545.22a.11.11,0,0,0-.12-.12h-4.18a.24.24,0,0,1-.2-.08.26.26,0,0,1-.08-.2v-2.36a.26.26,0,0,1,.08-.2.24.24,0,0,1,.2-.08h12.1A.24.24,0,0,1,1042.49,542.26Z"></path></g><path class="cls-3" d="M284.6,435.4h79.1m-15.4,16.4,14.6-14.6a2.66,2.66,0,0,0,0-3.7L348.3,419m457.9,16.4H727.1m15.4,16.4-14.6-14.6a2.66,2.66,0,0,1,0-3.7L742.5,419"></path><path class="cls-4" d="M621.9,382.8h-7.7a8,8,0,1,0-16,0H583.7m38.6,13.4h15.9"></path><line class="cls-5" x1="628.6" y1="493" x2="638.2" y2="493"></line><path class="cls-6" d="M512.3,414.2h70.5m-35.3-33.3-76.2,38.5,5.9,12.1,70.4-35.1,70.5,35.2,5.9-12.1-76.5-38.6Z"></path><line class="cls-5" x1="542.9" y1="455.5" x2="542.9" y2="466.3"></line><path class="cls-6" d="M487.7,429.3H521m-33.2,47h33.1m-33.1-15.7h33.1M487.8,445h33.1m43.3,31.3h42.7m-42.7-15.7h42.7M564.2,445h42.7m.2-19.7v66.2M487.6,425.3v58.2"></path><path class="cls-5" d="M474.2,493h56.9V428.2h75.7M620.9,493H564V428.6"></path><path class="cls-4" d="M1068.6,477.2H878.3v-105h190.3v105Zm0-89.2,26.4,13.6v46.2l-26.4,13.6m-16.3,15.8v9.3a6.72,6.72,0,0,1-6.7,6.8H899.2a6.79,6.79,0,0,1-6.7-6.8v-9.3M1051.8,394l-9.6,21.8-5.9-11.1L1025.7,426"></path><path class="cls-7" d="M898.1,436.2h25m-25,14.7h25m-25,14.2h25m19.2-28.9h25m-25,14.7h25m-25,14.2h25m18.5-28.9h25m-25,14.7h25m-25,14.2h25"></path><path class="cls-4" d="M947.6,356.7H903V340.5h44.7v16.2Zm-37,0v14.4M940,356.7v14.4"></path><path class="cls-7" d="M753.4,671.4h60a12.82,12.82,0,0,1,12.8,12.8V783a12.82,12.82,0,0,1-12.8,12.8H732.2A12.82,12.82,0,0,1,719.4,783V705.2l34-33.8Z"></path><path class="cls-4" d="M771.3,734.6h24.3v32.2H749.9V734.6H759m-9.1,32.2L735,779.2m0-57.1,14.9,12.4m45.8,32.3,14.9,12.4m-.1-57.1-14.9,12.4m-29.8-50.6h39v12.8H752.7l13.1-12.8Z"></path><path class="cls-6" d="M713.2,689.7l-5.2-5.2a3.14,3.14,0,0,1,0-4.4l19.4-19.4a3.14,3.14,0,0,1,4.4,0l5.2,5.2-23.8,23.8Z"></path><path class="cls-7" d="M717.2,686.3l5.3,5.3m11.2-21.9L739,675"></path><path class="cls-4" d="M280.2,705.4l11.9,4.9m15.3-32.1,5,12.1m-11.9,8.2-20.2-20.1m92.8,27-11.9,4.9m-15.3-32.1-5,12.1m11.9,8.2L373,678.4m-92.8,65.3,11.9-4.9m15.3,32.1,5-12.1m-11.9-8.2-20.2,20.1m92.8-27-11.9-4.9m-15.3,32.1-5-12.1m11.9-8.2L373,770.7m-56.6-70.8a26.72,26.72,0,1,0,34.9,14.5,26.79,26.79,0,0,0-34.9-14.5Zm10.2-12.3V659.2m0,130.9V761.7m37.1-37.1h28.4m-130.9,0h28.4"></path><path class="cls-8" d="M529.4,16.4a5.78,5.78,0,0,1,5.7-5.8h23a5.72,5.72,0,0,1,5.7,5.8V29m-14.7,1.1h24.3a14.38,14.38,0,0,1,14.3,14.4v121a14.38,14.38,0,0,1-14.3,14.4H519.8a14.38,14.38,0,0,1-14.3-14.4V44.5a14.45,14.45,0,0,1,14.3-14.4h9.6M534,57.2h25.3m-12.7-12v24M534,152h25.3"></path><path class="cls-3" d="M546.6,348.6V283.7M563,299l-14.6-14.6a2.66,2.66,0,0,0-3.7,0L530.2,299m16.4-15.3v64.9M563,333.2l-14.6,14.6a2.66,2.66,0,0,1-3.7,0l-14.5-14.6"></path><path class="cls-4" d="M103.9,478l22-35.7H82L60,478m87.7-71.3-21.8,35.5h47.7m-135.4.1H82l21.8-35.5m98.9,15.3-43.8,71.3H23.3m8.5-134.6-6.5-6.9m26.8,39.7a13.45,13.45,0,0,0,9.7-4,13,13,0,0,0,3.8-9.6,14.13,14.13,0,0,0-3.8-9.4,13.87,13.87,0,0,0-9.7-4,12.73,12.73,0,0,0-9.3,4A14.13,14.13,0,0,0,39,378a13.36,13.36,0,0,0,3.8,9.6,12.73,12.73,0,0,0,9.3,4Zm-1.3-39.7V340.5m-28.7,39H10.6m21.2,20.4-6.5,6.9m53.9-27.3H90.7M69.5,358.8l6.5-6.9M60,406.7,16.2,478H151.7l43.8-71.3Z"></path></svg> 