<?xml version="1.0" encoding="UTF-8"?> <!-- Generator: Adobe Illustrator 25.4.1, SVG Export Plug-In . SVG Version: 6.00 Build 0) --> <svg xmlns="http://www.w3.org/2000/svg" xmlns:xlink="http://www.w3.org/1999/xlink" version="1.1" id="Layer_1" x="0px" y="0px" viewBox="0 0 1590.3 642.3" style="enable-background:new 0 0 1590.3 642.3;" xml:space="preserve"> <style type="text/css"> .st0{fill:none;stroke:#000000;stroke-width:3;stroke-linejoin:round;stroke-miterlimit:10;} .st1{fill:none;stroke:#000000;stroke-width:3;stroke-linecap:round;stroke-linejoin:round;stroke-miterlimit:10;} .st2{fill:none;stroke:#000000;stroke-width:3;stroke-linecap:square;stroke-linejoin:round;stroke-miterlimit:10;} .st3{fill:none;stroke:#000000;stroke-width:3;stroke-linecap:round;stroke-miterlimit:10;} .st4{fill:none;stroke:#000000;stroke-width:3;stroke-linecap:round;stroke-linejoin:round;} .st5{enable-background:new ;} .st6{fill:none;stroke:#FECC07;stroke-width:3;stroke-linecap:round;} .st7{fill:none;stroke:#000000;stroke-width:3;stroke-linecap:square;stroke-miterlimit:10;} </style> <g> <g> <g> <path class="st0" d="M1537.3,40.3v76.8L1558,179l-44.7-40.4 M1505.2,131.6l-15.3-14"></path> </g> <g> <path class="st1" d="M1476.1,46.4l-26.8,12.7h127.6l-39.8-18.8H1504 M1476.3,97.6l-38.7,16.5h151.2l-51.6-21.4h-48"></path> </g> <g> <path class="st0" d="M1537.1,59.1l-48,33.6 M1513.2,75.9l24,16.8 M1489.1,59.1l15.4,10.7"></path> </g> <g> <path class="st1" d="M1445.6,126.6v7.9 M1580.6,126.6v7.9 M1570,71.6v7.9 M1456.2,71.6v7.9"></path> </g> <g> <polyline class="st0" points="1537.3,40.3 1520.9,9.4 1505.3,9.4 1488.9,40.3 1489,117.1 1468.3,179.1 1536.5,117.6 "></polyline> </g> <g> <g> <g> <path class="st0" d="M485.3,162.7v16.5h-14.2v-8 M443.1,162.7v16.5H429v-8 M508.8,2.1c4.3,0,7.8,3.5,7.8,7.8v144 c0,4.3-3.5,7.8-7.8,7.8H405.3c-4.3,0-7.8-3.5-7.8-7.8V9.9c0-4.3,3.5-7.8,7.8-7.8L508.8,2.1L508.8,2.1z"></path> </g> </g> </g> <g> <polyline class="st1" points="421.5,94.9 492.7,94.9 492.7,143.1 421.5,143.1 421.5,108.5 "></polyline> </g> <g> <rect x="436.5" y="107.1" class="st0" width="41.2" height="12.8"></rect> </g> <g> <path class="st2" d="M454.6,131.6h4.9 M472.8,131.6h4.9 M436.5,131.6h4.9"></path> </g> <g> <g> <g> <path class="st3" d="M1181,163.1h7.5 M1157.4,163.1h7.5 M1133.7,163.1h7.5 M1172.9,97.6l-23.7,24.9 M1142.4,83.1 c5.3-3.7,11.7-5.8,18.7-5.8c18.1,0,32.8,14.7,32.8,32.8s-14.7,32.8-32.8,32.8c-18.1,0-32.8-14.7-32.8-32.8 c0-5.2,1.2-10.1,3.3-14.4 M1179.6,31.4v12.9 M1165.5,31.4v12.9 M1196.4,55.8h-70.7V20h70.7V55.8z M1214.3,179.2H1108V2.1h106.3 V179.2z"></path> </g> </g> </g> <g> <path class="st1" d="M882,505.1V574 M737.3,505.1v70.8 M710.1,501.8l99.6-66.4l99.5,66.4"></path> </g> <g> <polyline class="st0" points="738.3,483.1 738.3,441.2 760.8,441.2 760.8,469 "></polyline> </g> <g> <line class="st3" x1="924.2" y1="575.9" x2="937.9" y2="575.9"></line> </g> <g> <line class="st1" x1="710.1" y1="575.9" x2="909.2" y2="575.9"></line> </g> <g> <g> <g> <path class="st4" d="M917.5,453.3h20.4 M917.1,435.8h-9.9c0-5.8-4.6-10.5-10.2-10.5s-10.2,4.7-10.2,10.5h-18.5"></path> </g> </g> </g> <g> <g> <g class="st5"> <path d="M86.4,244.8c-1-0.4-1.7-1-2.2-1.8s-0.8-1.6-0.8-2.7v-0.5c0-0.1,0-0.1,0.1-0.2s0.1-0.1,0.2-0.1h2.7c0.1,0,0.1,0,0.2,0.1 c0.1,0.1,0.1,0.1,0.1,0.2v0.4c0,0.6,0.3,1.2,0.9,1.6c0.6,0.4,1.4,0.7,2.4,0.7c0.8,0,1.5-0.2,1.9-0.5s0.6-0.8,0.6-1.3 c0-0.4-0.1-0.7-0.4-1c-0.3-0.3-0.6-0.5-1-0.7s-1.1-0.5-2.1-0.8c-1.1-0.4-2-0.7-2.7-1.1s-1.4-0.9-1.9-1.6s-0.8-1.5-0.8-2.5 s0.2-1.8,0.7-2.5s1.2-1.3,2.1-1.7c0.9-0.4,1.9-0.6,3-0.6c1.2,0,2.3,0.2,3.3,0.6s1.7,1,2.2,1.8s0.8,1.7,0.8,2.7v0.4 c0,0.1,0,0.1-0.1,0.2s-0.1,0.1-0.2,0.1h-2.8c-0.1,0-0.1,0-0.2-0.1c-0.1-0.1-0.1-0.1-0.1-0.2v-0.2c0-0.7-0.3-1.2-0.8-1.7 c-0.6-0.5-1.3-0.7-2.3-0.7c-0.8,0-1.3,0.2-1.8,0.5c-0.4,0.3-0.6,0.8-0.6,1.3c0,0.4,0.1,0.7,0.4,1c0.2,0.3,0.6,0.5,1.1,0.7 s1.2,0.5,2.3,0.9s2,0.8,2.7,1.1c0.6,0.3,1.2,0.8,1.8,1.4s0.8,1.5,0.8,2.5c0,1.5-0.6,2.7-1.7,3.6s-2.6,1.3-4.5,1.3 C88.5,245.4,87.3,245.2,86.4,244.8z"></path> <path d="M101.1,244.7c-0.9-0.5-1.7-1.2-2.2-2c-0.5-0.9-0.8-1.9-0.8-3v-10.9c0-0.1,0-0.1,0.1-0.2s0.1-0.1,0.2-0.1h2.8 c0.1,0,0.1,0,0.2,0.1c0.1,0.1,0.1,0.1,0.1,0.2v11c0,0.8,0.3,1.5,0.8,2.1c0.5,0.5,1.2,0.8,2.1,0.8c0.8,0,1.5-0.3,2.1-0.8 c0.5-0.5,0.8-1.2,0.8-2.1v-11c0-0.1,0-0.1,0.1-0.2s0.1-0.1,0.2-0.1h2.8c0.1,0,0.1,0,0.2,0.1s0.1,0.1,0.1,0.2v10.9 c0,1.1-0.3,2.1-0.8,3s-1.2,1.5-2.2,2c-0.9,0.5-2,0.7-3.3,0.7C103.1,245.4,102,245.2,101.1,244.7z"></path> </g> <g class="st5"> <path d="M122.9,228.5c0.1-0.1,0.1-0.1,0.2-0.1h2.8c0.1,0,0.1,0,0.2,0.1s0.1,0.1,0.1,0.2v16.2c0,0.1,0,0.1-0.1,0.2 s-0.1,0.1-0.2,0.1h-2.7c-0.2,0-0.3-0.1-0.3-0.2l-6.2-10.3l-0.1-0.1c0,0,0,0,0,0.1v10.1c0,0.1,0,0.1-0.1,0.2s-0.1,0.1-0.2,0.1 h-2.8c-0.1,0-0.1,0-0.2-0.1s-0.1-0.1-0.1-0.2v-16.2c0-0.1,0-0.1,0.1-0.2s0.1-0.1,0.2-0.1h2.7c0.2,0,0.3,0.1,0.3,0.2l6.2,10.2 l0.1,0.1c0,0,0,0,0-0.1v-10.1C122.8,228.6,122.9,228.6,122.9,228.5z"></path> </g> </g> </g> <g> <g> <g class="st5"> <path d="M404.5,245.2c-0.1-0.1-0.1-0.1-0.1-0.2v-16.2c0-0.1,0-0.1,0.1-0.2s0.1-0.1,0.2-0.1h2.8c0.1,0,0.1,0,0.2,0.1 c0.1,0.1,0.1,0.1,0.1,0.2V245c0,0.1,0,0.1-0.1,0.2s-0.1,0.1-0.2,0.1h-2.8C404.6,245.2,404.5,245.2,404.5,245.2z"></path> </g> <g class="st5"> <path d="M420.3,228.5c0.1-0.1,0.1-0.1,0.2-0.1h2.8c0.1,0,0.1,0,0.2,0.1c0.1,0.1,0.1,0.1,0.1,0.2v16.2c0,0.1,0,0.1-0.1,0.2 s-0.1,0.1-0.2,0.1h-2.7c-0.2,0-0.3-0.1-0.3-0.2l-6.2-10.3l-0.1-0.1c0,0,0,0,0,0.1v10.1c0,0.1,0,0.1-0.1,0.2s-0.1,0.1-0.2,0.1 h-2.8c-0.1,0-0.1,0-0.2-0.1c-0.1-0.1-0.1-0.1-0.1-0.2v-16.2c0-0.1,0-0.1,0.1-0.2s0.1-0.1,0.2-0.1h2.7c0.2,0,0.3,0.1,0.3,0.2 l6.2,10.2l0.1,0.1c0,0,0,0,0-0.1v-10.1C420.2,228.6,420.3,228.6,420.3,228.5z"></path> <path d="M430.7,245l-4.9-16.2v-0.1c0-0.2,0.1-0.2,0.3-0.2h3c0.2,0,0.3,0.1,0.3,0.2l3.2,11.7c0,0,0,0.1,0.1,0.1 c0,0,0.1,0,0.1-0.1l3.1-11.7c0-0.2,0.2-0.2,0.3-0.2h3c0.1,0,0.2,0,0.2,0.1s0.1,0.1,0,0.2l-5,16.2c0,0.2-0.2,0.2-0.3,0.2h-3 C430.9,245.2,430.7,245.2,430.7,245z"></path> </g> <g class="st5"> <path d="M453.1,231.3c-0.1,0.1-0.1,0.1-0.2,0.1H445c-0.1,0-0.1,0-0.1,0.1v3.7c0,0.1,0,0.1,0.1,0.1h5.2c0.1,0,0.1,0,0.2,0.1 c0.1,0.1,0.1,0.1,0.1,0.2v2.3c0,0.1,0,0.1-0.1,0.2s-0.1,0.1-0.2,0.1H445c-0.1,0-0.1,0-0.1,0.1v3.9c0,0.1,0,0.1,0.1,0.1h7.9 c0.1,0,0.1,0,0.2,0.1c0.1,0.1,0.1,0.1,0.1,0.2v2.3c0,0.1,0,0.1-0.1,0.2s-0.1,0.1-0.2,0.1h-11.1c-0.1,0-0.1,0-0.2-0.1 c-0.1-0.1-0.1-0.1-0.1-0.2v-16.2c0-0.1,0-0.1,0.1-0.2s0.1-0.1,0.2-0.1h11.1c0.1,0,0.1,0,0.2,0.1s0.1,0.1,0.1,0.2v2.3 C453.2,231.1,453.1,231.2,453.1,231.3z"></path> </g> <g class="st5"> <path d="M464.3,245l-3-6.6c0-0.1-0.1-0.1-0.1-0.1H459c-0.1,0-0.1,0-0.1,0.1v6.6c0,0.1,0,0.1-0.1,0.2s-0.1,0.1-0.2,0.1h-2.8 c-0.1,0-0.1,0-0.2-0.1c-0.1-0.1-0.1-0.1-0.1-0.2v-16.2c0-0.1,0-0.1,0.1-0.2s0.1-0.1,0.2-0.1h6.9c1,0,1.9,0.2,2.7,0.6 s1.4,1,1.8,1.8c0.4,0.8,0.6,1.7,0.6,2.7c0,1.1-0.3,2-0.8,2.8s-1.3,1.3-2.3,1.6c-0.1,0-0.1,0.1-0.1,0.2l3.3,6.8 c0,0.1,0,0.1,0,0.1c0,0.1-0.1,0.2-0.3,0.2h-3C464.4,245.2,464.3,245.2,464.3,245z M458.8,231.5v4.1c0,0.1,0,0.1,0.1,0.1h3.1 c0.7,0,1.2-0.2,1.6-0.6c0.4-0.4,0.6-0.9,0.6-1.6s-0.2-1.2-0.6-1.6s-1-0.6-1.6-0.6h-3.1C458.8,231.3,458.8,231.4,458.8,231.5z"></path> </g> <g class="st5"> <path d="M482,228.5c0.1,0.1,0.1,0.1,0.1,0.2v2.4c0,0.1,0,0.1-0.1,0.2s-0.1,0.1-0.2,0.1h-4.3c-0.1,0-0.1,0-0.1,0.1V245 c0,0.1,0,0.1-0.1,0.2s-0.1,0.1-0.2,0.1h-2.8c-0.1,0-0.1,0-0.2-0.1c-0.1-0.1-0.1-0.1-0.1-0.2v-13.5c0-0.1,0-0.1-0.1-0.1h-4.2 c-0.1,0-0.1,0-0.2-0.1c-0.1-0.1-0.1-0.1-0.1-0.2v-2.4c0-0.1,0-0.1,0.1-0.2s0.1-0.1,0.2-0.1h12.1 C481.9,228.4,481.9,228.5,482,228.5z"></path> </g> <g class="st5"> <path d="M495.8,231.3c-0.1,0.1-0.1,0.1-0.2,0.1h-7.9c-0.1,0-0.1,0-0.1,0.1v3.7c0,0.1,0,0.1,0.1,0.1h5.2c0.1,0,0.1,0,0.2,0.1 c0.1,0.1,0.1,0.1,0.1,0.2v2.3c0,0.1,0,0.1-0.1,0.2s-0.1,0.1-0.2,0.1h-5.2c-0.1,0-0.1,0-0.1,0.1v3.9c0,0.1,0,0.1,0.1,0.1h7.9 c0.1,0,0.1,0,0.2,0.1c0.1,0.1,0.1,0.1,0.1,0.2v2.3c0,0.1,0,0.1-0.1,0.2s-0.1,0.1-0.2,0.1h-11.1c-0.1,0-0.1,0-0.2-0.1 c-0.1-0.1-0.1-0.1-0.1-0.2v-16.2c0-0.1,0-0.1,0.1-0.2s0.1-0.1,0.2-0.1h11.1c0.1,0,0.1,0,0.2,0.1s0.1,0.1,0.1,0.2v2.3 C495.9,231.1,495.8,231.2,495.8,231.3z"></path> </g> <g class="st5"> <path d="M507,245l-3-6.6c0-0.1-0.1-0.1-0.1-0.1h-2.2c-0.1,0-0.1,0-0.1,0.1v6.6c0,0.1,0,0.1-0.1,0.2s-0.1,0.1-0.2,0.1h-2.8 c-0.1,0-0.1,0-0.2-0.1c-0.1-0.1-0.1-0.1-0.1-0.2v-16.2c0-0.1,0-0.1,0.1-0.2s0.1-0.1,0.2-0.1h6.9c1,0,1.9,0.2,2.7,0.6 s1.4,1,1.8,1.8c0.4,0.8,0.6,1.7,0.6,2.7c0,1.1-0.3,2-0.8,2.8s-1.3,1.3-2.3,1.6c-0.1,0-0.1,0.1-0.1,0.2l3.3,6.8 c0,0.1,0,0.1,0,0.1c0,0.1-0.1,0.2-0.3,0.2h-3C507.1,245.2,507,245.2,507,245z M501.5,231.5v4.1c0,0.1,0,0.1,0.1,0.1h3.1 c0.7,0,1.2-0.2,1.6-0.6c0.4-0.4,0.6-0.9,0.6-1.6s-0.2-1.2-0.6-1.6s-1-0.6-1.6-0.6h-3.1C501.5,231.3,501.5,231.4,501.5,231.5z"></path> </g> </g> </g> <g> <g> <g class="st5"> <path d="M769.3,231.3c-0.1,0.1-0.1,0.1-0.2,0.1h-7.8c-0.1,0-0.1,0-0.1,0.1v3.7c0,0.1,0,0.1,0.1,0.1h5.2c0.1,0,0.1,0,0.2,0.1 c0.1,0.1,0.1,0.1,0.1,0.2v2.3c0,0.1,0,0.1-0.1,0.2s-0.1,0.1-0.2,0.1h-5.2c-0.1,0-0.1,0-0.1,0.1v6.6c0,0.1,0,0.1-0.1,0.2 s-0.1,0.1-0.2,0.1h-2.8c-0.1,0-0.1,0-0.2-0.1c-0.1-0.1-0.1-0.1-0.1-0.2v-16.2c0-0.1,0-0.1,0.1-0.2s0.1-0.1,0.2-0.1h11 c0.1,0,0.1,0,0.2,0.1c0.1,0.1,0.1,0.1,0.1,0.2v2.3C769.4,231.1,769.4,231.2,769.3,231.3z"></path> </g> <g class="st5"> <path d="M774.2,244.7c-0.9-0.5-1.7-1.2-2.2-2c-0.5-0.9-0.8-1.9-0.8-3v-10.9c0-0.1,0-0.1,0.1-0.2s0.1-0.1,0.2-0.1h2.8 c0.1,0,0.1,0,0.2,0.1c0.1,0.1,0.1,0.1,0.1,0.2v11c0,0.8,0.3,1.5,0.8,2.1c0.5,0.5,1.2,0.8,2.1,0.8c0.8,0,1.5-0.3,2.1-0.8 c0.5-0.5,0.8-1.2,0.8-2.1v-11c0-0.1,0-0.1,0.1-0.2s0.1-0.1,0.2-0.1h2.8c0.1,0,0.1,0,0.2,0.1s0.1,0.1,0.1,0.2v10.9 c0,1.1-0.3,2.1-0.8,3s-1.2,1.5-2.2,2c-0.9,0.5-2,0.7-3.3,0.7C776.2,245.4,775.1,245.2,774.2,244.7z"></path> </g> <g class="st5"> <path d="M788.9,244.8c-1-0.4-1.7-1-2.2-1.8s-0.8-1.6-0.8-2.7v-0.5c0-0.1,0-0.1,0.1-0.2s0.1-0.1,0.2-0.1h2.7 c0.1,0,0.1,0,0.2,0.1c0.1,0.1,0.1,0.1,0.1,0.2v0.4c0,0.6,0.3,1.2,0.9,1.6c0.6,0.4,1.4,0.7,2.4,0.7c0.8,0,1.5-0.2,1.9-0.5 s0.6-0.8,0.6-1.3c0-0.4-0.1-0.7-0.4-1c-0.3-0.3-0.6-0.5-1-0.7s-1.1-0.5-2.1-0.8c-1.1-0.4-2-0.7-2.7-1.1s-1.4-0.9-1.9-1.6 s-0.8-1.5-0.8-2.5s0.2-1.8,0.7-2.5s1.2-1.3,2.1-1.7c0.9-0.4,1.9-0.6,3-0.6c1.2,0,2.3,0.2,3.3,0.6s1.7,1,2.2,1.8 s0.8,1.7,0.8,2.7v0.4c0,0.1,0,0.1-0.1,0.2s-0.1,0.1-0.2,0.1h-2.8c-0.1,0-0.1,0-0.2-0.1c-0.1-0.1-0.1-0.1-0.1-0.2v-0.2 c0-0.7-0.3-1.2-0.8-1.7c-0.6-0.5-1.3-0.7-2.3-0.7c-0.8,0-1.3,0.2-1.8,0.5c-0.4,0.3-0.6,0.8-0.6,1.3c0,0.4,0.1,0.7,0.4,1 c0.2,0.3,0.6,0.5,1.1,0.7s1.2,0.5,2.3,0.9s2,0.8,2.7,1.1c0.6,0.3,1.2,0.8,1.8,1.4s0.8,1.5,0.8,2.5c0,1.5-0.6,2.7-1.7,3.6 s-2.6,1.3-4.5,1.3C790.9,245.4,789.8,245.2,788.9,244.8z"></path> </g> <g class="st5"> <path d="M812.1,231.3c-0.1,0.1-0.1,0.1-0.2,0.1h-7.8c-0.1,0-0.1,0-0.1,0.1v3.7c0,0.1,0,0.1,0.1,0.1h5.2c0.1,0,0.1,0,0.2,0.1 c0.1,0.1,0.1,0.1,0.1,0.2v2.3c0,0.1,0,0.1-0.1,0.2s-0.1,0.1-0.2,0.1h-5.2c-0.1,0-0.1,0-0.1,0.1v3.9c0,0.1,0,0.1,0.1,0.1h7.9 c0.1,0,0.1,0,0.2,0.1c0.1,0.1,0.1,0.1,0.1,0.2v2.3c0,0.1,0,0.1-0.1,0.2s-0.1,0.1-0.2,0.1h-11.1c-0.1,0-0.1,0-0.2-0.1 c-0.1-0.1-0.1-0.1-0.1-0.2v-16.2c0-0.1,0-0.1,0.1-0.2s0.1-0.1,0.2-0.1H812c0.1,0,0.1,0,0.2,0.1c0.1,0.1,0.1,0.1,0.1,0.2v2.3 C812.2,231.1,812.2,231.2,812.1,231.3z"></path> </g> <g class="st5"> <path d="M829.4,236.6c1.5,0.8,2.3,2.1,2.3,3.9c0,1.6-0.5,2.7-1.6,3.5s-2.4,1.2-4.2,1.2h-6.2c-0.1,0-0.1,0-0.2-0.1 c-0.1-0.1-0.1-0.1-0.1-0.2v-16.2c0-0.1,0-0.1,0.1-0.2s0.1-0.1,0.2-0.1h6c3.8,0,5.7,1.5,5.7,4.6c0,1.6-0.7,2.7-2,3.4 C829.3,236.5,829.3,236.6,829.4,236.6z M822.9,231.5v3.7c0,0.1,0,0.1,0.1,0.1h2.8c0.8,0,1.3-0.2,1.8-0.5 c0.4-0.4,0.6-0.8,0.6-1.4s-0.2-1.1-0.6-1.5c-0.4-0.4-1-0.5-1.8-0.5L822.9,231.5C822.9,231.3,822.9,231.4,822.9,231.5z M827.7,241.7c0.4-0.4,0.6-0.9,0.6-1.5s-0.2-1.2-0.6-1.5s-1-0.6-1.8-0.6h-3c-0.1,0-0.1,0-0.1,0.1v4c0,0.1,0,0.1,0.1,0.1h3 C826.7,242.3,827.3,242.1,827.7,241.7z"></path> </g> <g class="st5"> <path d="M836.8,244.7c-1-0.5-1.7-1.2-2.2-2.1s-0.8-2-0.8-3.2v-5.1c0-1.2,0.3-2.2,0.8-3.1s1.3-1.6,2.2-2.1s2.1-0.8,3.3-0.8 c1.3,0,2.4,0.3,3.3,0.8s1.7,1.2,2.2,2.1s0.8,2,0.8,3.1v5.1c0,1.2-0.3,2.3-0.8,3.2c-0.5,0.9-1.3,1.6-2.2,2.1s-2.1,0.8-3.3,0.8 S837.8,245.2,836.8,244.7z M842.3,241.8c0.5-0.6,0.8-1.3,0.8-2.2v-5.3c0-0.9-0.3-1.7-0.8-2.2c-0.5-0.6-1.3-0.9-2.1-0.9 c-0.9,0-1.6,0.3-2.1,0.9s-0.8,1.3-0.8,2.2v5.3c0,0.9,0.3,1.7,0.8,2.2c0.5,0.6,1.2,0.8,2.1,0.8S841.7,242.3,842.3,241.8z"></path> </g> <g class="st5"> <path d="M847.5,245.1c0-0.1,0-0.1,0-0.2l4.7-8v-0.1l-4.7-8v-0.1c0-0.1,0.1-0.2,0.3-0.2h3c0.2,0,0.3,0.1,0.4,0.2l3.1,5.5 c0,0.1,0.1,0.1,0.1,0l3.1-5.5c0.1-0.1,0.2-0.2,0.4-0.2h3c0.1,0,0.2,0,0.2,0.1s0,0.1,0,0.2l-4.7,8v0.1l4.7,8v0.1 c0,0.1-0.1,0.2-0.3,0.2h-3c-0.2,0-0.3-0.1-0.4-0.2l-3.1-5.5c0-0.1-0.1-0.1-0.1,0l-3.1,5.5c-0.1,0.1-0.2,0.2-0.4,0.2h-3 C847.7,245.2,847.6,245.2,847.5,245.1z"></path> </g> </g> </g> <g> <g> <g class="st5"> <path d="M753.1,641.4c-0.9-0.5-1.7-1.2-2.2-2.1c-0.5-0.9-0.8-1.9-0.8-3v-5.5c0-1.2,0.3-2.2,0.8-3c0.5-0.9,1.2-1.6,2.2-2 c0.9-0.5,2-0.7,3.3-0.7c1.2,0,2.3,0.2,3.3,0.7s1.7,1.1,2.2,1.9c0.5,0.8,0.8,1.8,0.8,2.9c0,0.1-0.1,0.2-0.3,0.3l-2.8,0.2l0,0 c-0.2,0-0.2-0.1-0.2-0.3c0-0.8-0.3-1.5-0.8-2s-1.2-0.8-2.1-0.8c-0.9,0-1.6,0.3-2.1,0.8s-0.8,1.2-0.8,2v5.8c0,0.8,0.3,1.5,0.8,2 s1.2,0.8,2.1,0.8c0.8,0,1.5-0.3,2.1-0.8c0.5-0.5,0.8-1.2,0.8-2c0-0.2,0.1-0.3,0.3-0.3l2.8,0.1c0.1,0,0.1,0,0.2,0.1 c0.1,0,0.1,0.1,0.1,0.2c0,1.1-0.3,2.1-0.8,2.9c-0.5,0.8-1.2,1.5-2.2,2s-2,0.7-3.3,0.7C755.2,642.1,754.1,641.9,753.1,641.4z"></path> </g> <g class="st5"> <path d="M767.8,641.4c-1-0.5-1.7-1.2-2.2-2.1c-0.5-0.9-0.8-2-0.8-3.2V631c0-1.2,0.3-2.2,0.8-3.1c0.5-0.9,1.3-1.6,2.2-2.1 c1-0.5,2.1-0.8,3.3-0.8c1.3,0,2.4,0.3,3.3,0.8c1,0.5,1.7,1.2,2.2,2.1c0.5,0.9,0.8,2,0.8,3.1v5.1c0,1.2-0.3,2.3-0.8,3.2 s-1.3,1.6-2.2,2.1c-1,0.5-2.1,0.8-3.3,0.8C769.8,642.2,768.7,641.9,767.8,641.4z M773.2,638.4c0.5-0.6,0.8-1.3,0.8-2.2v-5.3 c0-0.9-0.3-1.7-0.8-2.2c-0.5-0.6-1.3-0.9-2.1-0.9c-0.9,0-1.6,0.3-2.1,0.9c-0.5,0.6-0.8,1.3-0.8,2.2v5.3c0,0.9,0.3,1.7,0.8,2.2 c0.5,0.6,1.2,0.8,2.1,0.8S772.7,639,773.2,638.4z"></path> <path d="M789.8,625.2c0.1-0.1,0.1-0.1,0.2-0.1h2.8c0.1,0,0.1,0,0.2,0.1c0.1,0.1,0.1,0.1,0.1,0.2v16.2c0,0.1,0,0.1-0.1,0.2 c-0.1,0.1-0.1,0.1-0.2,0.1h-2.7c-0.2,0-0.3-0.1-0.3-0.2l-6.2-10.3l-0.1-0.1c0,0,0,0,0,0.1v10.1c0,0.1,0,0.1-0.1,0.2 c-0.1,0.1-0.1,0.1-0.2,0.1h-2.8c-0.1,0-0.1,0-0.2-0.1c-0.1-0.1-0.1-0.1-0.1-0.2v-16.2c0-0.1,0-0.1,0.1-0.2s0.1-0.1,0.2-0.1h2.7 c0.2,0,0.3,0.1,0.3,0.2l6.2,10.2l0.1,0.1c0,0,0,0,0-0.1v-10.1C789.7,625.3,789.7,625.3,789.8,625.2z"></path> </g> <g class="st5"> <path d="M798.2,641.5c-1-0.4-1.7-1-2.2-1.8s-0.8-1.6-0.8-2.7v-0.5c0-0.1,0-0.1,0.1-0.2c0.1-0.1,0.1-0.1,0.2-0.1h2.7 c0.1,0,0.1,0,0.2,0.1c0.1,0.1,0.1,0.1,0.1,0.2v0.4c0,0.6,0.3,1.2,0.9,1.6c0.6,0.4,1.4,0.7,2.4,0.7c0.8,0,1.5-0.2,1.9-0.5 s0.6-0.8,0.6-1.3c0-0.4-0.1-0.7-0.4-1c-0.3-0.3-0.6-0.5-1-0.7s-1.1-0.5-2.1-0.8c-1.1-0.4-2-0.7-2.7-1.1s-1.4-0.9-1.9-1.6 c-0.5-0.7-0.8-1.5-0.8-2.5s0.2-1.8,0.7-2.5s1.2-1.3,2.1-1.7c0.9-0.4,1.9-0.6,3-0.6c1.2,0,2.3,0.2,3.3,0.6c1,0.4,1.7,1,2.2,1.8 s0.8,1.7,0.8,2.7v0.4c0,0.1,0,0.1-0.1,0.2c-0.1,0.1-0.1,0.1-0.2,0.1h-2.8c-0.1,0-0.1,0-0.2-0.1c-0.1-0.1-0.1-0.1-0.1-0.2v-0.2 c0-0.7-0.3-1.2-0.8-1.7c-0.6-0.5-1.3-0.7-2.3-0.7c-0.8,0-1.3,0.2-1.8,0.5c-0.4,0.3-0.6,0.8-0.6,1.3c0,0.4,0.1,0.7,0.4,1 c0.2,0.3,0.6,0.5,1.1,0.7s1.2,0.5,2.3,0.9s2,0.8,2.7,1.1c0.6,0.3,1.2,0.8,1.8,1.4s0.8,1.5,0.8,2.5c0,1.5-0.6,2.7-1.7,3.6 s-2.6,1.3-4.5,1.3C800.3,642.1,799.2,641.9,798.2,641.5z"></path> <path d="M812.9,641.4c-0.9-0.5-1.7-1.2-2.2-2c-0.5-0.9-0.8-1.9-0.8-3v-10.9c0-0.1,0-0.1,0.1-0.2c0.1-0.1,0.1-0.1,0.2-0.1h2.8 c0.1,0,0.1,0,0.2,0.1s0.1,0.1,0.1,0.2v11c0,0.8,0.3,1.5,0.8,2.1c0.5,0.5,1.2,0.8,2.1,0.8s1.5-0.3,2.1-0.8 c0.5-0.5,0.8-1.2,0.8-2.1v-11c0-0.1,0-0.1,0.1-0.2s0.1-0.1,0.2-0.1h2.8c0.1,0,0.1,0,0.2,0.1c0.1,0.1,0.1,0.1,0.1,0.2v10.9 c0,1.1-0.3,2.1-0.8,3s-1.2,1.5-2.2,2c-0.9,0.5-2,0.7-3.3,0.7S813.9,641.9,812.9,641.4z"></path> </g> <g class="st5"> <path d="M836.2,625.1h2.8c0.1,0,0.1,0,0.2,0.1c0.1,0.1,0.1,0.1,0.1,0.2v16.2c0,0.1,0,0.1-0.1,0.2c-0.1,0.1-0.1,0.1-0.2,0.1 h-2.8c-0.1,0-0.1,0-0.2-0.1c-0.1-0.1-0.1-0.1-0.1-0.2V631c0-0.1,0-0.1,0-0.1s-0.1,0-0.1,0.1l-2.5,4c-0.1,0.1-0.2,0.2-0.3,0.2 h-1.4c-0.1,0-0.3-0.1-0.3-0.2l-2.5-4l-0.1-0.1c0,0,0,0,0,0.1v10.6c0,0.1,0,0.1-0.1,0.2c-0.1,0.1-0.1,0.1-0.2,0.1h-2.8 c-0.1,0-0.1,0-0.2-0.1c-0.1-0.1-0.1-0.1-0.1-0.2v-16.2c0-0.1,0-0.1,0.1-0.2s0.1-0.1,0.2-0.1h2.8c0.1,0,0.3,0.1,0.3,0.2l3.6,5.6 c0,0.1,0.1,0.1,0.1,0l3.6-5.6C835.9,625.2,836,625.1,836.2,625.1z"></path> </g> <g class="st5"> <path d="M853.7,627.9c-0.1,0.1-0.1,0.1-0.2,0.1h-7.9c-0.1,0-0.1,0-0.1,0.1v3.7c0,0.1,0,0.1,0.1,0.1h5.2c0.1,0,0.1,0,0.2,0.1 c0.1,0.1,0.1,0.1,0.1,0.2v2.3c0,0.1,0,0.1-0.1,0.2c-0.1,0.1-0.1,0.1-0.2,0.1h-5.2c-0.1,0-0.1,0-0.1,0.1v3.9 c0,0.1,0,0.1,0.1,0.1h7.9c0.1,0,0.1,0,0.2,0.1c0.1,0.1,0.1,0.1,0.1,0.2v2.3c0,0.1,0,0.1-0.1,0.2c-0.1,0.1-0.1,0.1-0.2,0.1 h-11.1c-0.1,0-0.1,0-0.2-0.1c-0.1-0.1-0.1-0.1-0.1-0.2v-16.2c0-0.1,0-0.1,0.1-0.2c0.1-0.1,0.1-0.1,0.2-0.1h11.1 c0.1,0,0.1,0,0.2,0.1c0.1,0.1,0.1,0.1,0.1,0.2v2.3C853.8,627.8,853.8,627.9,853.7,627.9z"></path> </g> <g class="st5"> <path d="M864.9,641.7l-3-6.6c0-0.1-0.1-0.1-0.1-0.1h-2.2c-0.1,0-0.1,0-0.1,0.1v6.6c0,0.1,0,0.1-0.1,0.2 c-0.1,0.1-0.1,0.1-0.2,0.1h-2.8c-0.1,0-0.1,0-0.2-0.1c-0.1-0.1-0.1-0.1-0.1-0.2v-16.2c0-0.1,0-0.1,0.1-0.2s0.1-0.1,0.2-0.1h6.9 c1,0,1.9,0.2,2.7,0.6c0.8,0.4,1.4,1,1.8,1.8c0.4,0.8,0.6,1.7,0.6,2.7c0,1.1-0.3,2-0.8,2.8s-1.3,1.3-2.3,1.6 c-0.1,0-0.1,0.1-0.1,0.2l3.3,6.8c0,0.1,0,0.1,0,0.1c0,0.1-0.1,0.2-0.3,0.2h-3C865.1,641.9,865,641.9,864.9,641.7z M859.4,628.1 v4.1c0,0.1,0,0.1,0.1,0.1h3.1c0.7,0,1.2-0.2,1.6-0.6c0.4-0.4,0.6-0.9,0.6-1.6s-0.2-1.2-0.6-1.6s-1-0.6-1.6-0.6h-3.1 C859.4,628,859.4,628.1,859.4,628.1z"></path> </g> </g> </g> <g> <g> <g class="st5"> <path d="M1087.5,244.8c-1-0.4-1.7-1-2.2-1.8s-0.8-1.6-0.8-2.7v-0.5c0-0.1,0-0.1,0.1-0.2s0.1-0.1,0.2-0.1h2.7 c0.1,0,0.1,0,0.2,0.1s0.1,0.1,0.1,0.2v0.4c0,0.6,0.3,1.2,0.9,1.6s1.4,0.7,2.4,0.7c0.8,0,1.5-0.2,1.9-0.5s0.6-0.8,0.6-1.3 c0-0.4-0.1-0.7-0.4-1s-0.6-0.5-1-0.7s-1.1-0.5-2.1-0.8c-1.1-0.4-2-0.7-2.7-1.1s-1.4-0.9-1.9-1.6s-0.8-1.5-0.8-2.5 s0.2-1.8,0.7-2.5s1.2-1.3,2.1-1.7c0.9-0.4,1.9-0.6,3-0.6c1.2,0,2.3,0.2,3.3,0.6s1.7,1,2.2,1.8s0.8,1.7,0.8,2.7v0.4 c0,0.1,0,0.1-0.1,0.2s-0.1,0.1-0.2,0.1h-2.8c-0.1,0-0.1,0-0.2-0.1s-0.1-0.1-0.1-0.2v-0.2c0-0.7-0.3-1.2-0.8-1.7 c-0.6-0.5-1.3-0.7-2.3-0.7c-0.8,0-1.3,0.2-1.8,0.5c-0.4,0.3-0.6,0.8-0.6,1.3c0,0.4,0.1,0.7,0.4,1c0.2,0.3,0.6,0.5,1.1,0.7 s1.2,0.5,2.3,0.9c1.1,0.4,2,0.8,2.7,1.1c0.6,0.3,1.2,0.8,1.8,1.4s0.8,1.5,0.8,2.5c0,1.5-0.6,2.7-1.7,3.6s-2.6,1.3-4.5,1.3 C1089.6,245.4,1088.4,245.2,1087.5,244.8z"></path> </g> <g class="st5"> <path d="M1110.4,228.4h2.8c0.1,0,0.1,0,0.2,0.1s0.1,0.1,0.1,0.2v16.2c0,0.1,0,0.1-0.1,0.2s-0.1,0.1-0.2,0.1h-2.8 c-0.1,0-0.1,0-0.2-0.1s-0.1-0.1-0.1-0.2v-10.6c0-0.1,0-0.1,0-0.1s-0.1,0-0.1,0.1l-2.5,4c-0.1,0.1-0.2,0.2-0.3,0.2h-1.4 c-0.1,0-0.3-0.1-0.3-0.2l-2.5-4l-0.1-0.1c0,0,0,0,0,0.1v10.6c0,0.1,0,0.1-0.1,0.2s-0.1,0.1-0.2,0.1h-2.8c-0.1,0-0.1,0-0.2-0.1 s-0.1-0.1-0.1-0.2v-16.2c0-0.1,0-0.1,0.1-0.2s0.1-0.1,0.2-0.1h2.8c0.1,0,0.3,0.1,0.3,0.2l3.6,5.6c0,0.1,0.1,0.1,0.1,0l3.6-5.6 C1110.2,228.5,1110.3,228.4,1110.4,228.4z"></path> <path d="M1126.8,245l-0.7-2.4c0-0.1-0.1-0.1-0.1-0.1h-5.9c0,0-0.1,0-0.1,0.1l-0.7,2.4c0,0.2-0.2,0.2-0.3,0.2h-3 c-0.1,0-0.2,0-0.2-0.1s-0.1-0.1,0-0.3l5.2-16.2c0-0.2,0.2-0.2,0.3-0.2h3.8c0.2,0,0.3,0.1,0.3,0.2l5.2,16.2v0.1 c0,0.1-0.1,0.2-0.3,0.2h-3C1127,245.2,1126.9,245.2,1126.8,245z M1120.9,239.9h4.2c0.1,0,0.1,0,0.1-0.1l-2.2-7.1 c0-0.1,0-0.1-0.1-0.1c0,0-0.1,0-0.1,0.1l-2.1,7.1C1120.8,239.9,1120.8,239.9,1120.9,239.9z"></path> </g> <g class="st5"> <path d="M1141.4,245l-3-6.6c0-0.1-0.1-0.1-0.1-0.1h-2.2c-0.1,0-0.1,0-0.1,0.1v6.6c0,0.1,0,0.1-0.1,0.2s-0.1,0.1-0.2,0.1h-2.8 c-0.1,0-0.1,0-0.2-0.1s-0.1-0.1-0.1-0.2v-16.2c0-0.1,0-0.1,0.1-0.2s0.1-0.1,0.2-0.1h6.9c1,0,1.9,0.2,2.7,0.6s1.4,1,1.8,1.8 s0.6,1.7,0.6,2.7c0,1.1-0.3,2-0.8,2.8s-1.3,1.3-2.3,1.6c-0.1,0-0.1,0.1-0.1,0.2l3.3,6.8c0,0.1,0,0.1,0,0.1 c0,0.1-0.1,0.2-0.3,0.2h-3C1141.5,245.2,1141.4,245.2,1141.4,245z M1135.9,231.5v4.1c0,0.1,0,0.1,0.1,0.1h3.1 c0.7,0,1.2-0.2,1.6-0.6s0.6-0.9,0.6-1.6s-0.2-1.2-0.6-1.6s-1-0.6-1.6-0.6h-3.1C1135.9,231.3,1135.9,231.4,1135.9,231.5z"></path> </g> <g class="st5"> <path d="M1159.1,228.5c0.1,0.1,0.1,0.1,0.1,0.2v2.4c0,0.1,0,0.1-0.1,0.2s-0.1,0.1-0.2,0.1h-4.3c-0.1,0-0.1,0-0.1,0.1V245 c0,0.1,0,0.1-0.1,0.2s-0.1,0.1-0.2,0.1h-2.8c-0.1,0-0.1,0-0.2-0.1s-0.1-0.1-0.1-0.2v-13.5c0-0.1,0-0.1-0.1-0.1h-4.2 c-0.1,0-0.1,0-0.2-0.1s-0.1-0.1-0.1-0.2v-2.4c0-0.1,0-0.1,0.1-0.2s0.1-0.1,0.2-0.1h12.1C1159,228.4,1159,228.5,1159.1,228.5z"></path> </g> <g class="st5"> <path d="M1177.2,228.4h2.8c0.1,0,0.1,0,0.2,0.1s0.1,0.1,0.1,0.2v16.2c0,0.1,0,0.1-0.1,0.2s-0.1,0.1-0.2,0.1h-2.8 c-0.1,0-0.1,0-0.2-0.1s-0.1-0.1-0.1-0.2v-10.6c0-0.1,0-0.1,0-0.1s-0.1,0-0.1,0.1l-2.5,4c-0.1,0.1-0.2,0.2-0.3,0.2h-1.4 c-0.1,0-0.3-0.1-0.3-0.2l-2.5-4l-0.1-0.1c0,0,0,0,0,0.1v10.6c0,0.1,0,0.1-0.1,0.2s-0.1,0.1-0.2,0.1h-2.8c-0.1,0-0.1,0-0.2-0.1 s-0.1-0.1-0.1-0.2v-16.2c0-0.1,0-0.1,0.1-0.2s0.1-0.1,0.2-0.1h2.8c0.1,0,0.3,0.1,0.3,0.2l3.6,5.6c0,0.1,0.1,0.1,0.1,0l3.6-5.6 C1177,228.5,1177.1,228.4,1177.2,228.4z"></path> </g> <g class="st5"> <path d="M1194.8,231.3c-0.1,0.1-0.1,0.1-0.2,0.1h-7.9c-0.1,0-0.1,0-0.1,0.1v3.7c0,0.1,0,0.1,0.1,0.1h5.2c0.1,0,0.1,0,0.2,0.1 s0.1,0.1,0.1,0.2v2.3c0,0.1,0,0.1-0.1,0.2s-0.1,0.1-0.2,0.1h-5.2c-0.1,0-0.1,0-0.1,0.1v3.9c0,0.1,0,0.1,0.1,0.1h7.9 c0.1,0,0.1,0,0.2,0.1s0.1,0.1,0.1,0.2v2.3c0,0.1,0,0.1-0.1,0.2s-0.1,0.1-0.2,0.1h-11.1c-0.1,0-0.1,0-0.2-0.1s-0.1-0.1-0.1-0.2 v-16.2c0-0.1,0-0.1,0.1-0.2s0.1-0.1,0.2-0.1h11.1c0.1,0,0.1,0,0.2,0.1s0.1,0.1,0.1,0.2v2.3 C1194.8,231.1,1194.8,231.2,1194.8,231.3z"></path> </g> <g class="st5"> <path d="M1209.3,228.5c0.1,0.1,0.1,0.1,0.1,0.2v2.4c0,0.1,0,0.1-0.1,0.2s-0.1,0.1-0.2,0.1h-4.3c-0.1,0-0.1,0-0.1,0.1V245 c0,0.1,0,0.1-0.1,0.2s-0.1,0.1-0.2,0.1h-2.8c-0.1,0-0.1,0-0.2-0.1s-0.1-0.1-0.1-0.2v-13.5c0-0.1,0-0.1-0.1-0.1h-4.2 c-0.1,0-0.1,0-0.2-0.1s-0.1-0.1-0.1-0.2v-2.4c0-0.1,0-0.1,0.1-0.2s0.1-0.1,0.2-0.1h12.1 C1209.2,228.4,1209.2,228.5,1209.3,228.5z"></path> </g> <g class="st5"> <path d="M1223.1,231.3c-0.1,0.1-0.1,0.1-0.2,0.1h-7.9c-0.1,0-0.1,0-0.1,0.1v3.7c0,0.1,0,0.1,0.1,0.1h5.2c0.1,0,0.1,0,0.2,0.1 s0.1,0.1,0.1,0.2v2.3c0,0.1,0,0.1-0.1,0.2s-0.1,0.1-0.2,0.1h-5.2c-0.1,0-0.1,0-0.1,0.1v3.9c0,0.1,0,0.1,0.1,0.1h7.9 c0.1,0,0.1,0,0.2,0.1s0.1,0.1,0.1,0.2v2.3c0,0.1,0,0.1-0.1,0.2s-0.1,0.1-0.2,0.1h-11.1c-0.1,0-0.1,0-0.2-0.1s-0.1-0.1-0.1-0.2 v-16.2c0-0.1,0-0.1,0.1-0.2s0.1-0.1,0.2-0.1h11.1c0.1,0,0.1,0,0.2,0.1s0.1,0.1,0.1,0.2v2.3 C1223.1,231.1,1223.1,231.2,1223.1,231.3z"></path> </g> <g class="st5"> <path d="M1234.3,245l-3-6.6c0-0.1-0.1-0.1-0.1-0.1h-2.2c-0.1,0-0.1,0-0.1,0.1v6.6c0,0.1,0,0.1-0.1,0.2s-0.1,0.1-0.2,0.1h-2.8 c-0.1,0-0.1,0-0.2-0.1s-0.1-0.1-0.1-0.2v-16.2c0-0.1,0-0.1,0.1-0.2s0.1-0.1,0.2-0.1h6.9c1,0,1.9,0.2,2.7,0.6 c0.8,0.4,1.4,1,1.8,1.8s0.6,1.7,0.6,2.7c0,1.1-0.3,2-0.8,2.8s-1.3,1.3-2.3,1.6c-0.1,0-0.1,0.1-0.1,0.2l3.3,6.8 c0,0.1,0,0.1,0,0.1c0,0.1-0.1,0.2-0.3,0.2h-3C1234.4,245.2,1234.3,245.2,1234.3,245z M1228.8,231.5v4.1c0,0.1,0,0.1,0.1,0.1 h3.1c0.7,0,1.2-0.2,1.6-0.6s0.6-0.9,0.6-1.6s-0.2-1.2-0.6-1.6s-1-0.6-1.6-0.6h-3.1C1228.8,231.3,1228.8,231.4,1228.8,231.5z"></path> </g> </g> </g> <g> <g> <g class="st5"> <path d="M1457.4,229.1c0.8,0.4,1.4,1,1.9,1.8c0.4,0.8,0.7,1.7,0.7,2.7s-0.2,1.9-0.7,2.7c-0.5,0.8-1.1,1.4-1.9,1.8 s-1.8,0.6-2.8,0.6h-3.4c-0.1,0-0.1,0-0.1,0.1v6.1c0,0.1,0,0.1-0.1,0.2s-0.1,0.1-0.2,0.1h-2.8c-0.1,0-0.1,0-0.2-0.1 s-0.1-0.1-0.1-0.2v-16.2c0-0.1,0-0.1,0.1-0.2s0.1-0.1,0.2-0.1h6.8C1455.7,228.4,1456.6,228.6,1457.4,229.1z M1455.9,235.4 c0.4-0.4,0.7-1,0.7-1.7s-0.2-1.3-0.7-1.7s-1-0.6-1.8-0.6h-3c-0.1,0-0.1,0-0.1,0.1v4.4c0,0.1,0,0.1,0.1,0.1h3 C1454.9,236,1455.5,235.8,1455.9,235.4z"></path> </g> <g class="st5"> <path d="M1464.9,244.7c-1-0.5-1.7-1.2-2.2-2.1s-0.8-2-0.8-3.2v-5.1c0-1.2,0.3-2.2,0.8-3.1s1.3-1.6,2.2-2.1 c1-0.5,2.1-0.8,3.3-0.8c1.3,0,2.4,0.3,3.3,0.8c1,0.5,1.7,1.2,2.2,2.1s0.8,2,0.8,3.1v5.1c0,1.2-0.3,2.3-0.8,3.2 c-0.5,0.9-1.3,1.6-2.2,2.1c-1,0.5-2.1,0.8-3.3,0.8C1466.9,245.5,1465.8,245.2,1464.9,244.7z M1470.3,241.8 c0.5-0.6,0.8-1.3,0.8-2.2v-5.3c0-0.9-0.3-1.7-0.8-2.2c-0.5-0.6-1.3-0.9-2.1-0.9c-0.9,0-1.6,0.3-2.1,0.9s-0.8,1.3-0.8,2.2v5.3 c0,0.9,0.3,1.7,0.8,2.2c0.5,0.6,1.2,0.8,2.1,0.8C1469,242.6,1469.8,242.3,1470.3,241.8z"></path> </g> <g class="st5"> <path d="M1480.1,245l-4.2-16.2v-0.1c0-0.1,0.1-0.2,0.3-0.2h3c0.2,0,0.3,0.1,0.3,0.2l2.3,9.8c0,0.1,0,0.1,0.1,0.1 c0,0,0.1,0,0.1-0.1l2.2-9.7c0-0.2,0.2-0.3,0.3-0.3h2.9c0.2,0,0.3,0.1,0.3,0.2l2.4,9.8c0,0,0,0.1,0.1,0.1c0,0,0.1,0,0.1-0.1 l2.2-9.7c0-0.2,0.2-0.3,0.3-0.3h2.8c0.2,0,0.3,0.1,0.3,0.3L1492,245c0,0.2-0.2,0.2-0.3,0.2h-2.9c-0.2,0-0.3-0.1-0.3-0.2 l-2.4-10.4c0-0.1,0-0.1-0.1-0.1c0,0-0.1,0-0.1,0.1l-2.3,10.4c0,0.2-0.1,0.3-0.3,0.3h-2.7C1480.2,245.2,1480.1,245.2,1480.1,245 z"></path> </g> <g class="st5"> <path d="M1509.4,231.3c-0.1,0.1-0.1,0.1-0.2,0.1h-7.9c-0.1,0-0.1,0-0.1,0.1v3.7c0,0.1,0,0.1,0.1,0.1h5.2c0.1,0,0.1,0,0.2,0.1 s0.1,0.1,0.1,0.2v2.3c0,0.1,0,0.1-0.1,0.2s-0.1,0.1-0.2,0.1h-5.2c-0.1,0-0.1,0-0.1,0.1v3.9c0,0.1,0,0.1,0.1,0.1h7.9 c0.1,0,0.1,0,0.2,0.1s0.1,0.1,0.1,0.2v2.3c0,0.1,0,0.1-0.1,0.2s-0.1,0.1-0.2,0.1h-11.1c-0.1,0-0.1,0-0.2-0.1s-0.1-0.1-0.1-0.2 v-16.2c0-0.1,0-0.1,0.1-0.2s0.1-0.1,0.2-0.1h11.1c0.1,0,0.1,0,0.2,0.1s0.1,0.1,0.1,0.2v2.3 C1509.5,231.1,1509.4,231.2,1509.4,231.3z"></path> </g> <g class="st5"> <path d="M1520.6,245l-3-6.6c0-0.1-0.1-0.1-0.1-0.1h-2.2c-0.1,0-0.1,0-0.1,0.1v6.6c0,0.1,0,0.1-0.1,0.2s-0.1,0.1-0.2,0.1h-2.8 c-0.1,0-0.1,0-0.2-0.1s-0.1-0.1-0.1-0.2v-16.2c0-0.1,0-0.1,0.1-0.2s0.1-0.1,0.2-0.1h6.9c1,0,1.9,0.2,2.7,0.6 c0.8,0.4,1.4,1,1.8,1.8s0.6,1.7,0.6,2.7c0,1.1-0.3,2-0.8,2.8s-1.3,1.3-2.3,1.6c-0.1,0-0.1,0.1-0.1,0.2l3.3,6.8 c0,0.1,0,0.1,0,0.1c0,0.1-0.1,0.2-0.3,0.2h-3C1520.8,245.2,1520.6,245.2,1520.6,245z M1515.1,231.5v4.1c0,0.1,0,0.1,0.1,0.1 h3.1c0.7,0,1.2-0.2,1.6-0.6s0.6-0.9,0.6-1.6s-0.2-1.2-0.6-1.6s-1-0.6-1.6-0.6h-3.1C1515.1,231.3,1515.1,231.4,1515.1,231.5z"></path> </g> <g class="st5"> <path d="M1533.8,244.7c-0.9-0.5-1.7-1.2-2.2-2.1s-0.8-1.9-0.8-3.1v-5.4c0-1.2,0.3-2.2,0.8-3.1s1.3-1.6,2.2-2.1 c0.9-0.5,2-0.7,3.3-0.7c1.2,0,2.3,0.2,3.2,0.7c0.9,0.5,1.7,1.1,2.2,2c0.5,0.8,0.8,1.7,0.8,2.7v0.2c0,0.1,0,0.1-0.1,0.2 s-0.1,0.1-0.2,0.1h-2.8c-0.1,0-0.1,0-0.2-0.1s-0.1-0.1-0.1-0.2v-0.1c0-0.7-0.3-1.4-0.8-1.9s-1.2-0.8-2-0.8 c-0.9,0-1.6,0.3-2.1,0.8s-0.8,1.2-0.8,2.1v5.6c0,0.9,0.3,1.6,0.8,2.1c0.6,0.5,1.3,0.8,2.1,0.8c0.8,0,1.5-0.2,2-0.7 c0.5-0.4,0.7-1.1,0.7-1.8v-1.1c0-0.1,0-0.1-0.1-0.1h-2.7c-0.1,0-0.1,0-0.2-0.1s-0.1-0.1-0.1-0.2v-2.2c0-0.1,0-0.1,0.1-0.2 s0.1-0.1,0.2-0.1h5.9c0.1,0,0.1,0,0.2,0.1s0.1,0.1,0.1,0.2v3.2c0,1.2-0.3,2.3-0.8,3.2c-0.5,0.9-1.2,1.6-2.2,2.1s-2,0.7-3.3,0.7 S1534.8,245.2,1533.8,244.7z"></path> <path d="M1554.8,245l-3-6.6c0-0.1-0.1-0.1-0.1-0.1h-2.2c-0.1,0-0.1,0-0.1,0.1v6.6c0,0.1,0,0.1-0.1,0.2s-0.1,0.1-0.2,0.1h-2.8 c-0.1,0-0.1,0-0.2-0.1s-0.1-0.1-0.1-0.2v-16.2c0-0.1,0-0.1,0.1-0.2s0.1-0.1,0.2-0.1h6.9c1,0,1.9,0.2,2.7,0.6s1.4,1,1.8,1.8 s0.6,1.7,0.6,2.7c0,1.1-0.3,2-0.8,2.8s-1.3,1.3-2.3,1.6c-0.1,0-0.1,0.1-0.1,0.2l3.3,6.8c0,0.1,0,0.1,0,0.1 c0,0.1-0.1,0.2-0.3,0.2h-3C1554.9,245.2,1554.8,245.2,1554.8,245z M1549.3,231.5v4.1c0,0.1,0,0.1,0.1,0.1h3.1 c0.7,0,1.2-0.2,1.6-0.6s0.6-0.9,0.6-1.6s-0.2-1.2-0.6-1.6s-1-0.6-1.6-0.6h-3.1C1549.3,231.3,1549.3,231.4,1549.3,231.5z"></path> <path d="M1560.7,245.2c-0.1-0.1-0.1-0.1-0.1-0.2v-16.2c0-0.1,0-0.1,0.1-0.2s0.1-0.1,0.2-0.1h2.8c0.1,0,0.1,0,0.2,0.1 s0.1,0.1,0.1,0.2V245c0,0.1,0,0.1-0.1,0.2s-0.1,0.1-0.2,0.1h-2.8C1560.8,245.2,1560.8,245.2,1560.7,245.2z"></path> </g> <g class="st5"> <path d="M1566.8,245.2c-0.1-0.1-0.1-0.1-0.1-0.2v-16.2c0-0.1,0-0.1,0.1-0.2s0.1-0.1,0.2-0.1h6c1.2,0,2.3,0.2,3.2,0.6 c0.9,0.4,1.6,1,2.1,1.8s0.7,1.7,0.7,2.7v6.6c0,1-0.2,1.9-0.7,2.7c-0.5,0.8-1.2,1.4-2.1,1.8s-2,0.6-3.2,0.6h-6 C1566.9,245.2,1566.8,245.2,1566.8,245.2z M1570.2,242.3h2.9c0.7,0,1.3-0.2,1.8-0.7s0.7-1.2,0.7-2v-5.5c0-0.8-0.2-1.5-0.7-2 s-1.1-0.7-1.8-0.7h-2.9c-0.1,0-0.1,0-0.1,0.1L1570.2,242.3C1570.1,242.3,1570.1,242.3,1570.2,242.3z"></path> </g> </g> </g> <g> <g> <g> <path class="st6" d="M320.2,132.3l14.6-14.6c1-1,1-2.7,0-3.7l-14.6-14.5 M270.7,115.9h64.9"></path> </g> <g> <path class="st6" d="M636.6,132.3l14.6-14.6c1-1,1-2.7,0-3.7l-14.6-14.5 M587.1,115.9H652"></path> </g> <g> <path class="st6" d="M792.7,336.3l14.6,14.6c1,1,2.7,1,3.7,0l14.5-14.6 M809.1,286.7v64.9"></path> </g> <g> <path class="st6" d="M984.8,132.3l-14.6-14.6c-1-1-1-2.7,0-3.7l14.6-14.5 M1034.3,115.9h-64.9"></path> </g> <g> <path class="st6" d="M1019,132.3l14.6-14.6c1-1,1-2.7,0-3.7L1019,99.5 M969.4,115.9h64.9"></path> </g> <g> <path class="st6" d="M1308.8,132.3l-14.6-14.6c-1-1-1-2.7,0-3.7l14.6-14.5 M1358.3,115.9h-64.9"></path> </g> <g> <path class="st6" d="M1343,132.3l14.6-14.6c1-1,1-2.7,0-3.7L1343,99.5 M1293.4,115.9h64.9"></path> </g> </g> </g> <g> <rect x="722.4" y="27.9" class="st3" width="173.4" height="138.4"></rect> </g> <g> <line class="st3" x1="865.1" y1="97" x2="881.9" y2="97"></line> </g> <g> <path class="st7" d="M819.7,166.8V180 M809.1,166.8V180 M798.5,166.8V180"></path> </g> <g> <polyline class="st3" points="771,55.6 747.8,99.4 773.2,93.9 751.9,138.6 "></polyline> </g> <g> <g> <g> <path class="st3" d="M54.8,73L7.5,149.8h146.1L200.9,73H54.8z M65.1,21.2l7-7.4 M75.6,43.6H88 M24.4,65.6l-7,7.4 M13.9,43.6 H1.5 M44.9,13.8V1.5 M46.3,56.6c4,0,7.5-1.4,10.5-4.3c2.7-2.7,4.1-6.2,4.1-10.3c0-3.6-1.4-7-4.1-10.1c-3-2.9-6.5-4.3-10.5-4.3 c-3.7,0-7.1,1.4-10.1,4.3c-2.7,3.1-4.1,6.5-4.1,10.1c0,4.2,1.4,7.6,4.1,10.3C39.2,55.2,42.5,56.6,46.3,56.6z M24.4,21.2l-7-7.4 M208.7,89.5l-47.3,76.9H15.3 M31.3,111.3h47.3L102.1,73 M149.4,73l-23.5,38.3h51.4 M102.1,149.8l23.7-38.5H78.5l-23.7,38.5"></path> </g> </g> </g> </g> </g> </svg> 