<?xml version="1.0" encoding="UTF-8"?> <!-- Generator: Adobe Illustrator 25.4.1, SVG Export Plug-In . SVG Version: 6.00 Build 0) --> <svg xmlns="http://www.w3.org/2000/svg" xmlns:xlink="http://www.w3.org/1999/xlink" version="1.1" id="Layer_1" x="0px" y="0px" viewBox="0 0 1197.9 635.8" style="enable-background:new 0 0 1197.9 635.8;" xml:space="preserve"> <style type="text/css"> .st0{fill:#FFCD15;} .st1{fill:none;stroke:#000000;stroke-width:3;stroke-linejoin:round;stroke-miterlimit:10;} .st2{fill:none;stroke:#000000;stroke-width:3;stroke-linecap:round;stroke-linejoin:round;stroke-miterlimit:10;} .st3{fill:none;stroke:#000000;stroke-width:3;stroke-linecap:round;stroke-miterlimit:10;} .st4{fill:none;stroke:#000000;stroke-width:3;stroke-linecap:round;stroke-linejoin:round;} .st5{enable-background:new ;} .st6{fill:none;stroke:#FECC07;stroke-width:3;stroke-linecap:round;} .st7{fill:none;stroke:#000000;stroke-width:3;} </style> <g> <g> <g> <g> <g> <path class="st0" d="M159,635.8c87.8,0,158.9-71.2,158.9-158.9s-71.2-159-158.9-159S0,389.1,0,476.9S71.2,635.8,159,635.8"></path> </g> <g> <path class="st0" d="M599,635.8c87.8,0,158.9-71.2,158.9-158.9s-71.2-159-158.9-159c-87.8,0-159,71.2-159,159 S511.2,635.8,599,635.8"></path> </g> <g> <path class="st0" d="M1039,635.8c87.8,0,158.9-71.2,158.9-158.9s-71.2-159-158.9-159c-87.8,0-159,71.2-159,159 S951.2,635.8,1039,635.8"></path> </g> </g> </g> <g> <path class="st1" d="M1046.4,44v69.8l18.7,56.2l-40.5-36.7 M1017.4,126.9l-13.9-12.7"></path> </g> <g> <path class="st2" d="M990.9,49.6l-24.3,11.5h115.8l-36.1-17h-30.1 M991.1,96l-35.2,15h137.2l-46.8-19.4h-43.6"></path> </g> <g> <path class="st1" d="M1046.3,61.2l-43.5,30.3 M1024.6,76.4l21.7,15.1 M1002.8,61.2l13.9,9.7"></path> </g> <g> <path class="st2" d="M963.2,122.4v7.1 M1085.8,122.4v7.1 M1076.1,72.6v7.1 M972.9,72.6v7.1"></path> </g> <g> <polyline class="st1" points="1046.4,44.1 1031.5,16 1017.4,16 1002.6,44.1 1002.6,113.8 983.9,170 1045.7,114.2 "></polyline> </g> <g> <path class="st2" d="M628.6,114.7v54.1 M514.9,114.7v55.5 M493.5,112l78.3-52.1L650,112"></path> </g> <g> <polyline class="st1" points="515.7,97.3 515.7,64.5 532.8,64.5 532.8,86.2 "></polyline> </g> <g> <line class="st3" x1="662.4" y1="170.2" x2="672.6" y2="170.2"></line> </g> <g> <line class="st2" x1="493.5" y1="170.2" x2="649.9" y2="170.2"></line> </g> <g> <g> <g> <path class="st4" d="M656.7,73.4h15.9 M656.3,60h-7.7c0-4.4-3.6-8-8-8s-8,3.6-8,8h-14.5"></path> </g> </g> </g> <g> <g> <g class="st5"> <path d="M43.5,235.8c-1-0.4-1.7-1-2.2-1.8s-0.8-1.6-0.8-2.7v-0.5c0-0.1,0-0.1,0.1-0.2s0.1-0.1,0.2-0.1h2.7c0.1,0,0.1,0,0.2,0.1 s0.1,0.1,0.1,0.2v0.4c0,0.6,0.3,1.2,0.9,1.6s1.4,0.7,2.4,0.7c0.8,0,1.5-0.2,1.9-0.5s0.6-0.8,0.6-1.3c0-0.4-0.1-0.7-0.4-1 s-0.6-0.5-1-0.7s-1.1-0.5-2.1-0.8c-1.1-0.4-2-0.7-2.7-1.1s-1.4-0.9-1.9-1.6s-0.8-1.5-0.8-2.5s0.2-1.8,0.7-2.5s1.2-1.3,2.1-1.7 c0.9-0.4,1.9-0.6,3-0.6c1.2,0,2.3,0.2,3.3,0.6s1.7,1,2.2,1.8s0.8,1.7,0.8,2.7v0.4c0,0.1,0,0.1-0.1,0.2s-0.1,0.1-0.2,0.1h-2.8 c-0.1,0-0.1,0-0.2-0.1s-0.1-0.1-0.1-0.2v-0.2c0-0.7-0.3-1.2-0.8-1.7c-0.6-0.5-1.3-0.7-2.3-0.7c-0.8,0-1.3,0.2-1.8,0.5 c-0.4,0.3-0.6,0.8-0.6,1.3c0,0.4,0.1,0.7,0.4,1c0.2,0.3,0.6,0.5,1.1,0.7s1.2,0.5,2.3,0.9c1.1,0.4,2,0.8,2.7,1.1 c0.6,0.3,1.2,0.8,1.8,1.4s0.8,1.5,0.8,2.5c0,1.5-0.6,2.7-1.7,3.6s-2.6,1.3-4.5,1.3C45.6,236.4,44.4,236.2,43.5,235.8z"></path> </g> <g class="st5"> <path d="M58.1,235.7c-1-0.5-1.7-1.2-2.2-2.1s-0.8-2-0.8-3.2v-5.1c0-1.2,0.3-2.2,0.8-3.1s1.3-1.6,2.2-2.1c1-0.5,2.1-0.8,3.3-0.8 c1.3,0,2.4,0.3,3.3,0.8c1,0.5,1.7,1.2,2.2,2.1s0.8,2,0.8,3.1v5.1c0,1.2-0.3,2.3-0.8,3.2c-0.5,0.9-1.3,1.6-2.2,2.1 c-1,0.5-2.1,0.8-3.3,0.8C60.1,236.5,59,236.2,58.1,235.7z M63.5,232.7c0.5-0.6,0.8-1.3,0.8-2.2v-5.3c0-0.9-0.3-1.7-0.8-2.2 c-0.5-0.6-1.3-0.9-2.1-0.9c-0.9,0-1.6,0.3-2.1,0.9s-0.8,1.3-0.8,2.2v5.3c0,0.9,0.3,1.7,0.8,2.2c0.5,0.6,1.2,0.8,2.1,0.8 S62.9,233.3,63.5,232.7z"></path> </g> <g class="st5"> <path d="M70.3,236.1c-0.1-0.1-0.1-0.1-0.1-0.2v-16.2c0-0.1,0-0.1,0.1-0.2s0.1-0.1,0.2-0.1h2.8c0.1,0,0.1,0,0.2,0.1 s0.1,0.1,0.1,0.2v13.5c0,0.1,0,0.1,0.1,0.1h7.8c0.1,0,0.1,0,0.2,0.1s0.1,0.1,0.1,0.2v2.3c0,0.1,0,0.1-0.1,0.2s-0.1,0.1-0.2,0.1 H70.4C70.4,236.2,70.3,236.2,70.3,236.1z"></path> </g> <g class="st5"> <path d="M94.6,236l-0.7-2.4c0-0.1-0.1-0.1-0.1-0.1h-5.9c0,0-0.1,0-0.1,0.1l-0.7,2.4c0,0.2-0.2,0.2-0.3,0.2h-3 c-0.1,0-0.2,0-0.2-0.1s-0.1-0.1,0-0.3l5.2-16.2c0-0.2,0.2-0.2,0.3-0.2h3.8c0.2,0,0.3,0.1,0.3,0.2l5.2,16.2v0.1 c0,0.1-0.1,0.2-0.3,0.2h-3C94.8,236.2,94.7,236.1,94.6,236z M88.7,230.9h4.2c0.1,0,0.1,0,0.1-0.1l-2.2-7.1c0-0.1,0-0.1-0.1-0.1 c0,0-0.1,0-0.1,0.1l-2.1,7.1C88.6,230.9,88.7,230.9,88.7,230.9z"></path> <path d="M109.3,236l-3-6.6c0-0.1-0.1-0.1-0.1-0.1H104c-0.1,0-0.1,0-0.1,0.1v6.6c0,0.1,0,0.1-0.1,0.2s-0.1,0.1-0.2,0.1h-2.8 c-0.1,0-0.1,0-0.2-0.1s-0.1-0.1-0.1-0.2v-16.2c0-0.1,0-0.1,0.1-0.2s0.1-0.1,0.2-0.1h6.9c1,0,1.9,0.2,2.7,0.6 c0.8,0.4,1.4,1,1.8,1.8s0.6,1.7,0.6,2.7c0,1.1-0.3,2-0.8,2.8s-1.3,1.3-2.3,1.6c-0.1,0-0.1,0.1-0.1,0.2l3.3,6.8 c0,0.1,0,0.1,0,0.1c0,0.1-0.1,0.2-0.3,0.2h-3C109.4,236.2,109.3,236.1,109.3,236z M103.8,222.4v4.1c0,0.1,0,0.1,0.1,0.1h3.1 c0.7,0,1.2-0.2,1.6-0.6s0.6-0.9,0.6-1.6s-0.2-1.2-0.6-1.6s-1-0.6-1.6-0.6h-3.1C103.8,222.3,103.8,222.3,103.8,222.4z"></path> </g> <g class="st5"> <path d="M129.6,220c0.8,0.4,1.4,1,1.9,1.8c0.4,0.8,0.7,1.7,0.7,2.7s-0.2,1.9-0.7,2.7c-0.5,0.8-1.1,1.4-1.9,1.8 s-1.8,0.6-2.8,0.6h-3.4c-0.1,0-0.1,0-0.1,0.1v6.1c0,0.1,0,0.1-0.1,0.2s-0.1,0.1-0.2,0.1h-3c-0.1,0-0.1,0-0.2-0.1 s-0.1-0.1-0.1-0.2v-16.2c0-0.1,0-0.1,0.1-0.2s0.1-0.1,0.2-0.1h6.8C127.9,219.4,128.8,219.6,129.6,220z M128.1,226.3 c0.4-0.4,0.7-1,0.7-1.7s-0.2-1.3-0.7-1.7c-0.4-0.4-1-0.6-1.8-0.6h-3c-0.1,0-0.1,0-0.1,0.1v4.4c0,0.1,0,0.1,0.1,0.1h3 C127,227,127.6,226.8,128.1,226.3z"></path> </g> <g class="st5"> <path d="M138.2,236l-4.9-16.2v-0.1c0-0.2,0.1-0.2,0.3-0.2h3c0.2,0,0.3,0.1,0.3,0.2l3.2,11.7c0,0,0,0.1,0.1,0.1 c0,0,0.1,0,0.1-0.1l3.1-11.7c0-0.2,0.2-0.2,0.3-0.2h3c0.1,0,0.2,0,0.2,0.1s0.1,0.1,0,0.2l-5,16.2c0,0.2-0.2,0.2-0.3,0.2h-3 C138.4,236.2,138.3,236.1,138.2,236z"></path> </g> <g class="st5"> <path d="M163.6,220c0.8,0.4,1.4,1,1.9,1.8c0.4,0.8,0.7,1.7,0.7,2.7s-0.2,1.9-0.7,2.7c-0.5,0.8-1.1,1.4-1.9,1.8 c-0.8,0.4-1.8,0.6-2.8,0.6h-3.4c-0.1,0-0.1,0-0.1,0.1v6.1c0,0.1,0,0.1-0.1,0.2s-0.1,0.1-0.2,0.1h-3c-0.1,0-0.1,0-0.2-0.1 c-0.1-0.1-0.1-0.1-0.1-0.2v-16.2c0-0.1,0-0.1,0.1-0.2s0.1-0.1,0.2-0.1h6.8C161.9,219.4,162.8,219.6,163.6,220z M162.1,226.3 c0.4-0.4,0.7-1,0.7-1.7s-0.2-1.3-0.7-1.7c-0.4-0.4-1-0.6-1.8-0.6h-3c-0.1,0-0.1,0-0.1,0.1v4.4c0,0.1,0,0.1,0.1,0.1h3 C161,227,161.6,226.8,162.1,226.3z"></path> </g> <g class="st5"> <path d="M177.3,236l-0.7-2.4c0-0.1-0.1-0.1-0.1-0.1h-5.9c0,0-0.1,0-0.1,0.1l-0.7,2.4c0,0.2-0.2,0.2-0.3,0.2h-3 c-0.1,0-0.2,0-0.2-0.1s-0.1-0.1,0-0.3l5.2-16.2c0-0.2,0.2-0.2,0.3-0.2h3.8c0.2,0,0.3,0.1,0.3,0.2l5.2,16.2v0.1 c0,0.1-0.1,0.2-0.3,0.2h-3C177.5,236.2,177.4,236.1,177.3,236z M171.4,230.9h4.2c0.1,0,0.1,0,0.1-0.1l-2.2-7.1 c0-0.1,0-0.1-0.1-0.1c0,0-0.1,0-0.1,0.1l-2.1,7.1C171.3,230.9,171.4,230.9,171.4,230.9z"></path> </g> <g class="st5"> <path d="M192.8,219.5c0.1-0.1,0.1-0.1,0.2-0.1h2.8c0.1,0,0.1,0,0.2,0.1c0.1,0.1,0.1,0.1,0.1,0.2v16.2c0,0.1,0,0.1-0.1,0.2 s-0.1,0.1-0.2,0.1h-2.7c-0.2,0-0.3-0.1-0.3-0.2l-6.2-10.3l-0.1-0.1c0,0,0,0,0,0.1v10.1c0,0.1,0,0.1-0.1,0.2s-0.1,0.1-0.2,0.1 h-2.8c-0.1,0-0.1,0-0.2-0.1c-0.1-0.1-0.1-0.1-0.1-0.2v-16.2c0-0.1,0-0.1,0.1-0.2s0.1-0.1,0.2-0.1h2.7c0.2,0,0.3,0.1,0.3,0.2 l6.2,10.2l0.1,0.1c0,0,0,0,0-0.1v-10.1C192.7,219.6,192.8,219.5,192.8,219.5z"></path> </g> <g class="st5"> <path d="M210.6,222.2c-0.1,0.1-0.1,0.1-0.2,0.1h-7.9c-0.1,0-0.1,0-0.1,0.1v3.7c0,0.1,0,0.1,0.1,0.1h5.2c0.1,0,0.1,0,0.2,0.1 c0.1,0.1,0.1,0.1,0.1,0.2v2.3c0,0.1,0,0.1-0.1,0.2s-0.1,0.1-0.2,0.1h-5.2c-0.1,0-0.1,0-0.1,0.1v3.9c0,0.1,0,0.1,0.1,0.1h7.9 c0.1,0,0.1,0,0.2,0.1c0.1,0.1,0.1,0.1,0.1,0.2v2.3c0,0.1,0,0.1-0.1,0.2s-0.1,0.1-0.2,0.1h-11.1c-0.1,0-0.1,0-0.2-0.1 c-0.1-0.1-0.1-0.1-0.1-0.2v-16.2c0-0.1,0-0.1,0.1-0.2s0.1-0.1,0.2-0.1h11.1c0.1,0,0.1,0,0.2,0.1s0.1,0.1,0.1,0.2v2.3 C210.6,222.1,210.6,222.2,210.6,222.2z"></path> </g> <g class="st5"> <path d="M213,236.1c-0.1-0.1-0.1-0.1-0.1-0.2v-16.2c0-0.1,0-0.1,0.1-0.2s0.1-0.1,0.2-0.1h2.8c0.1,0,0.1,0,0.2,0.1 c0.1,0.1,0.1,0.1,0.1,0.2v13.5c0,0.1,0,0.1,0.1,0.1h7.8c0.1,0,0.1,0,0.2,0.1c0.1,0.1,0.1,0.1,0.1,0.2v2.3c0,0.1,0,0.1-0.1,0.2 s-0.1,0.1-0.2,0.1h-11.1C213.1,236.2,213,236.2,213,236.1z"></path> </g> <g class="st5"> <path d="M229.1,235.8c-1-0.4-1.7-1-2.2-1.8s-0.8-1.6-0.8-2.7v-0.5c0-0.1,0-0.1,0.1-0.2s0.1-0.1,0.2-0.1h2.7 c0.1,0,0.1,0,0.2,0.1c0.1,0.1,0.1,0.1,0.1,0.2v0.4c0,0.6,0.3,1.2,0.9,1.6c0.6,0.4,1.4,0.7,2.4,0.7c0.8,0,1.5-0.2,1.9-0.5 s0.6-0.8,0.6-1.3c0-0.4-0.1-0.7-0.4-1c-0.3-0.3-0.6-0.5-1-0.7s-1.1-0.5-2.1-0.8c-1.1-0.4-2-0.7-2.7-1.1s-1.4-0.9-1.9-1.6 s-0.8-1.5-0.8-2.5s0.2-1.8,0.7-2.5s1.2-1.3,2.1-1.7c0.9-0.4,1.9-0.6,3-0.6c1.2,0,2.3,0.2,3.3,0.6s1.7,1,2.2,1.8 s0.8,1.7,0.8,2.7v0.4c0,0.1,0,0.1-0.1,0.2s-0.1,0.1-0.2,0.1h-2.8c-0.1,0-0.1,0-0.2-0.1c-0.1-0.1-0.1-0.1-0.1-0.2v-0.2 c0-0.7-0.3-1.2-0.8-1.7c-0.6-0.5-1.3-0.7-2.3-0.7c-0.8,0-1.3,0.2-1.8,0.5c-0.4,0.3-0.6,0.8-0.6,1.3c0,0.4,0.1,0.7,0.4,1 c0.2,0.3,0.6,0.5,1.1,0.7s1.2,0.5,2.3,0.9s2,0.8,2.7,1.1c0.6,0.3,1.2,0.8,1.8,1.4s0.8,1.5,0.8,2.5c0,1.5-0.6,2.7-1.7,3.6 s-2.6,1.3-4.5,1.3C231.2,236.4,230,236.2,229.1,235.8z"></path> </g> </g> </g> <g> <g> <g class="st5"> <path d="M505.1,235.7c-0.9-0.5-1.7-1.2-2.2-2.1s-0.8-1.9-0.8-3v-5.5c0-1.2,0.3-2.2,0.8-3c0.5-0.9,1.2-1.6,2.2-2 c0.9-0.5,2-0.7,3.3-0.7c1.2,0,2.3,0.2,3.3,0.7s1.7,1.1,2.2,1.9s0.8,1.8,0.8,2.9c0,0.1-0.1,0.2-0.3,0.3l-2.8,0.2l0,0 c-0.2,0-0.2-0.1-0.2-0.3c0-0.8-0.3-1.5-0.8-2s-1.2-0.8-2.1-0.8c-0.9,0-1.6,0.3-2.1,0.8s-0.8,1.2-0.8,2v5.8c0,0.8,0.3,1.5,0.8,2 s1.2,0.8,2.1,0.8c0.8,0,1.5-0.3,2.1-0.8c0.5-0.5,0.8-1.2,0.8-2c0-0.2,0.1-0.3,0.3-0.3l2.8,0.1c0.1,0,0.1,0,0.2,0.1 c0.1,0,0.1,0.1,0.1,0.2c0,1.1-0.3,2.1-0.8,2.9s-1.2,1.5-2.2,2s-2,0.7-3.3,0.7C507.1,236.4,506,236.2,505.1,235.7z"></path> </g> <g class="st5"> <path d="M519.8,235.7c-1-0.5-1.7-1.2-2.2-2.1s-0.8-2-0.8-3.2v-5.1c0-1.2,0.3-2.2,0.8-3.1s1.3-1.6,2.2-2.1 c1-0.5,2.1-0.8,3.3-0.8c1.3,0,2.4,0.3,3.3,0.8c1,0.5,1.7,1.2,2.2,2.1s0.8,2,0.8,3.1v5.1c0,1.2-0.3,2.3-0.8,3.2 c-0.5,0.9-1.3,1.6-2.2,2.1c-1,0.5-2.1,0.8-3.3,0.8C521.8,236.5,520.7,236.2,519.8,235.7z M525.2,232.7c0.5-0.6,0.8-1.3,0.8-2.2 v-5.3c0-0.9-0.3-1.7-0.8-2.2c-0.5-0.6-1.3-0.9-2.1-0.9c-0.9,0-1.6,0.3-2.1,0.9s-0.8,1.3-0.8,2.2v5.3c0,0.9,0.3,1.7,0.8,2.2 c0.5,0.6,1.2,0.8,2.1,0.8S524.7,233.3,525.2,232.7z"></path> </g> <g class="st5"> <path d="M541.6,219.5c0.1-0.1,0.1-0.1,0.2-0.1h2.8c0.1,0,0.1,0,0.2,0.1c0.1,0.1,0.1,0.1,0.1,0.2v16.2c0,0.1,0,0.1-0.1,0.2 s-0.1,0.1-0.2,0.1h-2.7c-0.2,0-0.3-0.1-0.3-0.2l-6.2-10.3l-0.1-0.1c0,0,0,0,0,0.1v10.1c0,0.1,0,0.1-0.1,0.2s-0.1,0.1-0.2,0.1 h-2.8c-0.1,0-0.1,0-0.2-0.1c-0.1-0.1-0.1-0.1-0.1-0.2v-16.2c0-0.1,0-0.1,0.1-0.2s0.1-0.1,0.2-0.1h2.7c0.2,0,0.3,0.1,0.3,0.2 l6.2,10.2l0.1,0.1c0,0,0,0,0-0.1v-10.1C541.5,219.6,541.6,219.5,541.6,219.5z"></path> </g> <g class="st5"> <path d="M550.2,235.8c-1-0.4-1.7-1-2.2-1.8s-0.8-1.6-0.8-2.7v-0.5c0-0.1,0-0.1,0.1-0.2s0.1-0.1,0.2-0.1h2.7 c0.1,0,0.1,0,0.2,0.1c0.1,0.1,0.1,0.1,0.1,0.2v0.4c0,0.6,0.3,1.2,0.9,1.6c0.6,0.4,1.4,0.7,2.4,0.7c0.8,0,1.5-0.2,1.9-0.5 s0.6-0.8,0.6-1.3c0-0.4-0.1-0.7-0.4-1c-0.3-0.3-0.6-0.5-1-0.7s-1.1-0.5-2.1-0.8c-1.1-0.4-2-0.7-2.7-1.1s-1.4-0.9-1.9-1.6 s-0.8-1.5-0.8-2.5s0.2-1.8,0.7-2.5s1.2-1.3,2.1-1.7c0.9-0.4,1.9-0.6,3-0.6c1.2,0,2.3,0.2,3.3,0.6s1.7,1,2.2,1.8 s0.8,1.7,0.8,2.7v0.4c0,0.1,0,0.1-0.1,0.2s-0.1,0.1-0.2,0.1h-2.8c-0.1,0-0.1,0-0.2-0.1c-0.1-0.1-0.1-0.1-0.1-0.2v-0.2 c0-0.7-0.3-1.2-0.8-1.7c-0.6-0.5-1.3-0.7-2.3-0.7c-0.8,0-1.3,0.2-1.8,0.5c-0.4,0.3-0.6,0.8-0.6,1.3c0,0.4,0.1,0.7,0.4,1 c0.2,0.3,0.6,0.5,1.1,0.7s1.2,0.5,2.3,0.9s2,0.8,2.7,1.1c0.6,0.3,1.2,0.8,1.8,1.4s0.8,1.5,0.8,2.5c0,1.5-0.6,2.7-1.7,3.6 s-2.6,1.3-4.5,1.3C552.3,236.4,551.1,236.2,550.2,235.8z"></path> <path d="M564.9,235.7c-0.9-0.5-1.7-1.2-2.2-2c-0.5-0.9-0.8-1.9-0.8-3v-10.9c0-0.1,0-0.1,0.1-0.2s0.1-0.1,0.2-0.1h2.8 c0.1,0,0.1,0,0.2,0.1c0.1,0.1,0.1,0.1,0.1,0.2v11c0,0.8,0.3,1.5,0.8,2.1c0.5,0.5,1.2,0.8,2.1,0.8c0.8,0,1.5-0.3,2.1-0.8 c0.5-0.5,0.8-1.2,0.8-2.1v-11c0-0.1,0-0.1,0.1-0.2s0.1-0.1,0.2-0.1h2.8c0.1,0,0.1,0,0.2,0.1s0.1,0.1,0.1,0.2v10.9 c0,1.1-0.3,2.1-0.8,3s-1.2,1.5-2.2,2c-0.9,0.5-2,0.7-3.3,0.7C566.9,236.4,565.8,236.2,564.9,235.7z"></path> </g> <g class="st5"> <path d="M588.1,219.4h2.8c0.1,0,0.1,0,0.2,0.1s0.1,0.1,0.1,0.2v16.2c0,0.1,0,0.1-0.1,0.2s-0.1,0.1-0.2,0.1h-2.8 c-0.1,0-0.1,0-0.2-0.1c-0.1-0.1-0.1-0.1-0.1-0.2v-10.6c0-0.1,0-0.1,0-0.1s-0.1,0-0.1,0.1l-2.5,4c-0.1,0.1-0.2,0.2-0.3,0.2h-1.4 c-0.1,0-0.3-0.1-0.3-0.2l-2.5-4l-0.1-0.1c0,0,0,0,0,0.1v10.6c0,0.1,0,0.1-0.1,0.2s-0.1,0.1-0.2,0.1h-2.8c-0.1,0-0.1,0-0.2-0.1 c-0.1-0.1-0.1-0.1-0.1-0.2v-16.2c0-0.1,0-0.1,0.1-0.2s0.1-0.1,0.2-0.1h2.8c0.1,0,0.3,0.1,0.3,0.2l3.6,5.6c0,0.1,0.1,0.1,0.1,0 l3.6-5.6C587.9,219.5,588,219.4,588.1,219.4z"></path> </g> <g class="st5"> <path d="M603.8,220c0.8,0.4,1.4,1,1.9,1.8s0.7,1.7,0.7,2.7s-0.2,1.9-0.7,2.7c-0.5,0.8-1.1,1.4-1.9,1.8 c-0.8,0.4-1.8,0.6-2.8,0.6h-3.4c-0.1,0-0.1,0-0.1,0.1v6.1c0,0.1,0,0.1-0.1,0.2s-0.1,0.1-0.2,0.1h-2.8c-0.1,0-0.1,0-0.2-0.1 c-0.1-0.1-0.1-0.1-0.1-0.2v-16.2c0-0.1,0-0.1,0.1-0.2s0.1-0.1,0.2-0.1h6.8C602.1,219.4,603,219.6,603.8,220z M602.3,226.3 c0.4-0.4,0.7-1,0.7-1.7s-0.2-1.3-0.7-1.7s-1-0.6-1.8-0.6h-3c-0.1,0-0.1,0-0.1,0.1v4.4c0,0.1,0,0.1,0.1,0.1h3 C601.3,227,601.8,226.8,602.3,226.3z"></path> </g> <g class="st5"> <path d="M620.5,219.5c0.1,0.1,0.1,0.1,0.1,0.2v2.4c0,0.1,0,0.1-0.1,0.2s-0.1,0.1-0.2,0.1H616c-0.1,0-0.1,0-0.1,0.1V236 c0,0.1,0,0.1-0.1,0.2s-0.1,0.1-0.2,0.1h-2.8c-0.1,0-0.1,0-0.2-0.1c-0.1-0.1-0.1-0.1-0.1-0.2v-13.5c0-0.1,0-0.1-0.1-0.1h-4.2 c-0.1,0-0.1,0-0.2-0.1c-0.1-0.1-0.1-0.1-0.1-0.2v-2.4c0-0.1,0-0.1,0.1-0.2s0.1-0.1,0.2-0.1h12.1 C620.4,219.4,620.4,219.4,620.5,219.5z"></path> </g> <g class="st5"> <path d="M622.8,236.1c-0.1-0.1-0.1-0.1-0.1-0.2v-16.2c0-0.1,0-0.1,0.1-0.2s0.1-0.1,0.2-0.1h2.8c0.1,0,0.1,0,0.2,0.1 c0.1,0.1,0.1,0.1,0.1,0.2v16.2c0,0.1,0,0.1-0.1,0.2s-0.1,0.1-0.2,0.1H623C622.9,236.2,622.8,236.2,622.8,236.1z"></path> <path d="M631.7,235.7c-1-0.5-1.7-1.2-2.2-2.1s-0.8-2-0.8-3.2v-5.1c0-1.2,0.3-2.2,0.8-3.1s1.3-1.6,2.2-2.1s2.1-0.8,3.3-0.8 c1.3,0,2.4,0.3,3.3,0.8s1.7,1.2,2.2,2.1s0.8,2,0.8,3.1v5.1c0,1.2-0.3,2.3-0.8,3.2c-0.5,0.9-1.3,1.6-2.2,2.1s-2.1,0.8-3.3,0.8 C633.7,236.5,632.6,236.2,631.7,235.7z M637.1,232.7c0.5-0.6,0.8-1.3,0.8-2.2v-5.3c0-0.9-0.3-1.7-0.8-2.2 c-0.5-0.6-1.3-0.9-2.1-0.9c-0.9,0-1.6,0.3-2.1,0.9s-0.8,1.3-0.8,2.2v5.3c0,0.9,0.3,1.7,0.8,2.2c0.5,0.6,1.2,0.8,2.1,0.8 S636.6,233.3,637.1,232.7z"></path> </g> <g class="st5"> <path d="M653.5,219.5c0.1-0.1,0.1-0.1,0.2-0.1h2.8c0.1,0,0.1,0,0.2,0.1s0.1,0.1,0.1,0.2v16.2c0,0.1,0,0.1-0.1,0.2 s-0.1,0.1-0.2,0.1h-2.7c-0.2,0-0.3-0.1-0.3-0.2l-6.2-10.3l-0.1-0.1c0,0,0,0,0,0.1v10.1c0,0.1,0,0.1-0.1,0.2s-0.1,0.1-0.2,0.1 h-2.8c-0.1,0-0.1,0-0.2-0.1c-0.1-0.1-0.1-0.1-0.1-0.2v-16.2c0-0.1,0-0.1,0.1-0.2s0.1-0.1,0.2-0.1h2.7c0.2,0,0.3,0.1,0.3,0.2 l6.2,10.2l0.1,0.1c0,0,0,0,0-0.1v-10.1C653.4,219.6,653.5,219.5,653.5,219.5z"></path> </g> </g> </g> <g> <g> <g class="st5"> <path d="M71.1,547.7c-0.9-0.5-1.7-1.2-2.2-2.1c-0.5-0.9-0.8-1.9-0.8-3v-5.5c0-1.2,0.3-2.2,0.8-3c0.5-0.9,1.2-1.6,2.2-2 c0.9-0.5,2-0.7,3.3-0.7c1.2,0,2.3,0.2,3.3,0.7s1.7,1.1,2.2,1.9c0.5,0.8,0.8,1.8,0.8,2.9c0,0.1-0.1,0.2-0.3,0.3l-2.8,0.2l0,0 c-0.2,0-0.2-0.1-0.2-0.3c0-0.8-0.3-1.5-0.8-2s-1.2-0.8-2.1-0.8s-1.6,0.3-2.1,0.8s-0.8,1.2-0.8,2v5.8c0,0.8,0.3,1.5,0.8,2 s1.2,0.8,2.1,0.8c0.8,0,1.5-0.3,2.1-0.8c0.5-0.5,0.8-1.2,0.8-2c0-0.2,0.1-0.3,0.3-0.3l2.8,0.1c0.1,0,0.1,0,0.2,0.1 c0.1,0,0.1,0.1,0.1,0.2c0,1.1-0.3,2.1-0.8,2.9c-0.5,0.8-1.2,1.5-2.2,2s-2,0.7-3.3,0.7C73.1,548.4,72,548.2,71.1,547.7z"></path> <path d="M85.8,547.7c-1-0.5-1.7-1.2-2.2-2.1c-0.5-0.9-0.8-2-0.8-3.2v-5.1c0-1.2,0.3-2.2,0.8-3.1c0.5-0.9,1.3-1.6,2.2-2.1 c1-0.5,2.1-0.8,3.3-0.8c1.3,0,2.4,0.3,3.3,0.8c1,0.5,1.7,1.2,2.2,2.1c0.5,0.9,0.8,2,0.8,3.1v5.1c0,1.2-0.3,2.3-0.8,3.2 s-1.3,1.6-2.2,2.1c-1,0.5-2.1,0.8-3.3,0.8C87.8,548.5,86.7,548.3,85.8,547.7z M91.2,544.8c0.5-0.6,0.8-1.3,0.8-2.2v-5.3 c0-0.9-0.3-1.7-0.8-2.2c-0.5-0.6-1.3-0.9-2.1-0.9c-0.9,0-1.6,0.3-2.1,0.9c-0.5,0.6-0.8,1.3-0.8,2.2v5.3c0,0.9,0.3,1.7,0.8,2.2 c0.5,0.6,1.2,0.8,2.1,0.8S90.6,545.3,91.2,544.8z"></path> <path d="M102.1,545.3L102.1,545.3h6.6c0.1,0,0.1,0,0.2,0.1s0.1,0.1,0.1,0.2v2.3c0,0.1,0,0.1-0.1,0.2c-0.1,0.1-0.1,0.1-0.2,0.1 H97.9c-0.1,0-0.1,0-0.2-0.1s-0.1-0.1-0.1-0.2v-2.2c0-0.1,0-0.3,0.1-0.4c0.8-0.8,1.6-1.6,2.4-2.5s1.3-1.5,1.5-1.7 c0.4-0.5,0.9-1,1.4-1.5c1.5-1.6,2.2-2.8,2.2-3.6c0-0.6-0.2-1-0.6-1.4s-0.9-0.5-1.6-0.5c-0.6,0-1.2,0.2-1.6,0.5 c-0.4,0.4-0.6,0.8-0.6,1.4v0.6c0,0.1,0,0.1-0.1,0.2c-0.1,0.1-0.1,0.1-0.2,0.1h-2.8c-0.1,0-0.1,0-0.2-0.1s-0.1-0.1-0.1-0.2v-1.1 c0-0.9,0.3-1.6,0.8-2.3s1.2-1.2,2-1.5s1.7-0.5,2.8-0.5c1.1,0,2.1,0.2,3,0.6c0.8,0.4,1.5,1,1.9,1.7c0.5,0.7,0.7,1.5,0.7,2.4 c0,0.7-0.2,1.4-0.5,2.1s-0.8,1.5-1.5,2.3c-0.5,0.6-1,1.2-1.6,1.8s-1.4,1.5-2.6,2.6L102.1,545.3 C102.1,545.2,102.1,545.3,102.1,545.3z"></path> </g> <g class="st5"> <path d="M127.8,534.3c-0.1,0.1-0.1,0.1-0.2,0.1h-7.9c-0.1,0-0.1,0-0.1,0.1v3.7c0,0.1,0,0.1,0.1,0.1h5.2c0.1,0,0.1,0,0.2,0.1 s0.1,0.1,0.1,0.2v2.3c0,0.1,0,0.1-0.1,0.2c-0.1,0.1-0.1,0.1-0.2,0.1h-5.2c-0.1,0-0.1,0-0.1,0.1v3.9c0,0.1,0,0.1,0.1,0.1h7.9 c0.1,0,0.1,0,0.2,0.1s0.1,0.1,0.1,0.2v2.3c0,0.1,0,0.1-0.1,0.2c-0.1,0.1-0.1,0.1-0.2,0.1h-11.1c-0.1,0-0.1,0-0.2-0.1 s-0.1-0.1-0.1-0.2v-16.2c0-0.1,0-0.1,0.1-0.2s0.1-0.1,0.2-0.1h11.1c0.1,0,0.1,0,0.2,0.1s0.1,0.1,0.1,0.2v2.3 C127.9,534.1,127.8,534.2,127.8,534.3z"></path> </g> <g class="st5"> <path d="M138.9,532c0.9,0.5,1.6,1.2,2.2,2.1c0.5,0.9,0.8,2,0.8,3.2v5.4c0,1.4-0.4,2.6-1.2,3.6c-0.8,1-1.8,1.6-3.2,2 c-0.1,0-0.1,0.1-0.1,0.1v2c0,0.1,0,0.1-0.1,0.2c-0.1,0.1-0.1,0.1-0.2,0.1h-2.8c-0.1,0-0.1,0-0.2-0.1s-0.1-0.1-0.1-0.2v-1.9 c0-0.1,0-0.1-0.1-0.1c-1.3-0.3-2.4-1-3.2-2c-0.8-1-1.2-2.2-1.2-3.6v-5.4c0-1.2,0.3-2.3,0.8-3.2s1.2-1.6,2.2-2.1 c0.9-0.5,2-0.8,3.2-0.8C136.9,531.3,138,531.5,138.9,532z M138.5,537.1c0-0.9-0.3-1.6-0.8-2.1s-1.2-0.8-2-0.8s-1.5,0.3-2,0.8 s-0.8,1.3-0.8,2.1v5.5c0,0.9,0.3,1.6,0.8,2.1s1.2,0.8,2,0.8s1.5-0.3,2-0.8s0.8-1.3,0.8-2.1V537.1z"></path> </g> <g class="st5"> <path d="M147.2,547.7c-0.9-0.5-1.7-1.2-2.2-2c-0.5-0.9-0.8-1.9-0.8-3v-10.9c0-0.1,0-0.1,0.1-0.2c0.1-0.1,0.1-0.1,0.2-0.1h2.8 c0.1,0,0.1,0,0.2,0.1s0.1,0.1,0.1,0.2v11c0,0.8,0.3,1.5,0.8,2.1c0.5,0.5,1.2,0.8,2.1,0.8c0.8,0,1.5-0.3,2.1-0.8 c0.5-0.5,0.8-1.2,0.8-2.1v-11c0-0.1,0-0.1,0.1-0.2c0.1-0.1,0.1-0.1,0.2-0.1h2.8c0.1,0,0.1,0,0.2,0.1s0.1,0.1,0.1,0.2v10.9 c0,1.1-0.3,2.1-0.8,3s-1.2,1.5-2.2,2c-0.9,0.5-2,0.7-3.3,0.7C149.3,548.4,148.2,548.2,147.2,547.7z"></path> </g> <g class="st5"> <path d="M159.5,548.2c-0.1-0.1-0.1-0.1-0.1-0.2v-16.2c0-0.1,0-0.1,0.1-0.2s0.1-0.1,0.2-0.1h2.8c0.1,0,0.1,0,0.2,0.1 c0.1,0.1,0.1,0.1,0.1,0.2V548c0,0.1,0,0.1-0.1,0.2c-0.1,0.1-0.1,0.1-0.2,0.1h-2.8C159.6,548.2,159.5,548.2,159.5,548.2z"></path> </g> <g class="st5"> <path d="M169.8,548l-4.9-16.2v-0.1c0-0.2,0.1-0.2,0.3-0.2h3c0.2,0,0.3,0.1,0.3,0.2l3.2,11.7c0,0,0,0.1,0.1,0.1 c0,0,0.1,0,0.1-0.1l3.1-11.7c0-0.2,0.2-0.2,0.3-0.2h3c0.1,0,0.2,0,0.2,0.1s0.1,0.1,0,0.2l-5,16.2c0,0.2-0.2,0.2-0.3,0.2h-3 C170,548.2,169.9,548.2,169.8,548z"></path> </g> <g class="st5"> <path d="M189.3,548l-0.7-2.4c0-0.1-0.1-0.1-0.1-0.1h-5.9c0,0-0.1,0-0.1,0.1l-0.7,2.4c0,0.2-0.2,0.2-0.3,0.2h-3 c-0.1,0-0.2,0-0.2-0.1s-0.1-0.1,0-0.3l5.2-16.2c0-0.2,0.2-0.2,0.3-0.2h3.8c0.2,0,0.3,0.1,0.3,0.2l5.2,16.2v0.1 c0,0.1-0.1,0.2-0.3,0.2h-3C189.4,548.2,189.3,548.2,189.3,548z M183.4,542.9h4.2c0.1,0,0.1,0,0.1-0.1l-2.2-7.1 c0-0.1,0-0.1-0.1-0.1c0,0-0.1,0-0.1,0.1l-2.1,7.1C183.2,542.9,183.3,542.9,183.4,542.9z"></path> <path d="M195.1,548.2c-0.1-0.1-0.1-0.1-0.1-0.2v-16.2c0-0.1,0-0.1,0.1-0.2s0.1-0.1,0.2-0.1h2.8c0.1,0,0.1,0,0.2,0.1 c0.1,0.1,0.1,0.1,0.1,0.2v13.5c0,0.1,0,0.1,0.1,0.1h7.8c0.1,0,0.1,0,0.2,0.1c0.1,0.1,0.1,0.1,0.1,0.2v2.3c0,0.1,0,0.1-0.1,0.2 c-0.1,0.1-0.1,0.1-0.2,0.1L195.1,548.2C195.2,548.2,195.1,548.2,195.1,548.2z"></path> </g> <g class="st5"> <path d="M220.3,534.3c-0.1,0.1-0.1,0.1-0.2,0.1h-7.9c-0.1,0-0.1,0-0.1,0.1v3.7c0,0.1,0,0.1,0.1,0.1h5.2c0.1,0,0.1,0,0.2,0.1 c0.1,0.1,0.1,0.1,0.1,0.2v2.3c0,0.1,0,0.1-0.1,0.2c-0.1,0.1-0.1,0.1-0.2,0.1h-5.2c-0.1,0-0.1,0-0.1,0.1v3.9 c0,0.1,0,0.1,0.1,0.1h7.9c0.1,0,0.1,0,0.2,0.1c0.1,0.1,0.1,0.1,0.1,0.2v2.3c0,0.1,0,0.1-0.1,0.2c-0.1,0.1-0.1,0.1-0.2,0.1H209 c-0.1,0-0.1,0-0.2-0.1c-0.1-0.1-0.1-0.1-0.1-0.2v-16.2c0-0.1,0-0.1,0.1-0.2c0.1-0.1,0.1-0.1,0.2-0.1h11.1c0.1,0,0.1,0,0.2,0.1 c0.1,0.1,0.1,0.1,0.1,0.2v2.3C220.4,534.1,220.3,534.2,220.3,534.3z"></path> </g> <g class="st5"> <path d="M232.3,531.5c0.1-0.1,0.1-0.1,0.2-0.1h2.8c0.1,0,0.1,0,0.2,0.1c0.1,0.1,0.1,0.1,0.1,0.2v16.2c0,0.1,0,0.1-0.1,0.2 c-0.1,0.1-0.1,0.1-0.2,0.1h-2.7c-0.2,0-0.3-0.1-0.3-0.2l-6.2-10.3l-0.1-0.1c0,0,0,0,0,0.1v10.1c0,0.1,0,0.1-0.1,0.2 c-0.1,0.1-0.1,0.1-0.2,0.1h-2.8c-0.1,0-0.1,0-0.2-0.1c-0.1-0.1-0.1-0.1-0.1-0.2v-16.2c0-0.1,0-0.1,0.1-0.2s0.1-0.1,0.2-0.1h2.7 c0.2,0,0.3,0.1,0.3,0.2l6.2,10.2l0.1,0.1c0,0,0,0,0-0.1v-10.1C232.2,531.7,232.3,531.6,232.3,531.5z"></path> <path d="M250.3,531.5c0.1,0.1,0.1,0.1,0.1,0.2v2.4c0,0.1,0,0.1-0.1,0.2c-0.1,0.1-0.1,0.1-0.2,0.1h-4.3c-0.1,0-0.1,0-0.1,0.1 V548c0,0.1,0,0.1-0.1,0.2c-0.1,0.1-0.1,0.1-0.2,0.1h-2.8c-0.1,0-0.1,0-0.2-0.1c-0.1-0.1-0.1-0.1-0.1-0.2v-13.5 c0-0.1,0-0.1-0.1-0.1H238c-0.1,0-0.1,0-0.2-0.1c-0.1-0.1-0.1-0.1-0.1-0.2v-2.4c0-0.1,0-0.1,0.1-0.2s0.1-0.1,0.2-0.1h12.1 C250.2,531.4,250.3,531.5,250.3,531.5z"></path> </g> </g> </g> <g> <g> <g class="st5"> <path d="M122.8,577.8c-1-0.4-1.7-1-2.2-1.8s-0.8-1.6-0.8-2.7v-0.5c0-0.1,0-0.1,0.1-0.2c0.1-0.1,0.1-0.1,0.2-0.1h2.7 c0.1,0,0.1,0,0.2,0.1s0.1,0.1,0.1,0.2v0.4c0,0.6,0.3,1.2,0.9,1.6c0.6,0.4,1.4,0.7,2.4,0.7c0.8,0,1.5-0.2,1.9-0.5 s0.6-0.8,0.6-1.3c0-0.4-0.1-0.7-0.4-1s-0.6-0.5-1-0.7s-1.1-0.5-2.1-0.8c-1.1-0.4-2-0.7-2.7-1.1s-1.4-0.9-1.9-1.6 c-0.5-0.7-0.8-1.5-0.8-2.5s0.2-1.8,0.7-2.5s1.2-1.3,2.1-1.7s1.9-0.6,3-0.6c1.2,0,2.3,0.2,3.3,0.6c1,0.4,1.7,1,2.2,1.8 s0.8,1.7,0.8,2.7v0.4c0,0.1,0,0.1-0.1,0.2c-0.1,0.1-0.1,0.1-0.2,0.1H129c-0.1,0-0.1,0-0.2-0.1s-0.1-0.1-0.1-0.2v-0.2 c0-0.7-0.3-1.2-0.8-1.7c-0.6-0.5-1.3-0.7-2.3-0.7c-0.8,0-1.3,0.2-1.8,0.5c-0.4,0.3-0.6,0.8-0.6,1.3c0,0.4,0.1,0.7,0.4,1 c0.2,0.3,0.6,0.5,1.1,0.7s1.2,0.5,2.3,0.9c1.1,0.4,2,0.8,2.7,1.1c0.6,0.3,1.2,0.8,1.8,1.4s0.8,1.5,0.8,2.5 c0,1.5-0.6,2.7-1.7,3.6s-2.6,1.3-4.5,1.3C124.9,578.4,123.8,578.2,122.8,577.8z"></path> </g> <g class="st5"> <path d="M144.9,578l-0.7-2.4c0-0.1-0.1-0.1-0.1-0.1h-5.9c0,0-0.1,0-0.1,0.1l-0.7,2.4c0,0.2-0.2,0.2-0.3,0.2h-3 c-0.1,0-0.2,0-0.2-0.1s-0.1-0.1,0-0.3l5.2-16.2c0-0.2,0.2-0.2,0.3-0.2h3.8c0.2,0,0.3,0.1,0.3,0.2l5.2,16.2v0.1 c0,0.1-0.1,0.2-0.3,0.2h-3C145.1,578.2,145,578.2,144.9,578z M139,572.9h4.2c0.1,0,0.1,0,0.1-0.1l-2.2-7.1c0-0.1,0-0.1-0.1-0.1 c0,0-0.1,0-0.1,0.1l-2.1,7.1C138.9,572.9,138.9,572.9,139,572.9z"></path> </g> <g class="st5"> <path d="M153,578l-4.9-16.2v-0.1c0-0.2,0.1-0.2,0.3-0.2h3c0.2,0,0.3,0.1,0.3,0.2l3.2,11.7c0,0,0,0.1,0.1,0.1c0,0,0.1,0,0.1-0.1 l3.1-11.7c0-0.2,0.2-0.2,0.3-0.2h3c0.1,0,0.2,0,0.2,0.1s0.1,0.1,0,0.2l-5,16.2c0,0.2-0.2,0.2-0.3,0.2h-3 C153.1,578.2,153,578.2,153,578z"></path> </g> <g class="st5"> <path d="M163.9,578.2c-0.1-0.1-0.1-0.1-0.1-0.2v-16.2c0-0.1,0-0.1,0.1-0.2s0.1-0.1,0.2-0.1h2.8c0.1,0,0.1,0,0.2,0.1 c0.1,0.1,0.1,0.1,0.1,0.2V578c0,0.1,0,0.1-0.1,0.2c-0.1,0.1-0.1,0.1-0.2,0.1h-2.8C164,578.2,164,578.2,163.9,578.2z"></path> </g> <g class="st5"> <path d="M179.8,561.5c0.1-0.1,0.1-0.1,0.2-0.1h2.8c0.1,0,0.1,0,0.2,0.1c0.1,0.1,0.1,0.1,0.1,0.2v16.2c0,0.1,0,0.1-0.1,0.2 c-0.1,0.1-0.1,0.1-0.2,0.1h-2.7c-0.2,0-0.3-0.1-0.3-0.2l-6.2-10.3l-0.1-0.1c0,0,0,0,0,0.1v10.1c0,0.1,0,0.1-0.1,0.2 c-0.1,0.1-0.1,0.1-0.2,0.1h-2.8c-0.1,0-0.1,0-0.2-0.1c-0.1-0.1-0.1-0.1-0.1-0.2v-16.2c0-0.1,0-0.1,0.1-0.2s0.1-0.1,0.2-0.1h2.7 c0.2,0,0.3,0.1,0.3,0.2l6.2,10.2l0.1,0.1c0,0,0,0,0-0.1v-10.1C179.7,561.7,179.7,561.6,179.8,561.5z"></path> </g> <g class="st5"> <path d="M188.5,577.7c-0.9-0.5-1.7-1.2-2.2-2.1c-0.5-0.9-0.8-1.9-0.8-3.1v-5.4c0-1.2,0.3-2.2,0.8-3.1c0.5-0.9,1.3-1.6,2.2-2.1 s2-0.7,3.3-0.7c1.2,0,2.3,0.2,3.2,0.7s1.7,1.1,2.2,2c0.5,0.8,0.8,1.7,0.8,2.7v0.2c0,0.1,0,0.1-0.1,0.2 c-0.1,0.1-0.1,0.1-0.2,0.1h-2.8c-0.1,0-0.1,0-0.2-0.1c-0.1-0.1-0.1-0.1-0.1-0.2v-0.1c0-0.7-0.3-1.4-0.8-1.9s-1.2-0.8-2-0.8 c-0.9,0-1.6,0.3-2.1,0.8s-0.8,1.2-0.8,2.1v5.6c0,0.9,0.3,1.6,0.8,2.1s1.3,0.8,2.1,0.8s1.5-0.2,2-0.7c0.5-0.4,0.7-1.1,0.7-1.8 v-1.1c0-0.1,0-0.1-0.1-0.1h-2.7c-0.1,0-0.1,0-0.2-0.1c-0.1-0.1-0.1-0.1-0.1-0.2v-2.2c0-0.1,0-0.1,0.1-0.2 c0.1-0.1,0.1-0.1,0.2-0.1h5.9c0.1,0,0.1,0,0.2,0.1c0.1,0.1,0.1,0.1,0.1,0.2v3.2c0,1.2-0.3,2.3-0.8,3.2s-1.2,1.6-2.2,2.1 s-2,0.7-3.3,0.7C190.5,578.4,189.4,578.2,188.5,577.7z"></path> </g> </g> </g> <g> <g> <g class="st5"> <path d="M534.4,545.3c-0.1,0.1-0.1,0.1-0.2,0.1h-7.9c-0.1,0-0.1,0-0.1,0.1v3.7c0,0.1,0,0.1,0.1,0.1h5.2c0.1,0,0.1,0,0.2,0.1 c0.1,0.1,0.1,0.1,0.1,0.2v2.3c0,0.1,0,0.1-0.1,0.2c-0.1,0.1-0.1,0.1-0.2,0.1h-5.2c-0.1,0-0.1,0-0.1,0.1v3.9 c0,0.1,0,0.1,0.1,0.1h7.9c0.1,0,0.1,0,0.2,0.1c0.1,0.1,0.1,0.1,0.1,0.2v2.3c0,0.1,0,0.1-0.1,0.2c-0.1,0.1-0.1,0.1-0.2,0.1 h-11.1c-0.1,0-0.1,0-0.2-0.1c-0.1-0.1-0.1-0.1-0.1-0.2v-16.2c0-0.1,0-0.1,0.1-0.2s0.1-0.1,0.2-0.1h11.1c0.1,0,0.1,0,0.2,0.1 s0.1,0.1,0.1,0.2v2.3C534.5,545.1,534.5,545.2,534.4,545.3z"></path> </g> <g class="st5"> <path d="M536.8,559.2c-0.1-0.1-0.1-0.1-0.1-0.2v-16.2c0-0.1,0-0.1,0.1-0.2s0.1-0.1,0.2-0.1h2.8c0.1,0,0.1,0,0.2,0.1 c0.1,0.1,0.1,0.1,0.1,0.2v13.5c0,0.1,0,0.1,0.1,0.1h7.8c0.1,0,0.1,0,0.2,0.1c0.1,0.1,0.1,0.1,0.1,0.2v2.3c0,0.1,0,0.1-0.1,0.2 c-0.1,0.1-0.1,0.1-0.2,0.1h-11C536.9,559.2,536.9,559.2,536.8,559.2z"></path> </g> <g class="st5"> <path d="M562,545.3c-0.1,0.1-0.1,0.1-0.2,0.1h-7.9c-0.1,0-0.1,0-0.1,0.1v3.7c0,0.1,0,0.1,0.1,0.1h5.2c0.1,0,0.1,0,0.2,0.1 c0.1,0.1,0.1,0.1,0.1,0.2v2.3c0,0.1,0,0.1-0.1,0.2c-0.1,0.1-0.1,0.1-0.2,0.1h-5.2c-0.1,0-0.1,0-0.1,0.1v3.9 c0,0.1,0,0.1,0.1,0.1h7.9c0.1,0,0.1,0,0.2,0.1c0.1,0.1,0.1,0.1,0.1,0.2v2.3c0,0.1,0,0.1-0.1,0.2c-0.1,0.1-0.1,0.1-0.2,0.1 h-11.1c-0.1,0-0.1,0-0.2-0.1c-0.1-0.1-0.1-0.1-0.1-0.2v-16.2c0-0.1,0-0.1,0.1-0.2s0.1-0.1,0.2-0.1h11.1c0.1,0,0.1,0,0.2,0.1 s0.1,0.1,0.1,0.2v2.3C562.1,545.1,562.1,545.2,562,545.3z"></path> </g> <g class="st5"> <path d="M566.8,558.7c-0.9-0.5-1.7-1.2-2.2-2.1c-0.5-0.9-0.8-1.9-0.8-3v-5.5c0-1.2,0.3-2.2,0.8-3c0.5-0.9,1.2-1.6,2.2-2 c0.9-0.5,2-0.7,3.3-0.7c1.2,0,2.3,0.2,3.3,0.7s1.7,1.1,2.2,1.9c0.5,0.8,0.8,1.8,0.8,2.9c0,0.1-0.1,0.2-0.3,0.3l-2.8,0.2l0,0 c-0.2,0-0.2-0.1-0.2-0.3c0-0.8-0.3-1.5-0.8-2s-1.2-0.8-2.1-0.8c-0.9,0-1.6,0.3-2.1,0.8s-0.8,1.2-0.8,2v5.8c0,0.8,0.3,1.5,0.8,2 s1.2,0.8,2.1,0.8c0.8,0,1.5-0.3,2.1-0.8c0.5-0.5,0.8-1.2,0.8-2c0-0.2,0.1-0.3,0.3-0.3l2.8,0.1c0.1,0,0.1,0,0.2,0.1 c0.1,0,0.1,0.1,0.1,0.2c0,1.1-0.3,2.1-0.8,2.9c-0.5,0.8-1.2,1.5-2.2,2s-2,0.7-3.3,0.7C568.9,559.4,567.8,559.2,566.8,558.7z"></path> </g> <g class="st5"> <path d="M590.6,542.5c0.1,0.1,0.1,0.1,0.1,0.2v2.4c0,0.1,0,0.1-0.1,0.2c-0.1,0.1-0.1,0.1-0.2,0.1h-4.3c-0.1,0-0.1,0-0.1,0.1 V559c0,0.1,0,0.1-0.1,0.2c-0.1,0.1-0.1,0.1-0.2,0.1h-2.8c-0.1,0-0.1,0-0.2-0.1c-0.1-0.1-0.1-0.1-0.1-0.2v-13.5 c0-0.1,0-0.1-0.1-0.1h-4.2c-0.1,0-0.1,0-0.2-0.1c-0.1-0.1-0.1-0.1-0.1-0.2v-2.4c0-0.1,0-0.1,0.1-0.2s0.1-0.1,0.2-0.1h12.1 C590.5,542.4,590.6,542.5,590.6,542.5z"></path> </g> <g class="st5"> <path d="M601.7,559l-3-6.6c0-0.1-0.1-0.1-0.1-0.1h-2.2c-0.1,0-0.1,0-0.1,0.1v6.6c0,0.1,0,0.1-0.1,0.2c-0.1,0.1-0.1,0.1-0.2,0.1 h-2.8c-0.1,0-0.1,0-0.2-0.1c-0.1-0.1-0.1-0.1-0.1-0.2v-16.2c0-0.1,0-0.1,0.1-0.2s0.1-0.1,0.2-0.1h6.9c1,0,1.9,0.2,2.7,0.6 c0.8,0.4,1.4,1,1.8,1.8c0.4,0.8,0.6,1.7,0.6,2.7c0,1.1-0.3,2-0.8,2.8s-1.3,1.3-2.3,1.6c-0.1,0-0.1,0.1-0.1,0.2l3.3,6.8 c0,0.1,0,0.1,0,0.1c0,0.1-0.1,0.2-0.3,0.2h-3C601.9,559.2,601.8,559.2,601.7,559z M596.2,545.5v4.1c0,0.1,0,0.1,0.1,0.1h3.1 c0.7,0,1.2-0.2,1.6-0.6c0.4-0.4,0.6-0.9,0.6-1.6s-0.2-1.2-0.6-1.6s-1-0.6-1.6-0.6h-3.1C596.3,545.4,596.2,545.4,596.2,545.5z"></path> <path d="M607.7,559.2c-0.1-0.1-0.1-0.1-0.1-0.2v-16.2c0-0.1,0-0.1,0.1-0.2c0.1-0.1,0.1-0.1,0.2-0.1h2.8c0.1,0,0.1,0,0.2,0.1 c0.1,0.1,0.1,0.1,0.1,0.2V559c0,0.1,0,0.1-0.1,0.2c-0.1,0.1-0.1,0.1-0.2,0.1h-2.8C607.8,559.2,607.7,559.2,607.7,559.2z"></path> </g> <g class="st5"> <path d="M616.3,558.7c-0.9-0.5-1.7-1.2-2.2-2.1s-0.8-1.9-0.8-3v-5.5c0-1.2,0.3-2.2,0.8-3c0.5-0.9,1.2-1.6,2.2-2 c0.9-0.5,2-0.7,3.3-0.7c1.2,0,2.3,0.2,3.3,0.7c0.9,0.5,1.7,1.1,2.2,1.9c0.5,0.8,0.8,1.8,0.8,2.9c0,0.1-0.1,0.2-0.3,0.3 l-2.8,0.2l0,0c-0.2,0-0.2-0.1-0.2-0.3c0-0.8-0.3-1.5-0.8-2s-1.2-0.8-2.1-0.8c-0.9,0-1.6,0.3-2.1,0.8s-0.8,1.2-0.8,2v5.8 c0,0.8,0.3,1.5,0.8,2s1.2,0.8,2.1,0.8c0.8,0,1.5-0.3,2.1-0.8c0.5-0.5,0.8-1.2,0.8-2c0-0.2,0.1-0.3,0.3-0.3l2.8,0.1 c0.1,0,0.1,0,0.2,0.1c0.1,0,0.1,0.1,0.1,0.2c0,1.1-0.3,2.1-0.8,2.9c-0.5,0.8-1.2,1.5-2.2,2c-0.9,0.5-2,0.7-3.3,0.7 C618.4,559.4,617.3,559.2,616.3,558.7z"></path> </g> <g class="st5"> <path d="M635.7,558.7c-0.9-0.5-1.7-1.2-2.2-2.1c-0.5-0.9-0.8-1.9-0.8-3v-5.5c0-1.2,0.3-2.2,0.8-3c0.5-0.9,1.2-1.6,2.2-2 c0.9-0.5,2-0.7,3.3-0.7c1.2,0,2.3,0.2,3.3,0.7c0.9,0.5,1.7,1.1,2.2,1.9c0.5,0.8,0.8,1.8,0.8,2.9c0,0.1-0.1,0.2-0.3,0.3 l-2.8,0.2l0,0c-0.2,0-0.2-0.1-0.2-0.3c0-0.8-0.3-1.5-0.8-2s-1.2-0.8-2.1-0.8c-0.9,0-1.6,0.3-2.1,0.8s-0.8,1.2-0.8,2v5.8 c0,0.8,0.3,1.5,0.8,2s1.2,0.8,2.1,0.8c0.8,0,1.5-0.3,2.1-0.8c0.5-0.5,0.8-1.2,0.8-2c0-0.2,0.1-0.3,0.3-0.3l2.8,0.1 c0.1,0,0.1,0,0.2,0.1c0.1,0,0.1,0.1,0.1,0.2c0,1.1-0.3,2.1-0.8,2.9c-0.5,0.8-1.2,1.5-2.2,2c-0.9,0.5-2,0.7-3.3,0.7 C637.8,559.4,636.7,559.2,635.7,558.7z"></path> </g> <g class="st5"> <path d="M657.7,559l-0.7-2.4c0-0.1-0.1-0.1-0.1-0.1H651c0,0-0.1,0-0.1,0.1l-0.7,2.4c0,0.2-0.2,0.2-0.3,0.2h-3 c-0.1,0-0.2,0-0.2-0.1s-0.1-0.1,0-0.3l5.2-16.2c0-0.2,0.2-0.2,0.3-0.2h3.8c0.2,0,0.3,0.1,0.3,0.2l5.2,16.2v0.1 c0,0.1-0.1,0.2-0.3,0.2h-3C657.9,559.2,657.7,559.2,657.7,559z M651.8,553.9h4.2c0.1,0,0.1,0,0.1-0.1l-2.2-7.1 c0-0.1,0-0.1-0.1-0.1c0,0-0.1,0-0.1,0.1l-2.1,7.1C651.7,553.9,651.7,553.9,651.8,553.9z"></path> <path d="M672.3,559l-3-6.6c0-0.1-0.1-0.1-0.1-0.1H667c-0.1,0-0.1,0-0.1,0.1v6.6c0,0.1,0,0.1-0.1,0.2c-0.1,0.1-0.1,0.1-0.2,0.1 h-2.8c-0.1,0-0.1,0-0.2-0.1s-0.1-0.1-0.1-0.2v-16.2c0-0.1,0-0.1,0.1-0.2c0.1-0.1,0.1-0.1,0.2-0.1h6.9c1,0,1.9,0.2,2.7,0.6 c0.8,0.4,1.4,1,1.8,1.8s0.6,1.7,0.6,2.7c0,1.1-0.3,2-0.8,2.8s-1.3,1.3-2.3,1.6c-0.1,0-0.1,0.1-0.1,0.2l3.3,6.8 c0,0.1,0,0.1,0,0.1c0,0.1-0.1,0.2-0.3,0.2h-3C672.5,559.2,672.4,559.2,672.3,559z M666.8,545.5v4.1c0,0.1,0,0.1,0.1,0.1h3.1 c0.7,0,1.2-0.2,1.6-0.6c0.4-0.4,0.6-0.9,0.6-1.6s-0.2-1.2-0.6-1.6s-1-0.6-1.6-0.6h-3.1C666.9,545.4,666.8,545.4,666.8,545.5z"></path> </g> </g> </g> <g> <g> <g class="st5"> <path d="M964.1,547.8c-1-0.4-1.7-1-2.2-1.8s-0.8-1.6-0.8-2.7v-0.5c0-0.1,0-0.1,0.1-0.2c0.1-0.1,0.1-0.1,0.2-0.1h2.7 c0.1,0,0.1,0,0.2,0.1s0.1,0.1,0.1,0.2v0.4c0,0.6,0.3,1.2,0.9,1.6c0.6,0.4,1.4,0.7,2.4,0.7c0.8,0,1.5-0.2,1.9-0.5 s0.6-0.8,0.6-1.3c0-0.4-0.1-0.7-0.4-1s-0.6-0.5-1-0.7s-1.1-0.5-2.1-0.8c-1.1-0.4-2-0.7-2.7-1.1s-1.4-0.9-1.9-1.6 c-0.5-0.7-0.8-1.5-0.8-2.5s0.2-1.8,0.7-2.5s1.2-1.3,2.1-1.7s1.9-0.6,3-0.6c1.2,0,2.3,0.2,3.3,0.6c1,0.4,1.7,1,2.2,1.8 s0.8,1.7,0.8,2.7v0.4c0,0.1,0,0.1-0.1,0.2c-0.1,0.1-0.1,0.1-0.2,0.1h-2.8c-0.1,0-0.1,0-0.2-0.1s-0.1-0.1-0.1-0.2v-0.2 c0-0.7-0.3-1.2-0.8-1.7c-0.6-0.5-1.3-0.7-2.3-0.7c-0.8,0-1.3,0.2-1.8,0.5c-0.4,0.3-0.6,0.8-0.6,1.3c0,0.4,0.1,0.7,0.4,1 c0.2,0.3,0.6,0.5,1.1,0.7s1.2,0.5,2.3,0.9c1.1,0.4,2,0.8,2.7,1.1c0.6,0.3,1.2,0.8,1.8,1.4c0.5,0.6,0.8,1.5,0.8,2.5 c0,1.5-0.6,2.7-1.7,3.6c-1.1,0.9-2.6,1.3-4.5,1.3C966.1,548.4,965,548.2,964.1,547.8z"></path> </g> <g class="st5"> <path d="M978.6,547.7c-1-0.5-1.7-1.2-2.2-2.1c-0.5-0.9-0.8-2-0.8-3.2v-5.1c0-1.2,0.3-2.2,0.8-3.1s1.3-1.6,2.2-2.1 s2.1-0.8,3.3-0.8c1.3,0,2.4,0.3,3.3,0.8s1.7,1.2,2.2,2.1c0.5,0.9,0.8,2,0.8,3.1v5.1c0,1.2-0.3,2.3-0.8,3.2s-1.3,1.6-2.2,2.1 s-2.1,0.8-3.3,0.8S979.6,548.3,978.6,547.7z M984.1,544.8c0.5-0.6,0.8-1.3,0.8-2.2v-5.3c0-0.9-0.3-1.7-0.8-2.2 c-0.5-0.6-1.3-0.9-2.1-0.9c-0.9,0-1.6,0.3-2.1,0.9c-0.5,0.6-0.8,1.3-0.8,2.2v5.3c0,0.9,0.3,1.7,0.8,2.2 c0.5,0.6,1.2,0.8,2.1,0.8S983.5,545.3,984.1,544.8z"></path> </g> <g class="st5"> <path d="M990.8,548.2c-0.1-0.1-0.1-0.1-0.1-0.2v-16.2c0-0.1,0-0.1,0.1-0.2c0.1-0.1,0.1-0.1,0.2-0.1h2.8c0.1,0,0.1,0,0.2,0.1 s0.1,0.1,0.1,0.2v13.5c0,0.1,0,0.1,0.1,0.1h7.8c0.1,0,0.1,0,0.2,0.1s0.1,0.1,0.1,0.2v2.3c0,0.1,0,0.1-0.1,0.2 c-0.1,0.1-0.1,0.1-0.2,0.1L990.8,548.2C991,548.2,990.9,548.2,990.8,548.2z"></path> </g> <g class="st5"> <path d="M1015.2,548l-0.7-2.4c0-0.1-0.1-0.1-0.1-0.1h-5.9c0,0-0.1,0-0.1,0.1l-0.7,2.4c0,0.2-0.2,0.2-0.3,0.2h-3 c-0.1,0-0.2,0-0.2-0.1s-0.1-0.1,0-0.3l5.2-16.2c0-0.2,0.2-0.2,0.3-0.2h3.8c0.2,0,0.3,0.1,0.3,0.2l5.2,16.2v0.1 c0,0.1-0.1,0.2-0.3,0.2h-3C1015.4,548.2,1015.3,548.2,1015.2,548z M1009.3,542.9h4.2c0.1,0,0.1,0,0.1-0.1l-2.2-7.1 c0-0.1,0-0.1-0.1-0.1c0,0-0.1,0-0.1,0.1l-2.1,7.1C1009.2,542.9,1009.2,542.9,1009.3,542.9z"></path> <path d="M1029.8,548l-3-6.6c0-0.1-0.1-0.1-0.1-0.1h-2.2c-0.1,0-0.1,0-0.1,0.1v6.6c0,0.1,0,0.1-0.1,0.2 c-0.1,0.1-0.1,0.1-0.2,0.1h-2.8c-0.1,0-0.1,0-0.2-0.1s-0.1-0.1-0.1-0.2v-16.2c0-0.1,0-0.1,0.1-0.2c0.1-0.1,0.1-0.1,0.2-0.1h6.9 c1,0,1.9,0.2,2.7,0.6c0.8,0.4,1.4,1,1.8,1.8s0.6,1.7,0.6,2.7c0,1.1-0.3,2-0.8,2.8s-1.3,1.3-2.3,1.6c-0.1,0-0.1,0.1-0.1,0.2 l3.3,6.8c0,0.1,0,0.1,0,0.1c0,0.1-0.1,0.2-0.3,0.2h-3C1030,548.2,1029.9,548.2,1029.8,548z M1024.4,534.5v4.1 c0,0.1,0,0.1,0.1,0.1h3.1c0.7,0,1.2-0.2,1.6-0.6c0.4-0.4,0.6-0.9,0.6-1.6s-0.2-1.2-0.6-1.6s-1-0.6-1.6-0.6h-3.1 C1024.4,534.4,1024.4,534.4,1024.4,534.5z"></path> </g> <g class="st5"> <path d="M1050.2,532.1c0.8,0.4,1.4,1,1.9,1.8c0.4,0.8,0.7,1.7,0.7,2.7s-0.2,1.9-0.7,2.7s-1.1,1.4-1.9,1.8s-1.8,0.6-2.8,0.6 h-3.4c-0.1,0-0.1,0-0.1,0.1v6.1c0,0.1,0,0.1-0.1,0.2c-0.1,0.1-0.1,0.1-0.2,0.1h-2.8c-0.1,0-0.1,0-0.2-0.1s-0.1-0.1-0.1-0.2 v-16.2c0-0.1,0-0.1,0.1-0.2c0.1-0.1,0.1-0.1,0.2-0.1h6.8C1048.5,531.4,1049.4,531.6,1050.2,532.1z M1048.7,538.4 c0.4-0.4,0.7-1,0.7-1.7s-0.2-1.3-0.7-1.7c-0.4-0.4-1-0.6-1.8-0.6h-3c-0.1,0-0.1,0-0.1,0.1v4.4c0,0.1,0,0.1,0.1,0.1h3 C1047.6,539,1048.2,538.8,1048.7,538.4z"></path> </g> <g class="st5"> <path d="M1057.6,547.7c-1-0.5-1.7-1.2-2.2-2.1c-0.5-0.9-0.8-2-0.8-3.2v-5.1c0-1.2,0.3-2.2,0.8-3.1s1.3-1.6,2.2-2.1 s2.1-0.8,3.3-0.8c1.3,0,2.4,0.3,3.3,0.8s1.7,1.2,2.2,2.1c0.5,0.9,0.8,2,0.8,3.1v5.1c0,1.2-0.3,2.3-0.8,3.2s-1.3,1.6-2.2,2.1 s-2.1,0.8-3.3,0.8S1058.6,548.3,1057.6,547.7z M1063.1,544.8c0.5-0.6,0.8-1.3,0.8-2.2v-5.3c0-0.9-0.3-1.7-0.8-2.2 c-0.5-0.6-1.3-0.9-2.1-0.9c-0.9,0-1.6,0.3-2.1,0.9c-0.5,0.6-0.8,1.3-0.8,2.2v5.3c0,0.9,0.3,1.7,0.8,2.2 c0.5,0.6,1.2,0.8,2.1,0.8S1062.5,545.3,1063.1,544.8z"></path> </g> <g class="st5"> <path d="M1073,548l-4.2-16.2v-0.1c0-0.1,0.1-0.2,0.3-0.2h3c0.2,0,0.3,0.1,0.3,0.2l2.3,9.8c0,0.1,0,0.1,0.1,0.1 c0,0,0.1,0,0.1-0.1l2.2-9.7c0-0.2,0.2-0.3,0.3-0.3h2.9c0.2,0,0.3,0.1,0.3,0.2l2.4,9.8c0,0,0,0.1,0.1,0.1s0.1,0,0.1-0.1l2.2-9.7 c0-0.2,0.2-0.3,0.3-0.3h2.8c0.2,0,0.3,0.1,0.3,0.3l-3.9,16.2c0,0.2-0.2,0.2-0.3,0.2h-2.9c-0.2,0-0.3-0.1-0.3-0.2l-2.4-10.4 c0-0.1,0-0.1-0.1-0.1c0,0-0.1,0-0.1,0.1l-2.3,10.4c0,0.2-0.1,0.3-0.3,0.3h-2.7C1073.1,548.2,1073,548.2,1073,548z"></path> </g> <g class="st5"> <path d="M1102.2,534.3c-0.1,0.1-0.1,0.1-0.2,0.1h-7.9c-0.1,0-0.1,0-0.1,0.1v3.7c0,0.1,0,0.1,0.1,0.1h5.2c0.1,0,0.1,0,0.2,0.1 s0.1,0.1,0.1,0.2v2.3c0,0.1,0,0.1-0.1,0.2c-0.1,0.1-0.1,0.1-0.2,0.1h-5.2c-0.1,0-0.1,0-0.1,0.1v3.9c0,0.1,0,0.1,0.1,0.1h7.9 c0.1,0,0.1,0,0.2,0.1s0.1,0.1,0.1,0.2v2.3c0,0.1,0,0.1-0.1,0.2c-0.1,0.1-0.1,0.1-0.2,0.1h-11c-0.1,0-0.1,0-0.2-0.1 s-0.1-0.1-0.1-0.2v-16.2c0-0.1,0-0.1,0.1-0.2c0.1-0.1,0.1-0.1,0.2-0.1h11.1c0.1,0,0.1,0,0.2,0.1s0.1,0.1,0.1,0.2v2.3 C1102.3,534.1,1102.3,534.2,1102.2,534.3z"></path> </g> <g class="st5"> <path d="M1113.3,548l-3-6.6c0-0.1-0.1-0.1-0.1-0.1h-2.2c-0.1,0-0.1,0-0.1,0.1v6.6c0,0.1,0,0.1-0.1,0.2 c-0.1,0.1-0.1,0.1-0.2,0.1h-2.8c-0.1,0-0.1,0-0.2-0.1s-0.1-0.1-0.1-0.2v-16.2c0-0.1,0-0.1,0.1-0.2c0.1-0.1,0.1-0.1,0.2-0.1h6.9 c1,0,1.9,0.2,2.7,0.6s1.4,1,1.8,1.8s0.6,1.7,0.6,2.7c0,1.1-0.3,2-0.8,2.8s-1.3,1.3-2.3,1.6c-0.1,0-0.1,0.1-0.1,0.2l3.3,6.8 c0,0.1,0,0.1,0,0.1c0,0.1-0.1,0.2-0.3,0.2h-3C1113.5,548.2,1113.4,548.2,1113.3,548z M1107.8,534.5v4.1c0,0.1,0,0.1,0.1,0.1 h3.1c0.7,0,1.2-0.2,1.6-0.6c0.4-0.4,0.6-0.9,0.6-1.6s-0.2-1.2-0.6-1.6s-1-0.6-1.6-0.6h-3.1 C1107.9,534.4,1107.8,534.4,1107.8,534.5z"></path> </g> </g> </g> <g> <g> <g class="st5"> <path d="M994.2,562.1c0.8,0.4,1.4,1,1.9,1.8s0.7,1.7,0.7,2.7s-0.2,1.9-0.7,2.7s-1.1,1.4-1.9,1.8s-1.8,0.6-2.8,0.6H988 c-0.1,0-0.1,0-0.1,0.1v6.1c0,0.1,0,0.1-0.1,0.2c-0.1,0.1-0.1,0.1-0.2,0.1h-2.8c-0.1,0-0.1,0-0.2-0.1s-0.1-0.1-0.1-0.2v-16.2 c0-0.1,0-0.1,0.1-0.2c0.1-0.1,0.1-0.1,0.2-0.1h6.8C992.5,561.4,993.4,561.6,994.2,562.1z M992.7,568.4c0.4-0.4,0.7-1,0.7-1.7 s-0.2-1.3-0.7-1.7c-0.4-0.4-1-0.6-1.8-0.6h-3c-0.1,0-0.1,0-0.1,0.1v4.4c0,0.1,0,0.1,0.1,0.1h3 C991.7,569,992.2,568.8,992.7,568.4z"></path> <path d="M1007.7,578l-3-6.6c0-0.1-0.1-0.1-0.1-0.1h-2.2c-0.1,0-0.1,0-0.1,0.1v6.6c0,0.1,0,0.1-0.1,0.2 c-0.1,0.1-0.1,0.1-0.2,0.1h-2.8c-0.1,0-0.1,0-0.2-0.1s-0.1-0.1-0.1-0.2v-16.2c0-0.1,0-0.1,0.1-0.2c0.1-0.1,0.1-0.1,0.2-0.1h6.9 c1,0,1.9,0.2,2.7,0.6s1.4,1,1.8,1.8s0.6,1.7,0.6,2.7c0,1.1-0.3,2-0.8,2.8s-1.3,1.3-2.3,1.6c-0.1,0-0.1,0.1-0.1,0.2l3.3,6.8 c0,0.1,0,0.1,0,0.1c0,0.1-0.1,0.2-0.3,0.2h-3C1007.9,578.2,1007.8,578.2,1007.7,578z M1002.2,564.5v4.1c0,0.1,0,0.1,0.1,0.1 h3.1c0.7,0,1.2-0.2,1.6-0.6c0.4-0.4,0.6-0.9,0.6-1.6s-0.2-1.2-0.6-1.6s-1-0.6-1.6-0.6h-3.1 C1002.2,564.4,1002.2,564.4,1002.2,564.5z"></path> </g> <g class="st5"> <path d="M1016.3,577.7c-1-0.5-1.7-1.2-2.2-2.1c-0.5-0.9-0.8-2-0.8-3.2v-5.1c0-1.2,0.3-2.2,0.8-3.1s1.3-1.6,2.2-2.1 s2.1-0.8,3.3-0.8c1.3,0,2.4,0.3,3.3,0.8s1.7,1.2,2.2,2.1c0.5,0.9,0.8,2,0.8,3.1v5.1c0,1.2-0.3,2.3-0.8,3.2s-1.3,1.6-2.2,2.1 s-2.1,0.8-3.3,0.8C1018.3,578.5,1017.2,578.3,1016.3,577.7z M1021.7,574.8c0.5-0.6,0.8-1.3,0.8-2.2v-5.3c0-0.9-0.3-1.7-0.8-2.2 c-0.5-0.6-1.3-0.9-2.1-0.9c-0.9,0-1.6,0.3-2.1,0.9c-0.5,0.6-0.8,1.3-0.8,2.2v5.3c0,0.9,0.3,1.7,0.8,2.2 c0.5,0.6,1.2,0.8,2.1,0.8S1021.2,575.3,1021.7,574.8z"></path> </g> <g class="st5"> <path d="M1028.5,578.2c-0.1-0.1-0.1-0.1-0.1-0.2v-16.2c0-0.1,0-0.1,0.1-0.2c0.1-0.1,0.1-0.1,0.2-0.1h6c1.2,0,2.3,0.2,3.2,0.6 c0.9,0.4,1.6,1,2.1,1.8s0.7,1.7,0.7,2.7v6.6c0,1-0.2,1.9-0.7,2.7s-1.2,1.4-2.1,1.8c-0.9,0.4-2,0.6-3.2,0.6h-6 C1028.6,578.2,1028.5,578.2,1028.5,578.2z M1031.9,575.3h2.9c0.7,0,1.3-0.2,1.8-0.7s0.7-1.2,0.7-2v-5.5c0-0.8-0.2-1.5-0.7-2 s-1.1-0.7-1.8-0.7h-2.9c-0.1,0-0.1,0-0.1,0.1L1031.9,575.3C1031.8,575.3,1031.8,575.3,1031.9,575.3z"></path> </g> <g class="st5"> <path d="M1046,577.7c-0.9-0.5-1.7-1.2-2.2-2s-0.8-1.9-0.8-3v-10.9c0-0.1,0-0.1,0.1-0.2c0.1-0.1,0.1-0.1,0.2-0.1h2.8 c0.1,0,0.1,0,0.2,0.1s0.1,0.1,0.1,0.2v11c0,0.8,0.3,1.5,0.8,2.1c0.5,0.5,1.2,0.8,2.1,0.8s1.5-0.3,2.1-0.8 c0.5-0.5,0.8-1.2,0.8-2.1v-11c0-0.1,0-0.1,0.1-0.2c0.1-0.1,0.1-0.1,0.2-0.1h2.8c0.1,0,0.1,0,0.2,0.1s0.1,0.1,0.1,0.2v10.9 c0,1.1-0.3,2.1-0.8,3s-1.2,1.5-2.2,2c-0.9,0.5-2,0.7-3.3,0.7S1047,578.2,1046,577.7z"></path> </g> <g class="st5"> <path d="M1060.8,577.7c-0.9-0.5-1.7-1.2-2.2-2.1s-0.8-1.9-0.8-3v-5.5c0-1.2,0.3-2.2,0.8-3c0.5-0.9,1.2-1.6,2.2-2 c0.9-0.5,2-0.7,3.3-0.7c1.2,0,2.3,0.2,3.3,0.7s1.7,1.1,2.2,1.9s0.8,1.8,0.8,2.9c0,0.1-0.1,0.2-0.3,0.3l-2.8,0.2l0,0 c-0.2,0-0.2-0.1-0.2-0.3c0-0.8-0.3-1.5-0.8-2s-1.2-0.8-2.1-0.8s-1.6,0.3-2.1,0.8s-0.8,1.2-0.8,2v5.8c0,0.8,0.3,1.5,0.8,2 s1.2,0.8,2.1,0.8c0.8,0,1.5-0.3,2.1-0.8c0.5-0.5,0.8-1.2,0.8-2c0-0.2,0.1-0.3,0.3-0.3l2.8,0.1c0.1,0,0.1,0,0.2,0.1 c0.1,0,0.1,0.1,0.1,0.2c0,1.1-0.3,2.1-0.8,2.9c-0.5,0.8-1.2,1.5-2.2,2s-2,0.7-3.3,0.7C1062.8,578.4,1061.7,578.2,1060.8,577.7z "></path> </g> <g class="st5"> <path d="M1084.2,564.3c-0.1,0.1-0.1,0.1-0.2,0.1h-7.9c-0.1,0-0.1,0-0.1,0.1v3.7c0,0.1,0,0.1,0.1,0.1h5.2c0.1,0,0.1,0,0.2,0.1 s0.1,0.1,0.1,0.2v2.3c0,0.1,0,0.1-0.1,0.2c-0.1,0.1-0.1,0.1-0.2,0.1h-5.2c-0.1,0-0.1,0-0.1,0.1v3.9c0,0.1,0,0.1,0.1,0.1h7.9 c0.1,0,0.1,0,0.2,0.1s0.1,0.1,0.1,0.2v2.3c0,0.1,0,0.1-0.1,0.2c-0.1,0.1-0.1,0.1-0.2,0.1h-11.1c-0.1,0-0.1,0-0.2-0.1 s-0.1-0.1-0.1-0.2v-16.2c0-0.1,0-0.1,0.1-0.2c0.1-0.1,0.1-0.1,0.2-0.1h11.1c0.1,0,0.1,0,0.2,0.1s0.1,0.1,0.1,0.2v2.3 C1084.2,564.1,1084.2,564.2,1084.2,564.3z"></path> </g> <g class="st5"> <path d="M1086.6,578.2c-0.1-0.1-0.1-0.1-0.1-0.2v-16.2c0-0.1,0-0.1,0.1-0.2c0.1-0.1,0.1-0.1,0.2-0.1h6c1.2,0,2.3,0.2,3.2,0.6 c0.9,0.4,1.6,1,2.1,1.8s0.7,1.7,0.7,2.7v6.6c0,1-0.2,1.9-0.7,2.7s-1.2,1.4-2.1,1.8c-0.9,0.4-2,0.6-3.2,0.6h-6 C1086.7,578.2,1086.6,578.2,1086.6,578.2z M1090,575.3h2.9c0.7,0,1.3-0.2,1.8-0.7s0.7-1.2,0.7-2v-5.5c0-0.8-0.2-1.5-0.7-2 s-1.1-0.7-1.8-0.7h-2.9c-0.1,0-0.1,0-0.1,0.1L1090,575.3C1089.9,575.3,1089.9,575.3,1090,575.3z"></path> </g> </g> </g> <g> <g> <g class="st5"> <path d="M949.1,219.5c0.1,0.1,0.1,0.1,0.1,0.2v2.4c0,0.1,0,0.1-0.1,0.2s-0.1,0.1-0.2,0.1h-4.3c-0.1,0-0.1,0-0.1,0.1V236 c0,0.1,0,0.1-0.1,0.2s-0.1,0.1-0.2,0.1h-2.8c-0.1,0-0.1,0-0.2-0.1s-0.1-0.1-0.1-0.2v-13.5c0-0.1,0-0.1-0.1-0.1h-4.2 c-0.1,0-0.1,0-0.2-0.1s-0.1-0.1-0.1-0.2v-2.4c0-0.1,0-0.1,0.1-0.2s0.1-0.1,0.2-0.1h12.1C949,219.4,949.1,219.4,949.1,219.5z"></path> </g> <g class="st5"> <path d="M953.9,235.7c-1-0.5-1.7-1.2-2.2-2.1s-0.8-2-0.8-3.2v-5.1c0-1.2,0.3-2.2,0.8-3.1s1.3-1.6,2.2-2.1s2.1-0.8,3.3-0.8 c1.3,0,2.4,0.3,3.3,0.8s1.7,1.2,2.2,2.1s0.8,2,0.8,3.1v5.1c0,1.2-0.3,2.3-0.8,3.2c-0.5,0.9-1.3,1.6-2.2,2.1s-2.1,0.8-3.3,0.8 S954.9,236.2,953.9,235.7z M959.4,232.7c0.5-0.6,0.8-1.3,0.8-2.2v-5.3c0-0.9-0.3-1.7-0.8-2.2c-0.5-0.6-1.3-0.9-2.1-0.9 c-0.9,0-1.6,0.3-2.1,0.9s-0.8,1.3-0.8,2.2v5.3c0,0.9,0.3,1.7,0.8,2.2c0.5,0.6,1.2,0.8,2.1,0.8S958.8,233.3,959.4,232.7z"></path> </g> <g class="st5"> <path d="M980.7,220c0.8,0.4,1.4,1,1.9,1.8s0.7,1.7,0.7,2.7s-0.2,1.9-0.7,2.7c-0.5,0.8-1.1,1.4-1.9,1.8s-1.8,0.6-2.8,0.6h-3.4 c-0.1,0-0.1,0-0.1,0.1v6.1c0,0.1,0,0.1-0.1,0.2s-0.1,0.1-0.2,0.1h-2.8c-0.1,0-0.1,0-0.2-0.1s-0.1-0.1-0.1-0.2v-16.2 c0-0.1,0-0.1,0.1-0.2s0.1-0.1,0.2-0.1h6.8C978.9,219.4,979.9,219.6,980.7,220z M979.2,226.3c0.4-0.4,0.7-1,0.7-1.7 s-0.2-1.3-0.7-1.7s-1-0.6-1.8-0.6h-3c-0.1,0-0.1,0-0.1,0.1v4.4c0,0.1,0,0.1,0.1,0.1h3C978.1,227,978.7,226.8,979.2,226.3z"></path> </g> <g class="st5"> <path d="M988.1,235.7c-1-0.5-1.7-1.2-2.2-2.1s-0.8-2-0.8-3.2v-5.1c0-1.2,0.3-2.2,0.8-3.1s1.3-1.6,2.2-2.1 c1-0.5,2.1-0.8,3.3-0.8c1.3,0,2.4,0.3,3.3,0.8c1,0.5,1.7,1.2,2.2,2.1s0.8,2,0.8,3.1v5.1c0,1.2-0.3,2.3-0.8,3.2 s-1.3,1.6-2.2,2.1c-1,0.5-2.1,0.8-3.3,0.8S989.1,236.2,988.1,235.7z M993.6,232.7c0.5-0.6,0.8-1.3,0.8-2.2v-5.3 c0-0.9-0.3-1.7-0.8-2.2c-0.5-0.6-1.3-0.9-2.1-0.9c-0.9,0-1.6,0.3-2.1,0.9s-0.8,1.3-0.8,2.2v5.3c0,0.9,0.3,1.7,0.8,2.2 c0.5,0.6,1.2,0.8,2.1,0.8S993,233.3,993.6,232.7z"></path> </g> <g class="st5"> <path d="M1003.4,236l-4.2-16.2v-0.1c0-0.1,0.1-0.2,0.3-0.2h3c0.2,0,0.3,0.1,0.3,0.2l2.3,9.8c0,0.1,0,0.1,0.1,0.1s0.1,0,0.1-0.1 l2.2-9.7c0-0.2,0.2-0.3,0.3-0.3h2.9c0.2,0,0.3,0.1,0.3,0.2l2.4,9.8c0,0,0,0.1,0.1,0.1c0,0,0.1,0,0.1-0.1l2.2-9.7 c0-0.2,0.2-0.3,0.3-0.3h2.8c0.2,0,0.3,0.1,0.3,0.3l-3.9,16.2c0,0.2-0.2,0.2-0.3,0.2h-2.9c-0.2,0-0.3-0.1-0.3-0.2l-2.4-10.4 c0-0.1,0-0.1-0.1-0.1s-0.1,0-0.1,0.1l-2.3,10.4c0,0.2-0.1,0.3-0.3,0.3h-2.7C1003.6,236.2,1003.5,236.1,1003.4,236z"></path> </g> <g class="st5"> <path d="M1032.6,222.2c-0.1,0.1-0.1,0.1-0.2,0.1h-7.9c-0.1,0-0.1,0-0.1,0.1v3.7c0,0.1,0,0.1,0.1,0.1h5.2c0.1,0,0.1,0,0.2,0.1 s0.1,0.1,0.1,0.2v2.3c0,0.1,0,0.1-0.1,0.2s-0.1,0.1-0.2,0.1h-5.2c-0.1,0-0.1,0-0.1,0.1v3.9c0,0.1,0,0.1,0.1,0.1h7.9 c0.1,0,0.1,0,0.2,0.1s0.1,0.1,0.1,0.2v2.3c0,0.1,0,0.1-0.1,0.2s-0.1,0.1-0.2,0.1h-11.1c-0.1,0-0.1,0-0.2-0.1s-0.1-0.1-0.1-0.2 v-16.2c0-0.1,0-0.1,0.1-0.2s0.1-0.1,0.2-0.1h11.1c0.1,0,0.1,0,0.2,0.1s0.1,0.1,0.1,0.2v2.3 C1032.7,222.1,1032.7,222.2,1032.6,222.2z"></path> </g> <g class="st5"> <path d="M1043.8,236l-3-6.6c0-0.1-0.1-0.1-0.1-0.1h-2.2c-0.1,0-0.1,0-0.1,0.1v6.6c0,0.1,0,0.1-0.1,0.2s-0.1,0.1-0.2,0.1h-2.8 c-0.1,0-0.1,0-0.2-0.1s-0.1-0.1-0.1-0.2v-16.2c0-0.1,0-0.1,0.1-0.2s0.1-0.1,0.2-0.1h6.9c1,0,1.9,0.2,2.7,0.6 c0.8,0.4,1.4,1,1.8,1.8s0.6,1.7,0.6,2.7c0,1.1-0.3,2-0.8,2.8s-1.3,1.3-2.3,1.6c-0.1,0-0.1,0.1-0.1,0.2l3.3,6.8 c0,0.1,0,0.1,0,0.1c0,0.1-0.1,0.2-0.3,0.2h-3C1044,236.2,1043.9,236.1,1043.8,236z M1038.3,222.4v4.1c0,0.1,0,0.1,0.1,0.1h3.1 c0.7,0,1.2-0.2,1.6-0.6s0.6-0.9,0.6-1.6s-0.2-1.2-0.6-1.6s-1-0.6-1.6-0.6h-3.1C1038.4,222.3,1038.3,222.3,1038.3,222.4z"></path> </g> <g class="st5"> <path d="M1057.2,235.7c-0.9-0.5-1.7-1.2-2.2-2.1s-0.8-1.9-0.8-3.1v-5.4c0-1.2,0.3-2.2,0.8-3.1s1.3-1.6,2.2-2.1s2-0.7,3.3-0.7 c1.2,0,2.3,0.2,3.2,0.7c0.9,0.5,1.7,1.1,2.2,2c0.5,0.8,0.8,1.7,0.8,2.7v0.2c0,0.1,0,0.1-0.1,0.2s-0.1,0.1-0.2,0.1h-2.8 c-0.1,0-0.1,0-0.2-0.1s-0.1-0.1-0.1-0.2v-0.1c0-0.7-0.3-1.4-0.8-1.9s-1.2-0.8-2-0.8c-0.9,0-1.6,0.3-2.1,0.8s-0.8,1.2-0.8,2.1 v5.6c0,0.9,0.3,1.6,0.8,2.1c0.6,0.5,1.3,0.8,2.1,0.8c0.8,0,1.5-0.2,2-0.7c0.5-0.4,0.7-1.1,0.7-1.8v-1.1c0-0.1,0-0.1-0.1-0.1 h-2.7c-0.1,0-0.1,0-0.2-0.1s-0.1-0.1-0.1-0.2v-2.2c0-0.1,0-0.1,0.1-0.2s0.1-0.1,0.2-0.1h5.9c0.1,0,0.1,0,0.2,0.1 s0.1,0.1,0.1,0.2v3.2c0,1.2-0.3,2.3-0.8,3.2c-0.5,0.9-1.2,1.6-2.2,2.1c-0.9,0.5-2,0.7-3.3,0.7 C1059.2,236.4,1058.1,236.1,1057.2,235.7z"></path> <path d="M1078.1,236l-3-6.6c0-0.1-0.1-0.1-0.1-0.1h-2.2c-0.1,0-0.1,0-0.1,0.1v6.6c0,0.1,0,0.1-0.1,0.2s-0.1,0.1-0.2,0.1h-2.8 c-0.1,0-0.1,0-0.2-0.1s-0.1-0.1-0.1-0.2v-16.2c0-0.1,0-0.1,0.1-0.2s0.1-0.1,0.2-0.1h6.9c1,0,1.9,0.2,2.7,0.6 c0.8,0.4,1.4,1,1.8,1.8s0.6,1.7,0.6,2.7c0,1.1-0.3,2-0.8,2.8s-1.3,1.3-2.3,1.6c-0.1,0-0.1,0.1-0.1,0.2l3.3,6.8 c0,0.1,0,0.1,0,0.1c0,0.1-0.1,0.2-0.3,0.2h-3C1078.3,236.2,1078.2,236.1,1078.1,236z M1072.6,222.4v4.1c0,0.1,0,0.1,0.1,0.1 h3.1c0.7,0,1.2-0.2,1.6-0.6s0.6-0.9,0.6-1.6s-0.2-1.2-0.6-1.6s-1-0.6-1.6-0.6h-3.1C1072.7,222.3,1072.6,222.3,1072.6,222.4z"></path> <path d="M1084.1,236.1c-0.1-0.1-0.1-0.1-0.1-0.2v-16.2c0-0.1,0-0.1,0.1-0.2s0.1-0.1,0.2-0.1h2.8c0.1,0,0.1,0,0.2,0.1 s0.1,0.1,0.1,0.2v16.2c0,0.1,0,0.1-0.1,0.2s-0.1,0.1-0.2,0.1h-2.8C1084.2,236.2,1084.1,236.2,1084.1,236.1z"></path> </g> <g class="st5"> <path d="M1090,236.1c-0.1-0.1-0.1-0.1-0.1-0.2v-16.2c0-0.1,0-0.1,0.1-0.2s0.1-0.1,0.2-0.1h6c1.2,0,2.3,0.2,3.2,0.6 c0.9,0.4,1.6,1,2.1,1.8s0.7,1.7,0.7,2.7v6.6c0,1-0.2,1.9-0.7,2.7c-0.5,0.8-1.2,1.4-2.1,1.8s-2,0.6-3.2,0.6h-6 C1090.2,236.2,1090.1,236.2,1090,236.1z M1093.5,233.3h2.9c0.7,0,1.3-0.2,1.8-0.7s0.7-1.2,0.7-2v-5.5c0-0.8-0.2-1.5-0.7-2 s-1.1-0.7-1.8-0.7h-2.9c-0.1,0-0.1,0-0.1,0.1L1093.5,233.3C1093.3,233.3,1093.4,233.3,1093.5,233.3z"></path> </g> </g> </g> <g> <g> <g> <path class="st6" d="M383.7,129l14.6-14.6c1-1,1-2.7,0-3.7l-14.6-14.5 M320,112.6h79.1"></path> </g> <g> <path class="st6" d="M787.9,129l-14.6-14.6c-1-1-1-2.7,0-3.7l14.6-14.5 M851.7,112.6h-79.1"></path> </g> <g> <path class="st4" d="M962,440.7h33.4 M1082.6,440.7h33.4 M1039,397.1v-33.4 M1027,411.7c-16,6.6-23.6,25.1-17,41.1 s25.1,23.6,41.1,17s23.6-25,17-41.1C1061.4,412.7,1043,405.1,1027,411.7z M1069.8,471.3l23.7,23.6 M1061.7,495.2l-5.9-14.2 M1093.6,463.2l-14-5.8 M1008.2,471.3l-23.7,23.6 M1016.3,495.2l5.9-14.2 M984.4,463.2l14-5.8 M1069.8,410l23.7-23.6 M1061.7,386.1l-5.9,14.2 M1093.6,418.1l-14,5.8 M1008.2,410l-23.7-23.6 M1016.3,386.1l5.9,14.2 M984.4,418.1l14,5.8"></path> </g> <g> <path class="st7" d="M136.6,441.2c-0.2-0.9-0.2-1.8-0.2-2.6c0.6-11,15.6-18.7,27.7-14.2c15.7,5.8,22.8,17.7,22.8,17.7 s-10,10.9-24.8,14.3c-7.5,1.7-15.4-1.5-20.4-6.3"></path> </g> <g> <path class="st7" d="M165.5,437.7c-8.2-1.1-25.5-0.8-42.1,9.8"></path> </g> <g> <path class="st7" d="M187.2,402c0.9,2.4,1,4.4,0.1,5.9c-3.5,5.9-20.6,1.8-38.1-9.1c-17.6-10.9-29-24.5-25.5-30.4 c3.2-5.3,17.5-2.5,33.2,6.2"></path> </g> <g> <path class="st7" d="M217.6,401.6l-20.5-20.5l-32.1-0.6l-64.6,64.6l53.2,53.2l64.6-64.6L217.6,401.6z M197.8,414.9 c-3.7,3.7-9.7,3.7-13.4,0s-3.7-9.7,0-13.4s9.7-3.7,13.4,0S201.5,411.2,197.8,414.9z"></path> </g> <g> <path class="st2" d="M613.7,489.2h48 M693.7,486.8c1.8-0.4,2.9-1.3,2.9-1.3c6.1-5.2,4-13.6,4-13.6 c-1.3-10.8-33.5-21.5-33.5-21.5l-16-18.3c-20.5-6.4-46.3,1.1-46.3,1.1C580.9,438.8,578,455,578,455v13 c-5.6,12.2,0.1,17.7,3.6,19.7"></path> </g> </g> </g> <g> <line class="st2" x1="595.2" y1="452.6" x2="672.2" y2="452.6"></line> </g> <g> <line class="st2" x1="624.1" y1="452.1" x2="624.1" y2="430.2"></line> </g> <g> <g> <g> <path class="st2" d="M613.4,487.9c0,6.1-4.9,11-11,11s-11-4.9-11-11s4.9-11,11-11C608.4,476.8,613.4,481.8,613.4,487.9z M684.2,487.9c0,6.1-4.9,11-11,11s-11-4.9-11-11s4.9-11,11-11C679.3,476.8,684.2,481.8,684.2,487.9z"></path> </g> <g> <path class="st2" d="M544.3,452.6h23.6 M513.4,443.2h-16.3 M513.4,462h-16.3 M533.8,434c5,0,9.1,4.1,9.1,9.1v19.1 c0,5-4.1,9.1-9.1,9.1h-20.3v-37.2L533.8,434L533.8,434z"></path> </g> <g> <path class="st2" d="M87.8,75l-48.7,79.1h150.4L238.2,75H87.8z M98.4,21.7l7.2-7.6 M109.1,44.7h12.8 M56.5,67.3l-7.2,7.6 M45.7,44.7H32.9 M77.6,14.1V1.5 M79,58.1c4.1,0,7.7-1.5,10.8-4.4c2.8-2.8,4.2-6.3,4.2-10.6c0-3.7-1.4-7.2-4.2-10.4 c-3.1-2.9-6.6-4.4-10.8-4.4c-3.9,0-7.3,1.5-10.4,4.4c-2.8,3.2-4.2,6.7-4.2,10.4c0,4.3,1.4,7.8,4.2,10.6 C71.7,56.7,75.2,58.1,79,58.1z M56.5,21.7l-7.2-7.6 M246.2,92l-48.7,79.1H47.1 M63.6,114.4h48.7l24.2-39.5 M185.1,75 l-24.2,39.5h53 M136.5,154.1l24.4-39.7h-48.7l-24.4,39.7"></path> </g> <g> <path class="st6" d="M836.3,129l14.6-14.6c1-1,1-2.7,0-3.7l-14.6-14.5 M772.6,112.6h79.1"></path> </g> </g> </g> </g> </g> </svg> 