<?xml version="1.0" encoding="UTF-8"?> <svg xmlns="http://www.w3.org/2000/svg" id="Layer_1" data-name="Layer 1" viewBox="0 0 624.5 459.2"><defs><style>.cls-1,.cls-2,.cls-4,.cls-5{fill:none;stroke-width:3px;}.cls-1,.cls-2,.cls-5{stroke:#000;}.cls-1,.cls-2{stroke-linejoin:round;}.cls-2,.cls-4,.cls-5{stroke-linecap:round;}.cls-3{isolation:isolate;}.cls-4{stroke:#fecb00;}.cls-5{stroke-miterlimit:10;}</style></defs><path class="cls-1" d="M536.3,339.1l-13.9-12.7m43-70.2V326l18.7,56.2-40.5-36.7"></path><path class="cls-2" d="M510,308.1l-35.2,15H612l-46.8-19.4H521.6m-11.8-41.9-24.3,11.5H601.3l-36.1-17H535.1"></path><path class="cls-1" d="M521.7,273.3l13.9,9.7m7.9,5.5,21.7,15.1m0-30.3-43.5,30.3"></path><path class="cls-2" d="M491.9,284.8v7.1m103.2-7.1v7.1m9.6,42.6v7.1m-122.5-7.1v7.1"></path><polyline class="cls-1" points="565.3 256.2 550.5 228.2 536.4 228.2 521.5 256.2 521.6 326 502.8 382.2 564.6 326.4"></polyline><g class="cls-3"><path d="M283.89,221.57a4.07,4.07,0,0,1,2.28,3.91,4.13,4.13,0,0,1-1.58,3.52,6.78,6.78,0,0,1-4.16,1.19h-6.21a.29.29,0,0,1-.21-.09.28.28,0,0,1-.08-.2V213.68a.27.27,0,0,1,.29-.29h6c3.79,0,5.69,1.53,5.69,4.61a3.55,3.55,0,0,1-2,3.43C283.79,221.48,283.79,221.52,283.89,221.57Zm-6.58-5.16v3.75a.11.11,0,0,0,.12.12h2.81a2.63,2.63,0,0,0,1.75-.53,1.77,1.77,0,0,0,.63-1.44,1.84,1.84,0,0,0-.63-1.48,2.58,2.58,0,0,0-1.75-.54h-2.81A.11.11,0,0,0,277.31,216.41Zm4.85,10.29a2.22,2.22,0,0,0,0-3.1,2.49,2.49,0,0,0-1.75-.56h-3a.11.11,0,0,0-.12.12v4a.11.11,0,0,0,.12.12h3A2.5,2.5,0,0,0,282.16,226.7Z"></path><path d="M298.27,230l-.72-2.35c0-.07-.08-.1-.12-.1h-5.91s-.09,0-.12.1l-.69,2.35a.31.31,0,0,1-.32.24h-3a.27.27,0,0,1-.22-.09.23.23,0,0,1,0-.25l5.18-16.22a.3.3,0,0,1,.31-.24h3.77a.3.3,0,0,1,.31.24l5.19,16.22a.37.37,0,0,1,0,.12c0,.15-.09.22-.26.22h-3.05A.29.29,0,0,1,298.27,230Zm-5.91-5.07h4.23c.09,0,.12,0,.09-.14l-2.16-7.13c0-.06,0-.09-.07-.08a.1.1,0,0,0-.07.08l-2.11,7.13C292.25,224.84,292.28,224.88,292.36,224.88Z"></path></g><g class="cls-3"><path d="M314.55,213.47a.32.32,0,0,1,.08.21V216a.28.28,0,0,1-.08.2.29.29,0,0,1-.21.09h-4.29a.11.11,0,0,0-.12.12V229.9a.31.31,0,0,1-.29.29h-2.81a.31.31,0,0,1-.29-.29V216.44a.11.11,0,0,0-.12-.12h-4.17a.29.29,0,0,1-.21-.09.28.28,0,0,1-.08-.2v-2.35a.27.27,0,0,1,.29-.29h12.09A.32.32,0,0,1,314.55,213.47Z"></path><path d="M328.59,213.47a.32.32,0,0,1,.08.21V216a.28.28,0,0,1-.08.2.29.29,0,0,1-.21.09h-4.29a.11.11,0,0,0-.12.12V229.9a.31.31,0,0,1-.29.29h-2.81a.31.31,0,0,1-.29-.29V216.44a.11.11,0,0,0-.12-.12h-4.17a.29.29,0,0,1-.21-.09.28.28,0,0,1-.08-.2v-2.35a.27.27,0,0,1,.29-.29h12.09A.32.32,0,0,1,328.59,213.47Z"></path></g><g class="cls-3"><path d="M342.75,216.21a.32.32,0,0,1-.21.08h-7.87a.11.11,0,0,0-.12.12v3.72a.11.11,0,0,0,.12.12h5.16a.31.31,0,0,1,.29.29v2.33a.31.31,0,0,1-.29.29h-5.16a.11.11,0,0,0-.12.12v3.88c0,.09,0,.12.12.12h7.87a.29.29,0,0,1,.21.09.28.28,0,0,1,.08.2v2.33a.28.28,0,0,1-.08.2.29.29,0,0,1-.21.09H331.45a.25.25,0,0,1-.2-.09.24.24,0,0,1-.08-.2V213.68a.27.27,0,0,1,.28-.29h11.09a.27.27,0,0,1,.29.29V216A.32.32,0,0,1,342.75,216.21Z"></path><path d="M354.06,230l-3-6.65a.15.15,0,0,0-.14-.09h-2.24c-.08,0-.11,0-.11.12v6.55a.25.25,0,0,1-.09.2.27.27,0,0,1-.2.09h-2.81a.29.29,0,0,1-.21-.09.28.28,0,0,1-.08-.2V213.68a.27.27,0,0,1,.29-.29h6.86a5.66,5.66,0,0,1,2.7.62,4.35,4.35,0,0,1,1.8,1.78,5.34,5.34,0,0,1,.64,2.66,4.72,4.72,0,0,1-.82,2.8,4.34,4.34,0,0,1-2.28,1.64.12.12,0,0,0-.07.17l3.27,6.79a.37.37,0,0,1,0,.15c0,.12-.08.19-.26.19h-3A.34.34,0,0,1,354.06,230Zm-5.49-13.56v4.11c0,.08,0,.12.11.12h3.15a2.29,2.29,0,0,0,1.64-.6,2,2,0,0,0,.64-1.56,2.09,2.09,0,0,0-.64-1.58,2.29,2.29,0,0,0-1.64-.61h-3.15C348.6,216.29,348.57,216.33,348.57,216.41Z"></path></g><g class="cls-3"><path d="M359.76,230.1a.28.28,0,0,1-.08-.2V213.68a.27.27,0,0,1,.29-.29h2.81a.3.3,0,0,1,.2.08.28.28,0,0,1,.08.21V229.9a.24.24,0,0,1-.08.2.27.27,0,0,1-.2.09H360A.29.29,0,0,1,359.76,230.1Z"></path></g><g class="cls-3"><path d="M475.4,447.94a5,5,0,0,1-2.22-1.75,4.59,4.59,0,0,1-.78-2.65V443a.27.27,0,0,1,.29-.29h2.73a.27.27,0,0,1,.29.29v.36a2,2,0,0,0,.89,1.62,3.93,3.93,0,0,0,2.4.66,2.85,2.85,0,0,0,1.9-.54,1.72,1.72,0,0,0,.62-1.33,1.38,1.38,0,0,0-.38-1,3.54,3.54,0,0,0-1.05-.69c-.44-.2-1.14-.48-2.1-.83a19.85,19.85,0,0,1-2.72-1.13,5.37,5.37,0,0,1-1.87-1.57,3.9,3.9,0,0,1-.76-2.46,4.37,4.37,0,0,1,.74-2.52,4.83,4.83,0,0,1,2.07-1.66,8.45,8.45,0,0,1,6.3.08,5.28,5.28,0,0,1,2.23,1.81,4.58,4.58,0,0,1,.81,2.7v.36a.25.25,0,0,1-.09.2.27.27,0,0,1-.2.09h-2.76a.29.29,0,0,1-.21-.09.28.28,0,0,1-.08-.2v-.19a2.18,2.18,0,0,0-.83-1.72,3.39,3.39,0,0,0-2.27-.71,2.85,2.85,0,0,0-1.76.48,1.55,1.55,0,0,0-.64,1.32,1.48,1.48,0,0,0,.37,1,3.24,3.24,0,0,0,1.11.73c.49.22,1.24.51,2.27.88a27.49,27.49,0,0,1,2.67,1.1,5.34,5.34,0,0,1,1.75,1.43,3.74,3.74,0,0,1,.78,2.46,4.3,4.3,0,0,1-1.65,3.56,7,7,0,0,1-4.49,1.31A8.5,8.5,0,0,1,475.4,447.94Z"></path><path d="M498.88,431.64a.29.29,0,0,1,.09.21v2.35a.31.31,0,0,1-.29.29h-4.3a.11.11,0,0,0-.12.12v13.46a.28.28,0,0,1-.08.21.3.3,0,0,1-.2.08h-2.81a.27.27,0,0,1-.29-.29V434.61a.11.11,0,0,0-.12-.12h-4.18a.27.27,0,0,1-.2-.09.24.24,0,0,1-.08-.2v-2.35a.28.28,0,0,1,.08-.21.3.3,0,0,1,.2-.08h12.1A.28.28,0,0,1,498.88,431.64Z"></path></g><g class="cls-3"><path d="M510.18,448.14l-3-6.64a.16.16,0,0,0-.15-.1H504.8a.11.11,0,0,0-.12.12v6.55a.27.27,0,0,1-.29.29h-2.8a.27.27,0,0,1-.29-.29V431.85a.27.27,0,0,1,.29-.29h6.86a5.72,5.72,0,0,1,2.7.62A4.35,4.35,0,0,1,513,434a5.48,5.48,0,0,1,.64,2.66,4.79,4.79,0,0,1-.82,2.8,4.33,4.33,0,0,1-2.28,1.64c-.08,0-.11.09-.07.17l3.26,6.79a.5.5,0,0,1,.05.15c0,.13-.09.19-.27.19h-3A.32.32,0,0,1,510.18,448.14Zm-5.5-13.56v4.11a.11.11,0,0,0,.12.12H508a2.29,2.29,0,0,0,1.64-.6,2.06,2.06,0,0,0,.64-1.56,2.09,2.09,0,0,0-.64-1.57,2.26,2.26,0,0,0-1.64-.62H504.8A.11.11,0,0,0,504.68,434.58Z"></path><path d="M528.8,432.33a.4.4,0,0,1-.07.21l-1.2,1.8a.25.25,0,0,0,0,.17,6.12,6.12,0,0,1,.65,2.88v5.14a6.32,6.32,0,0,1-.8,3.19,5.39,5.39,0,0,1-2.21,2.15,7.08,7.08,0,0,1-3.33.75,6.67,6.67,0,0,1-3.33-.79.17.17,0,0,0-.17.05l-.89,1.34a.23.23,0,0,1-.22.15.29.29,0,0,1-.19-.07l-2-1.52a.22.22,0,0,1-.12-.21.28.28,0,0,1,.07-.19l1.18-1.76a.43.43,0,0,0,0-.16,6.42,6.42,0,0,1-.65-2.93v-5.14a6.13,6.13,0,0,1,.79-3.14,5.55,5.55,0,0,1,2.22-2.13,7,7,0,0,1,3.3-.75,6.84,6.84,0,0,1,3.34.77.18.18,0,0,0,.17-.05l.91-1.39a.22.22,0,0,1,.21-.15.32.32,0,0,1,.2.07l2,1.52A.21.21,0,0,1,528.8,432.33Zm-4,5a3.13,3.13,0,0,0-.8-2.25,2.85,2.85,0,0,0-2.15-.85,2.79,2.79,0,0,0-2.12.85,3.14,3.14,0,0,0-.81,2.25v5.28a3.07,3.07,0,0,0,.81,2.23,2.79,2.79,0,0,0,2.12.84,2.86,2.86,0,0,0,2.14-.84,3.07,3.07,0,0,0,.81-2.23Z"></path></g><g class="cls-3"><path d="M542.42,431.56h2.81a.3.3,0,0,1,.2.08.28.28,0,0,1,.08.21v16.22a.28.28,0,0,1-.08.21.3.3,0,0,1-.2.08h-2.81a.27.27,0,0,1-.29-.29V437.49c0-.07,0-.1,0-.1s-.06,0-.09.07l-2.55,4a.37.37,0,0,1-.33.19h-1.42a.38.38,0,0,1-.34-.19l-2.54-4a.12.12,0,0,0-.1-.06s0,.05,0,.11v10.56a.29.29,0,0,1-.09.21.28.28,0,0,1-.2.08h-2.81a.28.28,0,0,1-.2-.08.29.29,0,0,1-.09-.21V431.85a.29.29,0,0,1,.09-.21.28.28,0,0,1,.2-.08h2.81a.37.37,0,0,1,.33.19l3.6,5.59q.08.15.15,0l3.62-5.59A.37.37,0,0,1,542.42,431.56Z"></path><path d="M558.17,431.64a.32.32,0,0,1,.21-.08h2.81a.3.3,0,0,1,.2.08.28.28,0,0,1,.08.21v16.22a.28.28,0,0,1-.08.21.3.3,0,0,1-.2.08h-2.72a.33.33,0,0,1-.33-.19l-6.22-10.27s-.06-.07-.09-.06-.05,0-.05.1l.05,10.13a.29.29,0,0,1-.09.21.28.28,0,0,1-.2.08h-2.81a.28.28,0,0,1-.2-.08.29.29,0,0,1-.09-.21V431.85a.29.29,0,0,1,.09-.21.28.28,0,0,1,.2-.08h2.71a.35.35,0,0,1,.34.19L558,442a.12.12,0,0,0,.1.06s0-.05,0-.11l0-10.08A.32.32,0,0,1,558.17,431.64Z"></path><path d="M575.84,434.38a.28.28,0,0,1-.21.08h-7.87a.11.11,0,0,0-.12.12v3.72a.11.11,0,0,0,.12.12h5.16a.31.31,0,0,1,.29.29V441a.31.31,0,0,1-.29.29h-5.16a.11.11,0,0,0-.12.12v3.89a.11.11,0,0,0,.12.12h7.87a.28.28,0,0,1,.21.08.3.3,0,0,1,.08.2v2.33a.27.27,0,0,1-.29.29H564.54a.3.3,0,0,1-.2-.08.32.32,0,0,1-.08-.21V431.85a.32.32,0,0,1,.08-.21.3.3,0,0,1,.2-.08h11.09a.27.27,0,0,1,.29.29v2.33A.3.3,0,0,1,575.84,434.38Z"></path></g><g class="cls-3"><path d="M590.26,431.64a.32.32,0,0,1,.08.21v2.35a.28.28,0,0,1-.08.2.29.29,0,0,1-.21.09h-4.29a.11.11,0,0,0-.12.12v13.46a.29.29,0,0,1-.09.21.28.28,0,0,1-.2.08h-2.81a.28.28,0,0,1-.2-.08.29.29,0,0,1-.09-.21V434.61a.11.11,0,0,0-.12-.12H578a.29.29,0,0,1-.21-.09.28.28,0,0,1-.08-.2v-2.35a.27.27,0,0,1,.29-.29h12.09A.32.32,0,0,1,590.26,431.64Z"></path><path d="M604.3,431.64a.32.32,0,0,1,.08.21v2.35a.28.28,0,0,1-.08.2.29.29,0,0,1-.21.09H599.8a.11.11,0,0,0-.12.12v13.46a.29.29,0,0,1-.09.21.28.28,0,0,1-.2.08h-2.81a.28.28,0,0,1-.2-.08.29.29,0,0,1-.09-.21V434.61a.11.11,0,0,0-.12-.12H592a.29.29,0,0,1-.21-.09.28.28,0,0,1-.08-.2v-2.35a.27.27,0,0,1,.29-.29h12.09A.32.32,0,0,1,604.3,431.64Z"></path></g><path class="cls-4" d="M318.5,312.2h79.1m-15.4,16.4L396.8,314a2.66,2.66,0,0,0,0-3.7l-14.6-14.5m-63.7-24.1v40m-.4.5H239m15.3,16.4L239.8,314a2.66,2.66,0,0,1,0-3.7l14.6-14.5"></path><path class="cls-2" d="M12.4,324.2l78.3-52.1,78.2,52.1M33.8,326.8v55.5m113.7-55.5v54.1"></path><polyline class="cls-1" points="34.6 309.4 34.6 276.7 51.8 276.7 51.8 298.4"></polyline><line class="cls-5" x1="181.4" y1="382.4" x2="191.5" y2="382.4"></line><line class="cls-2" x1="12.4" y1="382.4" x2="168.9" y2="382.4"></line><path class="cls-2" d="M175.3,272.2h-7.7a8,8,0,0,0-16,0H137.1m38.5,13.4h15.9"></path><g class="cls-3"><path d="M31.36,431.64a.32.32,0,0,1,.21-.08h2.81a.3.3,0,0,1,.2.08.28.28,0,0,1,.08.21v16.22a.28.28,0,0,1-.08.21.3.3,0,0,1-.2.08H31.57a.27.27,0,0,1-.29-.29v-6.62a.11.11,0,0,0-.12-.12h-5.3a.11.11,0,0,0-.12.12v6.62a.29.29,0,0,1-.09.21.28.28,0,0,1-.2.08H22.64a.28.28,0,0,1-.2-.08.29.29,0,0,1-.09-.21V431.85a.29.29,0,0,1,.09-.21.28.28,0,0,1,.2-.08h2.81a.28.28,0,0,1,.2.08.29.29,0,0,1,.09.21v6.45a.11.11,0,0,0,.12.12h5.3a.11.11,0,0,0,.12-.12v-6.45A.32.32,0,0,1,31.36,431.64Z"></path><path d="M40.27,447.83a5.24,5.24,0,0,1-2.19-2,5.74,5.74,0,0,1-.78-3V431.85a.29.29,0,0,1,.09-.21.28.28,0,0,1,.2-.08H40.4a.28.28,0,0,1,.2.08.29.29,0,0,1,.09.21v11a2.83,2.83,0,1,0,5.66,0v-11a.29.29,0,0,1,.09-.21.28.28,0,0,1,.2-.08h2.81a.28.28,0,0,1,.2.08.29.29,0,0,1,.09.21v10.94a5.74,5.74,0,0,1-.78,3,5.24,5.24,0,0,1-2.19,2,7.7,7.7,0,0,1-6.5,0Z"></path><path d="M54.92,447.94a5,5,0,0,1-2.22-1.75,4.59,4.59,0,0,1-.78-2.65V443a.27.27,0,0,1,.29-.29h2.73a.27.27,0,0,1,.29.29v.36a2,2,0,0,0,.89,1.62,3.93,3.93,0,0,0,2.4.66,2.85,2.85,0,0,0,1.9-.54,1.72,1.72,0,0,0,.62-1.33,1.38,1.38,0,0,0-.38-1,3.54,3.54,0,0,0-1-.69c-.44-.2-1.14-.48-2.1-.83a19.85,19.85,0,0,1-2.72-1.13,5.37,5.37,0,0,1-1.87-1.57,3.9,3.9,0,0,1-.76-2.46,4.37,4.37,0,0,1,.74-2.52A4.83,4.83,0,0,1,55,431.94a8.45,8.45,0,0,1,6.3.08,5.28,5.28,0,0,1,2.23,1.81,4.58,4.58,0,0,1,.8,2.7v.36a.24.24,0,0,1-.08.2.27.27,0,0,1-.2.09H61.26a.29.29,0,0,1-.21-.09.28.28,0,0,1-.08-.2v-.19a2.18,2.18,0,0,0-.83-1.72,3.39,3.39,0,0,0-2.27-.71,2.85,2.85,0,0,0-1.76.48,1.55,1.55,0,0,0-.64,1.32,1.48,1.48,0,0,0,.37,1,3.24,3.24,0,0,0,1.11.73c.49.22,1.24.51,2.27.88a27.49,27.49,0,0,1,2.67,1.1,5.34,5.34,0,0,1,1.75,1.43,3.74,3.74,0,0,1,.78,2.46,4.3,4.3,0,0,1-1.65,3.56,7,7,0,0,1-4.49,1.31A8.5,8.5,0,0,1,54.92,447.94Z"></path><path d="M75.81,431.64a.32.32,0,0,1,.21-.08h2.8a.27.27,0,0,1,.29.29v16.22a.27.27,0,0,1-.29.29H76a.27.27,0,0,1-.29-.29v-6.62a.11.11,0,0,0-.12-.12H70.3a.11.11,0,0,0-.12.12v6.62a.28.28,0,0,1-.08.21.3.3,0,0,1-.2.08H67.09a.27.27,0,0,1-.29-.29V431.85a.27.27,0,0,1,.29-.29H69.9a.3.3,0,0,1,.2.08.28.28,0,0,1,.08.21v6.45a.11.11,0,0,0,.12.12h5.31a.11.11,0,0,0,.12-.12v-6.45A.32.32,0,0,1,75.81,431.64Z"></path><path d="M84.55,447.86a5.6,5.6,0,0,1-2.22-2.15,6.25,6.25,0,0,1-.79-3.18v-5.14a6.13,6.13,0,0,1,.79-3.14,5.55,5.55,0,0,1,2.22-2.13,7.68,7.68,0,0,1,6.62,0,5.55,5.55,0,0,1,2.22,2.13,6.13,6.13,0,0,1,.79,3.14v5.14a6.32,6.32,0,0,1-.79,3.19,5.47,5.47,0,0,1-2.22,2.15,7,7,0,0,1-3.32.75A6.87,6.87,0,0,1,84.55,447.86Zm5.43-3a3,3,0,0,0,.82-2.23v-5.28a3.17,3.17,0,0,0-.8-2.25,2.86,2.86,0,0,0-2.15-.85,2.83,2.83,0,0,0-2.13.85,3.17,3.17,0,0,0-.8,2.25v5.28a3.11,3.11,0,0,0,.8,2.23,3.12,3.12,0,0,0,4.26,0Z"></path><path d="M96.86,448.28a.29.29,0,0,1-.09-.21V431.85a.29.29,0,0,1,.09-.21.3.3,0,0,1,.2-.08h2.81a.27.27,0,0,1,.29.29v13.49a.11.11,0,0,0,.12.12h7.85a.26.26,0,0,1,.2.08.27.27,0,0,1,.09.2v2.33a.29.29,0,0,1-.09.21.3.3,0,0,1-.2.08H97.06A.3.3,0,0,1,96.86,448.28Z"></path><path d="M110.59,448.28a.29.29,0,0,1-.09-.21V431.85a.29.29,0,0,1,.09-.21.28.28,0,0,1,.2-.08h6a7.31,7.31,0,0,1,3.16.64,5,5,0,0,1,2.1,1.78,4.87,4.87,0,0,1,.74,2.67v6.62a4.87,4.87,0,0,1-.74,2.67,5,5,0,0,1-2.1,1.78,7.31,7.31,0,0,1-3.16.64h-6A.28.28,0,0,1,110.59,448.28Zm3.42-2.82h2.9a2.31,2.31,0,0,0,1.79-.75,3,3,0,0,0,.71-2V437.2a2.8,2.8,0,0,0-.69-2,2.35,2.35,0,0,0-1.83-.75H114a.11.11,0,0,0-.12.12v10.76A.11.11,0,0,0,114,445.46Z"></path><path d="M135.07,431.64a.28.28,0,0,1,.2-.08h2.81a.28.28,0,0,1,.2.08.29.29,0,0,1,.09.21v16.22a.29.29,0,0,1-.09.21.28.28,0,0,1-.2.08h-2.71a.34.34,0,0,1-.34-.19l-6.22-10.27s-.06-.07-.09-.06-.05,0-.05.1l.05,10.13a.29.29,0,0,1-.09.21.28.28,0,0,1-.2.08h-2.81a.28.28,0,0,1-.2-.08.29.29,0,0,1-.09-.21V431.85a.29.29,0,0,1,.09-.21.28.28,0,0,1,.2-.08h2.71a.34.34,0,0,1,.34.19L134.86,442a.14.14,0,0,0,.1.06s0-.05,0-.11l0-10.08A.29.29,0,0,1,135.07,431.64Z"></path><path d="M141.38,448.28a.29.29,0,0,1-.09-.21V431.85a.29.29,0,0,1,.09-.21.28.28,0,0,1,.2-.08h2.81a.28.28,0,0,1,.2.08.29.29,0,0,1,.09.21v16.22a.29.29,0,0,1-.09.21.28.28,0,0,1-.2.08h-2.81A.28.28,0,0,1,141.38,448.28Z"></path><path d="M157.34,431.64a.28.28,0,0,1,.2-.08h2.81a.28.28,0,0,1,.2.08.29.29,0,0,1,.09.21v16.22a.29.29,0,0,1-.09.21.28.28,0,0,1-.2.08h-2.71a.35.35,0,0,1-.34-.19l-6.21-10.27s-.07-.07-.1-.06-.05,0-.05.1l.05,10.13a.27.27,0,0,1-.29.29h-2.81a.3.3,0,0,1-.2-.08.28.28,0,0,1-.08-.21V431.85a.28.28,0,0,1,.08-.21.3.3,0,0,1,.2-.08h2.72a.33.33,0,0,1,.33.19L157.13,442s.07.06.1.06.05-.05.05-.11l0-10.08A.29.29,0,0,1,157.34,431.64Z"></path></g><g class="cls-3"><path d="M165.52,447.81a5.39,5.39,0,0,1-2.2-2.08,6,6,0,0,1-.78-3.08v-5.38a6,6,0,0,1,.78-3.09,5.26,5.26,0,0,1,2.2-2.08,7.62,7.62,0,0,1,6.49,0,5.51,5.51,0,0,1,2.18,2,5.06,5.06,0,0,1,.78,2.75V437a.28.28,0,0,1-.08.2.29.29,0,0,1-.21.09h-2.8a.29.29,0,0,1-.21-.09.28.28,0,0,1-.08-.2v-.07a2.5,2.5,0,0,0-.77-1.86,3.1,3.1,0,0,0-4.12.05,2.87,2.87,0,0,0-.78,2.1v5.56a2.76,2.76,0,0,0,.84,2.1,3,3,0,0,0,2.14.81,2.88,2.88,0,0,0,2-.66,2.32,2.32,0,0,0,.75-1.84v-1.08a.11.11,0,0,0-.12-.12h-2.69a.27.27,0,0,1-.29-.29v-2.2a.27.27,0,0,1,.29-.29h5.85a.27.27,0,0,1,.29.29v3.16a6.18,6.18,0,0,1-.77,3.17,5,5,0,0,1-2.17,2,7.67,7.67,0,0,1-6.51,0Z"></path></g><path class="cls-1" d="M303,17.5a5.23,5.23,0,0,1,5.2-5.2h20.7a5.23,5.23,0,0,1,5.2,5.2V28.8m-13.4.9h21.9a12.93,12.93,0,0,1,12.9,12.9V150.9a12.93,12.93,0,0,1-12.9,12.9H294.3a12.93,12.93,0,0,1-12.9-12.9V42.7a12.93,12.93,0,0,1,12.9-12.9h8.6m5,25h21.3M318.5,44.2V65.5M307.9,139h21.3"></path></svg> 