<?xml version="1.0" encoding="UTF-8"?> <svg xmlns="http://www.w3.org/2000/svg" id="Layer_1" data-name="Layer 1" viewBox="0 0 627.55 174.67"><defs><style>.cls-1{fill:#1d1d1b;}.cls-2{fill:#fff;}.cls-3{fill:#fecb00;}</style></defs><polygon class="cls-1" points="211.12 60.9 199.98 72.23 199.98 84.88 197.46 84.88 197.46 40.19 199.98 40.19 199.98 68.58 227.93 40.19 231.39 40.19 212.88 59.08 231.39 84.88 228.3 84.88 211.12 60.9"></polygon><polygon class="cls-1" points="234.58 86.52 227.46 86.52 210.92 63.44 201.62 72.9 201.62 86.52 195.82 86.52 195.82 38.55 201.62 38.55 201.62 64.58 227.24 38.55 235.29 38.55 215.02 59.24 234.58 86.52"></polygon><polygon class="cls-1" points="262.24 84.88 258.96 84.88 239.58 40.19 242.34 40.19 260.6 82.3 278.86 40.19 281.62 40.19 262.24 84.88"></polygon><polygon class="cls-1" points="263.31 86.52 257.89 86.52 237.08 38.55 243.42 38.55 260.6 78.18 277.78 38.55 284.12 38.55 263.31 86.52"></polygon><path class="cls-1" d="M319.57,42.71H288.73V40.19h30.84ZM317.69,63.8h-29V61.28h29Zm1.88,21.08H288.73V82.36h30.84Z"></path><path class="cls-1" d="M321.21,86.52H287.09V80.73h34.12Zm-1.88-21.09H287.09V59.64h32.24Zm1.88-21.08H287.09v-5.8h34.12Z"></path><path class="cls-2" d="M331.78,84.88h-2.51V40.19H348.9a12.44,12.44,0,1,1,0,24.87H335.62l23.23,19.82H355L331.78,65.06Zm0-42.17V62.54H348.9a9.92,9.92,0,1,0,0-19.83Z"></path><path class="cls-2" d="M363.3,86.52h-8.89l-21-17.91V86.52h-5.79v-48H348.9a14.07,14.07,0,1,1,0,28.14h-8.83ZM333.42,60.9H348.9a8.28,8.28,0,1,0,0-16.55H333.42Z"></path><polygon class="cls-2" points="372.38 44.35 372.38 84.88 369.86 84.88 369.86 40.19 372.38 40.19 403.6 80.73 403.6 40.19 406.12 40.19 406.12 84.88 403.6 84.88 372.38 44.35"></polygon><polygon class="cls-2" points="407.76 86.52 402.79 86.52 374.02 49.16 374.02 86.52 368.22 86.52 368.22 38.55 373.19 38.55 401.96 75.91 401.96 38.55 407.76 38.55 407.76 86.52"></polygon><path class="cls-2" d="M446.92,42.71H416.08V40.19h30.84ZM445,63.8h-29V61.28h29Zm1.88,21.08H416.08V82.36h30.84Z"></path><path class="cls-2" d="M448.56,86.52H414.44V80.73h34.12Zm-1.89-21.09H414.44V59.64h32.23Zm1.89-21.08H414.44v-5.8h34.12Z"></path><polygon class="cls-2" points="456.61 40.19 459.13 40.19 459.13 82.36 488.09 82.36 488.09 84.88 456.61 84.88 456.61 40.19"></polygon><polygon class="cls-2" points="489.73 86.52 454.98 86.52 454.98 38.55 460.77 38.55 460.77 80.73 489.73 80.73 489.73 86.52"></polygon><polygon class="cls-2" points="535.89 84.88 533.12 84.88 514.87 42.84 496.61 84.88 493.84 84.88 513.23 40.19 516.5 40.19 535.89 84.88"></polygon><polygon class="cls-2" points="538.39 86.52 532.04 86.52 514.87 46.95 497.69 86.52 491.34 86.52 512.15 38.55 517.58 38.55 538.39 86.52"></polygon><polygon class="cls-2" points="544.14 44.35 544.14 84.88 541.62 84.88 541.62 40.19 544.14 40.19 575.36 80.73 575.36 40.19 577.88 40.19 577.88 84.88 575.36 84.88 544.14 44.35"></polygon><polygon class="cls-2" points="579.52 86.52 574.55 86.52 545.78 49.16 545.78 86.52 539.99 86.52 539.99 38.55 544.95 38.55 573.72 75.91 573.72 38.55 579.52 38.55 579.52 86.52"></polygon><path class="cls-2" d="M587.84,40.19h16a22.35,22.35,0,1,1,0,44.69h-16Zm2.52,42.18h13.53a19.83,19.83,0,1,0,0-39.66H590.36Z"></path><path class="cls-2" d="M603.89,86.19H586.53V38.88h17.36a23.66,23.66,0,1,1,0,47.31m-12.22-5.14h12.22a18.52,18.52,0,1,0,0-37H591.67Z"></path><polygon class="cls-2" points="104.39 108.89 80.44 122.72 124.76 134.12 143.16 115.73 104.39 108.89"></polygon><polygon class="cls-3" points="71.2 96.27 71.2 13.02 58.02 26.2 58.02 93.94 71.2 96.27"></polygon><polygon class="cls-3" points="11.7 72.52 0.43 83.78 11.7 85.77 11.7 72.52"></polygon><polygon class="cls-3" points="31.53 89.27 31.53 52.68 18.35 65.86 18.35 86.94 31.53 89.27"></polygon><polygon class="cls-3" points="171.55 87.34 157.18 72.97 157.18 101.7 171.55 87.34"></polygon><polygon class="cls-2" points="55.8 100.31 28.36 109.33 71.24 120.36 94.21 107.09 55.8 100.31"></polygon><polygon class="cls-3" points="148.9 109.98 150.53 108.35 150.53 66.32 137.35 53.14 137.35 107.95 148.9 109.98"></polygon><polygon class="cls-3" points="130.7 106.77 130.7 46.49 117.52 33.3 117.52 104.45 130.7 106.77"></polygon><polygon class="cls-3" points="91.03 99.77 91.03 6.82 84.21 0 77.85 6.36 77.85 97.44 91.03 99.77"></polygon><polyline class="cls-3" points="104.17 102.09 110.86 103.27 110.86 26.65 97.68 13.47 97.68 100.94 103.16 101.91"></polyline><polygon class="cls-3" points="51.36 92.77 51.36 32.85 38.18 46.03 38.18 90.44 51.36 92.77"></polygon><polyline class="cls-2" points="11.7 92.52 0 90.46 15.58 106.04 16.41 106.25 41.94 97.86 13.93 92.92"></polyline><polygon class="cls-2" points="49.91 140.37 84.21 174.67 119.3 139.59 72.22 127.48 49.91 140.37"></polygon><polygon class="cls-2" points="24.83 115.29 45.04 135.5 63.02 125.11 24.83 115.29"></polygon><polygon class="cls-2" points="211.12 60.9 199.98 72.23 199.98 84.88 197.46 84.88 197.46 40.19 199.98 40.19 199.98 68.58 227.93 40.19 231.39 40.19 212.88 59.08 231.39 84.88 228.3 84.88 211.12 60.9"></polygon><polygon class="cls-2" points="234.58 86.52 227.46 86.52 210.92 63.44 201.62 72.9 201.62 86.52 195.82 86.52 195.82 38.55 201.62 38.55 201.62 64.58 227.24 38.55 235.29 38.55 215.02 59.24 234.58 86.52"></polygon><polygon class="cls-2" points="262.24 84.88 258.96 84.88 239.58 40.19 242.34 40.19 260.6 82.3 278.86 40.19 281.62 40.19 262.24 84.88"></polygon><polygon class="cls-2" points="263.31 86.52 257.89 86.52 237.08 38.55 243.42 38.55 260.6 78.18 277.78 38.55 284.12 38.55 263.31 86.52"></polygon><path class="cls-2" d="M319.57,42.71H288.73V40.19h30.84ZM317.69,63.8h-29V61.28h29Zm1.88,21.08H288.73V82.36h30.84Z"></path><path class="cls-2" d="M321.21,86.52H287.09V80.73h34.12Zm-1.88-21.09H287.09V59.64h32.24Zm1.88-21.08H287.09v-5.8h34.12Z"></path><path class="cls-2" d="M331.78,84.88h-2.51V40.19H348.9a12.44,12.44,0,1,1,0,24.87H335.62l23.23,19.82H355L331.78,65.06Zm0-42.17V62.54H348.9a9.92,9.92,0,1,0,0-19.83Z"></path><path class="cls-2" d="M363.3,86.52h-8.89l-21-17.91V86.52h-5.79v-48H348.9a14.07,14.07,0,1,1,0,28.14h-8.83ZM333.42,60.9H348.9a8.28,8.28,0,1,0,0-16.55H333.42Z"></path><polygon class="cls-2" points="372.38 44.35 372.38 84.88 369.86 84.88 369.86 40.19 372.38 40.19 403.6 80.73 403.6 40.19 406.12 40.19 406.12 84.88 403.6 84.88 372.38 44.35"></polygon><polygon class="cls-2" points="407.76 86.52 402.79 86.52 374.02 49.16 374.02 86.52 368.22 86.52 368.22 38.55 373.19 38.55 401.96 75.91 401.96 38.55 407.76 38.55 407.76 86.52"></polygon><path class="cls-2" d="M446.92,42.71H416.08V40.19h30.84ZM445,63.8h-29V61.28h29Zm1.88,21.08H416.08V82.36h30.84Z"></path><path class="cls-2" d="M448.56,86.52H414.44V80.73h34.12Zm-1.89-21.09H414.44V59.64h32.23Zm1.89-21.08H414.44v-5.8h34.12Z"></path><polygon class="cls-2" points="456.61 40.19 459.13 40.19 459.13 82.36 488.09 82.36 488.09 84.88 456.61 84.88 456.61 40.19"></polygon><polygon class="cls-2" points="489.73 86.52 454.98 86.52 454.98 38.55 460.77 38.55 460.77 80.73 489.73 80.73 489.73 86.52"></polygon><polygon class="cls-2" points="535.89 84.88 533.12 84.88 514.87 42.84 496.61 84.88 493.84 84.88 513.23 40.19 516.5 40.19 535.89 84.88"></polygon><polygon class="cls-2" points="538.39 86.52 532.04 86.52 514.87 46.95 497.69 86.52 491.34 86.52 512.15 38.55 517.58 38.55 538.39 86.52"></polygon><polygon class="cls-2" points="544.14 44.35 544.14 84.88 541.62 84.88 541.62 40.19 544.14 40.19 575.36 80.73 575.36 40.19 577.88 40.19 577.88 84.88 575.36 84.88 544.14 44.35"></polygon><polygon class="cls-2" points="579.52 86.52 574.55 86.52 545.78 49.16 545.78 86.52 539.99 86.52 539.99 38.55 544.95 38.55 573.72 75.91 573.72 38.55 579.52 38.55 579.52 86.52"></polygon><path class="cls-2" d="M587.84,40.19h16a22.35,22.35,0,1,1,0,44.69h-16Zm2.52,42.18h13.53a19.83,19.83,0,1,0,0-39.66H590.36Z"></path><path class="cls-2" d="M603.89,86.19H586.53V38.88h17.36a23.66,23.66,0,1,1,0,47.31m-12.22-5.14h12.22a18.52,18.52,0,1,0,0-37H591.67Z"></path><polygon class="cls-2" points="211.12 60.9 199.98 72.23 199.98 84.88 197.46 84.88 197.46 40.19 199.98 40.19 199.98 68.58 227.93 40.19 231.39 40.19 212.88 59.08 231.39 84.88 228.3 84.88 211.12 60.9"></polygon><polygon class="cls-2" points="234.58 86.52 227.46 86.52 210.92 63.44 201.62 72.9 201.62 86.52 195.82 86.52 195.82 38.55 201.62 38.55 201.62 64.58 227.24 38.55 235.29 38.55 215.02 59.24 234.58 86.52"></polygon><polygon class="cls-2" points="262.24 84.88 258.96 84.88 239.58 40.19 242.34 40.19 260.6 82.3 278.86 40.19 281.62 40.19 262.24 84.88"></polygon><polygon class="cls-2" points="263.31 86.52 257.89 86.52 237.08 38.55 243.42 38.55 260.6 78.18 277.78 38.55 284.12 38.55 263.31 86.52"></polygon><path class="cls-2" d="M319.57,42.71H288.73V40.19h30.84ZM317.69,63.8h-29V61.28h29Zm1.88,21.08H288.73V82.36h30.84Z"></path><path class="cls-2" d="M321.21,86.52H287.09V80.73h34.12Zm-1.88-21.09H287.09V59.64h32.24Zm1.88-21.08H287.09v-5.8h34.12Z"></path><path class="cls-2" d="M331.78,84.88h-2.51V40.19H348.9a12.44,12.44,0,1,1,0,24.87H335.62l23.23,19.82H355L331.78,65.06Zm0-42.17V62.54H348.9a9.92,9.92,0,1,0,0-19.83Z"></path><path class="cls-2" d="M363.3,86.52h-8.89l-21-17.91V86.52h-5.79v-48H348.9a14.07,14.07,0,1,1,0,28.14h-8.83ZM333.42,60.9H348.9a8.28,8.28,0,1,0,0-16.55H333.42Z"></path><polygon class="cls-2" points="372.38 44.35 372.38 84.88 369.86 84.88 369.86 40.19 372.38 40.19 403.6 80.73 403.6 40.19 406.12 40.19 406.12 84.88 403.6 84.88 372.38 44.35"></polygon><polygon class="cls-2" points="407.76 86.52 402.79 86.52 374.02 49.16 374.02 86.52 368.22 86.52 368.22 38.55 373.19 38.55 401.96 75.91 401.96 38.55 407.76 38.55 407.76 86.52"></polygon><path class="cls-2" d="M446.92,42.71H416.08V40.19h30.84ZM445,63.8h-29V61.28h29Zm1.88,21.08H416.08V82.36h30.84Z"></path><path class="cls-2" d="M448.56,86.52H414.44V80.73h34.12Zm-1.89-21.09H414.44V59.64h32.23Zm1.89-21.08H414.44v-5.8h34.12Z"></path><polygon class="cls-2" points="456.61 40.19 459.13 40.19 459.13 82.36 488.09 82.36 488.09 84.88 456.61 84.88 456.61 40.19"></polygon><polygon class="cls-2" points="489.73 86.52 454.98 86.52 454.98 38.55 460.77 38.55 460.77 80.73 489.73 80.73 489.73 86.52"></polygon><polygon class="cls-2" points="535.89 84.88 533.12 84.88 514.87 42.84 496.61 84.88 493.84 84.88 513.23 40.19 516.5 40.19 535.89 84.88"></polygon><polygon class="cls-2" points="538.39 86.52 532.04 86.52 514.87 46.95 497.69 86.52 491.34 86.52 512.15 38.55 517.58 38.55 538.39 86.52"></polygon><polygon class="cls-2" points="544.14 44.35 544.14 84.88 541.62 84.88 541.62 40.19 544.14 40.19 575.36 80.73 575.36 40.19 577.88 40.19 577.88 84.88 575.36 84.88 544.14 44.35"></polygon><polygon class="cls-2" points="579.52 86.52 574.55 86.52 545.78 49.16 545.78 86.52 539.99 86.52 539.99 38.55 544.95 38.55 573.72 75.91 573.72 38.55 579.52 38.55 579.52 86.52"></polygon><path class="cls-2" d="M587.84,40.19h16a22.35,22.35,0,1,1,0,44.69h-16Zm2.52,42.18h13.53a19.83,19.83,0,1,0,0-39.66H590.36Z"></path><path class="cls-2" d="M603.89,86.19H586.53V38.88h17.36a23.66,23.66,0,1,1,0,47.31m-12.22-5.14h12.22a18.52,18.52,0,1,0,0-37H591.67Z"></path><path class="cls-2" d="M228.09,104.34H197.25v-2.52h30.84Zm-1.89,21.08H197.25v-2.51H226.2Zm1.89,21.09H197.25V144h30.84Z"></path><path class="cls-2" d="M229.73,148.15H195.61v-5.8h34.12Zm-1.89-21.09H195.61v-5.79h32.23ZM229.73,106H195.61v-5.8h34.12Z"></path><polygon class="cls-2" points="242.92 105.98 242.92 146.51 240.4 146.51 240.4 101.82 242.92 101.82 274.14 142.36 274.14 101.82 276.66 101.82 276.66 146.51 274.14 146.51 242.92 105.98"></polygon><polygon class="cls-2" points="278.3 148.15 273.34 148.15 244.56 110.79 244.56 148.15 238.77 148.15 238.77 100.18 243.73 100.18 272.5 137.54 272.5 100.18 278.3 100.18 278.3 148.15"></polygon><path class="cls-2" d="M319.36,104.34H288.52v-2.52h30.84Zm-1.88,21.08h-29v-2.51h29Zm1.88,21.09H288.52V144h30.84Z"></path><path class="cls-2" d="M321,148.15H286.88v-5.8H321Zm-1.89-21.09H286.88v-5.79h32.23ZM321,106H286.88v-5.8H321Z"></path><path class="cls-2" d="M331.57,146.51h-2.52V101.82h19.64a12.43,12.43,0,1,1,0,24.86H335.41l23.23,19.83H354.8l-23.23-19.83Zm0-42.17v19.83h17.12a9.92,9.92,0,1,0,0-19.83Z"></path><path class="cls-2" d="M363.08,148.15h-8.89l-21-17.91v17.91h-5.79v-48h21.27a14.07,14.07,0,1,1,0,28.14h-8.83Zm-29.87-25.62h15.48a8.28,8.28,0,1,0,0-16.55H333.21Z"></path><path class="cls-2" d="M408.7,123.47v16.81a23.34,23.34,0,1,1-1.2-33.42l-1.7,1.82a20.85,20.85,0,1,0,.38,30.59V126H386.85v-2.52Z"></path><path class="cls-2" d="M391.83,149.16a25,25,0,1,1,16.77-43.52l1.23,1.12L405.9,111l-1.19-1.08A19,19,0,0,0,391.83,105a19.2,19.2,0,1,0,12.71,33.58V127.63H385.22v-5.79h25.12v19.1l-.46.47a24.77,24.77,0,0,1-18.05,7.75"></path><rect class="cls-2" x="420.08" y="101.82" width="2.52" height="44.69"></rect><rect class="cls-2" x="418.44" y="100.18" width="5.8" height="47.97"></rect></svg> 