<?xml version="1.0" encoding="UTF-8"?> <svg xmlns="http://www.w3.org/2000/svg" id="Layer_1" data-name="Layer 1" viewBox="0 0 565.2 515.4"><defs><style>.cls-1{isolation:isolate;}.cls-2{fill:#b2b2b2;}.cls-3{fill:#f2f2f2;}.cls-4{fill:#ffcc14;}.cls-5,.cls-6,.cls-7,.cls-8,.cls-9{fill:none;}.cls-5{stroke:#00bd56;stroke-width:4px;stroke-dasharray:11.84 7.84;}.cls-6,.cls-9{stroke:#000;}.cls-6{stroke-width:2px;}.cls-7{stroke:red;}.cls-7,.cls-8{stroke-linecap:round;}.cls-7,.cls-9{stroke-width:3px;}.cls-8{stroke:#b2b2b2;}.cls-9{stroke-linejoin:round;}</style></defs><g class="cls-1"><path d="M30.32,139.39a.3.3,0,0,1-.2.08H22.24a.11.11,0,0,0-.12.12v3.72a.11.11,0,0,0,.12.12H27.4a.29.29,0,0,1,.21.09.28.28,0,0,1,.08.2v2.33a.3.3,0,0,1-.08.2.28.28,0,0,1-.21.08H22.24a.11.11,0,0,0-.12.12v3.89a.11.11,0,0,0,.12.12h7.88a.27.27,0,0,1,.2.09.24.24,0,0,1,.08.2v2.33a.24.24,0,0,1-.08.2.27.27,0,0,1-.2.09H19a.29.29,0,0,1-.21-.09.28.28,0,0,1-.08-.2V136.85a.3.3,0,0,1,.08-.2.32.32,0,0,1,.21-.08H30.12a.3.3,0,0,1,.2.08.26.26,0,0,1,.08.2v2.33A.28.28,0,0,1,30.32,139.39Z"></path><path d="M44.31,139.39a.28.28,0,0,1-.2.08H36.26a.11.11,0,0,0-.12.12v3.72a.11.11,0,0,0,.12.12h5.16a.31.31,0,0,1,.29.29v2.33a.27.27,0,0,1-.09.2.24.24,0,0,1-.2.08H36.26a.11.11,0,0,0-.12.12v6.63a.28.28,0,0,1-.08.2.29.29,0,0,1-.21.09H33a.27.27,0,0,1-.2-.09.24.24,0,0,1-.08-.2V136.85a.26.26,0,0,1,.08-.2.3.3,0,0,1,.2-.08H44.11a.28.28,0,0,1,.2.08.27.27,0,0,1,.09.2v2.33A.29.29,0,0,1,44.31,139.39Z"></path><path d="M57.75,139.39a.28.28,0,0,1-.2.08H49.7a.11.11,0,0,0-.12.12v3.72a.11.11,0,0,0,.12.12h5.16a.31.31,0,0,1,.29.29v2.33a.27.27,0,0,1-.09.2.24.24,0,0,1-.2.08H49.7a.11.11,0,0,0-.12.12v6.63a.28.28,0,0,1-.08.2.29.29,0,0,1-.21.09H46.48a.27.27,0,0,1-.2-.09.24.24,0,0,1-.08-.2V136.85a.26.26,0,0,1,.08-.2.3.3,0,0,1,.2-.08H57.55a.28.28,0,0,1,.2.08.27.27,0,0,1,.09.2v2.33A.29.29,0,0,1,57.75,139.39Z"></path><path d="M71.22,139.39a.32.32,0,0,1-.21.08H63.14a.11.11,0,0,0-.12.12v3.72a.11.11,0,0,0,.12.12H68.3a.31.31,0,0,1,.29.29v2.33a.27.27,0,0,1-.09.2.24.24,0,0,1-.2.08H63.14a.11.11,0,0,0-.12.12v3.89a.11.11,0,0,0,.12.12H71a.29.29,0,0,1,.21.09.28.28,0,0,1,.08.2v2.33a.28.28,0,0,1-.08.2.29.29,0,0,1-.21.09H59.92a.27.27,0,0,1-.2-.09.24.24,0,0,1-.08-.2V136.85a.26.26,0,0,1,.08-.2.3.3,0,0,1,.2-.08H71a.32.32,0,0,1,.21.08.3.3,0,0,1,.08.2v2.33A.32.32,0,0,1,71.22,139.39Z"></path></g><g class="cls-1"><path d="M73.75,153.28a.25.25,0,0,1-.09-.2V136.85a.27.27,0,0,1,.09-.2.28.28,0,0,1,.2-.08h2.81a.3.3,0,0,1,.2.08.27.27,0,0,1,.09.2v6.72c0,.05,0,.08,0,.09a.11.11,0,0,0,.1,0l5.54-6.89a.46.46,0,0,1,.36-.16h3.17c.13,0,.21,0,.24.1a.26.26,0,0,1,0,.26l-5.35,6.84a.13.13,0,0,0,0,.17L86.74,153a1.47,1.47,0,0,1,.05.17c0,.11-.08.17-.24.17H83.38a.33.33,0,0,1-.33-.2l-4.28-6.91a.08.08,0,0,0-.07,0,.14.14,0,0,0-.09,0l-1.52,1.9a.33.33,0,0,0,0,.14v4.78a.25.25,0,0,1-.09.2.27.27,0,0,1-.2.09H74A.25.25,0,0,1,73.75,153.28Z"></path><path d="M100.48,136.65a.27.27,0,0,1,.09.2v2.36a.27.27,0,0,1-.09.2.26.26,0,0,1-.2.08H96a.11.11,0,0,0-.12.12v13.47a.28.28,0,0,1-.08.2.29.29,0,0,1-.21.09h-2.8a.29.29,0,0,1-.21-.09.24.24,0,0,1-.08-.2V139.61a.11.11,0,0,0-.12-.12H88.18a.24.24,0,0,1-.2-.08.27.27,0,0,1-.09-.2v-2.36a.27.27,0,0,1,.09-.2.28.28,0,0,1,.2-.08h12.1A.3.3,0,0,1,100.48,136.65Z"></path></g><g class="cls-1"><path d="M107.34,156.81a.26.26,0,0,1-.08-.2V134.45a.27.27,0,0,1,.28-.28h5.69a.28.28,0,0,1,.21.08.3.3,0,0,1,.08.2v2.33a.27.27,0,0,1-.29.29h-2.47a.11.11,0,0,0-.12.12v16.66a.11.11,0,0,0,.12.12h2.5a.27.27,0,0,1,.28.28v2.36a.26.26,0,0,1-.08.2.27.27,0,0,1-.2.09h-5.72A.27.27,0,0,1,107.34,156.81Z"></path><path d="M117,153.28a.28.28,0,0,1-.08-.2V136.85a.3.3,0,0,1,.08-.2.32.32,0,0,1,.21-.08H120a.3.3,0,0,1,.2.08.26.26,0,0,1,.08.2v6.72c0,.05,0,.08,0,.09a.11.11,0,0,0,.1,0l5.54-6.89a.46.46,0,0,1,.36-.16h3.17c.13,0,.21,0,.24.1a.26.26,0,0,1-.05.26l-5.35,6.84a.13.13,0,0,0,0,.17L130,153a1.47,1.47,0,0,1,0,.17c0,.11-.08.17-.24.17H126.6a.36.36,0,0,1-.34-.2L122,146.26a.08.08,0,0,0-.07,0,.19.19,0,0,0-.1,0l-1.51,1.9a.39.39,0,0,0,0,.14v4.78a.24.24,0,0,1-.08.2.27.27,0,0,1-.2.09h-2.81A.29.29,0,0,1,117,153.28Z"></path></g><g class="cls-1"><path d="M135.52,153.13l-4.25-16.25,0-.1c0-.14.09-.21.26-.21h3a.3.3,0,0,1,.31.24l2.28,9.76c0,.07,0,.1.07.1s.06,0,.08-.1l2.2-9.74a.31.31,0,0,1,.32-.26h2.9a.32.32,0,0,1,.34.24l2.4,9.76a.11.11,0,0,0,.07.09s0,0,.07-.09l2.21-9.74a.3.3,0,0,1,.31-.26h2.83c.23,0,.31.1.27.31l-3.94,16.25a.32.32,0,0,1-.34.24H144a.29.29,0,0,1-.31-.24l-2.45-10.4c0-.06,0-.09-.07-.09s-.06,0-.08.09l-2.28,10.37a.28.28,0,0,1-.31.27h-2.66A.32.32,0,0,1,135.52,153.13Z"></path><path d="M160.81,156.81a.29.29,0,0,1-.21.09h-5.71a.25.25,0,0,1-.2-.09.27.27,0,0,1-.09-.2v-2.36a.27.27,0,0,1,.09-.2.24.24,0,0,1,.2-.08h2.5a.11.11,0,0,0,.12-.12V137.19a.11.11,0,0,0-.12-.12h-2.5a.28.28,0,0,1-.2-.08.29.29,0,0,1-.09-.21v-2.33a.27.27,0,0,1,.09-.2.24.24,0,0,1,.2-.08h5.71a.28.28,0,0,1,.21.08.3.3,0,0,1,.08.2v22.16A.3.3,0,0,1,160.81,156.81Z"></path></g><g class="cls-1"><path d="M448.54,254.66a.2.2,0,0,1,.06.15v1.76a.21.21,0,0,1-.06.16.2.2,0,0,1-.15.06h-3.22a.08.08,0,0,0-.09.09V267a.21.21,0,0,1-.07.15.2.2,0,0,1-.15.06h-2.11a.21.21,0,0,1-.21-.21v-10.1a.08.08,0,0,0-.09-.09h-3.13a.21.21,0,0,1-.22-.22v-1.76a.2.2,0,0,1,.06-.15.21.21,0,0,1,.16-.06h9.07A.2.2,0,0,1,448.54,254.66Z"></path><path d="M450.29,267.13a.18.18,0,0,1-.07-.15V254.81a.18.18,0,0,1,.07-.15.2.2,0,0,1,.15-.06h2.1a.21.21,0,0,1,.16.06.2.2,0,0,1,.06.15V267a.2.2,0,0,1-.06.15.21.21,0,0,1-.16.06h-2.1A.2.2,0,0,1,450.29,267.13Z"></path><path d="M455,267.13A.2.2,0,0,1,455,267V254.81a.21.21,0,0,1,.21-.21h2.11a.2.2,0,0,1,.15.06.21.21,0,0,1,.07.15v10.12c0,.06,0,.09.08.09h5.89a.2.2,0,0,1,.15.06.18.18,0,0,1,.07.15V267a.18.18,0,0,1-.07.15.2.2,0,0,1-.15.06h-8.3A.2.2,0,0,1,455,267.13Z"></path><path d="M467.09,266.78a4,4,0,0,1-1.65-1.56,4.45,4.45,0,0,1-.58-2.31v-4a4.52,4.52,0,0,1,.58-2.32,4,4,0,0,1,1.65-1.56,5.71,5.71,0,0,1,4.87,0,4.11,4.11,0,0,1,1.64,1.47,3.77,3.77,0,0,1,.58,2.06v.13a.22.22,0,0,1-.06.15.23.23,0,0,1-.16.06h-2.1a.2.2,0,0,1-.15-.06.19.19,0,0,1-.07-.15v-.06a1.87,1.87,0,0,0-.57-1.39,2.33,2.33,0,0,0-3.09,0,2.18,2.18,0,0,0-.59,1.58V263a2.06,2.06,0,0,0,.64,1.58,2.22,2.22,0,0,0,1.6.6,2.16,2.16,0,0,0,1.49-.49,1.77,1.77,0,0,0,.56-1.38v-.81a.08.08,0,0,0-.09-.09h-2a.2.2,0,0,1-.15-.06.25.25,0,0,1-.06-.16v-1.65a.25.25,0,0,1,.06-.16.2.2,0,0,1,.15-.06H474a.23.23,0,0,1,.16.06.25.25,0,0,1,.06.16v2.37a4.76,4.76,0,0,1-.57,2.38,3.91,3.91,0,0,1-1.63,1.54,5.44,5.44,0,0,1-2.44.53A5.21,5.21,0,0,1,467.09,266.78Z"></path></g><g class="cls-1"><path d="M477.77,266.83a3.87,3.87,0,0,1-1.58-1.44,4.14,4.14,0,0,1-.56-2.16V262.1a.18.18,0,0,1,.07-.15.21.21,0,0,1,.15-.07H478a.23.23,0,0,1,.15.07.2.2,0,0,1,.06.15v1.13a1.9,1.9,0,0,0,.53,1.4,2,2,0,0,0,1.45.53,2.05,2.05,0,0,0,1.45-.53,1.82,1.82,0,0,0,.57-1.4v-8.42a.21.21,0,0,1,.21-.21h2.09a.2.2,0,0,1,.15.06.18.18,0,0,1,.07.15v8.42a3.87,3.87,0,0,1-2.18,3.6,5.76,5.76,0,0,1-4.74,0Z"></path><path d="M495.57,256.71a.23.23,0,0,1-.16.06h-5.9a.08.08,0,0,0-.09.09v2.79a.08.08,0,0,0,.09.09h3.87a.24.24,0,0,1,.22.22v1.74a.2.2,0,0,1-.07.16.2.2,0,0,1-.15.06h-3.87a.08.08,0,0,0-.09.09v2.92a.08.08,0,0,0,.09.09h5.9a.23.23,0,0,1,.16.06.2.2,0,0,1,.06.15V267a.2.2,0,0,1-.06.15.23.23,0,0,1-.16.06H487.1a.2.2,0,0,1-.15-.06.18.18,0,0,1-.07-.15V254.81a.18.18,0,0,1,.07-.15.2.2,0,0,1,.15-.06h8.31a.23.23,0,0,1,.16.06.2.2,0,0,1,.06.15v1.75A.2.2,0,0,1,495.57,256.71Z"></path><path d="M504.69,254.66a.25.25,0,0,1,.16-.06H507a.25.25,0,0,1,.16.06.2.2,0,0,1,.06.15V267a.2.2,0,0,1-.06.15.25.25,0,0,1-.16.06h-2a.24.24,0,0,1-.25-.14l-4.67-7.7s0-.05-.07-.05,0,0,0,.08l0,7.6a.21.21,0,0,1-.21.21h-2.11a.2.2,0,0,1-.15-.06.21.21,0,0,1-.07-.15V254.81a.21.21,0,0,1,.07-.15.2.2,0,0,1,.15-.06h2a.26.26,0,0,1,.26.14l4.64,7.67s0,0,.07,0,0,0,0-.08l0-7.56A.2.2,0,0,1,504.69,254.66Z"></path><path d="M511.34,266.78a4,4,0,0,1-1.64-1.56,4.46,4.46,0,0,1-.59-2.31v-4a4.52,4.52,0,0,1,.59-2.32,4,4,0,0,1,1.64-1.56,5.71,5.71,0,0,1,4.87,0,4,4,0,0,1,1.64,1.47,3.78,3.78,0,0,1,.59,2.06v.13a.19.19,0,0,1-.07.15.2.2,0,0,1-.15.06h-2.11a.2.2,0,0,1-.15-.06.22.22,0,0,1-.06-.15v-.06a1.84,1.84,0,0,0-.58-1.39,2.07,2.07,0,0,0-1.53-.57,2,2,0,0,0-1.55.6,2.18,2.18,0,0,0-.59,1.58V263a2.09,2.09,0,0,0,.63,1.58,2.22,2.22,0,0,0,1.6.6,2.19,2.19,0,0,0,1.5-.49,1.76,1.76,0,0,0,.55-1.38v-.81a.08.08,0,0,0-.09-.09h-2a.2.2,0,0,1-.15-.06.21.21,0,0,1-.07-.16v-1.65a.21.21,0,0,1,.07-.16.2.2,0,0,1,.15-.06h4.39a.2.2,0,0,1,.15.06.21.21,0,0,1,.07.16v2.37a4.77,4.77,0,0,1-.58,2.38,3.85,3.85,0,0,1-1.63,1.54,5.38,5.38,0,0,1-2.44.53A5.24,5.24,0,0,1,511.34,266.78Z"></path><path d="M529.07,256.71a.25.25,0,0,1-.16.06H523a.08.08,0,0,0-.09.09v2.79a.08.08,0,0,0,.09.09h3.87a.18.18,0,0,1,.15.07.2.2,0,0,1,.06.15v1.74a.23.23,0,0,1-.06.16.2.2,0,0,1-.15.06H523a.08.08,0,0,0-.09.09v2.92a.08.08,0,0,0,.09.09h5.9a.25.25,0,0,1,.16.06.2.2,0,0,1,.06.15V267a.2.2,0,0,1-.06.15.25.25,0,0,1-.16.06H520.6a.25.25,0,0,1-.16-.06.2.2,0,0,1-.06-.15V254.81a.2.2,0,0,1,.06-.15.25.25,0,0,1,.16-.06h8.31a.25.25,0,0,1,.16.06.2.2,0,0,1,.06.15v1.75A.2.2,0,0,1,529.07,256.71Z"></path><path d="M531,267.13a.18.18,0,0,1-.07-.15V254.81a.18.18,0,0,1,.07-.15.2.2,0,0,1,.15-.06h2.1a.23.23,0,0,1,.16.06.2.2,0,0,1,.06.15v10.12a.08.08,0,0,0,.09.09h5.89a.21.21,0,0,1,.21.21V267a.21.21,0,0,1-.21.21h-8.3A.2.2,0,0,1,531,267.13Z"></path><path d="M541.25,267.13a.2.2,0,0,1-.06-.15V254.81a.21.21,0,0,1,.21-.21h2.11a.2.2,0,0,1,.15.06.18.18,0,0,1,.07.15V267a.18.18,0,0,1-.07.15.2.2,0,0,1-.15.06H541.4A.2.2,0,0,1,541.25,267.13Z"></path><path d="M547.9,266.78a4,4,0,0,1-1.65-1.56,4.55,4.55,0,0,1-.58-2.31v-4a4.62,4.62,0,0,1,.58-2.32A4,4,0,0,1,547.9,255a5.71,5.71,0,0,1,4.87,0,4.11,4.11,0,0,1,1.64,1.47,3.77,3.77,0,0,1,.58,2.06v.13a.22.22,0,0,1-.06.15.2.2,0,0,1-.15.06h-2.11a.2.2,0,0,1-.15-.06.22.22,0,0,1-.06-.15v-.06a1.88,1.88,0,0,0-.58-1.39,2.33,2.33,0,0,0-3.09,0,2.17,2.17,0,0,0-.58,1.58V263a2.09,2.09,0,0,0,.63,1.58,2.22,2.22,0,0,0,1.6.6,2.16,2.16,0,0,0,1.49-.49,1.74,1.74,0,0,0,.56-1.38v-.81a.08.08,0,0,0-.09-.09h-2a.23.23,0,0,1-.16-.06.25.25,0,0,1-.06-.16v-1.65a.25.25,0,0,1,.06-.16.23.23,0,0,1,.16-.06h4.39a.2.2,0,0,1,.15.06.25.25,0,0,1,.06.16v2.37a4.76,4.76,0,0,1-.57,2.38,3.91,3.91,0,0,1-1.63,1.54,5.41,5.41,0,0,1-2.44.53A5.24,5.24,0,0,1,547.9,266.78Z"></path></g><g class="cls-1"><path d="M448.38,276.71a.2.2,0,0,1-.15.06h-5.91a.08.08,0,0,0-.09.09v2.79a.08.08,0,0,0,.09.09h3.87a.24.24,0,0,1,.22.22v1.74a.2.2,0,0,1-.07.16.2.2,0,0,1-.15.06h-3.87a.08.08,0,0,0-.09.09v2.92a.08.08,0,0,0,.09.09h5.91a.21.21,0,0,1,.21.21V287a.21.21,0,0,1-.21.21h-8.32a.2.2,0,0,1-.15-.06.18.18,0,0,1-.07-.15V274.81a.18.18,0,0,1,.07-.15.21.21,0,0,1,.15-.07h8.32a.21.21,0,0,1,.15.07.2.2,0,0,1,.06.15v1.75A.2.2,0,0,1,448.38,276.71Z"></path><path d="M458.87,276.71a.2.2,0,0,1-.15.06h-5.89a.08.08,0,0,0-.09.09v2.79a.08.08,0,0,0,.09.09h3.87a.21.21,0,0,1,.16.07.2.2,0,0,1,.06.15v1.74a.23.23,0,0,1-.06.16.25.25,0,0,1-.16.06h-3.87a.08.08,0,0,0-.09.09v5a.21.21,0,0,1-.21.21h-2.11a.21.21,0,0,1-.21-.21V274.81a.2.2,0,0,1,.06-.15.21.21,0,0,1,.15-.07h8.3a.21.21,0,0,1,.15.07.18.18,0,0,1,.07.15v1.75A.18.18,0,0,1,458.87,276.71Z"></path><path d="M469,276.71a.2.2,0,0,1-.15.06h-5.89a.08.08,0,0,0-.09.09v2.79a.08.08,0,0,0,.09.09h3.87a.21.21,0,0,1,.16.07.2.2,0,0,1,.06.15v1.74a.23.23,0,0,1-.06.16.25.25,0,0,1-.16.06h-3.87a.08.08,0,0,0-.09.09v5a.21.21,0,0,1-.21.21H460.5a.21.21,0,0,1-.21-.21V274.81a.2.2,0,0,1,.06-.15.21.21,0,0,1,.15-.07h8.3a.24.24,0,0,1,.22.22v1.75A.21.21,0,0,1,469,276.71Z"></path><path d="M479.05,276.71a.2.2,0,0,1-.15.06H473a.08.08,0,0,0-.09.09v2.79a.08.08,0,0,0,.09.09h3.87a.21.21,0,0,1,.16.07.2.2,0,0,1,.06.15v1.74a.23.23,0,0,1-.06.16.25.25,0,0,1-.16.06H473a.08.08,0,0,0-.09.09v2.92a.08.08,0,0,0,.09.09h5.91a.21.21,0,0,1,.21.21V287a.21.21,0,0,1-.21.21h-8.32a.21.21,0,0,1-.21-.21V274.81a.2.2,0,0,1,.06-.15.21.21,0,0,1,.15-.07h8.32a.21.21,0,0,1,.15.07.2.2,0,0,1,.06.15v1.75A.2.2,0,0,1,479.05,276.71Z"></path></g><g class="cls-1"><path d="M481.08,287.13A.18.18,0,0,1,481,287V274.81a.18.18,0,0,1,.07-.15.21.21,0,0,1,.15-.07h2.11a.21.21,0,0,1,.15.07.2.2,0,0,1,.06.15v5s0,.06,0,.06a.07.07,0,0,0,.07,0l4.16-5.17a.35.35,0,0,1,.27-.13h2.37q.15,0,.18.09a.16.16,0,0,1,0,.18l-4,5.13c0,.05,0,.09,0,.13l4.24,6.82a.49.49,0,0,1,0,.13q0,.12-.18.12H488.3a.25.25,0,0,1-.25-.14l-3.2-5.18a.05.05,0,0,0-.06,0s0,0-.07,0l-1.13,1.42a.21.21,0,0,0,0,.11V287a.21.21,0,0,1-.21.21h-2.11A.2.2,0,0,1,481.08,287.13Z"></path><path d="M501.13,274.66a.2.2,0,0,1,.06.15v1.76a.23.23,0,0,1-.06.16.2.2,0,0,1-.15.06h-3.23a.08.08,0,0,0-.09.09V287a.21.21,0,0,1-.21.21h-2.11a.21.21,0,0,1-.21-.21v-10.1a.08.08,0,0,0-.09-.09H491.9a.2.2,0,0,1-.15-.06.23.23,0,0,1-.06-.16v-1.76a.2.2,0,0,1,.06-.15.21.21,0,0,1,.15-.07H501A.21.21,0,0,1,501.13,274.66Z"></path></g><g class="cls-1"><path d="M448.36,360a.2.2,0,0,1-.15.06h-5.89a.08.08,0,0,0-.09.09V363a.08.08,0,0,0,.09.09h3.87a.2.2,0,0,1,.15.06.21.21,0,0,1,.07.16V365a.21.21,0,0,1-.07.16.2.2,0,0,1-.15.06h-3.87a.08.08,0,0,0-.09.09v5a.21.21,0,0,1-.21.21h-2.11a.2.2,0,0,1-.15-.06.18.18,0,0,1-.07-.15V358.14a.24.24,0,0,1,.22-.22h8.3a.18.18,0,0,1,.15.07.2.2,0,0,1,.06.15v1.74A.23.23,0,0,1,448.36,360Z"></path><path d="M451.76,370.14a4.09,4.09,0,0,1-1.66-1.61,4.65,4.65,0,0,1-.6-2.38V362.3a4.58,4.58,0,0,1,.6-2.36,4,4,0,0,1,1.66-1.59,5.7,5.7,0,0,1,5,0,4.06,4.06,0,0,1,1.67,1.59,4.67,4.67,0,0,1,.59,2.36v3.85a4.78,4.78,0,0,1-.59,2.39,4,4,0,0,1-1.67,1.61,5.2,5.2,0,0,1-2.49.57A5.1,5.1,0,0,1,451.76,370.14Zm4.08-2.23a2.29,2.29,0,0,0,.61-1.67v-4a2.33,2.33,0,0,0-.6-1.68,2.33,2.33,0,0,0-3.21,0,2.33,2.33,0,0,0-.6,1.68v4a2.33,2.33,0,0,0,.6,1.67,2.35,2.35,0,0,0,3.2,0Z"></path><path d="M467.59,370.36l-2.25-5a.12.12,0,0,0-.1-.07h-1.68a.08.08,0,0,0-.09.09v4.92a.2.2,0,0,1-.06.15.21.21,0,0,1-.16.06h-2.1a.2.2,0,0,1-.15-.06.18.18,0,0,1-.07-.15V358.14a.24.24,0,0,1,.22-.22h5.15a4.21,4.21,0,0,1,2,.47,3.32,3.32,0,0,1,1.35,1.33,4.05,4.05,0,0,1,.48,2,3.54,3.54,0,0,1-.61,2.1,3.28,3.28,0,0,1-1.71,1.23.09.09,0,0,0-.06.13l2.45,5.09a.21.21,0,0,1,0,.11c0,.09-.07.14-.2.14h-2.22A.26.26,0,0,1,467.59,370.36Zm-4.12-10.17v3.08a.08.08,0,0,0,.09.09h2.36a1.73,1.73,0,0,0,1.23-.45,1.53,1.53,0,0,0,.48-1.17,1.57,1.57,0,0,0-.48-1.18,1.69,1.69,0,0,0-1.23-.46h-2.36A.08.08,0,0,0,463.47,360.19Z"></path><path d="M479.46,364.06a3.05,3.05,0,0,1,1.71,2.93,3.09,3.09,0,0,1-1.19,2.64,5,5,0,0,1-3.12.89H472.2a.21.21,0,0,1-.21-.21V358.14a.2.2,0,0,1,.06-.15.18.18,0,0,1,.15-.07h4.52c2.84,0,4.27,1.15,4.27,3.46a2.66,2.66,0,0,1-1.53,2.57C479.38,364,479.38,364,479.46,364.06Zm-4.94-3.87V363a.08.08,0,0,0,.09.09h2.11a1.94,1.94,0,0,0,1.31-.4,1.31,1.31,0,0,0,.47-1.08,1.35,1.35,0,0,0-.47-1.1,1.94,1.94,0,0,0-1.31-.41h-2.11A.08.08,0,0,0,474.52,360.19Zm3.64,7.71a1.67,1.67,0,0,0,0-2.32,1.89,1.89,0,0,0-1.31-.42h-2.24a.08.08,0,0,0-.09.09v3a.08.08,0,0,0,.09.09h2.25A1.82,1.82,0,0,0,478.16,367.9Z"></path></g><g class="cls-1"><path d="M489.61,370.36l-2.25-5a.12.12,0,0,0-.11-.07h-1.67a.08.08,0,0,0-.09.09v4.92a.2.2,0,0,1-.06.15.25.25,0,0,1-.16.06h-2.1a.25.25,0,0,1-.16-.06.2.2,0,0,1-.06-.15V358.14A.2.2,0,0,1,483,358a.21.21,0,0,1,.16-.07h5.15a4.24,4.24,0,0,1,2,.47,3.32,3.32,0,0,1,1.35,1.33,4.05,4.05,0,0,1,.48,2,3.61,3.61,0,0,1-.61,2.1,3.28,3.28,0,0,1-1.71,1.23.09.09,0,0,0-.06.13l2.45,5.09a.37.37,0,0,1,0,.11c0,.09-.07.14-.2.14h-2.22A.25.25,0,0,1,489.61,370.36Zm-4.12-10.17v3.08a.08.08,0,0,0,.09.09h2.36a1.73,1.73,0,0,0,1.23-.45,1.53,1.53,0,0,0,.48-1.17,1.57,1.57,0,0,0-.48-1.18,1.69,1.69,0,0,0-1.23-.46h-2.36A.08.08,0,0,0,485.49,360.19Z"></path><path d="M496.14,370.13a4,4,0,0,1-1.64-1.52,4.35,4.35,0,0,1-.59-2.26v-8.21a.24.24,0,0,1,.22-.22h2.11a.19.19,0,0,1,.15.07.2.2,0,0,1,.06.15v8.22a2.13,2.13,0,1,0,4.25,0v-8.22a.2.2,0,0,1,.06-.15.19.19,0,0,1,.16-.07H503a.24.24,0,0,1,.22.22v8.21a4.35,4.35,0,0,1-.59,2.26,4,4,0,0,1-1.64,1.52,5.76,5.76,0,0,1-4.87,0Z"></path></g><g class="cls-1"><path d="M505.3,370.46a.18.18,0,0,1-.07-.15V358.14a.24.24,0,0,1,.22-.22h2.1a.2.2,0,0,1,.16.07.2.2,0,0,1,.06.15v5s0,.06,0,.06,0,0,.07,0l4.16-5.16a.32.32,0,0,1,.27-.13h2.37c.1,0,.16,0,.18.08a.19.19,0,0,1,0,.19l-4,5.13a.13.13,0,0,0,0,.13l4.25,6.82a.4.4,0,0,1,0,.13q0,.12-.18.12h-2.38a.26.26,0,0,1-.25-.14l-3.2-5.19a.07.07,0,0,0-.06,0,.11.11,0,0,0-.07,0l-1.13,1.43a.22.22,0,0,0,0,.1v3.59a.2.2,0,0,1-.06.15.23.23,0,0,1-.16.06h-2.1A.2.2,0,0,1,505.3,370.46Z"></path></g><g class="cls-1"><path d="M448.54,461.66a.2.2,0,0,1,.06.15v1.76a.23.23,0,0,1-.06.16.2.2,0,0,1-.15.06h-3.22a.08.08,0,0,0-.09.09V474a.21.21,0,0,1-.07.15.2.2,0,0,1-.15.06h-2.11a.21.21,0,0,1-.21-.21v-10.1a.08.08,0,0,0-.09-.09h-3.13a.21.21,0,0,1-.16-.06.23.23,0,0,1-.06-.16v-1.76a.2.2,0,0,1,.06-.15.22.22,0,0,1,.16-.07h9.07A.21.21,0,0,1,448.54,461.66Z"></path><path d="M450.29,474.13a.18.18,0,0,1-.07-.15V461.81a.18.18,0,0,1,.07-.15.21.21,0,0,1,.15-.07h2.1a.22.22,0,0,1,.16.07.2.2,0,0,1,.06.15V474a.2.2,0,0,1-.06.15.21.21,0,0,1-.16.06h-2.1A.2.2,0,0,1,450.29,474.13Z"></path><path d="M455,474.13A.2.2,0,0,1,455,474V461.81a.2.2,0,0,1,.06-.15.21.21,0,0,1,.15-.07h4.5a5.51,5.51,0,0,1,2.37.48,3.79,3.79,0,0,1,1.58,1.34,3.62,3.62,0,0,1,.55,2v5a3.64,3.64,0,0,1-.55,2,3.79,3.79,0,0,1-1.58,1.34,5.51,5.51,0,0,1-2.37.47h-4.5A.2.2,0,0,1,455,474.13Zm2.56-2.11h2.18a1.73,1.73,0,0,0,1.34-.56,2.14,2.14,0,0,0,.53-1.5v-4.14a2.12,2.12,0,0,0-.51-1.49,1.78,1.78,0,0,0-1.37-.56h-2.17c-.05,0-.08,0-.08.09v8.07C457.5,472,457.53,472,457.58,472Z"></path></g><g class="cls-1"><path d="M469.22,476.78a.23.23,0,0,1-.06-.16V460a.2.2,0,0,1,.06-.15.21.21,0,0,1,.15-.07h4.27a.21.21,0,0,1,.15.07.2.2,0,0,1,.06.15v1.75a.21.21,0,0,1-.21.21h-1.86a.08.08,0,0,0-.09.09v12.49a.08.08,0,0,0,.09.09h1.88a.23.23,0,0,1,.15.07.2.2,0,0,1,.06.15v1.76a.23.23,0,0,1-.06.16.22.22,0,0,1-.15.06h-4.29A.2.2,0,0,1,469.22,476.78Z"></path><path d="M483.87,461.66a.21.21,0,0,1,.15-.07h2.11a.21.21,0,0,1,.15.07.2.2,0,0,1,.06.15V474a.21.21,0,0,1-.21.21H484a.21.21,0,0,1-.21-.21v-5a.08.08,0,0,0-.09-.09h-4a.08.08,0,0,0-.09.09v5a.2.2,0,0,1-.06.15.25.25,0,0,1-.16.06h-2.1a.25.25,0,0,1-.16-.06.2.2,0,0,1-.06-.15V461.81a.2.2,0,0,1,.06-.15.26.26,0,0,1,.16-.07h2.1a.26.26,0,0,1,.16.07.2.2,0,0,1,.06.15v4.84a.08.08,0,0,0,.09.09h4a.08.08,0,0,0,.09-.09v-4.84A.2.2,0,0,1,483.87,461.66Z"></path></g><g class="cls-1"><path d="M492.54,476.78a.2.2,0,0,1-.15.06H488.1a.2.2,0,0,1-.15-.06.23.23,0,0,1-.06-.16v-1.76a.2.2,0,0,1,.06-.15.21.21,0,0,1,.15-.07H490a.08.08,0,0,0,.09-.09V462.06A.08.08,0,0,0,490,462H488.1a.21.21,0,0,1-.21-.21V460a.2.2,0,0,1,.06-.15.21.21,0,0,1,.15-.07h4.29a.21.21,0,0,1,.15.07.2.2,0,0,1,.06.15v16.61A.23.23,0,0,1,492.54,476.78Z"></path></g><g class="cls-1"><path class="cls-2" d="M59.59,491.71a.2.2,0,0,1-.15.06H53.53a.08.08,0,0,0-.09.09v2.79a.08.08,0,0,0,.09.09H57.4a.21.21,0,0,1,.16.07.2.2,0,0,1,.06.15v1.74a.23.23,0,0,1-.06.16.25.25,0,0,1-.16.06H53.53a.08.08,0,0,0-.09.09v2.92a.08.08,0,0,0,.09.09h5.91a.21.21,0,0,1,.21.21V502a.21.21,0,0,1-.21.21H51.12a.2.2,0,0,1-.15-.06.18.18,0,0,1-.07-.15V489.81a.18.18,0,0,1,.07-.15.21.21,0,0,1,.15-.07h8.32a.21.21,0,0,1,.15.07.2.2,0,0,1,.06.15v1.75A.2.2,0,0,1,59.59,491.71Z"></path><path class="cls-2" d="M68.72,489.66a.21.21,0,0,1,.15-.07H71a.26.26,0,0,1,.16.07.2.2,0,0,1,.06.15V502a.2.2,0,0,1-.06.15.25.25,0,0,1-.16.06h-2a.25.25,0,0,1-.25-.14L64,494.35s-.05-.05-.07-.05,0,0,0,.08l0,7.6a.21.21,0,0,1-.07.15.2.2,0,0,1-.15.06H61.63a.21.21,0,0,1-.21-.21V489.81a.2.2,0,0,1,.06-.15.21.21,0,0,1,.15-.07h2a.26.26,0,0,1,.25.15l4.64,7.67s0,0,.07,0,0,0,0-.08l0-7.56A.18.18,0,0,1,68.72,489.66Z"></path><path class="cls-2" d="M82,491.71a.2.2,0,0,1-.15.06h-5.9a.08.08,0,0,0-.09.09v2.79a.08.08,0,0,0,.09.09h3.87a.18.18,0,0,1,.15.07A.2.2,0,0,1,80,495v1.74a.23.23,0,0,1-.06.16.2.2,0,0,1-.15.06H75.91a.08.08,0,0,0-.09.09v2.92a.08.08,0,0,0,.09.09h5.9a.2.2,0,0,1,.15.06.21.21,0,0,1,.07.15V502a.21.21,0,0,1-.07.15.2.2,0,0,1-.15.06H73.49a.21.21,0,0,1-.21-.21V489.81a.2.2,0,0,1,.06-.15.21.21,0,0,1,.15-.07h8.32a.24.24,0,0,1,.22.22v1.75A.21.21,0,0,1,82,491.71Z"></path><path class="cls-2" d="M90.45,502l-2.25-5a.12.12,0,0,0-.11-.08H86.42a.08.08,0,0,0-.09.09V502a.2.2,0,0,1-.06.15.25.25,0,0,1-.16.06H84a.25.25,0,0,1-.16-.06.2.2,0,0,1-.06-.15V489.81a.2.2,0,0,1,.06-.15.26.26,0,0,1,.16-.07h5.14a4.25,4.25,0,0,1,2,.47,3.39,3.39,0,0,1,1.35,1.33,4.08,4.08,0,0,1,.48,2,3.55,3.55,0,0,1-.62,2.1,3.2,3.2,0,0,1-1.71,1.23.09.09,0,0,0-.05.13l2.45,5.09a.36.36,0,0,1,0,.11c0,.1-.06.14-.19.14H90.7A.25.25,0,0,1,90.45,502Zm-4.12-10.17v3.08a.08.08,0,0,0,.09.09h2.36a1.73,1.73,0,0,0,1.23-.45,1.53,1.53,0,0,0,.48-1.17,1.57,1.57,0,0,0-.48-1.18,1.73,1.73,0,0,0-1.23-.46H86.42A.08.08,0,0,0,86.33,491.86Z"></path><path class="cls-2" d="M96.82,501.78a4,4,0,0,1-1.64-1.56,4.46,4.46,0,0,1-.59-2.31v-4a4.52,4.52,0,0,1,.59-2.32A3.92,3.92,0,0,1,96.82,490a5.71,5.71,0,0,1,4.87,0,4.11,4.11,0,0,1,1.64,1.47,3.77,3.77,0,0,1,.58,2.06v.12a.23.23,0,0,1-.06.16.2.2,0,0,1-.15.06h-2.11a.2.2,0,0,1-.15-.06.23.23,0,0,1-.06-.16v-.05a1.88,1.88,0,0,0-.58-1.39,2.33,2.33,0,0,0-3.09,0,2.17,2.17,0,0,0-.58,1.58V498a2.09,2.09,0,0,0,.63,1.58,2.22,2.22,0,0,0,1.6.6,2.16,2.16,0,0,0,1.49-.49,1.74,1.74,0,0,0,.56-1.38v-.81a.08.08,0,0,0-.09-.09h-2a.21.21,0,0,1-.22-.22v-1.65a.21.21,0,0,1,.22-.22h4.39a.2.2,0,0,1,.15.06.25.25,0,0,1,.06.16v2.37a4.76,4.76,0,0,1-.57,2.38,3.91,3.91,0,0,1-1.63,1.54,5.41,5.41,0,0,1-2.44.53A5.24,5.24,0,0,1,96.82,501.78Z"></path><path class="cls-2" d="M105.92,502.13a.2.2,0,0,1-.06-.15V489.81a.2.2,0,0,1,.06-.15.21.21,0,0,1,.15-.07h2.11a.21.21,0,0,1,.15.07.18.18,0,0,1,.07.15V502a.18.18,0,0,1-.07.15.2.2,0,0,1-.15.06h-2.11A.2.2,0,0,1,105.92,502.13Z"></path></g><g class="cls-1"><path class="cls-2" d="M113.67,504.78a.23.23,0,0,1-.06-.16V488a.2.2,0,0,1,.06-.15.21.21,0,0,1,.15-.07h4.27a.21.21,0,0,1,.15.07.18.18,0,0,1,.07.15v1.75a.18.18,0,0,1-.07.15.2.2,0,0,1-.15.06h-1.85a.08.08,0,0,0-.09.09v12.49a.08.08,0,0,0,.09.09h1.87a.21.21,0,0,1,.15.07.2.2,0,0,1,.06.15v1.76a.23.23,0,0,1-.06.16.2.2,0,0,1-.15.06h-4.29A.2.2,0,0,1,113.67,504.78Z"></path><path class="cls-2" d="M121.63,502.13a.18.18,0,0,1-.07-.15V489.81a.18.18,0,0,1,.07-.15.21.21,0,0,1,.15-.07h2.11a.21.21,0,0,1,.15.07.2.2,0,0,1,.06.15v5s0,.06,0,.06a.07.07,0,0,0,.07,0l4.16-5.17a.35.35,0,0,1,.27-.13H131q.15,0,.18.09a.16.16,0,0,1,0,.18l-4,5.13c0,.05,0,.09,0,.13l4.24,6.82a.49.49,0,0,1,0,.13q0,.12-.18.12h-2.38a.25.25,0,0,1-.25-.14l-3.2-5.18a.05.05,0,0,0-.06,0s0,0-.07,0l-1.13,1.42a.21.21,0,0,0,0,.11V502a.21.21,0,0,1-.21.21h-2.11A.2.2,0,0,1,121.63,502.13Z"></path></g><g class="cls-1"><path class="cls-2" d="M134.87,502l-3.18-12.18,0-.07c0-.11.06-.17.2-.17h2.23a.22.22,0,0,1,.23.18L136,497.1s0,.07.06.07,0,0,.05-.07l1.66-7.31a.23.23,0,0,1,.23-.2h2.18a.24.24,0,0,1,.25.18l1.8,7.33s0,.06,0,.06.05,0,.06-.06l1.65-7.31a.24.24,0,0,1,.24-.2h2.12c.17,0,.24.08.2.24l-3,12.18a.24.24,0,0,1-.25.18h-2.15A.22.22,0,0,1,141,502l-1.84-7.79c0-.05,0-.07,0-.07s0,0-.05.07L137.36,502a.22.22,0,0,1-.24.19h-2A.24.24,0,0,1,134.87,502Z"></path><path class="cls-2" d="M154.88,489.66a.21.21,0,0,1,.15-.07h2.11a.21.21,0,0,1,.15.07.2.2,0,0,1,.06.15V502a.21.21,0,0,1-.21.21H155a.21.21,0,0,1-.21-.21v-5a.08.08,0,0,0-.09-.09h-4a.08.08,0,0,0-.09.09v5a.2.2,0,0,1-.06.15.25.25,0,0,1-.16.06h-2.1a.25.25,0,0,1-.16-.06.2.2,0,0,1-.06-.15V489.81a.2.2,0,0,1,.06-.15.26.26,0,0,1,.16-.07h2.1a.26.26,0,0,1,.16.07.2.2,0,0,1,.06.15v4.84a.08.08,0,0,0,.09.09h4a.08.08,0,0,0,.09-.09v-4.84A.2.2,0,0,1,154.88,489.66Z"></path></g><g class="cls-1"><path class="cls-2" d="M164.42,504.78a.2.2,0,0,1-.15.06H160a.25.25,0,0,1-.16-.06.23.23,0,0,1-.06-.16v-1.76a.2.2,0,0,1,.06-.15.26.26,0,0,1,.16-.07h1.87a.08.08,0,0,0,.09-.09V490.06a.08.08,0,0,0-.09-.09H160a.25.25,0,0,1-.16-.06.2.2,0,0,1-.06-.15V488a.2.2,0,0,1,.06-.15.26.26,0,0,1,.16-.07h4.28a.21.21,0,0,1,.15.07.18.18,0,0,1,.07.15v16.61A.2.2,0,0,1,164.42,504.78Z"></path><path class="cls-2" d="M169.28,496.14a.23.23,0,0,1-.06-.16v-1.74a.21.21,0,0,1,.22-.22h7.27a.2.2,0,0,1,.15.06.25.25,0,0,1,.06.16V496a.23.23,0,0,1-.06.16.2.2,0,0,1-.15.06h-7.27A.25.25,0,0,1,169.28,496.14Zm0,3.45a.2.2,0,0,1-.06-.15v-1.75a.2.2,0,0,1,.06-.15.25.25,0,0,1,.16-.06h7.27a.21.21,0,0,1,.21.21v1.75a.2.2,0,0,1-.06.15.18.18,0,0,1-.15.07h-7.27A.21.21,0,0,1,169.28,499.59Z"></path><path class="cls-2" d="M190.83,491.71a.2.2,0,0,1-.15.06h-5.91a.08.08,0,0,0-.09.09v2.79a.08.08,0,0,0,.09.09h3.87a.21.21,0,0,1,.16.07.2.2,0,0,1,.06.15v1.74a.23.23,0,0,1-.06.16.25.25,0,0,1-.16.06h-3.87a.08.08,0,0,0-.09.09v2.92a.08.08,0,0,0,.09.09h5.91a.21.21,0,0,1,.21.21V502a.21.21,0,0,1-.21.21h-8.32a.2.2,0,0,1-.15-.06.21.21,0,0,1-.07-.15V489.81a.24.24,0,0,1,.22-.22h8.32a.21.21,0,0,1,.15.07.2.2,0,0,1,.06.15v1.75A.2.2,0,0,1,190.83,491.71Z"></path><path class="cls-2" d="M201.32,491.71a.2.2,0,0,1-.15.06h-5.89a.08.08,0,0,0-.09.09v2.79a.08.08,0,0,0,.09.09h3.87a.2.2,0,0,1,.16.07.2.2,0,0,1,.06.15v1.74a.21.21,0,0,1-.22.22h-3.87a.08.08,0,0,0-.09.09v5a.21.21,0,0,1-.21.21h-2.11a.21.21,0,0,1-.21-.21V489.81a.2.2,0,0,1,.06-.15.21.21,0,0,1,.15-.07h8.3a.21.21,0,0,1,.15.07.18.18,0,0,1,.07.15v1.75A.18.18,0,0,1,201.32,491.71Z"></path><path class="cls-2" d="M211.4,491.71a.2.2,0,0,1-.15.06h-5.89a.08.08,0,0,0-.09.09v2.79a.08.08,0,0,0,.09.09h3.87a.2.2,0,0,1,.16.07.2.2,0,0,1,.06.15v1.74a.21.21,0,0,1-.22.22h-3.87a.08.08,0,0,0-.09.09v5a.21.21,0,0,1-.21.21H203a.21.21,0,0,1-.21-.21V489.81a.2.2,0,0,1,.06-.15.21.21,0,0,1,.15-.07h8.3a.21.21,0,0,1,.15.07.18.18,0,0,1,.07.15v1.75A.18.18,0,0,1,211.4,491.71Z"></path><path class="cls-2" d="M221.5,491.71a.2.2,0,0,1-.15.06h-5.91a.08.08,0,0,0-.09.09v2.79a.08.08,0,0,0,.09.09h3.87a.2.2,0,0,1,.16.07.2.2,0,0,1,.06.15v1.74a.21.21,0,0,1-.22.22h-3.87a.08.08,0,0,0-.09.09v2.92a.08.08,0,0,0,.09.09h5.91a.21.21,0,0,1,.21.21V502a.21.21,0,0,1-.21.21H213a.21.21,0,0,1-.21-.21V489.81a.2.2,0,0,1,.06-.15.21.21,0,0,1,.15-.07h8.32a.21.21,0,0,1,.15.07.2.2,0,0,1,.06.15v1.75A.2.2,0,0,1,221.5,491.71Z"></path></g><g class="cls-1"><path class="cls-2" d="M223.54,502.13a.21.21,0,0,1-.07-.15V489.81a.24.24,0,0,1,.22-.22h2.11a.21.21,0,0,1,.15.07.2.2,0,0,1,.06.15v5s0,.06,0,.06a.07.07,0,0,0,.07,0l4.16-5.17a.35.35,0,0,1,.27-.13h2.37q.15,0,.18.09a.16.16,0,0,1,0,.18l-4,5.13c0,.05,0,.09,0,.13l4.25,6.82a.87.87,0,0,1,0,.13q0,.12-.18.12h-2.38a.25.25,0,0,1-.25-.14l-3.2-5.18a.05.05,0,0,0-.06,0s0,0-.07,0l-1.13,1.42a.21.21,0,0,0,0,.11V502a.21.21,0,0,1-.21.21h-2.11A.2.2,0,0,1,223.54,502.13Z"></path><path class="cls-2" d="M243.59,489.66a.2.2,0,0,1,.06.15v1.76a.23.23,0,0,1-.06.16.2.2,0,0,1-.15.06h-3.23a.08.08,0,0,0-.09.09V502a.21.21,0,0,1-.21.21H237.8a.21.21,0,0,1-.21-.21v-10.1a.08.08,0,0,0-.09-.09h-3.13a.21.21,0,0,1-.16-.06.23.23,0,0,1-.06-.16v-1.76a.2.2,0,0,1,.06-.15.22.22,0,0,1,.16-.07h9.07A.21.21,0,0,1,243.59,489.66Z"></path></g><g class="cls-1"><path class="cls-2" d="M248.77,504.78a.2.2,0,0,1-.07-.16V488a.18.18,0,0,1,.07-.15.21.21,0,0,1,.15-.07h4.26a.26.26,0,0,1,.16.07.2.2,0,0,1,.06.15v1.75a.2.2,0,0,1-.06.15.25.25,0,0,1-.16.06h-1.85a.08.08,0,0,0-.09.09v12.49a.08.08,0,0,0,.09.09h1.87a.26.26,0,0,1,.16.07.2.2,0,0,1,.06.15v1.76a.23.23,0,0,1-.06.16.25.25,0,0,1-.16.06h-4.28A.2.2,0,0,1,248.77,504.78Z"></path><path class="cls-2" d="M256.72,502.13a.2.2,0,0,1-.06-.15V489.81a.2.2,0,0,1,.06-.15.21.21,0,0,1,.15-.07H259a.24.24,0,0,1,.22.22v5s0,.06,0,.06a.06.06,0,0,0,.07,0l4.16-5.17a.35.35,0,0,1,.27-.13h2.38a.18.18,0,0,1,.18.09.19.19,0,0,1,0,.18l-4,5.13a.11.11,0,0,0,0,.13l4.25,6.82a.87.87,0,0,1,0,.13q0,.12-.18.12H264a.24.24,0,0,1-.25-.14l-3.21-5.18a.05.05,0,0,0-.05,0,.08.08,0,0,0-.07,0l-1.14,1.42a.3.3,0,0,0,0,.11V502a.21.21,0,0,1-.07.15.2.2,0,0,1-.15.06h-2.11A.2.2,0,0,1,256.72,502.13Z"></path></g><g class="cls-1"><path class="cls-2" d="M270,502l-3.19-12.18,0-.07c0-.11.07-.17.2-.17h2.23a.24.24,0,0,1,.24.18l1.71,7.33s0,.07.05.07,0,0,.05-.07l1.66-7.31c0-.13.11-.2.23-.2h2.18a.23.23,0,0,1,.25.18l1.8,7.33s0,.06.06.06,0,0,.05-.06l1.66-7.31a.23.23,0,0,1,.23-.2h2.13c.16,0,.23.08.19.24L278.73,502a.23.23,0,0,1-.25.18h-2.14a.24.24,0,0,1-.24-.18l-1.83-7.79c0-.05,0-.07-.06-.07s0,0,0,.07L272.45,502a.21.21,0,0,1-.23.19h-2A.23.23,0,0,1,270,502Z"></path><path class="cls-2" d="M288.93,504.78a.2.2,0,0,1-.15.06h-4.29a.2.2,0,0,1-.15-.06.23.23,0,0,1-.06-.16v-1.76a.2.2,0,0,1,.06-.15.21.21,0,0,1,.15-.07h1.87a.08.08,0,0,0,.09-.09V490.06a.08.08,0,0,0-.09-.09h-1.87a.21.21,0,0,1-.21-.21V488a.2.2,0,0,1,.06-.15.21.21,0,0,1,.15-.07h4.29a.21.21,0,0,1,.15.07.2.2,0,0,1,.06.15v16.61A.23.23,0,0,1,288.93,504.78Z"></path></g><g class="cls-1"><path class="cls-2" d="M295.65,495.06a.23.23,0,0,1-.06-.16l0-1.62a.08.08,0,0,0,0-.07.07.07,0,0,0-.07,0l-1.51.88a.24.24,0,0,1-.11,0,.21.21,0,0,1-.2-.13l-.5-.93a.24.24,0,0,1,0-.13.19.19,0,0,1,.13-.18l1.51-.81c.06,0,.06-.07,0-.11l-1.51-.77a.22.22,0,0,1-.12-.13.2.2,0,0,1,0-.18l.5-.93a.27.27,0,0,1,.14-.12.18.18,0,0,1,.17,0l1.51.86h.07a.08.08,0,0,0,0-.07l0-1.59a.21.21,0,0,1,.21-.21h1a.2.2,0,0,1,.15.06.18.18,0,0,1,.07.15l0,1.59a.08.08,0,0,0,0,.07h.08l1.51-.86a.21.21,0,0,1,.11,0,.22.22,0,0,1,.2.13l.5.93a.38.38,0,0,1,0,.13c0,.07-.05.12-.13.16l-1.53.79c-.06,0-.06.07,0,.11l1.53.81a.2.2,0,0,1,.12.13.23.23,0,0,1,0,.18l-.5.93a.31.31,0,0,1-.14.12.18.18,0,0,1-.17,0l-1.51-.88a.08.08,0,0,0-.08,0,.08.08,0,0,0,0,.07l0,1.62a.2.2,0,0,1-.07.16.2.2,0,0,1-.15.06h-1A.2.2,0,0,1,295.65,495.06Z"></path><path class="cls-2" d="M313.45,489.66a.18.18,0,0,1,.07.15v1.76a.2.2,0,0,1-.07.16.2.2,0,0,1-.15.06h-3.22a.08.08,0,0,0-.09.09V502a.2.2,0,0,1-.06.15.25.25,0,0,1-.16.06h-2.1a.25.25,0,0,1-.16-.06.2.2,0,0,1-.06-.15v-10.1a.08.08,0,0,0-.09-.09h-3.13a.2.2,0,0,1-.15-.06.2.2,0,0,1-.07-.16v-1.76a.18.18,0,0,1,.07-.15.21.21,0,0,1,.15-.07h9.07A.21.21,0,0,1,313.45,489.66Z"></path><path class="cls-2" d="M315.2,502.13a.2.2,0,0,1-.06-.15V489.81a.2.2,0,0,1,.06-.15.21.21,0,0,1,.15-.07h2.11a.21.21,0,0,1,.15.07.2.2,0,0,1,.06.15V502a.21.21,0,0,1-.21.21h-2.11A.2.2,0,0,1,315.2,502.13Z"></path><path class="cls-2" d="M319.93,502.13a.2.2,0,0,1-.06-.15V489.81a.2.2,0,0,1,.06-.15.24.24,0,0,1,.16-.07h4.5a5.46,5.46,0,0,1,2.36.48,3.73,3.73,0,0,1,1.58,1.34,3.63,3.63,0,0,1,.56,2v5a3.65,3.65,0,0,1-.56,2,3.73,3.73,0,0,1-1.58,1.34,5.46,5.46,0,0,1-2.36.47h-4.5A.23.23,0,0,1,319.93,502.13ZM322.5,500h2.18a1.76,1.76,0,0,0,1.34-.56,2.19,2.19,0,0,0,.53-1.5v-4.14a2.12,2.12,0,0,0-.51-1.49,1.82,1.82,0,0,0-1.38-.56H322.5a.08.08,0,0,0-.09.09v8.07A.08.08,0,0,0,322.5,500Z"></path></g><g class="cls-1"><path class="cls-2" d="M334.13,504.78a.23.23,0,0,1-.06-.16V488a.2.2,0,0,1,.06-.15.22.22,0,0,1,.16-.07h4.26a.21.21,0,0,1,.15.07.18.18,0,0,1,.07.15v1.75a.18.18,0,0,1-.07.15.2.2,0,0,1-.15.06H336.7a.08.08,0,0,0-.09.09v12.49a.08.08,0,0,0,.09.09h1.87a.24.24,0,0,1,.22.22v1.76a.24.24,0,0,1-.07.16.2.2,0,0,1-.15.06h-4.28A.21.21,0,0,1,334.13,504.78Z"></path><path class="cls-2" d="M348.78,489.66a.26.26,0,0,1,.16-.07H351a.26.26,0,0,1,.16.07.2.2,0,0,1,.06.15V502a.2.2,0,0,1-.06.15.25.25,0,0,1-.16.06h-2.1a.25.25,0,0,1-.16-.06.2.2,0,0,1-.06-.15v-5a.08.08,0,0,0-.09-.09h-4a.08.08,0,0,0-.09.09v5a.21.21,0,0,1-.21.21h-2.11A.21.21,0,0,1,342,502V489.81a.2.2,0,0,1,.06-.15.21.21,0,0,1,.15-.07h2.11a.21.21,0,0,1,.15.07.2.2,0,0,1,.06.15v4.84a.08.08,0,0,0,.09.09h4a.08.08,0,0,0,.09-.09v-4.84A.2.2,0,0,1,348.78,489.66Z"></path></g><g class="cls-1"><path class="cls-2" d="M357.45,504.78a.23.23,0,0,1-.16.06H353a.2.2,0,0,1-.15-.06.24.24,0,0,1-.07-.16v-1.76a.24.24,0,0,1,.22-.22h1.87a.08.08,0,0,0,.09-.09V490.06a.08.08,0,0,0-.09-.09H353a.2.2,0,0,1-.15-.06.21.21,0,0,1-.07-.15V488a.24.24,0,0,1,.22-.22h4.28a.24.24,0,0,1,.16.07.2.2,0,0,1,.06.15v16.61A.23.23,0,0,1,357.45,504.78Z"></path></g><polygon class="cls-3" points="257.6 428 257.6 272.2 203.5 272.2 172.6 272.2 131.6 272.2 118.5 272.2 42.3 272.2 42.3 404.2 131.6 404.2 131.6 332.2 172.6 332.2 172.6 428 257.6 428"></polygon><polygon class="cls-4" points="257.6 185.2 257.6 271 328.6 271 328.6 185.2 257.6 185.2"></polygon><line class="cls-5" x1="10.6" y1="271" x2="396.3" y2="271"></line><polyline class="cls-6" points="42.3 405.2 131.6 405.2 131.6 332.2 171.6 332.2 171.6 428 257.6 428 257.6 185.2 328.6 185.2 328.6 370.5 396.3 370.5"></polyline><path class="cls-7" d="M332.6,129.4s-145.2,8.8-214,127.8m277.7-78.5s3.8,66.5-49.7,66.5m8.4-11.1-9.5,9.8a1.75,1.75,0,0,0,0,2.5l9.5,9.7M323.1,118.2l9.5,9.8a1.75,1.75,0,0,1,0,2.5l-9.5,9.7"></path><path class="cls-8" d="M42.3,467.2v-288m8.2,7.7-7.3-7.3a1.27,1.27,0,0,0-1.8,0l-7.3,7.3M50.3,467.2H395.8m-7.7,8.2,7.3-7.3a1.27,1.27,0,0,0,0-1.8l-7.3-7.3"></path><path class="cls-9" d="M380.8,17.5a5.23,5.23,0,0,1,5.2-5.2h20.7a5.23,5.23,0,0,1,5.2,5.2V28.8m-13.3.9h21.9a12.93,12.93,0,0,1,12.9,12.9V150.9a12.93,12.93,0,0,1-12.9,12.9H372.3a12.93,12.93,0,0,1-12.9-12.9V42.7a12.93,12.93,0,0,1,12.9-12.9h8.6m4.8,25H407M396.3,44.2V65.5M385.7,139H407"></path></svg> 